<?xml version="1.0" encoding="UTF-8"?>
<svg width="99px" height="99px" viewBox="0 0 99 99" version="1.1" xmlns="http://www.w3.org/2000/svg" xmlns:xlink="http://www.w3.org/1999/xlink">
    <!-- Generator: Sketch 63.1 (92452) - https://sketch.com -->
    <title>BACKGROUND</title>
    <desc>Created with Sketch.</desc>
    <g id="Page-1" stroke="none" stroke-width="1" fill="none" fill-rule="evenodd">
        <g id="BACKGROUND" fill-rule="nonzero">
            <circle id="Oval" fill="#FC404D" cx="48.9795918" cy="48.9795918" r="48.9795918"></circle>
            <path d="M79.1428571,10.4081633 L61.5102041,32.9795918 L46.4489796,52.2653061 L18.8367347,87.5714286 C32.5808869,98.8278951 51.3427044,101.759656 67.8657157,95.2327993 C84.388727,88.7059429 96.0821855,73.743856 98.4234352,56.1333958 C100.764685,38.5229356 93.3866264,21.0253566 79.1428571,10.4081633 Z" id="Path" fill="#D11C36"></path>
            <g id="Spreads" transform="translate(20.000000, 20.000000)">
                <g id="Group">
                    <path d="M48.4645,8.98976667 C42.944,3.46926667 35.7073667,0.712066667 28.4707333,0.712066667 C21.2300333,0.712066667 13.9995,3.46926667 8.47696667,8.98976667 C-2.5681,20.0368667 -2.5681,37.9322333 8.47696667,48.9773 C13.9995,54.4978 21.2341,57.2590667 28.4707333,57.2590667 C35.7073667,57.2590667 42.944,54.4978 48.4645,48.9773 C59.5075333,37.9322333 59.5116,20.0368667 48.4645,8.98976667" id="Path" fill="#FEB3B8"></path>
                    <path d="M28.4727667,4.5205 C41.9578333,4.5205 52.9276667,15.4964333 52.9276667,28.9835333 C52.9276667,42.4665667 41.9558,53.4384333 28.4727667,53.4384333 C21.9335667,53.4384333 15.7949333,50.8988 11.1731667,46.2790667 C6.55546667,41.6573 4.0138,35.5166333 4.0138,28.9815 C4.01583333,15.4964333 14.9856667,4.5205 28.4727667,4.5205 M28.4727667,0.705966667 C12.8506667,0.705966667 0.199262751,13.3675333 0.199262751,28.9835333 C0.191133333,44.6036 12.8547333,57.255 28.4727667,57.255 C44.0948667,57.255 56.7442333,44.6015667 56.7442333,28.9835333 C56.7442333,13.3614333 44.0887667,0.705966667 28.4727667,0.705966667" id="Shape" fill="#F0EBE3"></path>
                    <path d="M17.8880011,39.2720033 C22.4800019,39.2720033 24.7760023,34.9040026 24.7760023,29.1360017 C24.7760023,23.3820007 22.4800019,19 17.8880011,19 C13.2960004,19 11,23.3820007 11,29.1360017 C11,34.9040026 13.2960004,39.2720033 17.8880011,39.2720033 Z M17.8880011,35.7300027 C15.7740008,35.7300027 14.8640006,33.1260023 14.8640006,29.1360017 C14.8640006,25.160001 15.7740008,22.5560006 17.8880011,22.5560006 C20.0020015,22.5560006 20.9120016,25.160001 20.9120016,29.1360017 C20.9120016,33.1260023 20.0020015,35.7300027 17.8880011,35.7300027 Z M39.8880011,39.2720033 C44.4800019,39.2720033 46.7760023,34.9040026 46.7760023,29.1360017 C46.7760023,23.3820007 44.4800019,19 39.8880011,19 C35.2960004,19 33,23.3820007 33,29.1360017 C33,34.9040026 35.2960004,39.2720033 39.8880011,39.2720033 Z M39.8880011,35.7300027 C37.7740008,35.7300027 36.8640006,33.1260023 36.8640006,29.1360017 C36.8640006,25.160001 37.7740008,22.5560006 39.8880011,22.5560006 C42.0020015,22.5560006 42.9120016,25.160001 42.9120016,29.1360017 C42.9120016,33.1260023 42.0020015,35.7300027 39.8880011,35.7300027 Z M28.3565004,39.2720033 C29.7285007,39.2720033 30.7365008,38.2640032 30.7365008,36.9480029 C30.7365008,35.6320027 29.7285007,34.6240026 28.3565004,34.6240026 C26.9985002,34.6240026 25.9905,35.6320027 25.9905,36.9480029 C25.9905,38.2640032 26.9985002,39.2720033 28.3565004,39.2720033 Z" id="0.0" fill="#2F2C2B"></path>
                </g>
            </g>
        </g>
    </g>
</svg>