<svg version="1.2" baseProfile="tiny-ps" xmlns="http://www.w3.org/2000/svg" viewBox="0 0 99 99" width="99" height="99">
	<title>axi_icons_award_winning_service-1-svg</title>
	<style>
		tspan { white-space:pre }
		.shp0 { fill: #fc404d } 
		.shp1 { fill: #d11c36 } 
		.shp2 { fill: #f0ebe3 } 
		.shp3 { fill: #282424 } 
		.shp4 { fill: #feb3b8 } 
	</style>
	<g id="Welcome">
		<g id="INTRODUCING-BROKERS-DESKTOP">
			<g id="BENEFITS-FOR-YOU">
				<g id="STEP-3">
					<g id="AXI_ICONS_AWARD_WINNING_SERVICE">
						<g id="BACKGROUND">
							<path id="Oval" class="shp0" d="M49.5 99C22.13 99 0 76.87 0 49.5C0 22.13 22.13 0 49.5 0C76.87 0 99 22.13 99 49.5C99 76.87 76.87 99 49.5 99Z" />
							<path id="Path" class="shp1" d="M79.99 10.52L62.16 33.33L46.93 52.82L19.04 88.5C27.44 95.07 38.01 99 49.5 99C76.84 99 99 76.84 99 49.5C99 33.67 91.56 19.58 79.99 10.52Z" />
						</g>
						<g id="CONTENT">
							<g id="Group">
								<path id="Path" class="shp2" d="M37.92 20.71L41.14 22.47C41.26 22.54 41.26 22.7 41.14 22.77L37.92 24.53C37.72 24.64 37.55 24.8 37.44 25L35.68 28.23C35.62 28.34 35.45 28.34 35.39 28.23L33.62 25C33.51 24.8 33.35 24.64 33.15 24.53L29.93 22.77C29.81 22.7 29.81 22.54 29.93 22.47L33.15 20.71C33.35 20.6 33.51 20.44 33.62 20.24L35.39 17.02C35.45 16.9 35.62 16.9 35.68 17.02L37.44 20.24C37.55 20.44 37.72 20.6 37.92 20.71Z" />
								<path id="Path" class="shp3" d="M26.53 30.83L29.75 32.59C29.87 32.66 29.87 32.83 29.75 32.89L26.53 34.65C26.33 34.76 26.17 34.93 26.06 35.13L24.3 38.35C24.23 38.46 24.06 38.46 24 38.35L22.24 35.13C22.13 34.93 21.96 34.76 21.76 34.65L18.54 32.89C18.43 32.83 18.43 32.66 18.54 32.59L21.76 30.83C21.96 30.72 22.13 30.56 22.24 30.36L24 27.14C24.06 27.02 24.23 27.02 24.3 27.14L26.06 30.36C26.17 30.56 26.33 30.72 26.53 30.83Z" />
							</g>
							<g id="Group">
								<path id="Path" class="shp3" d="M35.87 76.58L34.02 69.72C33.99 69.59 33.87 69.5 33.74 69.5L26.63 69.36C26.21 69.35 25.97 68.86 26.23 68.53L38.91 52.3C39.01 52.17 39.2 52.15 39.33 52.25L49.4 60.12C49.53 60.22 49.55 60.41 49.45 60.54L36.77 76.76C36.51 77.1 35.98 76.99 35.87 76.58Z" />
								<path id="Path" class="shp3" d="M63.22 76.52L65.07 69.66C65.1 69.53 65.22 69.44 65.35 69.44L72.46 69.3C72.88 69.29 73.12 68.8 72.85 68.47L60.17 52.24C60.07 52.12 59.89 52.09 59.76 52.19L49.69 60.06C49.56 60.16 49.54 60.35 49.64 60.48L62.32 76.7C62.58 77.04 63.11 76.93 63.22 76.52Z" />
								<path id="Path" class="shp4" d="M68.36 44.24C68.36 46.16 66.04 47.68 65.48 49.41C64.9 51.2 65.86 53.79 64.77 55.29C63.68 56.79 60.91 56.68 59.4 57.77C57.91 58.86 57.17 61.53 55.38 62.11C53.65 62.67 51.49 60.96 49.57 60.96C47.66 60.96 45.5 62.67 43.77 62.11C41.98 61.53 41.24 58.86 39.75 57.77C38.24 56.68 35.47 56.79 34.38 55.28C33.29 53.79 34.25 51.2 33.67 49.41C33.11 47.68 30.79 46.16 30.79 44.24C30.79 42.33 33.11 40.8 33.67 39.07C34.25 37.28 33.29 34.69 34.38 33.2C35.47 31.69 38.24 31.81 39.75 30.71C41.24 29.63 41.98 26.96 43.77 26.37C45.5 25.81 47.66 27.52 49.57 27.52C51.49 27.52 53.65 25.81 55.38 26.37C57.17 26.96 57.91 29.63 59.4 30.71C60.91 31.81 63.68 31.7 64.77 33.2C65.86 34.69 64.9 37.28 65.48 39.07C66.04 40.8 68.36 42.33 68.36 44.24Z" />
								<path id="Oval" class="shp2" d="M49.57 56.53C42.78 56.53 37.29 51.04 37.29 44.24C37.29 37.45 42.78 31.95 49.57 31.95C56.37 31.95 61.86 37.45 61.86 44.24C61.86 51.04 56.37 56.53 49.57 56.53Z" />
							</g>
						</g>
					</g>
				</g>
			</g>
		</g>
	</g>
</svg>