<?xml version="1.0" encoding="UTF-8"?>
<svg width="26px" height="26px" viewBox="0 0 26 26" version="1.1" xmlns="http://www.w3.org/2000/svg" xmlns:xlink="http://www.w3.org/1999/xlink">
    <!-- Generator: Sketch 63.1 (92452) - https://sketch.com -->
    <title>Icons-27</title>
    <desc>Created with Sketch.</desc>
    <g id="Page-1" stroke="none" stroke-width="1" fill="none" fill-rule="evenodd">
        <g id="Icons-27" transform="translate(-11.000000, -11.000000)" fill-rule="nonzero">
            <g id="Group" transform="translate(11.000000, 11.000000)">
                <g transform="translate(5.000000, 0.000000)">
                    <path d="M2.626,21.606 C1.954,21.606 1.409,21.068 1.409,20.407 L1.409,2.342 C1.409,1.681 1.954,1.143 2.626,1.143 L18.046,1.143 C18.718,1.143 19.263,1.681 19.263,2.342 L19.263,20.407 C19.263,21.068 18.718,21.606 18.046,21.606 L2.626,21.606 Z" id="Path" fill="#FC404D"></path>
                    <path d="M18.046,1.893 C18.304,1.893 18.513,2.094 18.513,2.342 L18.513,20.407 C18.513,20.655 18.304,20.856 18.046,20.856 L2.626,20.856 C2.368,20.856 2.159,20.655 2.159,20.407 L2.159,2.342 C2.159,2.094 2.368,1.893 2.626,1.893 L18.046,1.893 M18.046,0.393 L2.626,0.393 C1.541,0.393 0.659,1.267 0.659,2.342 L0.659,20.407 C0.659,21.482 1.541,22.356 2.626,22.356 L18.046,22.356 C19.131,22.356 20.013,21.482 20.013,20.407 L20.013,2.342 C20.013,1.267 19.131,0.393 18.046,0.393 L18.046,0.393 Z" id="Shape" fill="#F0EBE3"></path>
                </g>
                <g transform="translate(0.000000, 6.000000)">
                    <path d="M2.737,18.356 C2.048,18.356 1.487,17.795 1.487,17.106 L1.487,2.231 C1.487,1.542 2.048,0.981 2.737,0.981 L11.362,0.981 C12.051,0.981 12.612,1.542 12.612,2.231 L12.612,17.106 C12.612,17.795 12.051,18.356 11.362,18.356 L2.737,18.356 Z" id="Path" fill="#FEB3B8"></path>
                    <path d="M11.362,1.731 C11.637,1.731 11.862,1.955 11.862,2.231 L11.862,17.106 C11.862,17.382 11.637,17.606 11.362,17.606 L2.737,17.606 C2.46,17.606 2.237,17.382 2.237,17.106 L2.237,2.231 C2.237,1.955 2.46,1.731 2.737,1.731 L11.362,1.731 M11.362,0.231 L2.737,0.231 C1.633,0.231 0.737,1.128 0.737,2.231 L0.737,17.106 C0.737,18.209 1.633,19.106 2.737,19.106 L11.362,19.106 C12.465,19.106 13.362,18.209 13.362,17.106 L13.362,2.231 C13.362,1.129 12.465,0.231 11.362,0.231 L11.362,0.231 Z" id="Shape" fill="#F0EBE3"></path>
                </g>
                <g transform="translate(3.000000, 7.000000)" id="Path">
                    <path d="M6.862,0.731 L6.862,1.981 C6.862,2.257 6.637,2.481 6.362,2.481 L1.737,2.481 C1.46,2.481 1.237,2.257 1.237,1.981 L1.237,0.731" fill="#FEB3B8"></path>
                    <path d="M6.362,3.231 L1.737,3.231 C1.048,3.231 0.487,2.67 0.487,1.981 L0.487,0.731 L1.987,0.731 L1.987,1.731 L6.112,1.731 L6.112,0.731 L7.612,0.731 L7.612,1.981 C7.612,2.671 7.052,3.231 6.362,3.231 Z" fill="#2F2C2B"></path>
                </g>
                <circle id="Oval" fill="#2F2C2B" cx="15.336" cy="18.731" r="1.083"></circle>
            </g>
        </g>
    </g>
</svg>