<?xml version="1.0" encoding="UTF-8"?>
<svg width="90px" height="90px" viewBox="0 0 90 90" version="1.1" xmlns="http://www.w3.org/2000/svg" xmlns:xlink="http://www.w3.org/1999/xlink">
    <!-- Generator: Sketch 63.1 (92452) - https://sketch.com -->
    <title>N1</title>
    <desc>Created with Sketch.</desc>
    <defs>
        <rect id="path-1" x="0" y="0" width="90" height="90"></rect>
        <rect id="path-3" x="0" y="0" width="90" height="90"></rect>
        <rect id="path-5" x="0" y="0" width="90" height="90"></rect>
        <rect id="path-7" x="0" y="0" width="90" height="90"></rect>
        <polygon id="path-9" points="21.615 0.898125 21.615 47.855625 12.189375 47.855625 12.189375 9.954375 4.576875 14.045625 0.885 7.471875 13.1925 0.898125"></polygon>
    </defs>
    <g id="Page-1" stroke="none" stroke-width="1" fill="none" fill-rule="evenodd">
        <g id="N1">
            <g id="Clipped">
                <mask id="mask-2" fill="white">
                    <use xlink:href="#path-1"></use>
                </mask>
                <g id="SVGID_17_"></g>
                <path d="M90,45 C90,69.853125 69.853125,90 45,90 C20.146875,90 0,69.853125 0,45 C0,20.146875 20.146875,0 45,0 C69.853125,0 90,20.146875 90,45" id="Path" fill="#FC404D" fill-rule="nonzero" mask="url(#mask-2)"></path>
            </g>
            <g id="Clipped">
                <mask id="mask-4" fill="white">
                    <use xlink:href="#path-3"></use>
                </mask>
                <g id="SVGID_17_"></g>
                <path d="M72.72,9.56625 L56.5125,30.30375 L42.6675,48.015 L17.30625,80.458125 C24.946875,86.431875 34.55625,90 45,90 C69.853125,90 90,69.853125 90,45 C90,30.6075 83.236875,17.805 72.72,9.56625" id="Path" fill="#D11C36" fill-rule="nonzero" mask="url(#mask-4)"></path>
            </g>
            <g id="Clipped">
                <mask id="mask-6" fill="white">
                    <use xlink:href="#path-5"></use>
                </mask>
                <g id="SVGID_17_"></g>
                <polygon id="Path" fill="#F0EBE3" fill-rule="nonzero" mask="url(#mask-6)" points="51.615 21.523125 51.615 68.480625 42.189375 68.480625 42.189375 30.579375 34.576875 34.670625 30.885 28.096875 43.1925 21.523125"></polygon>
            </g>
            <g id="Clipped">
                <mask id="mask-8" fill="white">
                    <use xlink:href="#path-7"></use>
                </mask>
                <g id="SVGID_17_"></g>
                <g mask="url(#mask-8)">
                    <g transform="translate(30.000000, 20.625000)">
                        <mask id="mask-10" fill="white">
                            <use xlink:href="#path-9"></use>
                        </mask>
                        <g id="SVGID_19_" stroke="none" fill="none"></g>
                        <path d="M42.72,-11.05875 L26.5125,9.67875 L12.6675,27.39 L-12.69375,59.833125 C-5.053125,65.806875 4.55625,69.375 15,69.375 C39.853125,69.375 60,49.228125 60,24.375 C60,9.9825 53.236875,-2.82 42.72,-11.05875" id="Path" stroke="none" fill="#FEB3B8" fill-rule="nonzero" mask="url(#mask-10)"></path>
                    </g>
                </g>
            </g>
        </g>
    </g>
</svg>