<?xml version="1.0" encoding="UTF-8"?>
<svg width="99px" height="99px" viewBox="0 0 99 99" version="1.1" xmlns="http://www.w3.org/2000/svg" xmlns:xlink="http://www.w3.org/1999/xlink">
    <!-- Generator: Sketch 63.1 (92452) - https://sketch.com -->
    <title>BACKGROUND</title>
    <desc>Created with Sketch.</desc>
    <g id="Page-1" stroke="none" stroke-width="1" fill="none" fill-rule="evenodd">
        <g id="BACKGROUND" fill-rule="nonzero">
            <circle id="Oval" fill="#FC404D" cx="48.9795918" cy="48.9795918" r="48.9795918"></circle>
            <path d="M79.1428571,10.4081633 L61.5102041,32.9795918 L46.4489796,52.2653061 L18.8367347,87.5714286 C32.5808869,98.8278951 51.3427044,101.759656 67.8657157,95.2327993 C84.388727,88.7059429 96.0821855,73.743856 98.4234352,56.1333958 C100.764685,38.5229356 93.3866264,21.0253566 79.1428571,10.4081633 Z" id="Path" fill="#D11C36"></path>
            <g id="Min-trade-size-Copy" transform="translate(20.000000, 20.000000)">
                <g id="Group">
                    <path d="M48.4645,8.98976667 C42.944,3.46926667 35.7073667,0.712066667 28.4707333,0.712066667 C21.2300333,0.712066667 13.9995,3.46926667 8.47696667,8.98976667 C-2.5681,20.0368667 -2.5681,37.9322333 8.47696667,48.9773 C13.9995,54.4978 21.2341,57.2590667 28.4707333,57.2590667 C35.7073667,57.2590667 42.944,54.4978 48.4645,48.9773 C59.5075333,37.9322333 59.5116,20.0368667 48.4645,8.98976667" id="Path" fill="#FEB3B8"></path>
                    <path d="M28.4727667,4.5205 C41.9578333,4.5205 52.9276667,15.4964333 52.9276667,28.9835333 C52.9276667,42.4665667 41.9558,53.4384333 28.4727667,53.4384333 C21.9335667,53.4384333 15.7949333,50.8988 11.1731667,46.2790667 C6.55546667,41.6573 4.0138,35.5166333 4.0138,28.9815 C4.01583333,15.4964333 14.9856667,4.5205 28.4727667,4.5205 M28.4727667,0.705966667 C12.8506667,0.705966667 0.199262751,13.3675333 0.199262751,28.9835333 C0.191133333,44.6036 12.8547333,57.255 28.4727667,57.255 C44.0948667,57.255 56.7442333,44.6015667 56.7442333,28.9835333 C56.7442333,13.3614333 44.0887667,0.705966667 28.4727667,0.705966667" id="Shape" fill="#F0EBE3"></path>
                </g>
                <g id="scale" transform="translate(9.000000, 13.000000)">
                    <g id="Group" transform="translate(1.000000, 1.000000)">
                        <path d="M37.4693663,15.2399806 L37.9601213,15.2399806 C37.9601213,18.3581245 34.9710157,20.8782134 31.3126831,20.8782134 C27.6543506,20.8782134 24.6206697,18.3581245 24.6206697,15.2399806 L37.4693663,15.2399806 Z" id="Path" fill="#00EFD1"></path>
                        <g transform="translate(10.588764, 22.892061)" fill="#00ACEA" id="Path">
                            <polygon points="16.797964 4.73497748 16.797964 8.15210807 0.0232269663 8.15210807 0.0232269663 4.73497748 2.83386067 4.73497748 13.9872449 4.73497748"></polygon>
                            <path d="M13.9872449,4.52142725 L13.9872449,4.73497748 L2.83386067,4.73497748 L2.83386067,4.52142725 C2.83386067,2.04401574 5.33221124,0.0364637823 8.41055281,0.0364637823 C11.4888944,0.0364637823 13.9872449,2.04401574 13.9872449,4.52142725 Z"></path>
                        </g>
                        <path d="M22.2561303,3.19458707 C22.280809,3.19458707 22.3007056,3.21371829 22.3007056,3.23726441 C22.3000225,4.98294755 20.8213528,6.39759514 18.998036,6.39694131 C17.1756584,6.39628702 15.6985258,4.98204822 15.6978427,3.23726441 C15.6978427,3.21363653 15.7178247,3.19458707 15.742418,3.19458707 C15.7432719,1.4725318 17.2020449,0.07709719 19.0007685,0.0779144045 C20.798382,0.0788140946 22.2552764,1.4736764 22.2561303,3.19458707 L22.2561303,3.19458707 Z" id="Path" fill="#00CEB4"></path>
                        <path d="M12.8872944,15.2399806 L13.3780494,15.2399806 C13.3780494,18.3581245 10.3889438,20.8782134 6.68603596,20.8782134 C2.98312809,20.8782134 0.0385977528,18.3581245 0.0385977528,15.2399806 L12.8872944,15.2399806 Z" id="Path" fill="#00EFD1"></path>
                    </g>
                    <path d="M38.3424979,15.3361699 L32.3830487,3.44781123 C32.2257863,3.16005101 31.9246812,2.9778444 31.5943042,2.9705362 L31.199932,3.05732103 L23.4876987,3.05732103 C22.917528,0.876738055 20.6700592,-0.433339123 18.4677981,0.131135969 C17.0189708,0.502525201 15.8876039,1.62275538 15.5125225,3.05732103 L7.80028918,3.05732103 L7.40591694,2.9705362 C7.07554004,2.9778444 6.77443491,3.16005101 6.61717248,3.44781123 L0.657723247,15.3361699 C0.267293058,15.4193006 -0.00848233557,15.7651942 0.000199331804,16.1605842 C0.000199331804,19.8052148 3.33068129,22.7990007 7.40591694,22.7990007 C11.4811526,22.7990007 14.8552075,19.8052148 14.8552075,16.1605842 C14.8479944,15.7707584 14.5791805,15.4335848 14.1978925,15.3361699 L8.89584216,4.79285148 L15.4687407,4.79285148 C15.8001241,6.36236962 17.0385971,7.58865168 18.6237185,7.91677307 L18.6237185,23.1894078 C15.7754653,23.4931132 13.5406614,25.6191338 13.190071,27.7885884 L11.2619917,27.7885884 C10.7476806,27.8295309 10.3393016,28.2338901 10.297952,28.7431385 L10.297952,32.2141994 C10.343663,32.6913083 10.7714168,33.0413543 11.2532689,32.9960103 C11.2562044,32.9957611 11.2590561,32.9954289 11.2619917,32.9951798 L27.7381456,32.9951798 C28.2194945,33.0452575 28.650771,32.699447 28.7012627,32.2228363 C28.7015982,32.2199297 28.7018498,32.2171061 28.7021014,32.2141994 L28.7021014,28.7431385 C28.6607519,28.2338901 28.2523728,27.8295309 27.7380618,27.7885884 L25.8099825,27.7885884 C25.4593921,25.6192169 23.2245881,23.4931962 20.3763349,23.1894078 L20.3763349,7.91685612 C21.9614563,7.58873473 23.1999294,6.36245266 23.5313128,4.79293453 L30.1042113,4.79293453 L24.8020771,15.336253 C24.4208729,15.4336679 24.1519752,15.7708415 24.1447621,16.1606673 C24.1447621,19.8052978 27.4750351,22.7990837 31.5940526,22.7990837 C35.7130701,22.7990837 38.999786,19.8052978 38.999786,16.1606673 C39.0087874,15.7652773 38.7329281,15.4193837 38.3424979,15.3361699 Z M7.40591694,5.70405064 L12.2260313,15.2060342 L2.62958441,15.2060342 L7.40591694,5.70405064 Z M36.3706368,15.2060342 L26.7741899,15.2060342 L31.5943042,5.70405064 L36.3706368,15.2060342 Z" id="Shape" fill="#2F2C2B"></path>
                    <path d="M1.84083995,16.9415646 L13.0148597,16.9415646 C12.5328398,19.1110192 10.2103883,20.9766854 7.40591694,20.9766854 C4.64531131,20.9766854 2.32285977,19.1110192 1.84083995,16.9415646 Z" id="Path" fill="#D11C36"></path>
                    <polygon id="Path" fill="#F0EBE3" points="26.949485 31.2596493 12.05082 31.2596493 12.05082 29.5241189 26.949485 29.5241189 26.949485 31.2596493"></polygon>
                    <path d="M24.0135842,27.7885884 L14.9867208,27.7885884 C15.3373112,26.053058 17.2215248,24.7514517 19.5001106,24.7514517 C21.7786964,24.7514517 23.6629938,26.053058 24.0135842,27.7885884 Z" id="Path" fill="#F0EBE3"></path>
                    <path d="M17.1776591,4.01187108 L17.1776591,3.92508626 C17.1776591,2.65503806 18.2174363,1.62549595 19.5001106,1.62549595 C20.7827849,1.62549595 21.8225621,2.65503806 21.8225621,3.92508626 L21.8225621,4.01187108 C21.8225621,5.28191928 20.7827849,6.31146139 19.5001106,6.31146139 C18.2174363,6.31146139 17.1776591,5.28191928 17.1776591,4.01187108 Z" id="Path" fill="#F0EBE3"></path>
                    <path d="M31.5943042,20.9766854 C28.7898329,20.9766854 26.4674652,19.1110192 25.9854454,16.9415646 L37.1593812,16.9415646 C36.6773614,19.1110192 34.3549937,20.9766854 31.5943042,20.9766854 Z" id="Path" fill="#D11C36"></path>
                </g>
            </g>
        </g>
    </g>
</svg>