<?xml version="1.0" encoding="UTF-8"?> <svg xmlns="http://www.w3.org/2000/svg" id="Layer_1" data-name="Layer 1" viewBox="0 0 841.89 595.28"><defs><style>.cls-1{fill:#f0ebe3;}</style></defs><path class="cls-1" d="M318.72,250.72V239.43a5.36,5.36,0,0,1,5.36-5.36h42.15a5.35,5.35,0,0,1,5.35,5.36V430a5.34,5.34,0,0,1-5.35,5.35H324.08a5.35,5.35,0,0,1-5.36-5.35v-9.36C302,436.91,279.45,440.11,255,440.11c-57.92,0-100.49-47.62-100.49-105.35S197,229.41,255,229.41C279.45,229.41,302,234.39,318.72,250.72Zm0,110.08V308.71c-9.24-19.46-29.62-32.36-53.29-32.06-32,.4-58.11,27.79-57.29,59.75s25.8,56.48,58.1,56.48C289.56,392.88,309.58,380.05,318.72,360.8Z"></path><path class="cls-1" d="M470.14,335.23l-73.68,94.26a3.57,3.57,0,0,0,2.82,5.77h52.9a11.6,11.6,0,0,0,9.15-4.46l41.77-53.44,41.79,53.44a11.58,11.58,0,0,0,9.14,4.46h52.9a3.57,3.57,0,0,0,2.82-5.77L536,335.23l74.52-95.34a3.57,3.57,0,0,0-2.82-5.77h-52.9a11.62,11.62,0,0,0-9.15,4.46l-42.6,54.51Z"></path><path class="cls-1" d="M486,272.48a1.8,1.8,0,0,0,0-2.21l-25.54-31.86A11.6,11.6,0,0,0,451.3,234H398.4a3.57,3.57,0,0,0-2.81,5.77l56.91,72.1a1.8,1.8,0,0,0,2.82,0Z"></path><path class="cls-1" d="M682,207.82a5.36,5.36,0,0,0,5.36-5.36V158.74a3.57,3.57,0,0,0-3.57-3.57H672.26a4.28,4.28,0,0,0-3.54,1.88L635,200.19c-1.6,2.37-1.47,7.7,3.43,7.7Z"></path><rect class="cls-1" x="634.52" y="233.91" width="52.9" height="201.35" rx="5.36"></rect></svg> 