<svg xmlns="http://www.w3.org/2000/svg" xmlns:xlink="http://www.w3.org/1999/xlink" id="Layer_1" x="0px" y="0px" viewBox="0 0 496.1 597.1" style="enable-background:new 0 0 496.1 597.1;" xml:space="preserve"> <style type="text/css"> .st0{fill:#DBF0F0;} .st1{fill:url(#SVGID_1_);} .st2{fill:#FBF9F7;} .st3{fill:url(#SVGID_2_);} .st4{fill:url(#SVGID_3_);} .st5{fill:#99D7DA;} .st6{fill:#FFDB86;} .st7{fill:#D12036;} .st8{fill:#EF4450;} .st9{fill:#FDE1D9;} .st10{fill:url(#SVGID_4_);} .st11{fill:#DCE7F1;} .st12{fill:#5A79BC;} .st13{fill:#F69186;} .st14{fill:url(#SVGID_5_);} .st15{fill:#FFC729;} .st16{fill:#282424;} .st17{fill:#F5825B;} .st18{fill:#48C2C7;} .st19{fill:#FEE59B;} .st20{fill:#EFEAE3;} .st21{fill:#551F5C;} </style> <g> <g> <path class="st0" d="M8.4,429.2l279.4,161.3c15.2,8.8,33.9,8.8,49.1,0l150.9-87.1c11.2-6.5,11.2-22.6,0-29L208.4,313.1 c-15.2-8.8-33.9-8.8-49.1,0L8.4,400.2C-2.8,406.6-2.8,422.8,8.4,429.2z"></path> <linearGradient id="SVGID_1_" gradientUnits="userSpaceOnUse" x1="2.0092" y1="454.0964" x2="502.5085" y2="454.0964"> <stop offset="0.4072" style="stop-color:#FFFFFF"></stop> <stop offset="0.6598" style="stop-color:#BFBBBA"></stop> </linearGradient> <path class="st1" d="M312.3,524.2L0,343.9V382c0,5.6,2.8,11.3,8.4,14.5l279.4,161.3c7.6,4.4,16.1,6.6,24.5,6.6 c8.5,0,16.9-2.2,24.5-6.6l150.9-87.1c5.6-3.2,8.4-8.9,8.4-14.5V418L312.3,524.2z"></path> <path class="st2" d="M8.4,358.4l279.4,161.3c15.2,8.8,33.9,8.8,49.1,0l150.9-87.1c11.2-6.5,11.2-22.6,0-29L208.4,242.2 c-15.2-8.8-33.9-8.8-49.1,0L8.4,329.3C-2.8,335.8-2.8,351.9,8.4,358.4z"></path> </g> <g> <g> <path class="st0" d="M150.9,278.4l270.6,156.2c5.2,3,11.6,3,16.8,0l17.4-10c3.8-2.2,3.8-7.7,0-9.9L185.1,258.4 c-5.2-3-11.6-3-16.8,0l-17.4,10C147.1,270.6,147.1,276.2,150.9,278.4z"></path> </g> <g> <linearGradient id="SVGID_2_" gradientUnits="userSpaceOnUse" x1="379.9981" y1="244.016" x2="344.4581" y2="177.924"> <stop offset="0" style="stop-color:#F15B66"></stop> <stop offset="8.425057e-02" style="stop-color:#F26A6F"></stop> <stop offset="1" style="stop-color:#FFFFFF"></stop> </linearGradient> <path class="st3" d="M441.4,164.9c-3.4-5.9-8.4-11-14.5-14.5L169.7,1.8c-4.5-2.6-9.6-2.3-13.5,0l-7.9,4.6l283.9,163.9V407 l7.9-4.6c3.9-2.3,6.8-6.5,6.8-11.7v-206C446.8,177.6,444.9,170.8,441.4,164.9z"></path> <linearGradient id="SVGID_3_" gradientUnits="userSpaceOnUse" x1="141.442" y1="206.7017" x2="438.8249" y2="206.7017"> <stop offset="0" style="stop-color:#F69186"></stop> <stop offset="1" style="stop-color:#EF4450"></stop> </linearGradient> <path class="st4" d="M161.7,6.4L419,155c12.2,7.1,19.8,20.1,19.8,34.3v206c0,10.4-11.3,16.9-20.3,11.7L161.2,258.4 c-12.2-7.1-19.8-20.1-19.8-34.3l0-206C141.4,7.7,152.7,1.2,161.7,6.4z"></path> <path class="st2" d="M171.9,23.3l236.9,136.8c10.8,6.2,17.5,17.8,17.5,30.2v189.4c0,9.2-9.9,14.9-17.9,10.3L171.5,253.3 c-10.8-6.2-17.5-17.8-17.5-30.2l0-189.4C154,24.5,164,18.8,171.9,23.3z"></path> </g> <g> <path class="st5" d="M178.4,71.4l142.9,82.5c8.9,5.1,12,11.6,12,19.1v114.3c0,5.5-6,9-10.8,6.2L179.7,211 c-6.5-3.8-10.5-10.7-10.5-18.2V78.5C169.2,72.9,172.6,68,178.4,71.4z"></path> <path class="st6" d="M347.5,312.9l56.3,32.5c4.5,2.6,7.2,7.4,7.2,12.5v19.8c0,3.8-4.1,6.2-7.4,4.3l-56.3-32.5 c-4.5-2.6-7.2-7.4-7.2-12.5v-19.8C340.1,313.4,344.2,311,347.5,312.9z"></path> <g> <g> <polygon class="st2" points="316.9,244.2 281.9,233 257,203.6 236.7,212.8 218.2,146.7 181.9,146.7 181.9,144.5 219.9,144.5 238.2,209.7 257.6,200.9 283.2,231.1 317.6,242.1 "></polygon> <path class="st2" d="M313,245.1c1.5,3.4,4.7,5.3,7.1,4.2c2.4-1.1,3-4.7,1.5-8.1c-1.5-3.4-4.7-5.3-7.1-4.2 C312.1,238.1,311.5,241.7,313,245.1z"></path> <path class="st2" d="M278.3,234c1.5,3.4,4.7,5.3,7.1,4.2c2.4-1.1,3-4.7,1.5-8.1c-1.5-3.4-4.7-5.3-7.1-4.2 C277.4,227,276.8,230.6,278.3,234z"></path> <path class="st2" d="M253,204.2c1.5,3.4,4.7,5.3,7.1,4.2c2.4-1.1,3-4.7,1.5-8.1c-1.5-3.4-4.7-5.3-7.1-4.2 C252.2,197.2,251.5,200.8,253,204.2z"></path> <path class="st7" d="M254.6,203.4c1,2.1,2.9,3.3,4.4,2.6c1.5-0.7,1.9-2.9,0.9-5.1c-1-2.1-2.9-3.3-4.4-2.6 C254.1,199.1,253.7,201.3,254.6,203.4z"></path> <path class="st2" d="M233.2,213.2c1.5,3.4,4.7,5.3,7.1,4.2c2.4-1.1,3-4.7,1.5-8.1c-1.5-3.4-4.7-5.3-7.1-4.2 C232.3,206.2,231.6,209.8,233.2,213.2z"></path> <path class="st2" d="M205.4,151.8c4.9,10.7,14.9,16.7,22.4,13.3s9.6-14.9,4.7-25.6c-4.9-10.7-14.9-16.7-22.4-13.3 C202.7,129.6,200.6,141.1,205.4,151.8z"></path> <path class="st7" d="M207.2,151c4.2,9.3,12.9,14.5,19.4,11.5c6.5-3,8.4-12.9,4.1-22.2c-4.2-9.3-12.9-14.5-19.4-11.5 C204.8,131.7,203,141.7,207.2,151z"></path> <path class="st2" d="M216.2,146.9c1,2.2,3.1,3.4,4.6,2.7c1.5-0.7,2-3.1,1-5.3c-1-2.2-3.1-3.4-4.6-2.7 C215.7,142.3,215.2,144.7,216.2,146.9z"></path> <path class="st2" d="M228.6,140c1,2.2,3.1,3.4,4.6,2.7c1.5-0.7,2-3.1,1-5.3c-1-2.2-3.1-3.4-4.6-2.7 C228,135.5,227.6,137.8,228.6,140z"></path> <path class="st2" d="M209.2,161.8c1.3,2.8,3.9,4.4,5.9,3.5c2-0.9,2.5-3.9,1.3-6.7c-1.3-2.8-3.9-4.4-5.9-3.5 C208.5,156,207.9,159,209.2,161.8z"></path> <path class="st2" d="M177.6,147.6c1.5,3.4,4.7,5.3,7.1,4.2c2.4-1.1,3-4.7,1.5-8.1c-1.5-3.4-4.7-5.3-7.1-4.2 C176.8,140.6,176.1,144.2,177.6,147.6z"></path> </g> </g> <path class="st5" d="M255.5,102.2c0-3.8,2.3-5.5,5.1-3.9l152.2,87.9c2.8,1.6,5.1,6,5.1,9.8c0,3.8-2.3,5.5-5.1,3.9L260.6,112 C257.7,110.4,255.5,106,255.5,102.2z"></path> <path class="st5" d="M168,51.7c0-3.8,2.3-5.5,5.1-3.9l69.8,40.3c2.8,1.6,5.1,6,5.1,9.8c0,3.8-2.3,5.5-5.1,3.9l-69.8-40.3 C170.3,59.9,168,55.5,168,51.7z"></path> <path class="st5" d="M307.1,115.2c0-1.4,0.8-2,1.8-1.4l6.6,3.8c1,0.6,1.8,2.2,1.8,3.5c0,1.4-0.8,2-1.8,1.4l-6.6-3.8 C307.9,118.1,307.1,116.6,307.1,115.2z"></path> <path class="st2" d="M260.6,105.4c0-1.4,0.8-2,1.8-1.4l12,6.9c1,0.6,1.8,2.2,1.8,3.5c0,1.4-0.8,2-1.8,1.4l-12-6.9 C261.4,108.3,260.6,106.8,260.6,105.4z"></path> <path class="st5" d="M404.2,172.5c0-1.4,0.8-2,1.8-1.4l6.6,3.8c1,0.6,1.8,2.2,1.8,3.5c0,1.4-0.8,2-1.8,1.4L406,176 C405,175.4,404.2,173.8,404.2,172.5z"></path> <path class="st6" d="M208.6,233.7l29.4,17c4.5,2.6,7.2,7.4,7.2,12.5V283c0,3.8-4.1,6.2-7.4,4.3l-29.4-17 c-4.5-2.6-7.2-7.4-7.2-12.5V238C201.2,234.1,205.3,231.8,208.6,233.7z"></path> <path class="st5" d="M250.3,278.1c0-1.4,0.8-2,1.8-1.4l24,13.9c1,0.6,1.8,2.2,1.8,3.5c0,1.4-0.8,2-1.8,1.4l-24-13.9 C251.1,281,250.3,279.4,250.3,278.1z"></path> <path class="st5" d="M250.3,287.7c0-1.4,0.8-2,1.8-1.4l14.6,8.4c1,0.6,1.8,2.2,1.8,3.5c0,1.4-0.8,2-1.8,1.4l-14.6-8.4 C251.1,290.6,250.3,289.1,250.3,287.7z"></path> <path class="st5" d="M250.3,268.9c0-1.4,0.8-2,1.8-1.4l6.6,3.8c1,0.6,1.8,2.2,1.8,3.5c0,1.4-0.8,2-1.8,1.4l-6.6-3.8 C251.1,271.8,250.3,270.3,250.3,268.9z"></path> <path class="st5" d="M353.5,306.7c0-1.4,0.8-2,1.8-1.4l50.9,29.4c1,0.6,1.8,2.2,1.8,3.5c0,1.4-0.8,2-1.8,1.4l-50.9-29.4 C354.3,309.6,353.5,308,353.5,306.7z"></path> <path class="st5" d="M340.5,299c0-1.4,0.8-2,1.8-1.4l6.6,3.8c1,0.6,1.8,2.2,1.8,3.5c0,1.4-0.8,2-1.8,1.4l-6.6-3.8 C341.3,301.9,340.5,300.4,340.5,299z"></path> <g> <g> <polygon class="st2" points="314.7,217 314.7,176.3 321.3,180.1 321.3,220.8 "></polygon> <polygon class="st2" points="303.7,208.2 303.7,181.2 310.3,185.1 310.3,212 "></polygon> <polygon class="st2" points="292.7,201.8 292.7,184.2 299.4,188 299.4,205.7 "></polygon> <polygon class="st2" points="281.7,195.5 281.7,184.2 288.4,188 288.4,199.3 "></polygon> <polygon class="st2" points="270.7,189.1 270.7,184.2 277.4,188.1 277.4,193 "></polygon> </g> </g> </g> <path class="st8" d="M408.6,281.6c0,6.5-2,10.9-5.4,12.9c-3.4,2-7.9,1.8-13-0.9V308l-8.5-5.1l0-14.4l-5-3V300l-8.5-5.1l0-14.4 l-15.1-9v-11.6l8.2,4.9v-51.7l-8.2-4.9v-11.6l8.2,4.9l0,0l6.9,4.1v-14.4l8.5,5.1l0,14.4l5,3v-14.4l8.5,5.1v14.6 c4.2,3.1,8.1,7.5,11,12.9c2.7,5,4.1,10.2,4.1,15.7c0,2.9-0.4,5.4-1.5,7.2c-1,1.4-2.4,2.3-4.1,2.7v0.6c2.4,2.8,4.4,6,5.9,9.5 C407.6,272.2,408.6,276.9,408.6,281.6z M392.9,234.4c-1.5-2.5-3.4-4.5-5.7-5.9l-15.4-9.2l0,17.4l17,10.1c1.9,1.1,3.4,0.9,4.5,0 c1.1-1,1.7-2.6,1.7-5C394.8,239.2,394.1,236.7,392.9,234.4z M398.3,275.4c0-3.1-0.6-5.8-1.9-8.5c-1.7-3.4-4.3-6.4-6.9-8 l-17.8-10.6V271l17.3,10.3c2.7,1.6,5.1,1.6,7,0.6C397.5,280.9,398.3,278.5,398.3,275.4z"></path> </g> <g> <g> <path class="st9" d="M156.6,282.4c-9.7-6.6-23.1-10.7-38-10.7C89,271.7,65,288.1,65,308.3c0,20.2,24,36.6,53.7,36.6 c14.8,0,28.3-4.1,38-10.7c9.7-6.6,15.7-15.8,15.7-25.9S166.4,289,156.6,282.4z"></path> <linearGradient id="SVGID_4_" gradientUnits="userSpaceOnUse" x1="177.4963" y1="286.0908" x2="61.5402" y2="286.0908"> <stop offset="0" style="stop-color:#FFFFFF"></stop> <stop offset="0.3923" style="stop-color:#DEDBDB"></stop> <stop offset="1" style="stop-color:#BFBBBA"></stop> </linearGradient> <path class="st10" d="M153.4,264c-9.4-5.4-21.5-8.7-34.7-8.7c-13.2,0-25.3,3.3-34.7,8.7H65v16.3c0,20.2,24,36.6,53.7,36.6 c14.8,0,28.3-4.1,38-10.7c9.7-6.6,15.7-15.8,15.7-25.9V264H153.4z"></path> <path class="st11" d="M156.6,238.1c-9.7-6.6-23.1-10.7-38-10.7C89,227.4,65,243.8,65,264h53.7L156.6,238.1z"></path> <path class="st8" d="M156.6,224.2c-9.7-6.6-23.1-10.7-38-10.7C89,213.5,65,229.9,65,250.1h53.7L156.6,224.2z"></path> <path class="st2" d="M65,264c0,20.2,24,36.6,53.7,36.6c14.8,0,28.3-4.1,38-10.7l-38-25.9H65z"></path> <path class="st12" d="M172.4,264c0-10.1-6-19.2-15.7-25.9l-38,25.9l38,25.9C166.4,283.2,172.4,274.1,172.4,264z"></path> <rect x="65" y="250.1" class="st7" width="53.7" height="13.9"></rect> <polygon class="st13" points="118.7,236.5 118.7,264 156.6,289.8 156.6,262.4 "></polygon> <linearGradient id="SVGID_5_" gradientUnits="userSpaceOnUse" x1="177.4963" y1="263.1699" x2="61.5408" y2="263.1699"> <stop offset="0" style="stop-color:#FFFFFF"></stop> <stop offset="0.3612" style="stop-color:#FEF1ED"></stop> <stop offset="1" style="stop-color:#FDE1D9"></stop> </linearGradient> <polygon class="st14" points="172.4,236.5 172.4,280.3 156.6,289.8 156.6,253.6 "></polygon> <path class="st13" d="M172.4,236.5c0-10.1-6-19.2-15.7-25.9l-38,25.9l38,25.9C166.4,255.8,172.4,246.6,172.4,236.5z"></path> <path class="st7" d="M172.4,236.5c0-10.1-6-19.2-15.7-25.9l-38,25.9l38,25.9C166.4,255.8,172.4,246.6,172.4,236.5z"></path> </g> </g> <g> <g> <g> <g> <g> <g> <g> <g> <g> <g> <g> <g> <g> <g> <g> <g> <path class="st15" d="M285.1,328.9c-0.6,0-1.2-0.1-1.7-0.1c-4.3-0.7-6.8-4.1-8.2-5.9l-17.4-23.1 c-1.9-2.5-1.4-6.1,1.1-8c2.5-1.9,6.1-1.4,8,1.1l17.4,23.1c0.2,0.2,0.5,0.7,0.8,1c0.4-0.4,0.9-1.1,1.6-2.3 l10.9-18.8c1.6-2.7,5.1-3.6,7.8-2.1c2.7,1.6,3.6,5,2.1,7.8l-10.9,18.8C292.7,327.2,288.5,328.9,285.1,328.9z"></path> </g> </g> </g> </g> </g> </g> </g> </g> </g> </g> </g> </g> </g> </g> </g> <g> <g> <g> <g> <g> <g> <g> <g> <g> <g> <g> <g> <g> <g> <path class="st16" d="M289.6,463.8c1.8,1.7,4,2.9,6.3,3.8c1.2,0.5,1,0.4,3.8,1.3c2.8,0.9,7.1,0.9,8.1,0.4 c1.8-0.8,2.4-2.2,2.1-4.1c-0.2-1.4-0.6-3-1.8-3.8c-0.1,0-0.1-0.1-0.2-0.1c-0.6-0.3-1.2-0.4-1.9-0.5 c-3.7-0.6-7.5-1.1-11.2-1c-1,0-2,0.1-3.1,0.3c-0.6,0.1-1.2,0.2-1.7,0.4C288.4,461.1,287.9,462.2,289.6,463.8z"></path> </g> </g> </g> </g> </g> </g> </g> </g> </g> </g> </g> </g> </g> </g> <g> <g> <g> <g> <g> <g> <g> <g> <g> <g> <g> <g> <g> <g> <path class="st17" d="M294.9,461.8c0.7,1.3,2.1,2,3.5,2.5c1.7,0.6,3.6,1,5.4,1.1c1.4,0.1,2.9-0.1,3.8-1.1 c1-1.1,0.8-2.1,0.2-2.9c-0.6-0.3-1.2-0.4-1.9-0.5c-3.7-0.6-7.5-1.1-11.2-1C294.4,460.3,294.5,460.9,294.9,461.8z"></path> </g> </g> </g> </g> </g> </g> </g> </g> </g> </g> </g> </g> </g> </g> <g> <g> <g> <g> <g> <g> <g> <g> <g> <g> <g> <g> <g> <g> <path class="st17" d="M301.1,402.4c3.3-0.2,6-0.2,9.2,0.1l-0.2,13.2c0,0,0,0.5,0,1.3c-0.2,8.4-1.6,38.1-1.9,46 c0,0-0.3-0.2-0.6-0.5c-0.6,0.5-1.3,0.8-2.2,0.8l-1.2,0h-0.4c-1.1,0-2-0.5-2.7-1.3c-0.4-0.5-0.7-1.1-0.7-1.8 l-0.5-2.8l-0.1-0.8l-3.8-34.4l-0.8-6.8l-0.6-5.6C294.2,406,297.1,402.6,301.1,402.4 C301.1,402.4,301.1,402.4,301.1,402.4z"></path> </g> </g> </g> </g> </g> </g> </g> </g> </g> </g> </g> </g> </g> </g> <g> <g> <g> <g> <g> <g> <g> <g> <g> <g> <g> <g> <g> <g> <path class="st17" d="M269.1,419.1c4.8,0.8,9.6,1.5,14.4,2l0,0.8l2.6,39.7c0,0.2,0.1,1.1,0.1,1.3 c0.1,0.3,0.3,0.5,0.6,0.8c-2.7,2-6.1,1.4-9.7,1.3c0-0.3,0-0.6,0-0.9c0-0.7-0.1-1.4-0.2-2c-0.2-0.9-0.4-1.5-0.4-1.7 c-0.1-0.4-5.8-29.9-8-41.5C268.8,419,269,419,269.1,419.1z"></path> </g> </g> </g> </g> </g> </g> </g> </g> </g> </g> </g> </g> </g> </g> <g> <g> <g> <g> <g> <g> <g> <g> <g> <g> <g> <g> <g> <g> <g> <path class="st16" d="M266.4,468.2c0.4-0.2,0.7-0.3,1.1-0.5c0.1,0,0.2-0.1,0.4-0.2c0.8,0.3,1.9,0.4,2.8,0.3 c3.6-0.2,18.9,1.6,16.6-3.6c0.1,0.1,0.1,0.2,0.2,0.3c0.4,0.8,0.7,2.1,0.8,3.5c0.1,1.7-0.3,3.3-1.6,4 c-0.6,0.3-1.2,0.4-1.9,0.5c-6.4,0.9-12.9,0.9-19.3,0.1C261,472.1,264.1,469.2,266.4,468.2z"></path> </g> </g> </g> </g> </g> </g> </g> </g> </g> </g> </g> </g> </g> </g> <g> <g> <g> <g> <g> <g> <g> <g> <g> <g> <g> <g> <g> <g> <path class="st17" d="M270.7,467.9c-1,0.1-2,0-2.8-0.3c2.3-1,4.7-2,7.1-2.9c2.8-1.2,5.7-2.3,8.8-2.4 c0.3,0,0.7,0,1.1,0.2c0.3,0.1,0.5,0.2,0.7,0.4c0.8,0.3,1.4,0.9,1.8,1.5l0,0C289.5,469.6,274.3,467.7,270.7,467.9z"></path> </g> </g> </g> </g> </g> </g> </g> </g> </g> </g> </g> </g> </g> </g> </g> <g> <g> <g> <g> <g> <g> <g> <g> <g> <g> <g> <g> <g> <g> <g> <path class="st18" d="M310.3,417.8l1.5,26.4c0.1,2.1-0.9,4.1-2.7,5.1c-2.6,1.5-5.3,0.7-8.2,1.5 c-1.8,0.5-3.6-0.8-3.8-2.6l0,0l-1-25.7l-0.8-6.8c0,0-0.7-4.8-0.8-8c-0.1-3.2,0.1-4,0.1-6.6 c0-2.5-0.6-25.8-0.6-25.8l-4.3,1l-6,32.6l-0.3,9.4l0.2,3.7c0.6,9.8,3.6,19.6,4.2,29.4c0.1,1.8-1,3.4-2.7,3.8 c-0.7,0.2-1.4,0.4-2.1,0.5c-3,0.7-6.3,0.9-8.5-0.6c-0.7-0.5-1.1-1.3-1.2-2.1c-2.7-23.3-8.3-41.1-4.2-76 c0.2-1.4,1.5-12.1,3.2-22c1.6-9,3.4-17.2,5-17.1c0.2,0,29.6,1.4,29.6,1.4c5.6,6,7.8,11.8,8.3,16.8 c1,9.5-4.2,16.1-4.2,16.1s-0.2,38.1-0.6,44.7C310.3,417.3,310.3,417.6,310.3,417.8 C310.3,417.8,310.3,417.8,310.3,417.8L310.3,417.8z"></path> </g> </g> </g> </g> </g> </g> </g> </g> </g> </g> </g> </g> </g> </g> </g> <g> <g> <g> <g> <g> <g> <g> <g> <g> <g> <g> <g> <g> <g> <g> <path class="st19" d="M276.7,321.6c-0.2,0-0.6,11.6-0.8,17c0,0.1,0,0.3,0,0.4c0.6,3.5,6.7,5.3,9.6,6 c5.3,1.2,10.7,0.2,15.5-1.8c1.6-0.7,3.1-1.5,4.6-2.4c0.7-0.5,1.2-1.3,1.1-2.2c-0.7-7.8,1.1-15.4,2.8-23 c1.3-6,3.3-13.7-0.4-19.2c-0.2-0.3-0.4-0.6-0.7-0.8c-1.9-2.1-4.8-3.1-7.9-3.5c-3.1-0.4-6.4-0.2-8.8,0.3 c-1.4,0.3-2.9,0.6-4.4,1.1c-2.7,0.8-6.4,2.7-8.5,4.2c-3,2-3.2,4.3-4.7,7.3c-1.1,2.3-2.2,3.1-3.1,5.7 c-0.3,0.8-0.6,1.7-0.6,2.6C270.1,317,273.3,320.3,276.7,321.6z"></path> </g> </g> </g> </g> </g> </g> </g> </g> </g> </g> </g> </g> </g> </g> </g> <g> <g> <g> <g> <g> <g> <g> <g> <g> <g> <g> <g> <g> <g> <path class="st17" d="M266.9,293.8c0,3.7-2.5,6.7-5.5,6.7c-3,0-5.5-3-5.5-6.7c0-3.7,2.5-6.7,5.5-6.7 C264.4,287,266.9,290.1,266.9,293.8z"></path> </g> </g> </g> </g> </g> </g> </g> </g> </g> </g> </g> </g> </g> </g> <g> <g> <g> <g> <g> <g> <g> <g> <g> <g> <g> <g> <g> <g> <g> <path class="st8" d="M252.8,297.9l6.6-2.8c0.3-0.1,0.5-0.4,0.5-0.9l0-18.1c-0.4-1.7-2.4-2.3-3.2-2.1l-8,2.3 c-0.3,0.1-0.5,0.4-0.5,0.9l1.3,18.5C250,297.4,252.1,298.1,252.8,297.9z"></path> </g> </g> </g> </g> </g> </g> </g> </g> </g> </g> </g> </g> </g> </g> <g> <g> <g> <g> <g> <g> <g> <g> <g> <g> <g> <g> <g> <g> <path class="st13" d="M252.8,297.9l8-2.3c0.3-0.1,0.5-0.4,0.5-0.9l-1.3-18.5c-0.1-0.9-1.1-1.9-1.8-1.7l-8,2.3 c-0.3,0.1-0.5,0.4-0.5,0.9l1.3,18.5C251.1,297.2,252.1,298.1,252.8,297.9z"></path> </g> </g> </g> </g> </g> </g> </g> </g> </g> </g> </g> </g> </g> </g> <g> <g> <g> <g> <g> <g> <g> <g> <g> <g> <g> <g> <g> <g> <path class="st20" d="M259.5,290.8l-1-13.5c0-0.3-0.2-0.6-0.4-0.8c-0.3-0.2-0.6-0.2-0.9-0.1l-5.3,1.5 c-0.5,0.1-0.8,0.6-0.7,1l1,13.4c0,0.3,0.2,0.6,0.4,0.7c0.1,0.1,0.2,0.1,0.2,0.1c0.2,0.1,0.4,0.1,0.6,0l5.3-1.4 C259.2,291.7,259.6,291.3,259.5,290.8z"></path> </g> </g> </g> </g> </g> </g> </g> </g> </g> </g> </g> </g> </g> </g> <g> <g> <g> <g> <g> <g> <g> <g> <g> <g> <g> <g> <g> <g> <path class="st20" d="M257.5,294.5c-0.2,0.4-0.7,0.8-1.1,0.7c-0.5-0.1-0.7-0.5-0.5-0.9c0.2-0.4,0.7-0.8,1.1-0.7 C257.4,293.6,257.7,294.1,257.5,294.5z"></path> </g> </g> </g> </g> </g> </g> </g> </g> </g> </g> </g> </g> </g> </g> </g> <g> <g> <g> <g> <g> <g> <g> <g> <g> <g> <g> <g> <g> <g> <g> <path class="st17" d="M239.5,302.7c-0.2,4.2,2.3,7.7,5.6,7.9s6.2-3.1,6.4-7.2c0.2-4.2-2.3-7.7-5.6-7.9 C242.6,295.3,239.8,298.5,239.5,302.7z"></path> </g> </g> </g> </g> </g> </g> </g> </g> </g> </g> </g> </g> </g> </g> <g> <g> <g> <g> <g> <g> <g> <g> <g> <g> <g> <g> <g> <g> <path class="st17" d="M249.5,303.5L249.5,303.5c1.1,0.1,2-0.8,2.1-1.9l0.7-12c0.1-1.1-0.8-2-1.9-2.1l0,0 c-1.1-0.1-2,0.8-2.1,1.9l-0.7,12C247.5,302.5,248.4,303.4,249.5,303.5z"></path> </g> </g> </g> </g> </g> </g> </g> </g> </g> </g> </g> </g> </g> </g> </g> <g> <g> <g> <g> <g> <g> <g> <g> <g> <g> <g> <g> <g> <g> <path class="st17" d="M278.7,276.2c0.1,3.3,0.7,6.5,2.6,8.9c2.1,2.7,5.5,3.7,8.7,3.8c1.8,0,3.6-0.2,5.2-1.1 c3-1.8,4.4-5.6,5.1-9.2c0.3-1.4,0.5-2.8,0.6-4.2c0.1-1.6,0-3.2-0.5-4.7c-0.9-3.3-3.2-6-6-7.8 c-2.7-1.7-5.9-2.5-9-2.9c-1.5-0.2-3.2-0.2-4.5,0.6c-0.9,0.5-1.6,1.5-1.8,2.5c-0.1,0.4-0.1,0.8,0,1.2 c-0.1,3-0.2,5.9-0.3,8.9C278.7,273.5,278.6,274.8,278.7,276.2z"></path> </g> </g> </g> </g> </g> </g> </g> </g> </g> </g> </g> </g> </g> </g> <g> <g> <g> <g> <g> <g> <g> <g> <g> <g> <g> <g> <g> <g> <path class="st17" d="M300.5,295.4c-1.7,2.5-7.5,1.6-13-2c1.5-0.4,3-0.8,4.4-1.1c2.4-0.5,5.7-0.8,8.8-0.3 C301.2,293.4,301.1,294.6,300.5,295.4z"></path> </g> </g> </g> </g> </g> </g> </g> </g> </g> </g> </g> </g> </g> </g> <g> <g> <g> <g> <path class="st21" d="M311.1,265.4c-5-9.3-16.2-13.4-26.2-9.4c-3,1.2-5.5,3.6-7.1,6.4c-1.6,2.9,0.2,6,2.9,6.8 c0.3,0.7,0.7,1.4,1.1,1.9c0.2,0.3,0.5,0.5,0.7,0.8c0,0.9,0,1.9,0,2.8c0,2.6,0,5.3,0,7.9c0,7.9,3.2,11.1,11.2,10.5 c7.6-0.5,20.8-2.7,21-11.5c0.1-5.2-0.7-10.6-3-15.3C311.4,266,311.2,265.7,311.1,265.4z M300.1,257.2c0,0,0-0.1,0-0.1l1.3,0.7 C301,257.5,300.5,257.3,300.1,257.2z"></path> </g> </g> </g> </g> <g> <g> <g> <g> <g> <g> <g> <g> <g> <g> <g> <g> <g> <g> <path class="st19" d="M314.3,352C314.3,352,314.3,352,314.3,352c-1.1-4-3.3-8.4-7.5-12.8c0,0-29.4-1.4-29.6-1.4 c-1.6-0.1-3.4,8.2-5,17.1c3.9,2.3,7.1,4.6,11.3,4.7C294.3,359.6,304.6,356.5,314.3,352z"></path> </g> </g> </g> </g> </g> </g> </g> </g> </g> </g> </g> </g> </g> </g> <g> <g> <g> <g> <g> <g> <g> <g> <g> <g> <g> <g> <g> <g> <path class="st19" d="M266,340.9c-2.1,0-4.6-0.9-7-3.9c-1.2-1.5-2.3-2.8-3.4-4.2c-4.9-6-9.6-11.6-13.4-19.6 c-1.4-2.8-0.2-6.2,2.6-7.6c2.8-1.4,6.2-0.2,7.6,2.6c3.3,6.8,7.3,11.7,12,17.4c0.3,0.3,0.6,0.7,0.8,1l9-24.3 c1.1-2.9,4.4-4.4,7.3-3.3c2.9,1.1,4.4,4.4,3.3,7.3l-10.6,28.5c-1,2.6-2.9,4.6-5.4,5.5 C268.1,340.6,267.1,340.9,266,340.9z"></path> </g> </g> </g> </g> </g> </g> </g> </g> </g> </g> </g> </g> </g> </g> </g> </g> </svg>