<?xml version="1.0" encoding="UTF-8"?>
<svg width="90px" height="90px" viewBox="0 0 90 90" version="1.1" xmlns="http://www.w3.org/2000/svg" xmlns:xlink="http://www.w3.org/1999/xlink">
    <!-- Generator: Sketch 63.1 (92452) - https://sketch.com -->
    <title>Forex</title>
    <desc>Created with Sketch.</desc>
    <defs>
        <rect id="path-1" x="0" y="0" width="90" height="90"></rect>
        <rect id="path-3" x="0" y="0" width="90" height="90"></rect>
        <rect id="path-5" x="0" y="0" width="90" height="90"></rect>
        <rect id="path-7" x="0" y="0" width="90" height="90"></rect>
        <rect id="path-9" x="0" y="0" width="90" height="90"></rect>
        <rect id="path-11" x="0" y="0" width="90" height="90"></rect>
        <rect id="path-13" x="0" y="0" width="90" height="90"></rect>
        <rect id="path-15" x="0" y="0" width="90" height="90"></rect>
        <rect id="path-17" x="0" y="0" width="90" height="90"></rect>
        <rect id="path-19" x="0" y="0" width="90" height="90"></rect>
        <rect id="path-21" x="0" y="0" width="90" height="90"></rect>
    </defs>
    <g id="Page-1" stroke="none" stroke-width="1" fill="none" fill-rule="evenodd">
        <g id="Forex">
            <g id="Group">
                <g id="Clipped">
                    <mask id="mask-2" fill="white">
                        <use xlink:href="#path-1"></use>
                    </mask>
                    <g id="SVGID_55_"></g>
                    <path d="M90,45 C90,69.853125 69.853125,90 45,90 C20.146875,90 0,69.853125 0,45 C0,20.146875 20.146875,0 45,0 C69.853125,0 90,20.146875 90,45" id="Path" fill="#FC404D" fill-rule="nonzero" mask="url(#mask-2)"></path>
                </g>
                <g id="Clipped">
                    <mask id="mask-4" fill="white">
                        <use xlink:href="#path-3"></use>
                    </mask>
                    <g id="SVGID_55_"></g>
                    <path d="M72.72,9.56625 L56.5125,30.30375 L42.6675,48.015 L17.31,80.458125 C24.946875,86.431875 34.55625,90 45,90 C69.853125,90 90,69.853125 90,45 C90,30.6075 83.236875,17.805 72.72,9.56625" id="Path" fill="#D11C36" fill-rule="nonzero" mask="url(#mask-4)"></path>
                </g>
            </g>
            <g id="Group">
                <g id="Clipped">
                    <mask id="mask-6" fill="white">
                        <use xlink:href="#path-5"></use>
                    </mask>
                    <g id="SVGID_57_"></g>
                    <path d="M47.056875,18.714375 C44.754375,16.411875 41.74125,15.264375 38.728125,15.264375 C35.713125,15.264375 32.69625,16.411875 30.3975,18.714375 C25.798125,23.315625 25.798125,30.77625 30.3975,35.375625 C32.698125,37.67625 35.713125,38.829375 38.728125,38.829375 C41.74125,38.829375 44.75625,37.67625 47.056875,35.375625 C51.658125,30.77625 51.658125,23.319375 47.056875,18.714375" id="Path" fill="#F0EBE3" fill-rule="nonzero" mask="url(#mask-6)"></path>
                </g>
                <g id="Clipped">
                    <mask id="mask-8" fill="white">
                        <use xlink:href="#path-7"></use>
                    </mask>
                    <g id="SVGID_57_"></g>
                    <path d="M38.72625,17.139375 C44.18625,17.139375 48.63,21.585 48.631875,27.04875 C48.631875,32.50875 44.19,36.9525 38.72625,36.9525 C36.07875,36.9525 33.5925,35.923125 31.72125,34.051875 C29.85,32.180625 28.820625,29.6925 28.820625,27.04875 C28.820625,21.585 33.2625,17.139375 38.72625,17.139375 M38.72625,15.264375 C32.218125,15.264375 26.945625,20.53875 26.945625,27.04875 C26.945625,33.553125 32.22,38.8275 38.72625,38.8275 C45.2325,38.8275 50.506875,33.553125 50.506875,27.04875 C50.506875,20.53875 45.234375,15.264375 38.72625,15.264375" id="Shape" fill="#FEB3B8" fill-rule="nonzero" mask="url(#mask-8)"></path>
                </g>
                <g id="Clipped">
                    <mask id="mask-10" fill="white">
                        <use xlink:href="#path-9"></use>
                    </mask>
                    <g id="SVGID_57_"></g>
                    <path d="M37.6275,28.096875 L37.516875,27.91125 L35.44125,27.91125 C35.124375,27.91125 34.94625,27.73125 34.94625,27.41625 L34.94625,27.24375 C34.94625,26.926875 35.124375,26.750625 35.44125,26.750625 L36.8625,26.750625 L34.291875,22.23 C34.096875,21.88125 34.2375,21.63375 34.629375,21.63375 L35.919375,21.63375 C36.193125,21.63375 36.376875,21.744375 36.50625,21.984375 L38.724375,26.01 L40.94625,21.984375 C41.075625,21.744375 41.26125,21.63375 41.533125,21.63375 L42.823125,21.63375 C43.21875,21.63375 43.3575,21.883125 43.16625,22.23 L40.591875,26.750625 L42.013125,26.750625 C42.33,26.750625 42.51,26.926875 42.51,27.24375 L42.51,27.41625 C42.51,27.73125 42.33,27.91125 42.013125,27.91125 L39.928125,27.91125 L39.826875,28.096875 L39.826875,28.606875 L42.013125,28.606875 C42.33,28.606875 42.51,28.785 42.51,29.101875 L42.51,29.270625 C42.51,29.5875 42.33,29.765625 42.013125,29.765625 L39.826875,29.765625 L39.826875,31.963125 C39.826875,32.278125 39.64875,32.458125 39.331875,32.458125 L38.124375,32.458125 C37.809375,32.458125 37.629375,32.278125 37.629375,31.963125 L37.629375,29.765625 L35.443125,29.765625 C35.12625,29.765625 34.948125,29.5875 34.948125,29.270625 L34.948125,29.101875 C34.948125,28.785 35.12625,28.606875 35.443125,28.606875 L37.629375,28.606875 L37.629375,28.096875 L37.6275,28.096875 Z" id="Path" fill="#FC404D" fill-rule="nonzero" mask="url(#mask-10)"></path>
                </g>
                <g id="Clipped">
                    <mask id="mask-12" fill="white">
                        <use xlink:href="#path-11"></use>
                    </mask>
                    <g id="SVGID_57_"></g>
                    <path d="M67.785,28.374375 C65.07375,25.663125 61.515,24.305625 57.96,24.305625 C54.403125,24.305625 50.848125,25.663125 48.135,28.374375 C42.706875,33.804375 42.706875,42.598125 48.135,48.02625 C50.848125,50.739375 54.405,52.096875 57.96,52.096875 C61.515,52.096875 65.07375,50.739375 67.785,48.02625 C73.213125,42.598125 73.215,33.8025 67.785,28.374375" id="Path" fill="#FEB3B8" fill-rule="nonzero" mask="url(#mask-12)"></path>
                </g>
                <g id="Clipped">
                    <mask id="mask-14" fill="white">
                        <use xlink:href="#path-13"></use>
                    </mask>
                    <g id="SVGID_57_"></g>
                    <path d="M57.961875,26.180625 C64.588125,26.180625 69.980625,31.57125 69.980625,38.199375 C69.980625,44.8275 64.588125,50.22 57.961875,50.22 C54.748125,50.22 51.73125,48.97125 49.460625,46.700625 C47.19,44.43 45.94125,41.41125 45.94125,38.199375 C45.94125,31.57125 51.33375,26.180625 57.961875,26.180625 M57.961875,24.305625 C50.28375,24.305625 44.0662483,30.525 44.0662483,38.199375 C44.0625,45.8775 50.285625,52.095 57.961875,52.095 C65.638125,52.095 71.855625,45.8775 71.855625,38.199375 C71.855625,30.523125 65.63625,24.305625 57.961875,24.305625" id="Shape" fill="#F0EBE3" fill-rule="nonzero" mask="url(#mask-14)"></path>
                </g>
                <g id="Clipped">
                    <mask id="mask-16" fill="white">
                        <use xlink:href="#path-15"></use>
                    </mask>
                    <g id="SVGID_57_"></g>
                    <path d="M54.885,41.43375 C55.5525,42.028125 56.251875,42.414375 57.07875,42.564375 L57.07875,39.009375 C54.654375,38.439375 53.368125,37.126875 53.368125,35.263125 C53.368125,33.2625 54.875625,31.8 57.07875,31.5825 L57.07875,30.49125 C57.07875,30.110625 57.290625,29.9025 57.665625,29.9025 L58.10625,29.9025 C58.483125,29.9025 58.693125,30.110625 58.693125,30.49125 L58.693125,31.644375 C60.40875,31.929375 61.7025,32.96625 62.145,34.805625 C62.24625,35.20875 62.015625,35.44875 61.6125,35.44875 L60.16125,35.44875 C59.8125,35.44875 59.6325,35.28375 59.50125,34.940625 C59.326875,34.501875 59.05125,34.179375 58.693125,33.98625 L58.693125,37.01625 C61.39125,37.693125 62.55,39.009375 62.55,40.970625 C62.55,42.991875 61.10625,44.50875 58.693125,44.79 L58.693125,45.913125 C58.693125,46.29 58.483125,46.5 58.10625,46.5 L57.665625,46.5 C57.290625,46.5 57.07875,46.291875 57.07875,45.913125 L57.07875,44.7825 C55.875,44.581875 54.6825,43.89 53.6625,42.6525 C53.43375,42.358125 53.46375,42.073125 53.709375,41.81625 L54.058125,41.450625 C54.315,41.175 54.6,41.165625 54.885,41.43375 M57.07875,36.511875 L57.07875,33.856875 C56.435625,34.033125 56.004375,34.483125 56.004375,35.07 C56.004375,35.664375 56.308125,36.144375 57.07875,36.511875 M58.696875,39.478125 L58.696875,42.4875 C59.431875,42.25875 59.915625,41.745 59.915625,41.04375 C59.915625,40.430625 59.634375,39.9 58.696875,39.478125" id="Shape" fill="#282424" fill-rule="nonzero" mask="url(#mask-16)"></path>
                </g>
                <g id="Clipped">
                    <mask id="mask-18" fill="white">
                        <use xlink:href="#path-17"></use>
                    </mask>
                    <g id="SVGID_57_"></g>
                    <path d="M40.996875,42.286875 C31.92,42.286875 24.564375,49.644375 24.564375,58.72125 C24.564375,67.79625 31.921875,75.151875 40.996875,75.151875 C50.07375,75.151875 57.429375,67.798125 57.429375,58.72125 C57.4275,49.644375 50.071875,42.286875 40.996875,42.286875" id="Path" fill="#F9F7F4" fill-rule="nonzero" mask="url(#mask-18)"></path>
                </g>
                <g id="Clipped">
                    <mask id="mask-20" fill="white">
                        <use xlink:href="#path-19"></use>
                    </mask>
                    <g id="SVGID_57_"></g>
                    <path d="M41.015625,44.161875 C49.0425,44.161875 55.573125,50.6925 55.575,58.72125 C55.575,66.748125 49.044375,73.276875 41.015625,73.276875 C37.126875,73.276875 33.474375,71.76375 30.72375,69.016875 C27.975,66.26625 26.4599996,62.611875 26.4599996,58.723125 C26.458125,50.6925 32.990625,44.161875 41.015625,44.161875 M41.015625,42.286875 C31.940625,42.286875 24.583125,49.644375 24.583125,58.72125 C24.583125,67.79625 31.940625,75.151875 41.015625,75.151875 C50.094375,75.151875 57.45,67.798125 57.45,58.72125 C57.448125,49.644375 50.0925,42.286875 41.015625,42.286875" id="Shape" fill="#FEB3B8" fill-rule="nonzero" mask="url(#mask-20)"></path>
                </g>
                <g id="Clipped">
                    <mask id="mask-22" fill="white">
                        <use xlink:href="#path-21"></use>
                    </mask>
                    <g id="SVGID_57_"></g>
                    <path d="M34.01625,58.719375 C34.01625,58.520625 34.0275,58.318125 34.040625,58.119375 L33.429375,58.119375 C32.998125,58.119375 32.75625,57.8775 32.75625,57.44625 L32.75625,57.225 C32.75625,56.795625 32.998125,56.551875 33.429375,56.551875 L34.30125,56.551875 C35.188125,53.3625 37.9875,51.0975 41.505,51.0975 C44.79,51.0975 47.158125,52.824375 48.13875,55.730625 C48.285,56.195625 48.043125,56.49 47.5575,56.49 L45.7875,56.49 C45.3975,56.49 45.166875,56.31 45.009375,55.9425 C44.36625,54.478125 43.0725,53.709375 41.503125,53.709375 C39.67125,53.709375 38.145,54.8475 37.449375,56.55375 L42.208125,56.55375 C42.6825,56.55375 42.915,56.836875 42.789375,57.31125 L42.7275,57.555 C42.61875,57.931875 42.376875,58.123125 41.979375,58.123125 L37.0725,58.123125 C37.05,58.321875 37.040625,58.524375 37.040625,58.723125 C37.040625,58.933125 37.05,59.13375 37.0725,59.32125 L41.473125,59.32125 C41.949375,59.32125 42.18,59.60625 42.054375,60.080625 L41.990625,60.3225 C41.88375,60.70125 41.641875,60.890625 41.244375,60.890625 L37.47375,60.890625 C38.2125,62.596875 39.811875,63.735 41.716875,63.735 C43.591875,63.735 44.97,63.03 46.065,61.595625 C46.33875,61.239375 46.666875,61.185 47.01375,61.449375 L47.656875,61.935 C47.994375,62.188125 48.069375,62.503125 47.848125,62.859375 C46.38375,65.15625 44.446875,66.345 41.50875,66.345 C37.99125,66.345 35.191875,64.09125 34.305,60.890625 L33.433125,60.890625 C33.001875,60.890625 32.76,60.64875 32.76,60.2175 L32.76,59.998125 C32.76,59.566875 33.001875,59.323125 33.433125,59.323125 L34.044375,59.323125 C34.025625,59.120625 34.01625,58.918125 34.01625,58.719375" id="Path" fill="#FC404D" fill-rule="nonzero" mask="url(#mask-22)"></path>
                </g>
            </g>
        </g>
    </g>
</svg>