<?xml version="1.0" encoding="UTF-8"?>
<svg width="90px" height="90px" viewBox="0 0 90 90" version="1.1" xmlns="http://www.w3.org/2000/svg" xmlns:xlink="http://www.w3.org/1999/xlink">
    <!-- Generator: Sketch 63.1 (92452) - https://sketch.com -->
    <title>Regulations</title>
    <desc>Created with Sketch.</desc>
    <defs>
        <path d="M22.5,1.393125 L2.090625,9.868125 C2.090625,9.868125 -1.640625,33.046875 13.599375,45.384375 C16.75875,48.223125 20.0775,50.1675 22.5,51.099375 C25.899375,49.6875 30.55875,47.083125 35.356875,41.236875 C38.611875,37.03125 43.59375,29.334375 42.909375,17.655 C42.909375,11.795625 42.909375,9.868125 42.909375,9.868125 L22.5,1.393125 Z" id="path-1"></path>
        <path d="M48.871875,6.97125 L25.089375,0.63375 C24.496875,0.474375 23.859375,0.560625 23.326875,0.87 L2.049375,13.239375 C1.239375,13.711875 0.793125,14.623125 0.916875,15.553125 L2.439375,26.92125 C4.535625,42.58125 15.883125,55.39875 31.17,59.37375 C31.756875,59.5275 32.38125,59.44125 32.91,59.14125 C46.610625,51.285 54.189375,35.934375 52.093125,20.27625 L50.570625,8.90625 C50.44875,7.97625 49.7775,7.213125 48.871875,6.97125 Z M47.4975,20.89125 C49.27875,34.201875 43.1025,47.499375 31.423125,54.63 C18.628125,50.923125 8.870625,39.97875 7.03875,26.30625 L5.724375,16.471875 L24.826875,5.364375 L46.183125,11.055 L47.4975,20.89125 Z M27.19875,31.809375 L35.758125,20.60625 C36.53625,19.59 37.989375,19.393125 39.005625,20.17125 C40.025625,20.9475 40.21875,22.4025 39.440625,23.4225 L29.476875,36.466875 C28.69875,37.486875 27.24375,37.68 26.225625,36.901875 L18.939375,31.336875 C17.92125,30.560625 17.728125,29.105625 18.50625,28.0875 C19.284375,27.0675 20.739375,26.874375 21.7575,27.6525 L27.19875,31.809375 Z" id="path-3"></path>
    </defs>
    <g id="Page-1" stroke="none" stroke-width="1" fill="none" fill-rule="evenodd">
        <g id="Regulations">
            <path d="M90,45 C90,69.853125 69.853125,90 45,90 C20.146875,90 0,69.853125 0,45 C0,20.146875 20.146875,0 45,0 C69.853125,0 90,20.146875 90,45" id="Path" fill="#FC404D" fill-rule="nonzero"></path>
            <path d="M72.72,9.56625 L56.5125,30.30375 L42.6675,48.015 L17.30625,80.458125 C24.946875,86.431875 34.55625,90 45,90 C69.853125,90 90,69.853125 90,45 C90,30.6075 83.236875,17.805 72.72,9.56625" id="Path" fill="#D11C36" fill-rule="nonzero"></path>
            <path d="M45,20.143125 L24.590625,28.618125 C24.590625,28.618125 20.859375,51.796875 36.099375,64.134375 C39.25875,66.973125 42.5775,68.9175 45,69.849375 C48.399375,68.4375 53.05875,65.833125 57.856875,59.986875 C61.111875,55.78125 66.09375,48.084375 65.409375,36.405 C65.409375,30.545625 65.409375,28.618125 65.409375,28.618125 L45,20.143125 Z" id="Path" fill="#F0EBE3" fill-rule="nonzero"></path>
            <g id="Clipped" transform="translate(22.500000, 18.750000)">
                <mask id="mask-2" fill="white">
                    <use xlink:href="#path-1"></use>
                </mask>
                <g id="SVGID_11_"></g>
                <path d="M50.22,-9.18375 L34.0125,11.55375 L20.1675,29.265 L-5.19375,61.708125 C2.446875,67.681875 12.05625,71.25 22.5,71.25 C47.353125,71.25 67.5,51.103125 67.5,26.25 C67.5,11.8575 60.736875,-0.945 50.22,-9.18375" id="Path" fill="#FC404D" fill-rule="nonzero" mask="url(#mask-2)"></path>
            </g>
            <g id="Clipped" transform="translate(16.875000, 15.000000)">
                <mask id="mask-4" fill="white">
                    <use xlink:href="#path-3"></use>
                </mask>
                <g id="SVGID_13_"></g>
                <polygon id="Rectangle" fill="#2F2C2B" fill-rule="nonzero" mask="url(#mask-4)" transform="translate(27.916785, 27.547582) rotate(-7.625310) translate(-27.916785, -27.547582) " points="13.9708679 16.1799012 41.8627023 16.1799012 41.8627023 38.9152621 13.9708679 38.9152621"></polygon>
            </g>
            <path d="M68.619375,24.928125 L45.890625,15.49125 C45.320625,15.255 44.679375,15.255 44.11125,15.49125 L21.3825,24.928125 C20.51625,25.28625 19.951875,26.13375 19.951875,27.07125 L19.951875,38.540625 C19.951875,54.339375 29.499375,68.548125 44.124375,74.518125 C44.686875,74.746875 45.316875,74.746875 45.879375,74.518125 C60.5025,68.548125 70.051875,54.339375 70.051875,38.540625 L70.051875,27.07125 C70.048125,26.13375 69.48375,25.28625 68.619375,24.928125 Z M65.41125,38.540625 C65.41125,51.969375 57.525,64.333125 45,69.849375 C32.810625,64.479375 24.590625,52.333125 24.590625,38.540625 L24.590625,28.618125 L45,20.143125 L65.41125,28.618125 L65.41125,38.540625 L65.41125,38.540625 Z" id="Shape" fill="#FEB3B8" fill-rule="nonzero"></path>
        </g>
    </g>
</svg>