<?xml version="1.0" encoding="UTF-8"?>
<svg width="99px" height="99px" viewBox="0 0 99 99" version="1.1" xmlns="http://www.w3.org/2000/svg" xmlns:xlink="http://www.w3.org/1999/xlink">
    <!-- Generator: Sketch 63.1 (92452) - https://sketch.com -->
    <title>Group 9</title>
    <desc>Created with Sketch.</desc>
    <g id="Symbols" stroke="none" stroke-width="1" fill="none" fill-rule="evenodd">
        <g id="DESKTOP_MODULES" transform="translate(-972.000000, -4477.000000)">
            <g id="CRYPTO-ICON" transform="translate(927.000000, 4477.000000)">
                <g id="Group-9" transform="translate(45.000000, 0.000000)">
                    <g id="BACKGROUND" fill-rule="nonzero">
                        <circle id="Oval" fill="#FC404D" cx="48.9795918" cy="48.9795918" r="48.9795918"></circle>
                        <path d="M79.1428571,10.4081633 L61.5102041,32.9795918 L46.4489796,52.2653061 L18.8367347,87.5714286 C32.5808869,98.8278951 51.3427044,101.759656 67.8657157,95.2327993 C84.388727,88.7059429 96.0821855,73.743856 98.4234352,56.1333958 C100.764685,38.5229356 93.3866264,21.0253566 79.1428571,10.4081633 Z" id="Path" fill="#D11C36"></path>
                    </g>
                    <g id="CONTENT" transform="translate(24.489796, 16.326531)">
                        <line x1="44.4081633" y1="16.2040816" x2="31.0204082" y2="33.3673469" id="Path" stroke="#F0EBE3"></line>
                        <line x1="43.9591837" y1="14.4285714" x2="28.9795918" y2="5.34693878" id="Path" stroke="#F0EBE3"></line>
                        <circle id="Oval" fill="#FEB3B8" fill-rule="nonzero" cx="45.2857143" cy="15.244898" r="7.06122449"></circle>
                        <circle id="Oval" fill="#2F2C2B" fill-rule="nonzero" cx="28.9795918" cy="5.34693878" r="4.55102041"></circle>
                        <circle id="Oval" fill="#EFEAE2" fill-rule="nonzero" cx="24.4081633" cy="41.4897959" r="22.6938776"></circle>
                        <path d="M24.4897959,20.7346537 C35.9417877,20.7797365 45.193193,30.0919627 45.1632668,41.5440037 C45.1331952,52.9960448 35.8331299,62.2596749 24.3810593,62.2447378 C12.9289888,62.2297645 3.65306122,52.9418763 3.65306122,41.4897959 C3.66387577,35.9743722 5.86524642,30.6891431 9.77289449,26.7968041 C13.6805426,22.9044651 18.9743722,20.7238581 24.4897959,20.7346537 M24.4897959,18.5916902 C15.2210789,18.558793 6.84663096,24.1167023 3.27672669,32.6704144 C-0.293177578,41.2241266 1.64567357,51.0863064 8.18797387,57.6520138 C14.7302742,64.2177213 24.5854666,66.191782 33.1518738,62.6524494 C41.718281,59.1131168 47.3061224,50.7585719 47.3061224,41.4897959 C47.3061224,28.8754133 37.1040984,18.6368078 24.4897959,18.5916902 L24.4897959,18.5916902 Z" id="Shape" fill="#FEB3B8" fill-rule="nonzero"></path>
                        <g id="g16" transform="translate(16.326531, 30.612245)" fill="#FC404D" fill-rule="nonzero">
                            <path d="M15.6122449,6.93877551 C15.4081633,4.51020408 13.3469388,3.67346939 10.7142857,3.40816327 L10.7142857,0.0408163265 L8.67346939,0.0408163265 L8.67346939,3.30612245 L7.04081633,3.30612245 L7.04081633,0.0204081633 L5,0.0204081633 L5,3.3877551 L3.69387755,3.3877551 L0.87755102,3.3877551 L0.87755102,5.57142857 C0.87755102,5.57142857 2.3877551,5.57142857 2.36734694,5.57142857 C2.94004675,5.51123617 3.4562479,5.9187634 3.53061224,6.48979592 L3.53061224,10.3061224 L3.53061224,10.3061224 L3.53061224,15.6530612 C3.49803481,16.050974 3.15365321,16.3500422 2.75510204,16.3265306 L1.26530612,16.3265306 L0.836734694,18.755102 L3.48979592,18.755102 L4.93877551,18.755102 L4.93877551,22.1428571 L6.97959184,22.1428571 L6.97959184,18.7959184 L8.6122449,18.7959184 L8.6122449,22.122449 L10.6530612,22.122449 L10.6530612,18.7346939 C14.1020408,18.5714286 16.5102041,17.755102 16.7755102,14.5306122 C17.0036537,13.5793315 16.822046,12.5759694 16.2749384,11.7650084 C15.7278307,10.9540474 14.8654618,10.4099549 13.8979592,10.2653061 C15.2043063,9.67230439 15.9432771,8.26993925 15.6938776,6.85714286 L15.6122449,6.93877551 Z M12.6530612,14.1428571 C12.6530612,16.6938776 8.28571429,16.3469388 6.89795918,16.3265306 L6.89795918,11.8163265 C8.34693878,11.8367347 12.6938776,11.5102041 12.6530612,14.1428571 Z M11.7959184,7.79591837 C11.7959184,10.1020408 8.14285714,9.83673469 7,9.83673469 L7,5.75510204 C8.16326531,5.69387755 11.8367347,5.3877551 11.7959184,7.79591837 L11.7959184,7.79591837 Z" id="symbol"></path>
                        </g>
                    </g>
                </g>
            </g>
        </g>
    </g>
</svg>