<?xml version="1.0" encoding="UTF-8"?>
<svg width="90px" height="90px" viewBox="0 0 90 90" version="1.1" xmlns="http://www.w3.org/2000/svg" xmlns:xlink="http://www.w3.org/1999/xlink">
    <!-- Generator: Sketch 63.1 (92452) - https://sketch.com -->
    <title>Insights</title>
    <desc>Created with Sketch.</desc>
    <defs>
        <rect id="path-1" x="0" y="0" width="89.998125" height="90"></rect>
        <rect id="path-3" x="0" y="0" width="89.998125" height="90"></rect>
    </defs>
    <g id="Page-1" stroke="none" stroke-width="1" fill="none" fill-rule="evenodd">
        <g id="Insights">
            <g id="Group">
                <g id="Clipped">
                    <mask id="mask-2" fill="white">
                        <use xlink:href="#path-1"></use>
                    </mask>
                    <g id="SVGID_109_"></g>
                    <path d="M89.998125,45 C89.998125,69.853125 69.853125,90 45,90 C20.146875,90 0,69.853125 0,45 C0,20.146875 20.146875,0 45,0 C69.853125,0 89.998125,20.146875 89.998125,45" id="Path" fill="#FC404D" fill-rule="nonzero" mask="url(#mask-2)"></path>
                </g>
                <g id="Clipped">
                    <mask id="mask-4" fill="white">
                        <use xlink:href="#path-3"></use>
                    </mask>
                    <g id="SVGID_109_"></g>
                    <path d="M72.72,9.56625 L56.5125,30.30375 L42.6675,48.015 L17.31,80.458125 C24.946875,86.431875 34.55625,90 45,90 C69.853125,90 89.998125,69.853125 89.998125,45 C89.998125,30.6075 83.235,17.805 72.72,9.56625" id="Path" fill="#D11C36" fill-rule="nonzero" mask="url(#mask-4)"></path>
                </g>
            </g>
            <g id="Group" transform="translate(13.125000, 26.250000)" fill-rule="nonzero">
                <path d="M31.875,3.238125 C18.958125,3.238125 7.66125,9.46125 1.515,18.74625 C7.66125,28.03125 18.958125,34.25625 31.875,34.25625 C44.79375,34.25625 56.08875,28.033125 62.236875,18.748125 C56.08875,9.46125 44.79375,3.238125 31.875,3.238125 Z" id="Path" fill="#F0EBE3"></path>
                <circle id="Oval" fill="#FEB3B8" cx="31.3275" cy="18.74625" r="15.620625"></circle>
                <path d="M31.875,35.6625 C19.01625,35.6625 6.931875,29.47875 0.343125,19.524375 C0.03,19.05375 0.03,18.4425 0.343125,17.971875 C6.93375,8.015625 19.01625,1.83375 31.875,1.83375 C44.73375,1.83375 56.818125,8.0175 63.40875,17.971875 C63.721875,18.4425 63.721875,19.05375 63.40875,19.524375 C56.818125,29.47875 44.73375,35.6625 31.875,35.6625 Z M3.219375,18.74625 C9.40125,27.466875 20.285625,32.85 31.875,32.85 C43.4625,32.85 54.34875,27.46875 60.5325,18.748125 C54.34875,10.025625 43.4625,4.644375 31.875,4.644375 C20.285625,4.644375 9.40125,10.025625 3.219375,18.74625 Z" id="Shape" fill="#F0EBE3"></path>
                <path d="M31.3275,27.405 C26.551875,27.405 22.66875,23.521875 22.66875,18.74625 C22.66875,13.970625 26.551875,10.0875 31.3275,10.0875 C36.103125,10.0875 39.98625,13.970625 39.98625,18.74625 C39.98625,23.521875 36.103125,27.405 31.3275,27.405 Z M31.3275,12.9 C28.1025,12.9 25.48125,15.52125 25.48125,18.74625 C25.48125,21.97125 28.1025,24.5925 31.3275,24.5925 C34.5525,24.5925 37.17375,21.97125 37.17375,18.74625 C37.17375,15.52125 34.5525,12.9 31.3275,12.9 Z" id="Shape" fill="#282424"></path>
            </g>
        </g>
    </g>
</svg>