<?xml version="1.0" encoding="utf-8"?>
<!-- Generator: Adobe Illustrator 24.0.1, SVG Export Plug-In . SVG Version: 6.00 Build 0)  -->
<svg version="1.0" id="Layer_1" xmlns="http://www.w3.org/2000/svg" xmlns:xlink="http://www.w3.org/1999/xlink" x="0px" y="0px"
	 width="100px" height="100px" viewBox="0 0 100 100" enable-background="new 0 0 100 100" xml:space="preserve">
<g>
	<g id="SPREADS_3_">
		<g>
			<circle fill="#FF404D" cx="50" cy="50" r="49.5"/>
			<g>
				<path fill="#D11C36" d="M80.5,11.1L62.7,33.8L47.4,53.3L19.6,89c8.4,6.6,19,10.5,30.4,10.5c27.3,0,49.5-22.1,49.5-49.5
					C99.5,34.2,92,20.1,80.5,11.1z"/>
			</g>
		</g>
	</g>
</g>
<g>
	<path fill="#F3EFE9" d="M56.8,27c12.3,0,18.5,11.8,18.5,27.2c0,15.5-6.2,27.2-18.5,27.2c-12.3,0-18.5-11.7-18.5-27.2
		C38.3,38.8,44.4,27,56.8,27z M56.8,71.9c5.7,0,8.1-7,8.1-17.7c0-10.7-2.4-17.6-8.1-17.6s-8.1,7-8.1,17.6
		C48.6,64.9,51.1,71.9,56.8,71.9z"/>
</g>
<g>
	<g>
		<g>
			<path fill="#282424" d="M30.4,57.9c-2,0-3.3-1.4-3.3-3.3v-1c-2.7-0.8-5.2-2.6-7.3-5.1c-1.1-1.5-1.1-3.2,0.2-4.5l0.8-0.8
				c0.8-0.9,1.8-1.1,2.4-1.1c0.6,0,1.4,0.2,2.3,1c0.5,0.5,1.1,0.9,1.6,1.2v-3.7c-7.3-2.3-8.4-7.2-8.4-10c0-5,3.3-8.8,8.4-10v-0.8
				c0-2,1.4-3.3,3.3-3.3h1c2,0,3.3,1.4,3.3,3.3v1c4,1.2,6.7,4.1,7.8,8.3c0.3,1,0.1,2-0.5,2.7c-0.6,0.8-1.5,1.2-2.6,1.2H36
				c-0.4,0-0.9-0.1-1.3-0.2v0.3c5.8,1.9,8.7,5.4,8.7,10.5c0,5.2-3.4,9.1-8.7,10.3v0.9c0,2-1.4,3.3-3.3,3.3H30.4z"/>
			<path fill="#FF404D" d="M31.4,18.4c0.9,0,1.3,0.5,1.3,1.3v2.6c3.9,0.6,6.8,3,7.8,7.1c0.2,0.9-0.3,1.5-1.2,1.5H36
				c-0.8,0-1.2-0.4-1.5-1.1c-0.4-1-1-1.7-1.8-2.2v6.9c6.1,1.5,8.7,4.5,8.7,8.9c0,4.6-3.3,8-8.7,8.6v2.5c0,0.9-0.5,1.3-1.3,1.3h-1
				c-0.9,0-1.3-0.5-1.3-1.3V52c-2.7-0.5-5.4-2-7.7-4.8c-0.5-0.7-0.5-1.3,0.1-1.9l0.8-0.8c0.3-0.3,0.6-0.5,0.9-0.5
				c0.3,0,0.6,0.1,0.9,0.4c1.5,1.3,3.1,2.2,5,2.6v-8c-5.5-1.3-8.4-4.3-8.4-8.5c0-4.5,3.4-7.8,8.4-8.3v-2.5c0-0.9,0.5-1.3,1.3-1.3
				H31.4 M29,33.3v-6c-1.5,0.4-2.4,1.4-2.4,2.7C26.6,31.4,27.3,32.5,29,33.3 M32.7,46.8c1.7-0.5,2.8-1.7,2.8-3.3
				c0-1.4-0.6-2.6-2.8-3.6V46.8 M31.4,14.4h-1c-2.8,0-4.9,1.9-5.3,4.6c-5.1,1.8-8.4,6.2-8.4,11.5c0,4.1,1.8,7.4,5.2,9.7
				c-0.9,0.3-1.8,0.8-2.5,1.6l-0.8,0.8c-1.9,2-2.1,4.9-0.4,7.1l0,0l0,0c2,2.4,4.3,4.2,6.8,5.3c0.2,2.8,2.4,4.9,5.3,4.9h1
				c2.8,0,5-2,5.3-4.7c5.4-1.8,8.8-6.3,8.8-11.8c0-4.1-1.6-6.9-3.9-9c0.8-0.3,1.4-0.8,1.9-1.5c1-1.2,1.3-2.9,0.9-4.5
				c-1-4.3-3.8-7.6-7.7-9.2C36.5,16.5,34.3,14.4,31.4,14.4L31.4,14.4z"/>
		</g>
	</g>
</g>
</svg>
