<?xml version="1.0" encoding="UTF-8"?>
<svg width="90px" height="90px" viewBox="0 0 90 90" version="1.1" xmlns="http://www.w3.org/2000/svg" xmlns:xlink="http://www.w3.org/1999/xlink">
    <!-- Generator: Sketch 63.1 (92452) - https://sketch.com -->
    <title>Tutorials</title>
    <desc>Created with Sketch.</desc>
    <g id="Page-1" stroke="none" stroke-width="1" fill="none" fill-rule="evenodd">
        <g id="Tutorials">
            <path d="M90,45 C90,69.853125 69.853125,90 45,90 C20.146875,90 0,69.853125 0,45 C0,20.146875 20.146875,0 45,0 C69.853125,0 90,20.146875 90,45" id="Path" fill="#FC404D" fill-rule="nonzero"></path>
            <path d="M72.72,9.56625 L56.5125,30.30375 L42.6675,48.015 L17.30625,80.458125 C24.946875,86.431875 34.55625,90 45,90 C69.853125,90 90,69.853125 90,45 C90,30.6075 83.236875,17.805 72.72,9.56625" id="Path" fill="#D11C36" fill-rule="nonzero"></path>
            <rect id="Rectangle" x="0" y="0" width="90" height="90"></rect>
            <g id="Group" transform="translate(9.375000, 28.125000)" fill-rule="nonzero">
                <path d="M66.21375,25.57875 C66.215625,25.56 66.219375,25.54125 66.219375,25.524375 L66.219375,21.72 C66.219375,21.489375 66.031875,21.301875 65.80125,21.301875 C65.570625,21.301875 65.385,21.489375 65.385,21.72 L65.385,25.524375 C65.385,25.543125 65.386875,25.561875 65.38875,25.57875 C64.695,25.7625 64.183125,26.38875 64.183125,27.13875 C64.183125,28.03125 64.906875,28.755 65.799375,28.755 C66.691875,28.755 67.4137705,28.029375 67.4137705,27.13875 C67.4175,26.386875 66.905625,25.760625 66.21375,25.57875 Z" id="Path" fill="#2F2C2B"></path>
                <path d="M65.803125,29.116875 C64.90875,29.116875 64.186875,30.249375 64.186875,31.648125 L64.186875,34.175625 L67.419375,34.175625 L67.419375,31.648125 C67.4175,30.25125 66.69375,29.116875 65.803125,29.116875 Z" id="Path" fill="#2F2C2B"></path>
                <polygon id="Path" fill="#FEB3B8" points="0.688125 19.580625 35.446875 1.02375 70.224375 19.580625 35.454375 36.57375"></polygon>
                <path d="M35.454375,15.879375 C23.851875,15.879375 14.44875,17.559375 14.44875,19.633125 L14.44875,33.39375 C14.44875,35.465625 23.85375,37.1475 35.454375,37.1475 C47.056875,37.1475 56.461875,35.4675 56.461875,33.39375 L56.461875,19.633125 C56.461875,17.559375 47.05875,15.879375 35.454375,15.879375 Z" id="Path" fill="#FFFFFF"></path>
                <ellipse id="Oval" fill="#FEB3B8" cx="35.454375" cy="32.45625" rx="20.424375" ry="3.64875"></ellipse>
                <path d="M35.454375,15.879375 C23.851875,15.879375 14.44875,17.559375 14.44875,19.633125 L14.44875,21.718125 C14.44875,19.644375 23.85375,17.964375 35.454375,17.964375 C47.056875,17.964375 56.461875,19.644375 56.461875,21.718125 L56.461875,19.633125 C56.461875,17.559375 47.05875,15.879375 35.454375,15.879375 Z" id="Path" fill="#FEB3B8"></path>
            </g>
        </g>
    </g>
</svg>