<?xml version="1.0" encoding="UTF-8"?>
<svg width="90px" height="90px" viewBox="0 0 90 90" version="1.1" xmlns="http://www.w3.org/2000/svg" xmlns:xlink="http://www.w3.org/1999/xlink">
    <!-- Generator: Sketch 63.1 (92452) - https://sketch.com -->
    <title>Copper</title>
    <desc>Created with Sketch.</desc>
    <defs>
        <rect id="path-1" x="0" y="0" width="90" height="90"></rect>
        <rect id="path-3" x="0" y="0" width="90" height="90"></rect>
        <rect id="path-5" x="0" y="0" width="90" height="90"></rect>
        <path d="M28.621875,35.20125 L0.34125,35.20125 C0.34125,35.20125 0.82875,22.063125 0.82875,17.679375 C0.82875,13.2975 0.34125,0.1575 0.34125,0.1575 L28.621875,0.1575 C28.621875,0.1575 28.134375,13.295625 28.134375,17.679375 C28.134375,22.065 28.621875,35.20125 28.621875,35.20125 Z" id="path-7"></path>
    </defs>
    <g id="Page-1" stroke="none" stroke-width="1" fill="none" fill-rule="evenodd">
        <g id="Copper">
            <g id="Clipped">
                <mask id="mask-2" fill="white">
                    <use xlink:href="#path-1"></use>
                </mask>
                <g id="SVGID_5_"></g>
                <path d="M90,45 C90,69.853125 69.853125,90 45,90 C20.146875,90 0,69.853125 0,45 C0,20.146875 20.146875,0 45,0 C69.853125,0 90,20.146875 90,45" id="Path" fill="#FC404D" fill-rule="nonzero" mask="url(#mask-2)"></path>
            </g>
            <g id="Clipped">
                <mask id="mask-4" fill="white">
                    <use xlink:href="#path-3"></use>
                </mask>
                <g id="SVGID_5_"></g>
                <path d="M72.72,9.56625 L56.5125,30.305625 L42.6675,48.016875 L17.30625,80.458125 C24.946875,86.431875 34.55625,90 45,90 C69.853125,90 90,69.853125 90,45 C90,30.609375 83.236875,17.805 72.72,9.56625" id="Path" fill="#D11C36" fill-rule="nonzero" mask="url(#mask-4)"></path>
            </g>
            <g id="Clipped">
                <mask id="mask-6" fill="white">
                    <use xlink:href="#path-5"></use>
                </mask>
                <g id="SVGID_5_"></g>
                <g id="Group" mask="url(#mask-6)">
                    <g transform="translate(24.375000, 24.375000)">
                        <path d="M1.546875,3.09375 L1.546875,1.933125 C1.546875,1.479375 1.82625,1.1175 2.17125,1.1175 L38.03625,1.1175 C38.383125,1.1175 38.6625,1.479375 38.6625,1.933125 L38.6625,3.09375 C38.6625,3.54375 38.383125,3.909375 38.03625,3.909375 L2.17125,3.909375 C1.828125,3.909375 1.546875,3.54375 1.546875,3.09375" id="Path" fill="#2F2C2B" fill-rule="nonzero"></path>
                        <path d="M1.546875,40.929375 L1.546875,39.76875 C1.546875,39.316875 1.82625,38.95125 2.17125,38.95125 L38.03625,38.95125 C38.383125,38.95125 38.6625,39.315 38.6625,39.76875 L38.6625,40.929375 C38.6625,41.379375 38.383125,41.745 38.03625,41.745 L2.17125,41.745 C1.828125,41.745 1.546875,41.379375 1.546875,40.929375" id="Path" fill="#2F2C2B" fill-rule="nonzero"></path>
                        <path d="M34.246875,38.95125 L5.96625,38.95125 C5.96625,38.95125 6.45375,25.813125 6.45375,21.429375 C6.45375,17.0475 5.96625,3.9075 5.96625,3.9075 L34.246875,3.9075 C34.246875,3.9075 33.759375,17.045625 33.759375,21.429375 C33.759375,25.815 34.246875,38.95125 34.246875,38.95125 Z" id="Path" fill="#F0EBE3" fill-rule="nonzero"></path>
                        <g id="Clipped" stroke-width="1" fill="none" fill-rule="evenodd" transform="translate(5.625000, 3.750000)">
                            <mask id="mask-8" fill="white">
                                <use xlink:href="#path-7"></use>
                            </mask>
                            <g id="SVGID_7_"></g>
                            <g id="Group" mask="url(#mask-8)" fill="#FEB3B8" fill-rule="nonzero">
                                <g transform="translate(-1.875000, 1.875000)" id="Path">
                                    <path d="M30.361875,2.570625 L2.21625,2.570625 C1.805625,2.570625 1.47375,2.23875 1.47375,1.828125 C1.47375,1.419375 1.805625,1.0875 2.21625,1.0875 L30.36375,1.0875 C30.774375,1.0875 31.10625,1.419375 31.10625,1.828125 C31.104375,2.23875 30.7725,2.570625 30.361875,2.570625 Z"></path>
                                    <path d="M30.361875,8.214375 L2.21625,8.214375 C1.805625,8.214375 1.47375,7.8825 1.47375,7.47375 C1.47375,7.065 1.805625,6.733125 2.21625,6.733125 L30.36375,6.733125 C30.774375,6.733125 31.10625,7.065 31.10625,7.47375 C31.10625,7.8825 30.7725,8.214375 30.361875,8.214375 Z"></path>
                                    <path d="M30.429375,13.86 L2.28,13.86 C1.87125,13.86 1.539375,13.528125 1.539375,13.119375 C1.539375,12.710625 1.87125,12.37875 2.28,12.37875 L30.43125,12.37875 C30.838125,12.37875 31.171875,12.710625 31.171875,13.119375 C31.171875,13.528125 30.83625,13.86 30.429375,13.86 Z"></path>
                                    <path d="M30.361875,19.50375 L2.21625,19.50375 C1.805625,19.50375 1.47375,19.171875 1.47375,18.76125 C1.47375,18.3525 1.805625,18.020625 2.21625,18.020625 L30.36375,18.020625 C30.774375,18.020625 31.10625,18.3525 31.10625,18.76125 C31.104375,19.17375 30.7725,19.50375 30.361875,19.50375 Z"></path>
                                    <path d="M30.361875,25.1475 L2.21625,25.1475 C1.805625,25.1475 1.47375,24.815625 1.47375,24.406875 C1.47375,23.99625 1.805625,23.664375 2.21625,23.664375 L30.36375,23.664375 C30.774375,23.664375 31.10625,23.99625 31.10625,24.406875 C31.104375,24.815625 30.7725,25.1475 30.361875,25.1475 Z"></path>
                                    <path d="M30.361875,30.79125 L2.21625,30.79125 C1.805625,30.79125 1.47375,30.459375 1.47375,30.050625 C1.47375,29.641875 1.805625,29.31 2.21625,29.31 L30.36375,29.31 C30.774375,29.31 31.10625,29.641875 31.10625,30.050625 C31.10625,30.459375 30.7725,30.79125 30.361875,30.79125 Z"></path>
                                </g>
                            </g>
                        </g>
                        <path d="M34.24125,36.418125 C34.190625,36.418125 34.141875,36.418125 34.1025,36.418125 L34.025625,36.41625 C33.615,36.41625 33.283125,36.084375 33.283125,35.675625 C33.283125,35.266875 33.615,34.935 34.025625,34.935 L34.11,34.935 C34.71,34.93875 36.525,34.94625 37.5225,33.954375 C37.993125,33.48375 38.221875,32.848125 38.221875,32.008125 C38.221875,31.599375 38.555625,31.265625 38.964375,31.265625 C39.373125,31.265625 39.705,31.599375 39.705,32.008125 C39.705,33.24375 39.324375,34.2525 38.570625,35.004375 C37.213125,36.3525 35.105625,36.418125 34.24125,36.418125 Z" id="Path" fill="#FEB3B8" fill-rule="nonzero"></path>
                    </g>
                </g>
            </g>
        </g>
    </g>
</svg>