<?xml version="1.0" encoding="UTF-8"?>
<svg width="90px" height="90px" viewBox="0 0 90 90" version="1.1" xmlns="http://www.w3.org/2000/svg" xmlns:xlink="http://www.w3.org/1999/xlink">
    <!-- Generator: Sketch 63.1 (92452) - https://sketch.com -->
    <title>Oil</title>
    <desc>Created with Sketch.</desc>
    <defs>
        <rect id="path-1" x="0" y="0" width="90" height="90"></rect>
        <rect id="path-3" x="0" y="0" width="90" height="90"></rect>
        <rect id="path-5" x="0" y="0" width="90" height="90"></rect>
        <rect id="path-7" x="0" y="0" width="90" height="90"></rect>
        <rect id="path-9" x="0" y="0" width="90" height="90"></rect>
        <rect id="path-11" x="0" y="0" width="90" height="90"></rect>
    </defs>
    <g id="Page-1" stroke="none" stroke-width="1" fill="none" fill-rule="evenodd">
        <g id="Oil">
            <g id="Group">
                <g id="Clipped">
                    <mask id="mask-2" fill="white">
                        <use xlink:href="#path-1"></use>
                    </mask>
                    <g id="SVGID_103_"></g>
                    <path d="M90,45 C90,69.853125 69.853125,90 45,90 C20.146875,90 0,69.853125 0,45 C0,20.146875 20.146875,0 45,0 C69.853125,0 90,20.146875 90,45" id="Path" fill="#FC404D" fill-rule="nonzero" mask="url(#mask-2)"></path>
                </g>
                <g id="Clipped">
                    <mask id="mask-4" fill="white">
                        <use xlink:href="#path-3"></use>
                    </mask>
                    <g id="SVGID_103_"></g>
                    <path d="M72.72,9.56625 L56.5125,30.30375 L42.6675,48.015 L17.31,80.458125 C24.946875,86.431875 34.55625,90 45,90 C69.853125,90 90,69.853125 90,45 C90,30.6075 83.236875,17.805 72.72,9.56625" id="Path" fill="#D11C36" fill-rule="nonzero" mask="url(#mask-4)"></path>
                </g>
            </g>
            <g id="Group">
                <g id="Clipped">
                    <mask id="mask-6" fill="white">
                        <use xlink:href="#path-5"></use>
                    </mask>
                    <g id="SVGID_105_"></g>
                    <path d="M68.660625,38.49375 C68.660625,43.963125 64.22625,48.3975 58.756875,48.3975 C53.285625,48.3975 48.85125,43.963125 48.85125,38.49375 C48.85125,33.706875 56.43375,22.1325 58.33125,19.314375 C58.535625,19.006875 58.978125,19.006875 59.184375,19.314375 C61.08,22.134375 68.660625,33.70875 68.660625,38.49375" id="Path" fill="#FEB3B8" fill-rule="nonzero" mask="url(#mask-6)"></path>
                </g>
                <g id="Clipped">
                    <mask id="mask-8" fill="white">
                        <use xlink:href="#path-7"></use>
                    </mask>
                    <g id="SVGID_105_"></g>
                    <path d="M53.949375,45.27 C57.54,47.96625 62.63625,47.236875 65.326875,43.64625 C68.023125,40.0575 67.425,36.1275 64.81875,31.914375 L64.610625,31.5675 L53.949375,45.27 Z" id="Path" fill="#F0EBE3" fill-rule="nonzero" mask="url(#mask-8)"></path>
                </g>
                <g id="Clipped">
                    <mask id="mask-10" fill="white">
                        <use xlink:href="#path-9"></use>
                    </mask>
                    <g id="SVGID_105_"></g>
                    <path d="M55.483125,53.596875 C55.483125,63.48 47.47125,71.491875 37.588125,71.491875 C27.705,71.491875 19.693125,63.481875 19.693125,53.596875 C19.693125,44.953125 33.39,24.0375 36.8175,18.94125 C37.190625,18.391875 37.9875,18.391875 38.35875,18.94125 C41.784375,24.0375 55.483125,44.953125 55.483125,53.596875" id="Path" fill="#F0EBE3" fill-rule="nonzero" mask="url(#mask-10)"></path>
                </g>
                <g id="Clipped">
                    <mask id="mask-12" fill="white">
                        <use xlink:href="#path-11"></use>
                    </mask>
                    <g id="SVGID_105_"></g>
                    <path d="M28.906875,65.83875 C35.3925,70.70625 44.596875,69.391875 49.464375,62.90625 C54.331875,56.41875 53.255625,49.32 48.545625,41.7075 L48.144375,41.011875 L28.906875,65.83875 Z" id="Path" fill="#2F2C2B" fill-rule="nonzero" mask="url(#mask-12)"></path>
                </g>
            </g>
        </g>
    </g>
</svg>