<?xml version="1.0" encoding="UTF-8"?>
<svg width="90px" height="90px" viewBox="0 0 90 90" version="1.1" xmlns="http://www.w3.org/2000/svg" xmlns:xlink="http://www.w3.org/1999/xlink">
    <!-- Generator: Sketch 63.1 (92452) - https://sketch.com -->
    <title>Videos</title>
    <desc>Created with Sketch.</desc>
    <g id="Page-1" stroke="none" stroke-width="1" fill="none" fill-rule="evenodd">
        <g id="Videos">
            <path d="M90,45 C90,69.853125 69.853125,90 45,90 C20.146875,90 0,69.853125 0,45 C0,20.146875 20.146875,0 45,0 C69.853125,0 90,20.146875 90,45" id="Path" fill="#FC404D" fill-rule="nonzero"></path>
            <path d="M72.72,9.56625 L56.5125,30.30375 L42.6675,48.015 L17.30625,80.458125 C24.946875,86.431875 34.55625,90 45,90 C69.853125,90 90,69.853125 90,45 C90,30.6075 83.236875,17.805 72.72,9.56625" id="Path" fill="#D11C36" fill-rule="nonzero"></path>
            <rect id="Rectangle" x="0" y="0" width="90" height="90"></rect>
            <g id="Group" transform="translate(15.000000, 24.375000)" fill-rule="nonzero">
                <path d="M0.4125,38.840625 L0.4125,3.38625 C0.4125,2.53125 1.10625,1.83375 1.963125,1.83375 L58.035,1.83375 C58.89,1.83375 59.5875,2.53125 59.5875,3.38625 L59.5875,38.840625 C59.5875,39.6975 58.89,40.395 58.035,40.395 L1.963125,40.395 C1.10625,40.395 0.4125,39.6975 0.4125,38.840625" id="Path" fill="#FEB3B8"></path>
                <path d="M1.85625,37.30875 L1.85625,8.874375 C1.85625,8.053125 2.521875,7.38375 3.343125,7.38375 L56.653125,7.38375 C57.474375,7.38375 58.141875,8.05125 58.141875,8.874375 L58.141875,37.30875 C58.141875,38.13 57.47625,38.7975 56.653125,38.7975 L3.343125,38.7975 C2.52375,38.7975 1.85625,38.13 1.85625,37.30875" id="Path" fill="#F0EBE3"></path>
                <circle id="Oval" fill="#F0EBE3" cx="3.495" cy="4.63875" r="1.37625"></circle>
                <circle id="Oval" fill="#F0EBE3" cx="8.304375" cy="4.63875" r="1.374375"></circle>
                <circle id="Oval" fill="#F0EBE3" cx="13.11375" cy="4.63875" r="1.37625"></circle>
                <circle id="Oval" fill="#2F2C2B" cx="30" cy="22.835625" r="12.24375"></circle>
                <path d="M36.189375,22.348125 L31.468125,19.621875 L26.746875,16.895625 C26.656875,16.846875 26.559375,16.820625 26.46375,16.820625 C26.368125,16.820625 26.26875,16.846875 26.184375,16.895625 C26.01,16.996875 25.903125,17.180625 25.903125,17.383125 L25.903125,22.835625 L25.903125,28.28625 C25.903125,28.486875 26.011875,28.6725 26.184375,28.77375 C26.270625,28.8225 26.368125,28.84875 26.46375,28.84875 C26.559375,28.84875 26.65875,28.8225 26.746875,28.77375 L31.468125,26.0475 L36.189375,23.32125 C36.36375,23.221875 36.470625,23.03625 36.470625,22.835625 C36.470625,22.633125 36.36375,22.449375 36.189375,22.348125 Z" id="Path" fill="#FC404D"></path>
            </g>
        </g>
    </g>
</svg>