<?xml version="1.0" encoding="UTF-8"?>
<svg width="28px" height="29px" viewBox="0 0 28 29" version="1.1" xmlns="http://www.w3.org/2000/svg" xmlns:xlink="http://www.w3.org/1999/xlink">
    <!-- Generator: Sketch 63.1 (92452) - https://sketch.com -->
    <title>Icons-25</title>
    <desc>Created with Sketch.</desc>
    <g id="Page-1" stroke="none" stroke-width="1" fill="none" fill-rule="evenodd">
        <g id="Icons-25" transform="translate(-10.000000, -9.000000)" fill-rule="nonzero">
            <g id="Group" transform="translate(10.000000, 9.000000)">
                <g>
                    <path d="M26.875,5.042 L26.875,27.375 C26.875,27.651 26.651,27.875 26.375,27.875 L1.625,27.875 C1.349,27.875 1.125,27.651 1.125,27.375 L1.125,2.125 C1.125,1.849 1.349,1.625 1.625,1.625 L23.459,1.625 L26.875,5.042 Z" id="Path" fill="#FEB3B8"></path>
                    <path d="M26.375,28.726 L1.625,28.726 C0.88,28.726 0.274,28.121 0.274,27.375 L0.274,2.125 C0.274,1.38 0.879,0.774 1.625,0.774 L23.812,0.774 L27.726,4.689 L27.726,27.375 C27.726,28.12 27.12,28.726 26.375,28.726 Z M1.976,27.024 L26.025,27.024 L26.025,5.394 L23.107,2.476 L1.976,2.476 L1.976,27.024 Z" id="Shape" fill="#F0EBE3"></path>
                </g>
                <g transform="translate(21.000000, 1.000000)" id="Path">
                    <polyline fill="#FEB3B8" points="5.875 5.375 1.125 5.375 1.125 0.625"></polyline>
                    <polygon fill="#F0EBE3" points="5.875 6.226 0.274 6.226 0.274 0.625 1.976 0.625 1.976 4.524 5.875 4.524"></polygon>
                </g>
                <path d="M9.073,13.531 L5.239,13.531 C4.964,13.531 4.739,13.755 4.739,14.031 L4.739,14.125 L4.739,14.844 L4.739,26.958 L9.573,26.958 L9.573,14.844 L9.573,14.125 L9.573,14.031 C9.573,13.755 9.349,13.531 9.073,13.531 Z" id="Path" fill="#FC404D"></path>
                <path d="M16.41,16.438 C16.393,16.177 16.181,15.969 15.917,15.969 L12.083,15.969 C11.818,15.969 11.606,16.177 11.59,16.438 L11.583,16.438 L11.583,16.469 L11.583,17.282 L11.583,26.959 L16.417,26.959 L16.417,17.282 L16.417,16.469 L16.417,16.438 L16.41,16.438 Z" id="Path" fill="#FC404D"></path>
                <path d="M22.761,9.344 L18.927,9.344 C18.652,9.344 18.427,9.568 18.427,9.844 L18.427,10.25 L18.427,10.656 L18.427,26.958 L23.261,26.958 L23.261,10.656 L23.261,10.25 L23.261,9.844 C23.261,9.567 23.036,9.344 22.761,9.344 Z" id="Path" fill="#FC404D"></path>
            </g>
        </g>
    </g>
</svg>