<?xml version="1.0" encoding="UTF-8"?>
<svg width="90px" height="90px" viewBox="0 0 90 90" version="1.1" xmlns="http://www.w3.org/2000/svg" xmlns:xlink="http://www.w3.org/1999/xlink">
    <!-- Generator: Sketch 63.1 (92452) - https://sketch.com -->
    <title>Cacao</title>
    <desc>Created with Sketch.</desc>
    <g id="Page-1" stroke="none" stroke-width="1" fill="none" fill-rule="evenodd">
        <g id="Cacao" fill-rule="nonzero">
            <path d="M90,45 C90,69.853125 69.853125,90 45,90 C20.146875,90 0,69.853125 0,45 C0,20.146875 20.146875,0 45,0 C69.853125,0 90,20.146875 90,45" id="Path" fill="#FC404D"></path>
            <path d="M72.72,9.56625 L56.5125,30.305625 L42.6675,48.016875 L17.30625,80.458125 C24.946875,86.431875 34.55625,90 45,90 C69.853125,90 90,69.853125 90,45 C90,30.609375 83.236875,17.805 72.72,9.56625" id="Path" fill="#D11C36"></path>
            <g id="Group" transform="translate(18.750000, 16.875000)">
                <path d="M45.598125,9.80625 C45.14625,9.80625 44.840625,9.75 44.80875,9.74625 C44.544375,9.695625 44.37375,9.440625 44.4225,9.17625 C44.473125,8.91375 44.728125,8.743125 44.990625,8.79 C45.01875,8.795625 46.49625,9.054375 47.626875,8.255625 C48.315,7.77 48.755625,6.976875 48.92625,5.89875 C48.9675,5.6325 49.216875,5.454375 49.483125,5.4975 C49.7475,5.53875 49.9275,5.788125 49.88625,6.054375 C49.66875,7.4025 49.093125,8.415 48.17625,9.05625 C47.289375,9.67875 46.27875,9.80625 45.598125,9.80625 Z" id="Path" fill="#FEB3B8"></path>
                <path d="M45.435,9.268125 C39.74625,3.886875 29.829375,2.085 20.068125,5.371875 C10.305,8.65875 3.496875,16.089375 2.218125,23.8125 C7.905,29.19375 17.821875,30.9975 27.585,27.710625 C37.348125,24.42375 44.15625,16.993125 45.435,9.268125 Z" id="Path" fill="#FEB3B8"></path>
                <ellipse id="Oval" fill="#2F2C2B" transform="translate(28.576225, 29.304216) rotate(45.259292) translate(-28.576225, -29.304216) " cx="28.5762252" cy="29.3042159" rx="14.3306343" ry="24.5737659"></ellipse>
                <path d="M44.11125,9.718125 C46.974375,9.30375 31.640625,0.958125 15.763125,17.120625 C10.235625,22.28625 4.26,39.75375 7.036875,46.501875 C7.554375,47.761875 22.910625,12.77625 44.11125,9.718125 Z" id="Path" fill="#F0EBE3"></path>
                <path d="M45,10.64625 C39.766875,9.489375 16.875,25.635 8.983125,47.6775 C9.688125,50.413125 48.751875,41.034375 45.860625,11.03625 C45.391875,10.80375 45,10.64625 45,10.64625 Z" id="Path" fill="#F0EBE3"></path>
                <path d="M46.798125,13.771875 C46.65,12.76875 46.798125,9.86625 48.204375,12.444375 C49.610625,15.0225 59.22,52.445625 11.955,50.491875 C10.6275,50.2575 10.785,49.24125 12.268125,48.7725 C13.75125,48.30375 46.0125,44.16375 46.798125,13.771875 Z" id="Path" fill="#F0EBE3"></path>
                <path d="M44.900625,12.25125 C44.74875,12.25125 44.600625,12.181875 44.505,12.050625 C44.349375,11.83125 44.4,11.529375 44.6175,11.37375 L44.750625,11.278125 C46.42125,10.08375 49.215,8.08875 48.9525,4.81875 C48.93,4.54875 49.130625,4.31625 49.396875,4.295625 C49.663125,4.275 49.90125,4.47375 49.92,4.741875 C50.22375,8.5575 47.030625,10.84125 45.313125,12.0675 L45.181875,12.16125 C45.0975,12.223125 44.998125,12.25125 44.900625,12.25125 Z" id="Path" fill="#F0EBE3"></path>
            </g>
        </g>
    </g>
</svg>