<?xml version="1.0" encoding="UTF-8"?>
<svg width="99px" height="99px" viewBox="0 0 99 99" version="1.1" xmlns="http://www.w3.org/2000/svg" xmlns:xlink="http://www.w3.org/1999/xlink">
    <!-- Generator: Sketch 63.1 (92452) - https://sketch.com -->
    <title>BACKGROUND</title>
    <desc>Created with Sketch.</desc>
    <g id="Page-1" stroke="none" stroke-width="1" fill="none" fill-rule="evenodd">
        <g id="BACKGROUND" fill-rule="nonzero">
            <circle id="Oval" fill="#FC404D" cx="48.9795918" cy="48.9795918" r="48.9795918"></circle>
            <path d="M79.1428571,10.4081633 L61.5102041,32.9795918 L46.4489796,52.2653061 L18.8367347,87.5714286 C32.5808869,98.8278951 51.3427044,101.759656 67.8657157,95.2327993 C84.388727,88.7059429 96.0821855,73.743856 98.4234352,56.1333958 C100.764685,38.5229356 93.3866264,21.0253566 79.1428571,10.4081633 Z" id="Path" fill="#D11C36"></path>
            <g id="Transfer" transform="translate(18.000000, 14.000000)">
                <path d="M35.4858418,6.07297048 L29.6873576,0.474754946 C29.0178454,-0.16705728 27.9466259,-0.160336733 27.2906734,0.50835768 C26.6381109,1.17369182 26.6516706,2.23553822 27.3245728,2.884071 L29.877194,5.34883156 C13.2427819,6.3300314 0,20.0181052 0,36.7505868 C0,45.8451668 3.96622419,54.4961908 10.8799971,60.4808378 C11.2817044,60.8286261 11.7783299,61 12.2715655,61 C12.8631092,61 13.4495679,60.7563802 13.8682249,60.2809015 C14.6377402,59.4072304 14.546212,58.0799224 13.6665238,57.3171403 C7.67311835,52.1288781 4.23741901,44.6321081 4.23741901,36.7505868 C4.23741901,22.3921384 15.485224,10.6160602 29.6992224,9.55757403 L27.4415255,11.8560011 C26.788963,12.5213352 26.8025227,13.5831816 27.4754249,14.2317144 C27.8042486,14.5492602 28.2296855,14.7071931 28.6568173,14.7071931 C29.0992038,14.7071931 29.5398954,14.5358191 29.8721091,14.1981116 L35.5197411,8.44700366 C36.1723036,7.78334966 36.1587439,6.71982312 35.4858418,6.07297048 Z" id="Path" fill="#F0EBE3"></path>
                <path d="M25.5141582,63.9270295 L31.3126424,69.5252451 C31.9821546,70.1670573 33.0533741,70.1603367 33.7093266,69.4916423 C34.3618891,68.8263082 34.3483294,67.7644618 33.6754272,67.115929 L31.122806,64.6511684 C47.7572181,63.6699686 61,49.9818948 61,33.2494132 C61,24.1548332 57.0337758,15.5038092 50.1200029,9.51916225 C49.7182956,9.17137395 49.2216701,9 48.7284345,9 C48.1368908,9 47.5504321,9.24361982 47.1317751,9.71909851 C46.3622598,10.5927696 46.453788,11.9200776 47.3334762,12.6828597 C53.3268817,17.8711219 56.762581,25.3678919 56.762581,33.2494132 C56.762581,47.6078616 45.514776,59.3839398 31.3007776,60.442426 L33.5584745,58.1439989 C34.211037,57.4786648 34.1974773,56.4168184 33.5245751,55.7682856 C33.1957514,55.4507398 32.7703145,55.2928069 32.3431827,55.2928069 C31.9007962,55.2928069 31.4601046,55.4641809 31.1278909,55.8018884 L25.4802589,61.5529963 C24.8276964,62.2149702 24.8412561,63.2784967 25.5141582,63.9270295 Z" id="Path" fill="#FEB3B8"></path>
            </g>
        </g>
    </g>
</svg>