<?xml version="1.0" encoding="UTF-8" standalone="no"?>
<!DOCTYPE svg PUBLIC "-//W3C//DTD SVG 1.1//EN" "http://www.w3.org/Graphics/SVG/1.1/DTD/svg11.dtd">
<svg xmlns="http://www.w3.org/2000/svg" xmlns:xlink="http://www.w3.org/1999/xlink" version="1.1" width="595.276pt" height="841.89pt" viewBox="0 0 595.276 841.89">
<g enable-background="new">
<g id="Layer-1" data-name="图层 1">
<clipPath id="cp0">
<path transform="matrix(1,0,0,-1,0,841.89)" d="M 0 841.89 L 595.276 841.89 L 595.276 0 L 0 0 Z "/>
</clipPath>
<g clip-path="url(#cp0)">
<path transform="matrix(1,0,0,-1,322.2461,277.00025)" d="M 0 0 C 0 0 28.759 -.812 25.044 30.359 C 21.667 58.696 -6.507 55.957 -6.507 55.957 L -6.507 86.87 L 15.406 86.87 C 15.406 86.87 63.928 83.739 64.71 32.087 C 65.493 -19.565 38.176 -31.726 8.362 -34.043 C -22.538 -36.446 -27.637 -36.391 -27.637 -36.391 C -27.637 -36.391 -45.637 -41.478 -45.246 -65.348 C -44.855 -89.217 -45.252 -118.957 -45.252 -118.957 L -85.159 -118.957 L -85.159 -51.261 C -85.159 -51.261 -85.942 -.391 -26.463 -1.174 Z " fill="#231916"/>
<path transform="matrix(1,0,0,-1,0,841.89)" d="M 307.905 620.933 L 203.944 620.933 L 203.944 651.716 L 307.905 651.716 Z " fill="#231916"/>
<path transform="matrix(1,0,0,-1,274.8262,272.0437)" d="M 0 0 C 0 0 -31.565 -4.174 -39 -29.348 L -39 51.13 L 0 51.13 Z " fill="#231916"/>
<path transform="matrix(1,0,0,-1,330.1953,324.1526)" d="M 0 0 L 30.522 17.413 L 84.522 -71.804 L 43.631 -71.804 Z " fill="#df0e13"/>
<path transform="matrix(1,0,0,-1,295.9707,313.35963)" d="M 0 0 C 0 0 -1.609 -.03 -2.723 -.533 C -3.836 -1.036 -3.911 .625 -3.911 .625 Z " fill="#231916"/>
</g>
</g>
</g>
</svg>
