<svg xmlns="http://www.w3.org/2000/svg" width="82" height="44" viewBox="0 0 82 44">
    <g fill="#F0EBE3">
        <path d="M25.294 14.742v-1.739c0-.456.369-.825.823-.825h6.473c.218 0 .427.087.581.242.154.155.24.365.24.583v29.35c0 .22-.086.43-.24.584-.154.154-.363.241-.581.24h-6.473c-.218.001-.427-.086-.582-.24-.154-.155-.24-.365-.24-.583v-1.442c-2.568 2.506-6.031 2.999-9.786 2.999C6.615 43.91.08 36.577.08 27.685c0-8.89 6.524-16.225 15.43-16.225 3.755 0 7.218.767 9.785 3.282zm0 16.954v-8.023c-1.419-2.997-4.548-4.984-8.183-4.937-4.914.061-8.923 4.28-8.797 9.202.126 4.922 3.961 8.699 8.921 8.699 3.581 0 6.656-1.976 8.06-4.941zM48.546 27.758L37.232 42.275c-.13.166-.153.391-.061.58.092.19.284.31.494.309h8.123c.549 0 1.067-.253 1.405-.687l6.414-8.23 6.417 8.23c.338.434.855.687 1.404.687h8.123c.21 0 .402-.12.494-.309.092-.189.068-.414-.06-.58L58.658 27.758l11.443-14.684c.13-.166.153-.39.061-.58-.092-.19-.284-.309-.494-.308h-8.123c-.549 0-1.067.253-1.405.686l-6.542 8.396-5.053 6.49zM50.981 18.093c.078-.1.078-.24 0-.34l-3.922-4.907c-.34-.431-.858-.682-1.406-.679H37.53c-.21 0-.401.12-.493.31-.092.188-.068.413.061.579l8.74 11.104c.052.066.131.105.216.105.084 0 .164-.039.216-.105l4.711-6.067zM81.079 8.135c.218 0 .427-.087.582-.242.154-.155.24-.365.24-.584V.576c0-.304-.245-.55-.547-.55h-1.771c-.218 0-.421.109-.544.29L73.861 6.96c-.245.365-.225 1.186.527 1.186l6.69-.011z"/>
        <rect width="8.123" height="31.011" x="73.788" y="12.153" rx="2.007"/>
    </g>
</svg>
