<?xml version="1.0" encoding="UTF-8"?>
<svg width="90px" height="90px" viewBox="0 0 90 90" version="1.1" xmlns="http://www.w3.org/2000/svg" xmlns:xlink="http://www.w3.org/1999/xlink">
    <title>829C37CE-E6FF-4C2D-B809-6C03CDEE601F</title>
    <g id="Welcome" stroke="none" stroke-width="1" fill="none" fill-rule="evenodd">
        <g id="INTRODUCING-BROKERS-DESKTOP" transform="translate(-995.000000, -2614.000000)" fill-rule="nonzero">
            <g id="BENEFITS-FOR-YOU" transform="translate(50.000000, 2211.000000)">
                <g id="STEP-6" transform="translate(799.000000, 403.000000)">
                    <g id="AXI_ICONS_EXECUTIONAL_EXCELLENCE" transform="translate(146.000000, 0.000000)">
                        <g id="BACKGROUND">
                            <circle id="Oval" fill="#FC404D" cx="45" cy="45" r="45"></circle>
                            <path d="M72.7205659,9.565773 L56.5109254,30.3042984 L42.6672364,48.0157472 L17.3096466,80.4580307 C24.946518,86.4304732 34.5534896,90 45,90 C69.8527909,90 90,69.8527909 90,45 C90,30.6074524 83.2351684,17.8030014 72.7205659,9.565773 Z" id="Path" fill="#D11C36"></path>
                        </g>
                        <g id="CONTENT" transform="translate(16.875000, 24.375000)">
                            <path d="M34.4564544,41.3723158 L21.8223022,41.3723158 C21.3055371,41.3723158 20.8866189,40.9533906 20.8866189,40.4366325 L20.8866189,34.2816675 C20.8866189,33.7649023 21.3055371,33.3459842 21.8223022,33.3459842 L34.4564544,33.3459842 C34.9732161,33.3459842 35.3921377,33.7649023 35.3921377,34.2816675 L35.3921377,40.4366327 C35.3921377,40.9533906 34.9732161,41.3723158 34.4564544,41.3723158 Z" id="Path" fill="#FEB3B8"></path>
                            <path d="M54.1251756,35.3120899 L2.13671025,35.3120899 C1.61894381,35.3120899 1.19921025,34.8923563 1.19921025,34.3745899 L1.19921025,1.72596394 C1.19921025,1.2081975 1.61894381,0.788463938 2.13671025,0.788463938 L54.1251737,0.788463938 C54.6429472,0.788463938 55.0626737,1.2081975 55.0626737,1.72596394 L55.0626737,34.3745918 C55.0626737,34.8923563 54.6429491,35.3120899 54.1251756,35.3120899 Z" id="Path" fill="#FEB3B8"></path>
                            <path d="M38.3294784,41.4642621 L17.9492747,41.4642621 C17.4315083,41.4642621 17.0117747,41.0445356 17.0117747,40.5267621 L17.0117747,39.3957497 C17.0117747,38.8779832 17.4315083,38.4582497 17.9492747,38.4582497 L38.3294784,38.4582497 C38.8472449,38.4582497 39.2669784,38.8779832 39.2669784,39.3957497 L39.2669784,40.5267621 C39.2669784,41.0445356 38.8472451,41.4642621 38.3294784,41.4642621 Z" id="Path" fill="#FEB3B8"></path>
                            <rect id="Rectangle" fill="#F0EBE3" x="4.34020575" y="3.92945944" width="47.5814796" height="24.1681821"></rect>
                            <circle id="Oval" fill="#282424" cx="28.1309438" cy="31.6882575" r="1.83430612"></circle>
                            <path d="M16.0742747,25.5315257 L7.56552806,25.5315257 C7.04776163,25.5315257 6.62802806,25.1117921 6.62802806,24.5940257 L6.62802806,17.4999011 C6.62802806,16.9821311 7.04776163,16.5624011 7.56552806,16.5624011 L16.0742747,16.5624011 C16.5920447,16.5624011 17.0117747,16.9821311 17.0117747,17.4999011 L17.0117747,24.5940257 C17.0117747,25.1117921 16.5920449,25.5315257 16.0742747,25.5315257 Z" id="Path" fill="#FC404D"></path>
                            <path d="M16.0742747,15.4647017 L7.56552806,15.4647017 C7.04776163,15.4647017 6.62802806,15.0449681 6.62802806,14.5272017 L6.62802806,7.43307713 C6.62802806,6.91531069 7.04776163,6.49557713 7.56552806,6.49557713 L16.0742747,6.49557713 C16.5920447,6.49557713 17.0117747,6.91531069 17.0117747,7.43307713 L17.0117747,14.5272017 C17.0117747,15.0449681 16.5920449,15.4647017 16.0742747,15.4647017 Z" id="Path" fill="#FEB3B8"></path>
                            <path d="M48.6888028,25.4078865 L20.6177366,25.4078865 C20.0957966,25.4078865 19.67268,24.9847699 19.67268,24.4628263 L19.67268,7.44063375 C19.67268,6.91869375 20.0957966,6.49557713 20.6177366,6.49557713 L48.6888028,6.49557713 C49.2107464,6.49557713 49.633863,6.91869375 49.633863,7.44063375 L49.633863,24.4628263 C49.633863,24.9847699 49.2107464,25.4078865 48.6888028,25.4078865 Z" id="Path" fill="#FC404D"></path>
                            <g id="Group" transform="translate(28.125000, 9.375000)">
                                <path d="M1.30746244,5.95555181 L4.87038019,7.39784006 C4.96876369,7.43766544 5.00241281,7.56009581 4.93820794,7.6446105 L1.96272263,11.5611328 C1.90889963,11.6319754 1.92270056,11.7330337 1.99354294,11.7868567 L3.32355375,12.797295 C3.39439631,12.851118 3.49545469,12.8373171 3.54927413,12.7664747 L6.521877,8.85366469 C6.58694381,8.76801281 6.71607244,8.76897487 6.77985544,8.85558506 L9.08985244,11.9921496 C9.17201025,12.1037044 9.34733025,12.0663859 9.37693106,11.9310416 L11.8458186,0.6428685 C11.8747935,0.510392437 11.7371068,0.403579687 11.6159889,0.464576625 L1.29544594,5.66235787 C1.17178556,5.72463862 1.179117,5.90359575 1.30746244,5.95555181 Z" id="Path" fill="#F0EBE3"></path>
                                <path d="M6.65805094,7.55737425 L8.85672206,10.4994572 C8.92977469,10.5986453 9.04191956,10.5345834 9.068241,10.4142416 L11.0110042,1.90903556 C11.0452937,1.75225875 10.8790431,1.69719825 10.7935808,1.83303244 L6.65214638,7.39615575 C6.62078981,7.44599812 6.62312869,7.50995644 6.65805094,7.55737425 Z" id="Path" fill="#FEB3B8"></path>
                            </g>
                        </g>
                    </g>
                </g>
            </g>
        </g>
    </g>
</svg>