<?xml version="1.0" encoding="UTF-8"?>
<svg width="100px" height="100px" viewBox="0 0 100 100" version="1.1" xmlns="http://www.w3.org/2000/svg" xmlns:xlink="http://www.w3.org/1999/xlink">
    <!-- Generator: Sketch 63.1 (92452) - https://sketch.com -->
    <title>Artboard 1 copy 8_edit</title>
    <desc>Created with Sketch.</desc>
    <g id="Symbols" stroke="none" stroke-width="1" fill="none" fill-rule="evenodd">
        <g id="DESKTOP_MODULES" transform="translate(-783.000000, -4477.000000)">
            <g id="METALS" transform="translate(742.000000, 4477.000000)">
                <g id="AXI_ICON_GOLD_SILVER_RGB" transform="translate(41.000000, 0.000000)">
                    <g id="Artboard-1-copy-8_edit">
                        <g id="BACKGROUND" fill-rule="nonzero">
                            <circle id="Oval" fill="#FC404D" cx="49.5416667" cy="49.5416667" r="49.5416667"></circle>
                            <path d="M80.0625,10.5208333 L62.2291667,33.4375 L46.9791667,52.875 L19.0625,88.5833333 C40.2334154,105.922773 71.4522263,102.816748 88.7916661,81.6458329 C106.131106,60.4749177 103.025082,29.2561068 81.8541667,11.9166667 C81.25,11.4375 80.6666667,10.9791667 80.0625,10.5208333 Z" id="Path" fill="#D11C36"></path>
                        </g>
                        <rect id="Rectangle" fill="#282424" fill-rule="nonzero" x="18" y="66" width="62" height="4" rx="0.18"></rect>
                        <path d="M65.6944883,18.7193474 L67.9678392,19.9580114 C68.0107203,20.0058281 68.0107203,20.0781491 67.9678392,20.1259658 L67.9678392,20.1259658 L65.6944883,21.3646298 C65.5437989,21.4302759 65.4235145,21.5502447 65.3576956,21.7005387 L64.1157725,23.9679236 C64.0678299,24.0106921 63.9953187,24.0106921 63.9473761,23.9679236 L63.9473761,23.9679236 L62.6844035,21.7005387 C62.6185846,21.5502447 62.4983002,21.4302759 62.3476107,21.3646298 L60.0321608,20.2309373 C59.9892797,20.1831206 59.9892797,20.1107997 60.0321608,20.0629829 C60.0321608,20.0629829 60.0321608,20.0629829 60.0321608,20.0629829 L62.3055117,18.8243189 C62.4562011,18.7586728 62.5764855,18.6387041 62.6423044,18.4884101 L63.905277,16.0320764 C63.9532196,15.9893079 64.0257309,15.9893079 64.0736734,16.0320764 L64.0736734,16.0320764 L65.3366461,18.3834386 C65.4164567,18.5309892 65.5419883,18.6488265 65.6944883,18.7193474 L65.6944883,18.7193474 Z" id="Path" fill="#F0EBE3" fill-rule="nonzero"></path>
                        <path d="M73.6858001,22.5985933 L75.967718,23.8706394 C76.0107607,23.9197448 76.0107607,23.9940148 75.967718,24.0431202 L75.967718,24.0431202 L73.6858001,25.3151663 C73.5345428,25.3825817 73.4138052,25.5057836 73.3477382,25.660128 L72.101135,27.9670591 C72.0530118,28.0109803 71.9802273,28.0109803 71.932104,27.9670591 L71.932104,27.9670591 L70.6855008,25.8110487 C70.6067554,25.6659797 70.4896063,25.5464396 70.3474389,25.4660871 L68.0443922,24.1940409 C68.0159998,24.1656544 68,24.126801 68,24.0862404 C68,24.0456798 68.0159998,24.0068264 68.0443922,23.9784399 L68.0443922,23.9784399 L70.3474389,22.7063938 C70.4896063,22.6260412 70.6067554,22.5065011 70.6855008,22.3614321 L71.932104,20.0329409 C71.9802273,19.9890197 72.0530118,19.9890197 72.101135,20.0329409 L72.101135,20.0329409 L73.3477382,22.3614321 C73.4370121,22.470588 73.5539531,22.5526258 73.6858001,22.5985933 Z" id="Path" fill="#2F2C2B" fill-rule="nonzero"></path>
                        <path d="M59.526984,36 L40.5032076,36 C40.1814555,35.9397161 39.964314,35.6613159 40.0048627,35.3610649 C40.0048627,35.3610649 40.0048627,35.3610649 40.0048627,35.3610649 L42.3882515,24.4193012 C42.426005,24.1962993 42.6214422,24.0243864 42.8649293,24 L57.1002608,24 C57.3437479,24.0243864 57.5391851,24.1962993 57.5769386,24.4193012 L59.9819946,35.3610649 C60.0686633,35.640599 59.8303244,36 59.526984,36 Z" id="Path" fill="#F0EBE3" fill-rule="nonzero"></path>
                        <path d="M39.5558571,64 L20.474449,64 C20.1701896,64 19.9311287,63.6429752 20.0180599,63.2859504 L22.4086691,52.4363636 C22.4291721,52.2035573 22.6317061,52.0187123 22.886791,52 L37.1000495,52 C37.3551344,52.0187123 37.5576684,52.2035573 37.5781713,52.4363636 L39.9687806,63.2859504 C40.0723636,63.5757111 39.9103104,63.8889107 39.5993228,64 L39.5558571,64 Z" id="Path" fill="#F0EBE3" fill-rule="nonzero"></path>
                        <path d="M39.5558571,64 L20.474449,64 C20.1701896,64 19.9311287,63.6429752 20.0180599,63.2859504 L22.4086691,52.4363636 C22.4291721,52.2035573 22.6317061,52.0187123 22.886791,52 L37.1000495,52 C37.3551344,52.0187123 37.5576684,52.2035573 37.5781713,52.4363636 L39.9687806,63.2859504 C40.0723636,63.5757111 39.9103104,63.8889107 39.5993228,64 L39.5558571,64 Z" id="Path"></path>
                        <path d="M59.526984,64 L40.5032076,64 C40.1814555,63.9397161 39.964314,63.6613159 40.0048627,63.3610649 C40.0048627,63.3610649 40.0048627,63.3610649 40.0048627,63.3610649 L42.3882515,52.4392679 C42.4086926,52.2049121 42.6106148,52.0188368 42.8649293,52 L57.1002608,52 C57.3545753,52.0188368 57.5564976,52.2049121 57.5769386,52.4392679 L59.9819946,63.3610649 C60.0686633,63.640599 59.8303244,64 59.526984,64 Z" id="Path" fill="#F0EBE3" fill-rule="nonzero"></path>
                        <path d="M59.526984,64 L40.5032076,64 C40.1814555,63.9397161 39.964314,63.6613159 40.0048627,63.3610649 C40.0048627,63.3610649 40.0048627,63.3610649 40.0048627,63.3610649 L42.3882515,52.4392679 C42.4086926,52.2049121 42.6106148,52.0188368 42.8649293,52 L57.1002608,52 C57.3545753,52.0188368 57.5564976,52.2049121 57.5769386,52.4392679 L59.9819946,63.3610649 C60.0686633,63.640599 59.8303244,64 59.526984,64 Z" id="Path"></path>
                        <path d="M79.5258338,64 L60.503178,64 C60.1814448,63.9397161 59.9643161,63.6613159 60.0048624,63.3610649 C60.0048624,63.3610649 60.0048624,63.3610649 60.0048624,63.3610649 L62.4097767,52.4392679 C62.4302166,52.2049121 62.6321269,52.0188368 62.8864264,52 L77.0992535,52 C77.353553,52.0188368 77.5554634,52.2049121 77.5759032,52.4392679 L79.9808176,63.3610649 C80.0674811,63.640599 79.8508222,64 79.5258338,64 Z" id="Path" fill="#F0EBE3" fill-rule="nonzero"></path>
                        <path d="M79.5258338,64 L60.503178,64 C60.1814448,63.9397161 59.9643161,63.6613159 60.0048624,63.3610649 C60.0048624,63.3610649 60.0048624,63.3610649 60.0048624,63.3610649 L62.4097767,52.4392679 C62.4302166,52.2049121 62.6321269,52.0188368 62.8864264,52 L77.0992535,52 C77.353553,52.0188368 77.5554634,52.2049121 77.5759032,52.4392679 L79.9808176,63.3610649 C80.0674811,63.640599 79.8508222,64 79.5258338,64 Z" id="Path"></path>
                        <path d="M69.528859,50 L50.487549,50 C50.1629812,50 49.9466027,49.6628099 50.0115162,49.2859504 L52.4133178,38.4363636 C52.4337312,38.2035573 52.6353802,38.0187123 52.8893506,38 L67.1054196,38 C67.350927,38.02769 67.5410526,38.2102711 67.5598145,38.4363636 L69.9616161,49.2859504 C70.017422,49.4200202 70.0121971,49.5690112 69.9471129,49.6995187 C69.8820287,49.8300261 69.7625304,49.9311312 69.6154104,49.9801653 L69.528859,50 Z" id="Path" fill="#F0EBE3" fill-rule="nonzero"></path>
                        <path d="M69.528859,50 L50.487549,50 C50.1629812,50 49.9466027,49.6628099 50.0115162,49.2859504 L52.4133178,38.4363636 C52.4337312,38.2035573 52.6353802,38.0187123 52.8893506,38 L67.1054196,38 C67.350927,38.02769 67.5410526,38.2102711 67.5598145,38.4363636 L69.9616161,49.2859504 C70.017422,49.4200202 70.0121971,49.5690112 69.9471129,49.6995187 C69.8820287,49.8300261 69.7625304,49.9311312 69.6154104,49.9801653 L69.528859,50 Z" id="Path"></path>
                        <path d="M49.3225562,50 L30.525564,50 C30.370451,49.9850672 30.2283106,49.913735 30.1308809,49.8019308 C30.0334512,49.6901266 29.9888465,49.5471618 30.0070263,49.4049587 C29.9976579,49.3657554 29.9976579,49.3251537 30.0070263,49.2859504 L32.4052632,38.4363636 C32.4162494,38.1996701 32.6227617,38.0100856 32.8805895,38 L47.0539537,38 C47.3036959,38.0261995 47.5007412,38.2070929 47.5292799,38.4363636 L49.9707283,49.2859504 C50.0706132,49.5651857 49.9066961,49.8661472 49.6034308,49.9603306 L49.3225562,50 Z" id="Path" fill="#F0EBE3" fill-rule="nonzero"></path>
                        <path d="M49.4219277,50 L30.5048354,50 C30.3510142,49.9854379 30.2105258,49.9133812 30.1164392,49.800791 C30.0223526,49.6882007 29.9829789,49.5450226 30.0075861,49.4049587 C29.9974713,49.3658319 29.9974713,49.3250771 30.0075861,49.2859504 L32.4073544,38.4363636 C32.4277505,38.2035573 32.6292288,38.0187123 32.8829841,38 L47.0653985,38 C47.3191538,38.0187123 47.5206322,38.2035573 47.5410283,38.4363636 L49.9624161,49.2859504 C50.0175694,49.4172838 50.0118186,49.5635921 49.9464977,49.6909398 C49.8811768,49.8182874 49.7619615,49.9156088 49.6165035,49.9603306 L49.4219277,50 Z" id="Path"></path>
                        <path d="M59.526984,36 L40.5032076,36 C40.1814555,35.9397161 39.964314,35.6613159 40.0048627,35.3610649 C40.0048627,35.3610649 40.0048627,35.3610649 40.0048627,35.3610649 L42.3882515,24.4193012 C42.426005,24.1962993 42.6214422,24.0243864 42.8649293,24 L57.1002608,24 C57.3437479,24.0243864 57.5391851,24.1962993 57.5769386,24.4193012 L59.9819946,35.3610649 C60.0686633,35.640599 59.8303244,36 59.526984,36 Z" id="Path"></path>
                        <path d="M40.4415012,36 L59.5113809,36 C59.8154564,36 60.0543729,35.6338983 59.9892139,35.2677966 L57.5783293,24.1220339 C57.5783293,24.1220339 57.5783293,24.1220339 57.5783293,24 L50.454274,32.5423729 C50.3193192,32.6973664 50.1376906,32.8107548 49.9330017,32.8677966 L40.0071076,35.3491525 C39.9607587,35.6367177 40.1451584,35.9130018 40.4415012,36 L40.4415012,36 Z" id="Path" fill="#FEB3B8" fill-rule="nonzero"></path>
                        <path d="M30.5857159,50 L49.5149837,50 C49.8168172,50 50.053972,49.6338881 49.9892934,49.2677867 L47.5961855,38.1220338 L47.5961855,38 L40.3737428,46.5830433 C40.2357349,46.7337717 40.0568775,46.8462595 39.856314,46.9084667 L30.0036086,49.3898205 C29.9851302,49.5457116 30.0382003,49.7016162 30.1494333,49.8182113 C30.2606662,49.9348064 30.4194429,50.0009611 30.5857159,50 L30.5857159,50 Z" id="Path" fill="#FEB3B8" fill-rule="nonzero"></path>
                        <path d="M50.4613438,50 L69.5124181,50 C69.8158481,50 70.0542575,49.6338983 69.9892368,49.2677966 L67.5617961,38.1220339 C67.5617961,38.1220339 67.5617961,38.1220339 67.5617961,38 L60.3878421,46.5830508 C60.2572006,46.7421477 60.0744181,46.8564992 59.8676763,46.9084746 L50.0061987,49.3491525 C49.9621474,49.6425929 50.156945,49.9211491 50.4613438,50 L50.4613438,50 Z" id="Path" fill="#FEB3B8" fill-rule="nonzero"></path>
                        <path d="M60.4415012,64 L79.5113809,64 C79.8154564,64 80.0543729,63.6338983 79.9892139,63.2677966 L77.5783293,52.1220339 C77.5783293,52.1220339 77.5783293,52.1220339 77.5783293,52 L70.454274,60.5423729 C70.3193192,60.6973664 70.1376906,60.8107548 69.9330017,60.8677966 L60.0071076,63.3491525 C59.9607587,63.6367177 60.1451584,63.9130018 60.4415012,64 L60.4415012,64 Z" id="Path" fill="#FEB3B8" fill-rule="nonzero"></path>
                        <path d="M40.4415012,64 L59.5113809,64 C59.8154564,64 60.0543729,63.6338983 59.9892139,63.2677966 L57.5783293,52.1220339 C57.5783293,52.1220339 57.5783293,52.1220339 57.5783293,52 L50.454274,60.5423729 C50.3193192,60.6973664 50.1376906,60.8107548 49.9330017,60.8677966 L40.0071076,63.3491525 C39.9607587,63.6367177 40.1451584,63.9130018 40.4415012,64 L40.4415012,64 Z" id="Path" fill="#FEB3B8" fill-rule="nonzero"></path>
                        <path d="M20.502845,64 L39.5129134,64 C39.8160352,64 40.0542024,63.6338983 39.9892477,63.2677966 L37.5859247,52.1220339 C37.5859247,52.1220339 37.5859247,52.1220339 37.5859247,52 L30.4842135,60.5423729 C30.3496819,60.6973664 30.168623,60.8107548 29.9645761,60.8677966 L20.0048592,63.3491525 C19.9643397,63.6550015 20.1813247,63.9385921 20.502845,64 L20.502845,64 Z" id="Path" fill="#FEB3B8" fill-rule="nonzero"></path>
                    </g>
                </g>
            </g>
        </g>
    </g>
</svg>