<?xml version="1.0" encoding="UTF-8"?>
<svg width="99px" height="99px" viewBox="0 0 99 99" version="1.1" xmlns="http://www.w3.org/2000/svg" xmlns:xlink="http://www.w3.org/1999/xlink">
    <!-- Generator: Sketch 63.1 (92452) - https://sketch.com -->
    <title>Group 8</title>
    <desc>Created with Sketch.</desc>
    <g id="Symbols" stroke="none" stroke-width="1" fill="none" fill-rule="evenodd">
        <g id="DESKTOP_MODULES" transform="translate(-594.000000, -4477.000000)" fill-rule="nonzero">
            <g id="COMMODITIES-ICON" transform="translate(551.000000, 4477.000000)">
                <g id="Group-8" transform="translate(43.000000, 0.000000)">
                    <g id="BACKGROUND">
                        <circle id="Oval" fill="#FC404D" cx="48.9795918" cy="48.9795918" r="48.9795918"></circle>
                        <path d="M79.1428571,10.4081633 L61.5102041,32.9795918 L46.4489796,52.2653061 L18.8367347,87.5714286 C32.5808869,98.8278951 51.3427044,101.759656 67.8657157,95.2327993 C84.388727,88.7059429 96.0821855,73.743856 98.4234352,56.1333958 C100.764685,38.5229356 93.3866264,21.0253566 79.1428571,10.4081633 Z" id="Path" fill="#D11C36"></path>
                    </g>
                    <g id="CONTENT" transform="translate(18.367347, 24.489796)">
                        <ellipse id="Oval" fill="#2F2C2B" transform="translate(16.130640, 16.835893) rotate(-35.640000) translate(-16.130640, -16.835893) " cx="16.13064" cy="16.8358933" rx="9.44897959" ry="13.5306122"></ellipse>
                        <path d="M9.46938776,3.20408163 C9.23280517,3.28848608 9.06285626,3.49753854 9.02853458,3.74637071 C8.9942129,3.99520288 9.10122303,4.24245659 9.30612245,4.3877551 C11.8367347,6.08163265 15.5714286,8.97959184 16.5918367,11.877551 C17.0204082,13.122449 17.3877551,14.4285714 17.755102,15.6938776 C18.3436917,18.6228029 19.5242794,21.4006563 21.2244898,23.8571429 C22.6356428,25.4513207 24.2087262,26.8944537 25.9183673,28.1632653 C26.0345717,28.2672016 26.2103263,28.2672016 26.3265306,28.1632653 C30.2040816,24.4081633 29.8367347,16.7142857 25.244898,10.3265306 C20.8979592,4.2244898 14.2857143,1.36734694 9.46938776,3.20408163 Z" id="Path" fill="#FEB3B8"></path>
                        <path d="M19.2040816,25.2040816 C17.3868966,22.6019281 16.1163858,19.658231 15.4693878,16.5510204 C15.1020408,15.3061224 14.755102,14.0204082 14.3265306,12.8163265 C13.3469388,10.0612245 9.28571429,7.12244898 6.93877551,5.59183673 C6.4941706,5.28821521 5.89395134,5.35780585 5.53061224,5.75510204 C2.14285714,9.67346939 2.65306122,16.9795918 7.06122449,23.122449 C11.4693878,29.2653061 18.7755102,32.3265306 23.5714286,29.877551 C23.6569111,29.8162181 23.7076045,29.7174542 23.7076045,29.6122449 C23.7076045,29.5070356 23.6569111,29.4082717 23.5714286,29.3469388 C21.980698,28.1155911 20.5175819,26.7276819 19.2040816,25.2040816 L19.2040816,25.2040816 Z" id="Path" fill="#F0EBE3"></path>
                        <ellipse id="Oval" fill="#2F2C2B" transform="translate(40.356413, 30.077421) rotate(-50.770000) translate(-40.356413, -30.077421) " cx="40.3564129" cy="30.0774206" rx="22.8163265" ry="15.9387755"></ellipse>
                        <path d="M58.4489796,12.122449 C58.2925488,11.9406768 58.0490748,11.8592656 57.8147708,11.9103865 C57.5804667,11.9615073 57.3930304,12.1369353 57.3265306,12.3673469 C55.7346939,17.2244898 52.5510204,25.2244898 48.0408163,28.3265306 C46.2040816,29.5918367 44.244898,30.7755102 42.3469388,31.9183673 C37.6734694,34.6938776 33.2653061,37.3469388 30.6122449,41.122449 C28.7335617,43.9865949 27.1408748,47.0284219 25.8571429,50.2040816 C25.6389944,50.7187641 25.8407466,51.3152491 26.3265306,51.5918367 C34.1836735,55.8571429 46.2244898,51.8163265 54.4693878,41.7142857 C62.7142857,31.6122449 64.2653061,18.9591837 58.4489796,12.122449 Z" id="Path" fill="#FEB3B8"></path>
                        <path d="M28.2244898,39.2857143 C31.1836735,35.0816327 36.0204082,32.1836735 40.6938776,29.3877551 C42.5510204,28.2653061 44.4897959,27.1020408 46.2653061,25.877551 C50.5306122,22.9591837 53.6122449,14.4081633 54.9591837,10.0408163 C55.1237573,9.53944134 54.9098215,8.99176591 54.4489796,8.73469388 C46.6122449,4.44897959 34.5306122,8.46938776 26.2857143,18.5918367 C18.0408163,28.7142857 16.4693878,41.5102041 22.4489796,48.3265306 C22.6059132,48.4880378 22.8331855,48.5604197 23.0546156,48.5194141 C23.2760457,48.4784085 23.4623276,48.3294425 23.5510204,48.122449 C24.8180766,45.0320438 26.3832978,42.0724772 28.2244898,39.2857143 L28.2244898,39.2857143 Z" id="Path" fill="#F0EBE3"></path>
                    </g>
                </g>
            </g>
        </g>
    </g>
</svg>