<?xml version="1.0" encoding="UTF-8"?>
<svg width="90px" height="90px" viewBox="0 0 90 90" version="1.1" xmlns="http://www.w3.org/2000/svg" xmlns:xlink="http://www.w3.org/1999/xlink">
    <!-- Generator: Sketch 63.1 (92452) - https://sketch.com -->
    <title>Tips</title>
    <desc>Created with Sketch.</desc>
    <g id="Page-1" stroke="none" stroke-width="1" fill="none" fill-rule="evenodd">
        <g id="Tips">
            <path d="M90,45 C90,69.853125 69.853125,90 45,90 C20.146875,90 0,69.853125 0,45 C0,20.146875 20.146875,0 45,0 C69.853125,0 90,20.146875 90,45" id="Path" fill="#FC404D" fill-rule="nonzero"></path>
            <path d="M72.72,9.56625 L56.5125,30.30375 L42.6675,48.015 L17.30625,80.458125 C24.946875,86.431875 34.55625,90 45,90 C69.853125,90 90,69.853125 90,45 C90,30.6075 83.236875,17.805 72.72,9.56625" id="Path" fill="#D11C36" fill-rule="nonzero"></path>
            <rect id="Rectangle" x="0" y="0" width="90" height="90"></rect>
            <g id="Group" transform="translate(22.500000, 15.000000)" fill-rule="nonzero">
                <g transform="translate(16.875000, 54.375000)" fill="#F0EBE3" id="Path">
                    <path d="M1.68,5.911875 C0.85875,5.911875 0.195,5.24625 0.195,4.425 L0.195,2.0775 C0.195,1.25625 0.85875,0.590625 1.68,0.590625 C2.50125,0.590625 3.166875,1.25625 3.166875,2.0775 L3.166875,4.425 C3.166875,5.24625 2.50125,5.911875 1.68,5.911875 Z"></path>
                    <path d="M9.234375,5.911875 C8.413125,5.911875 7.7475,5.24625 7.7475,4.425 L7.7475,2.0775 C7.7475,1.25625 8.413125,0.590625 9.234375,0.590625 C10.055625,0.590625 10.719375,1.25625 10.719375,2.0775 L10.719375,4.425 C10.719375,5.24625 10.05375,5.911875 9.234375,5.911875 Z"></path>
                </g>
                <g>
                    <path d="M11.945625,47.925 L11.945625,47.17125 C11.945625,42.511875 10.03125,39.9075 8.004375,37.1475 C6.946875,35.70375 5.851875,34.213125 5.011875,32.398125 C3.005625,28.044375 1.69125,21.290625 3.27,16.02375 C5.83875,7.46625 13.14,2.150625 22.329375,2.150625 C31.51875,2.150625 38.82,7.46625 41.38875,16.02375 C42.969375,21.2925 41.655,28.044375 39.646875,32.398125 C38.80875,34.213125 37.71375,35.705625 36.654375,37.1475 C34.629375,39.9075 32.715,42.51 32.715,47.17125 L32.715,47.925 L11.945625,47.925 Z" id="Path" fill="#F0EBE3"></path>
                    <path d="M22.33125,2.9025 C31.963125,2.9025 38.443125,8.83125 40.666875,16.2375 C42.118125,21.0825 41.053125,27.54375 38.964375,32.079375 C36.58125,37.250625 31.963125,39.759375 31.963125,47.169375 L22.33125,47.169375 L12.70125,47.169375 C12.70125,39.759375 8.08125,37.250625 5.698125,32.079375 C3.61125,27.54375 2.5425,21.0825 3.995625,16.2375 C6.219375,8.83125 12.70125,2.9025 22.33125,2.9025 M22.33125,1.393125 C17.454375,1.393125 13.005,2.84625 9.459375,5.59875 C6.17625,8.145 3.7875,11.67375 2.548125,15.804375 C0.91125,21.2625 2.265,28.228125 4.3275,32.713125 C5.195625,34.5975 6.315,36.12 7.396875,37.595625 C9.433125,40.366875 11.188125,42.7575 11.188125,47.169375 L11.188125,48.67875 L12.70125,48.67875 L22.33125,48.67875 L31.963125,48.67875 L33.47625,48.67875 L33.47625,47.169375 C33.47625,42.755625 35.23125,40.365 37.265625,37.595625 C38.3475,36.121875 39.465,34.5975 40.335,32.713125 C42.399375,28.23 43.75125,21.264375 42.114375,15.804375 C40.876875,11.67375 38.48625,8.145 35.203125,5.59875 C31.6575,2.848125 27.208125,1.393125 22.33125,1.393125 L22.33125,1.393125 Z" id="Shape" fill="#FEB3B8"></path>
                </g>
                <g transform="translate(9.375000, 20.625000)">
                    <path d="M21.495,3.793125 L16.910625,3.793125 C16.771875,3.793125 16.65375,3.89625 16.636875,4.035 L16.389375,6.08625 L15.59625,0.598125 C15.5775,0.463125 15.46125,0.369375 15.3225,0.365625 C15.185625,0.365625 15.069375,0.46875 15.054375,0.605625 L14.3625,6.181875 L13.31625,1.269375 C13.29,1.141875 13.179375,1.051875 13.048125,1.051875 L13.048125,1.051875 C12.91875,1.051875 12.808125,1.14 12.778125,1.2675 L11.698125,6.21 L10.9425,1.62375 C10.92,1.490625 10.8075,1.395 10.670625,1.395 C10.53375,1.395 10.42125,1.490625 10.396875,1.62375 L9.575625,6.61125 L8.551875,3.88875 C8.5125,3.78 8.409375,3.706875 8.29125,3.706875 L5.0925,3.706875 C4.940625,3.706875 4.816875,3.830625 4.816875,3.9825 C4.816875,4.134375 4.940625,4.25625 5.0925,4.25625 L8.101875,4.25625 L9.42375,7.76625 C9.465,7.8825 9.58125,7.955625 9.705,7.9425 C9.826875,7.929375 9.92625,7.835625 9.94875,7.711875 L10.66875,3.35625 L11.386875,7.711875 C11.409375,7.843125 11.52,7.93875 11.653125,7.9425 C11.780625,7.948125 11.900625,7.85625 11.92875,7.726875 L13.0425,2.62875 L14.161875,7.8975 C14.191875,8.02875 14.31,8.116875 14.443125,8.115 C14.57625,8.109375 14.68875,8.00625 14.705625,7.875 L15.343125,2.7075 L16.138125,8.221875 C16.160625,8.356875 16.275,8.45625 16.411875,8.45625 C16.41375,8.45625 16.41375,8.45625 16.41375,8.45625 C16.550625,8.454375 16.670625,8.35125 16.6875,8.214375 L17.1525,4.3425 L21.493125,4.3425 C21.64875,4.3425 21.766875,4.220625 21.766875,4.06875 C21.766875,3.916875 21.650625,3.793125 21.495,3.793125 Z" id="Path" fill="#2F2C2B"></path>
                    <g transform="translate(3.750000, 3.750000)" fill="#2F2C2B" id="Path">
                        <polygon points="1.618125 0.1875 1.074375 0.275625 4.965 23.86125 9.3525 23.86125 9.3525 23.311875 5.43 23.311875"></polygon>
                        <polygon points="12.99 23.311875 9.06 23.311875 9.06 23.86125 13.44375 23.86125 18.016875 0.37125 17.47875 0.26625"></polygon>
                    </g>
                    <g transform="translate(0.000000, 24.375000)">
                        <g transform="translate(0.000000, 5.625000)">
                            <path d="M3.046875,5.555625 C2.304375,5.555625 1.700625,4.95 1.700625,4.2075 L1.700625,3.135 C1.700625,2.3925 2.304375,1.786875 3.046875,1.786875 L22.865625,1.786875 C23.608125,1.786875 24.211875,2.390625 24.211875,3.135 L24.211875,4.2075 C24.211875,4.95 23.608125,5.555625 22.865625,5.555625 L3.046875,5.555625 Z" id="Path" fill="#F0EBE3"></path>
                            <path d="M22.865625,2.22 C23.37,2.22 23.77875,2.630625 23.77875,3.135 L23.77875,4.2075 C23.77875,4.711875 23.368125,5.124375 22.865625,5.124375 L3.046875,5.124375 C2.5425,5.124375 2.13375,4.71 2.13375,4.2075 L2.13375,3.135 C2.13375,2.62875 2.544375,2.22 3.046875,2.22 L22.865625,2.22 M22.865625,1.3575 L3.046875,1.3575 C2.068125,1.3575 1.269375,2.154375 1.269375,3.135 L1.269375,4.2075 C1.269375,5.18625 2.068125,5.986875 3.046875,5.986875 L22.865625,5.986875 C23.844375,5.986875 24.6431283,5.18625 24.6431283,4.2075 L24.6431283,3.135 C24.645,2.1525 23.84625,1.3575 22.865625,1.3575 L22.865625,1.3575 Z" id="Shape" fill="#FEB3B8"></path>
                        </g>
                        <g transform="translate(0.000000, 3.750000)">
                            <path d="M3.046875,4.591875 C2.304375,4.591875 1.700625,3.988125 1.700625,3.245625 L1.700625,2.17125 C1.700625,1.42875 2.304375,0.825 3.046875,0.825 L22.865625,0.825 C23.608125,0.825 24.211875,1.426875 24.211875,2.17125 L24.211875,3.245625 C24.211875,3.988125 23.608125,4.591875 22.865625,4.591875 L3.046875,4.591875 Z" id="Path" fill="#F0EBE3"></path>
                            <path d="M22.865625,1.258125 C23.37,1.258125 23.77875,1.666875 23.77875,2.17125 L23.77875,3.245625 C23.77875,3.75 23.368125,4.15875 22.865625,4.15875 L3.046875,4.15875 C2.5425,4.15875 2.13375,3.748125 2.13375,3.245625 L2.13375,2.17125 C2.13375,1.665 2.544375,1.258125 3.046875,1.258125 L22.865625,1.258125 M22.865625,0.39375 L3.046875,0.39375 C2.068125,0.39375 1.269375,1.190625 1.269375,2.17125 L1.269375,3.245625 C1.269375,4.224375 2.068125,5.023125 3.046875,5.023125 L22.865625,5.023125 C23.844375,5.023125 24.6431283,4.224375 24.6431283,3.245625 L24.6431283,2.17125 C24.645,1.190625 23.84625,0.39375 22.865625,0.39375 L22.865625,0.39375 Z" id="Shape" fill="#FEB3B8"></path>
                        </g>
                        <g>
                            <path d="M3.046875,5.505 C2.304375,5.505 1.700625,4.90125 1.700625,4.156875 L1.700625,3.08625 C1.700625,2.34375 2.304375,1.73625 3.046875,1.73625 L22.865625,1.73625 C23.608125,1.73625 24.211875,2.341875 24.211875,3.08625 L24.211875,4.156875 C24.211875,4.899375 23.608125,5.505 22.865625,5.505 L3.046875,5.505 Z" id="Path" fill="#F0EBE3"></path>
                            <path d="M22.865625,2.169375 C23.37,2.169375 23.77875,2.58 23.77875,3.084375 L23.77875,4.155 C23.77875,4.663125 23.368125,5.07 22.865625,5.07 L3.046875,5.07 C2.5425,5.07 2.13375,4.66125 2.13375,4.155 L2.13375,3.084375 C2.13375,2.578125 2.544375,2.169375 3.046875,2.169375 L22.865625,2.169375 M22.865625,1.305 L3.046875,1.305 C2.068125,1.305 1.269375,2.101875 1.269375,3.084375 L1.269375,4.155 C1.269375,5.135625 2.068125,5.9325 3.046875,5.9325 L22.865625,5.9325 C23.844375,5.9325 24.6431283,5.135625 24.6431283,4.155 L24.6431283,3.084375 C24.645,2.101875 23.84625,1.305 22.865625,1.305 L22.865625,1.305 Z" id="Shape" fill="#FEB3B8"></path>
                        </g>
                    </g>
                </g>
            </g>
        </g>
    </g>
</svg>