<?xml version="1.0" encoding="utf-8"?>
<!-- Generator: Adobe Illustrator 24.0.1, SVG Export Plug-In . SVG Version: 6.00 Build 0)  -->
<svg version="1.1" id="Layer_1" xmlns="http://www.w3.org/2000/svg" xmlns:xlink="http://www.w3.org/1999/xlink" x="0px" y="0px"
	 viewBox="0 0 496.5 433.1" style="enable-background:new 0 0 496.5 433.1;" xml:space="preserve">
<style type="text/css">
	.st0{fill:#FC404D;}
	.st1{fill:#FEB3B8;}
	.st2{fill:#FD8C94;}
	.st3{fill:#FCFBF9;}
	.st4{fill:#F0EBE3;}
	.st5{opacity:0.5;fill:#FEB3B8;}
	.st6{fill:#FFFFFF;}
	.st7{fill:#D11C36;}
	.st8{fill:#1D9EA1;}
	.st9{fill:#45C2C7;}
	.st10{fill:#983BE9;}
	.st11{fill:#E37584;}
	.st12{opacity:0.3;}
	.st13{clip-path:url(#SVGID_2_);}
	.st14{fill:#FF5964;}
	.st15{fill:#8FDADD;}
	.st16{clip-path:url(#SVGID_4_);}
	.st17{fill:#E8A200;}
	.st18{fill:#FFC625;}
	.st19{fill:#282424;}
	.st20{fill:#FF8358;}
	.st21{fill:#FCD758;}
	.st22{fill:#55165C;}
	.st23{fill:#BB6D4A;}
	.st24{fill:#77457D;}
	.st25{fill:none;stroke:#F0EBE3;stroke-width:1.5018;stroke-linecap:round;stroke-linejoin:round;stroke-miterlimit:10;}
	.st26{fill:#401145;}
	.st27{fill:#A0501E;}
</style>
<g>
	<g>
		<path class="st0" d="M112.4,431.7c-3.2,1.8-8.4,1.8-11.6,0l-44.7-25.8c-1.6-0.9-2.4-2.1-2.4-3.4c0-1.2,0-5.1,0-5.1l47.1-24.1
			c3.2-1.8,8.4-1.8,11.6,0l47.1,24.2c0,0,0.1,3.8,0,5c-0.1,1.2-0.8,2.3-2.4,3.2L112.4,431.7z"/>
		<path class="st1" d="M112.4,430.2c-3.2,1.8-8.4,1.8-11.6,0l-44.7-25.8c-1.6-0.9-2.4-2.1-2.4-3.4c0-1.2,0-6.5,0-6.5l47.1-22.6
			c3.2-1.8,8.4-1.8,11.6,0l47.1,22.5c0,0,0.1,5.6,0,6.8c-0.1,1.2-0.8,2.3-2.4,3.2L112.4,430.2z"/>
		<path class="st2" d="M106.7,431.6c-2.1,0-4.2-0.4-5.8-1.3l-44.7-25.8c-1.6-0.9-2.4-2.1-2.4-3.4c0-1.2,0-6.5,0-6.5l47.1-22.6
			c1.6-0.9,3.7-1.4,5.8-1.4L106.7,431.6z"/>
		<path class="st3" d="M112.4,423.5c-3.2,1.8-8.4,1.8-11.6,0l-44.7-25.8c-3.2-1.8-3.2-4.9,0-6.7l44.7-25.8c3.2-1.8,8.4-1.8,11.6,0
			l44.7,25.8c3.2,1.8,3.2,4.9,0,6.7L112.4,423.5z"/>
		<g>
			<path class="st4" d="M106.6,425.2c-2.2,0-4.3-0.5-6-1.4L56,398c-2-1.3-2.9-3.4-2-4.9l0,0c-0.4,1.1,0.2,3.3,2.2,4.5l44.7,25.8
				c3.1,1.8,8.2,1.8,11.3,0l44.7-25.8c1.3-0.7,2-1.7,2.2-2.7c0.1-0.8,0.1-1.9-0.6-2.6l0,0c0.8,0.9,1.1,1.7,1,2.7
				c-0.2,1.2-0.8,2.3-2.2,3.1l-44.7,25.8C110.9,424.8,108.7,425.2,106.6,425.2z"/>
		</g>
	</g>
	<g>
		<path class="st0" d="M449.4,242.1c-3.2,1.8-8.4,1.8-11.6,0l-44.7-25.8c-1.6-0.9-2.4-2.1-2.4-3.4c0-1.2,0-5.1,0-5.1l47.1-24.1
			c3.2-1.8,8.4-1.8,11.6,0l47.1,24.2c0,0,0.1,3.8,0,5c-0.1,1.2-0.8,2.3-2.4,3.2L449.4,242.1z"/>
		<path class="st1" d="M449.4,240.6c-3.2,1.8-8.4,1.8-11.6,0l-44.7-25.8c-1.6-0.9-2.4-2.1-2.4-3.4c0-1.2,0-6.5,0-6.5l47.1-22.6
			c3.2-1.8,8.4-1.8,11.6,0l47.1,22.5c0,0,0.1,5.6,0,6.8c-0.1,1.2-0.8,2.3-2.4,3.2L449.4,240.6z"/>
		<path class="st2" d="M443.7,241.9c-2.1,0-4.3-0.4-5.9-1.3l-44.7-25.8c-1.6-0.9-2.4-2.1-2.4-3.4c0-1.2,0-6.5,0-6.5l47.2-22.6
			c1.6-0.9,3.7-1.4,5.8-1.4L443.7,241.9z"/>
		<path class="st3" d="M449.4,233.9c-3.2,1.8-8.4,1.8-11.6,0l-44.7-25.8c-3.2-1.8-3.2-4.9,0-6.7l44.7-25.8c3.2-1.8,8.4-1.8,11.6,0
			l44.7,25.8c3.2,1.8,3.2,4.9,0,6.7L449.4,233.9z"/>
		<g>
			<path class="st4" d="M443.6,235.6c-2.2,0-4.3-0.5-6-1.4L393,208.3c-2-1.3-2.9-3.4-2-4.9l0,0c-0.4,1.1,0.2,3.3,2.2,4.5l44.7,25.8
				c3.1,1.8,8.2,1.8,11.3,0l44.7-25.8c1.3-0.7,2-1.7,2.2-2.7c0.1-0.8,0.1-1.9-0.6-2.6l0,0c0.8,0.9,1.1,1.7,1,2.7
				c-0.2,1.2-0.8,2.3-2.2,3.1l-44.7,25.8C447.9,235.1,445.7,235.6,443.6,235.6z"/>
		</g>
	</g>
	<g>
		<g>
			<path class="st5" d="M388.2,189.6l-111.7-64.7c-6.1-3.5-16.7-3.1-23.7,0.9L18.2,260.8c-7,4-7.8,10.2-1.7,13.7l111.7,64.7
				c6.1,3.5,16.7,3.1,23.7-0.9l234.5-134.9C393.5,199.2,394.2,193.1,388.2,189.6z"/>
			<path class="st0" d="M125,315.2L8.7,247.9c-3.8-2.2-5.6-5.2-5.5-8.3l0,0l0-16.9l6.5,7.6c0.4-0.3,0.8-0.6,1.3-0.8L248.9,92.6
				c9.4-5.4,23.7-6,31.9-1.3l114.6,66.4c2.3-2.5,7.2-7.9,7.2-7.9l-0.1,16.5l0,0c0.2,3.7-2.5,7.7-7.8,10.8L156.9,313.9
				C147.4,319.4,133.2,319.9,125,315.2z"/>
			<path class="st1" d="M62.1,273.9l6.7,3.9c0.9,0.5,1.6,0,1.6-1.2l0,0c0-1.2-0.7-2.6-1.6-3.1l-6.7-3.9c-0.9-0.5-1.6,0-1.6,1.2l0,0
				C60.5,272,61.2,273.4,62.1,273.9z"/>
			<path class="st2" d="M248.9,92.6c9.4-5.4,23.7-6,31.9-1.3l114.6,66.4c2.3-2.5,7.2-7.9,7.2-7.9l-0.1,16.5l0,0
				c0.2,3.7-2.5,7.7-7.8,10.8L156.9,313.9c-4.9,2.8-11.2,4.3-17.2,4.5l0.2-163.1L248.9,92.6z"/>
			<path class="st1" d="M397.1,141.7L280.8,74.3c-8.2-4.7-22.4-4.2-31.9,1.3L11.1,212.5c-9.4,5.4-10.5,13.7-2.3,18.4l116.3,67.3
				c8.2,4.7,22.4,4.2,31.9-1.3l237.9-136.9C404.2,154.6,405.3,146.4,397.1,141.7z"/>
			<path class="st6" d="M125,300L8.7,232.7c-4.2-2.4-6-5.8-5.4-9.3c0.2,2.8,2,5.4,5.5,7.5l116.3,67.3c8.2,4.7,22.4,4.2,31.9-1.3
				l237.9-136.9c4.6-2.6,7.2-5.9,7.7-9.2c0.3,3.8-2.4,7.8-7.8,11L156.8,298.8C147.4,304.2,133.1,304.8,125,300z"/>
			<path class="st7" d="M388.2,144.3L276.4,79.6c-6.1-3.5-16.7-3.1-23.7,0.9L18.2,215.5c-7,4-7.8,10.2-1.7,13.7l111.7,64.7
				c6.1,3.5,16.7,3.1,23.7-0.9L386.4,158C393.5,154,394.2,147.8,388.2,144.3z"/>
		</g>
		<g>
			<polygon class="st1" points="156.4,260.3 77.6,214.8 82.6,211.9 161.4,257.4 			"/>
			<polygon class="st1" points="101.5,247 61.6,224 66.7,221.1 106.6,244.1 			"/>
			<polygon class="st8" points="120.9,258.2 108,250.7 113,247.8 125.9,255.3 			"/>
			<polygon class="st6" points="140.5,269.5 127.5,262 132.5,259.1 145.5,266.6 			"/>
			<polygon class="st6" points="102,238.1 69.6,219.4 74.6,216.5 107,235.2 			"/>
			<polygon class="st1" points="141.5,260.9 109.1,242.2 114.2,239.3 146.6,258 			"/>
			<g>
				<path class="st8" d="M117.6,220.9c-1.6,0.9-4.2,0.9-5.9,0c-1.6-0.9-1.6-2.5,0-3.4c1.6-0.9,4.2-0.9,5.9,0
					C119.2,218.5,119.2,220,117.6,220.9z"/>
				<path class="st6" d="M126.3,226c-1.6,0.9-4.2,0.9-5.9,0c-1.6-0.9-1.6-2.5,0-3.4c1.6-0.9,4.2-0.9,5.9,0
					C127.9,223.5,127.9,225,126.3,226z"/>
				<path class="st1" d="M135.1,231c-1.6,0.9-4.2,0.9-5.9,0c-1.6-0.9-1.6-2.5,0-3.4c1.6-0.9,4.2-0.9,5.9,0
					C136.7,228.6,136.7,230.1,135.1,231z"/>
				<path class="st8" d="M143.9,236.1c-1.6,0.9-4.2,0.9-5.9,0c-1.6-0.9-1.6-2.5,0-3.4c1.6-0.9,4.2-0.9,5.9,0
					C145.5,233.7,145.5,235.2,143.9,236.1z"/>
				<path class="st6" d="M152.6,241.2c-1.6,0.9-4.2,0.9-5.9,0c-1.6-0.9-1.6-2.5,0-3.4c1.6-0.9,4.2-0.9,5.9,0
					C154.3,238.7,154.3,240.2,152.6,241.2z"/>
			</g>
		</g>
		<g>
			<polygon class="st8" points="329,144.8 315.7,137.1 320.9,134.2 334.1,141.8 			"/>
			<polygon class="st6" points="347.5,155.5 334.2,147.8 339.3,144.8 352.6,152.5 			"/>
			<polygon class="st6" points="269.7,110.3 256.4,102.6 261.6,99.6 274.8,107.3 			"/>
			<polygon class="st6" points="326,152.5 307.5,141.9 312.7,138.9 331.2,149.6 			"/>
			<polygon class="st1" points="339.3,160.2 331.2,155.5 336.3,152.5 344.5,157.2 			"/>
		</g>
	</g>
	<g>
		<path class="st5" d="M233.2,333.7l46.3-26.7c3.7-2.1,9.6-2.2,14.4-0.5l12.7-7.5c-11.9-8.9-13-21.1-3.2-30.6
			c1.9,2.7,4.7,5.2,8.5,7.4c15.3,8.8,40.2,8.8,55.5,0c6-3.5,9.6-7.7,10.9-12.2c17.5,10.7,17.2,27.5-0.9,38
			c-17.9,10.3-46.5,10.6-65.1,0.9l-12.8,7.5c2.2,2.6,1.7,5.6-1.6,7.5l-46.3,26.7c-4.4,2.5-12,2.2-17.1-0.7
			C229.4,340.6,228.8,336.2,233.2,333.7z"/>
		<g>
			<g>
				<path class="st5" d="M367.3,249.7c-15.3-8.8-40.2-8.8-55.5,0c-6.4,3.7-10.1,8.3-11.1,13.1c1,4.2,4,8.3,9,11.7
					c1.3-1,2.7-2,4.3-2.9c15.3-8.8,40.2-8.8,55.5,0c0.8,0.4,1.5,0.9,2.1,1.4c3.8-3.1,6-6.5,6.9-10.1
					C377.4,258,373.7,253.4,367.3,249.7z"/>
				<path class="st9" d="M299.8,269.8l6-7.8l18.2-8.4l15.7-1.4l18.3,2.2l12.7,6.6l8.1,5.2l1.5-8.4l-2.7-9.7c0,0-6.9-4.6-7.4-5
					c-0.4-0.4-16.3-6.1-16.3-6.1l-15.8-1.1l-12.7,1.6l-12.9,3.8l-8.6,6l-6.4,8.1l-0.7,10.2L299.8,269.8z"/>
				<polygon class="st9" points="384.6,259.8 384.6,276.3 380.3,269.1 				"/>
				<path class="st9" d="M311.9,260.7c15.3-8.8,40.2-8.8,55.5,0c4.8,2.8,8.1,6.1,9.9,9.6c1.3-1.2,3.1-2.2,3.8-3.8
					c-2.2-3-5.4-5.8-9.6-8.2c-17.6-10.2-46.1-10.2-63.7,0c-3.8,2.2-6.9,4.7-9,7.4c0.7,1.7,1.8,3.3,3.2,4.6
					C303.7,266.8,307,263.5,311.9,260.7z"/>
				<path class="st5" d="M367.3,249.7c-15.3-8.8-40.2-8.8-55.5,0c-6.4,3.7-10.1,8.3-11.1,13.1c1.1,4.8,4.8,9.4,11.1,13.1
					c15.3,8.8,40.2,8.8,55.5,0c6.4-3.7,10.1-8.3,11.1-13.1C377.4,258,373.7,253.4,367.3,249.7z"/>
				<path class="st8" d="M381.1,266.5c-0.3,0.7-0.8,1.3-1.4,1.8l0-0.2l-4.1,2.4l-5,4.6l-6.9,3.1l-9.6,3.4l-8.5,2l-11.7,0.5l-7.6-0.8
					l-15-3.9l-9.8-8.6c0.1-0.2,0.1-0.3,0.2-0.5c-1.4-1.3-2.5-2.9-3.2-4.6c-0.3,0.3-0.5,0.7-0.8,1l-3.4-7.1v17.1l0,0
					c0,6.7,4.4,13.3,13.2,18.4c17.6,10.2,46.1,10.2,63.7,0C384.8,287.4,388,276,381.1,266.5z"/>
				<path class="st8" d="M305.2,274l-3.5-3.1c0.1-0.2,0.1-0.3,0.2-0.5c-1.4-1.3-2.5-2.9-3.2-4.6c-0.3,0.3-0.5,0.7-0.8,1l-3.4-7.1
					v17.1l0,0c0,6,3.6,12,10.7,16.8V274z"/>
				<path class="st8" d="M371.5,241.4c-17.6-10.2-46.1-10.2-63.7,0c-17.6,10.2-17.6,26.6,0,36.8c17.6,10.2,46.1,10.2,63.7,0
					C389,268.1,389,251.6,371.5,241.4z M367.3,275.8c-15.3,8.8-40.2,8.8-55.5,0c-15.3-8.8-15.3-23.2,0-32c15.3-8.8,40.2-8.8,55.5,0
					C382.7,252.6,382.7,267,367.3,275.8z"/>
				<g>
					<g>
						<polygon class="st1" points="278.3,296.8 303.3,282.3 306.6,287.7 281.5,302.3 						"/>
						<path class="st10" d="M282.1,300.9c0,1.4-1,2-2.2,1.3c-1.2-0.7-2.2-2.4-2.2-3.9c0-1.4,1-2,2.2-1.3
							C281.1,297.7,282.1,299.4,282.1,300.9z"/>
						<path class="st10" d="M282.1,300.9c0,1.4-1,2-2.2,1.3c-1.2-0.7-2.2-2.4-2.2-3.9c0-1.4,1-2,2.2-1.3
							C281.1,297.7,282.1,299.4,282.1,300.9z"/>
						<path class="st1" d="M307.1,286.3c0,1.4-1,2-2.2,1.3c-1.2-0.7-2.2-2.4-2.2-3.9c0-1.4,1-2,2.2-1.3
							C306.1,283.2,307.1,284.9,307.1,286.3z"/>
					</g>
					<path class="st11" d="M294.4,301.9c0-6.1-4.3-13.6-9.6-16.7c-2.7-1.6-5.2-1.7-6.9-0.6l0,0l-52.8,30.7l13.8,23.5l52.2-30.4
						c0.4-0.2,0.7-0.3,1-0.6l0,0l0,0C293.6,306.7,294.4,304.7,294.4,301.9z"/>
					<path class="st1" d="M228.9,321.8l59.1-34.1c-1-1-2.1-1.8-3.2-2.5c-2.7-1.6-5.2-1.7-6.9-0.6l0,0l-52.8,30.7L228.9,321.8z"/>
					<g>
						<ellipse transform="matrix(0.866 -0.5 0.5 0.866 -132.4569 159.8078)" class="st1" cx="232" cy="327.1" rx="7.9" ry="13.6"/>
						<path class="st2" d="M233.8,329.8c0,3.5-2.8,6.3-6.3,6.3c-3.5,0-6.3-2.8-6.3-6.3c0-3.5,2.8-6.3,6.3-6.3
							C231,323.5,233.8,326.3,233.8,329.8z"/>
						<path class="st6" d="M226.4,327.5c0,1-0.8,1.9-1.9,1.9s-1.9-0.8-1.9-1.9s0.8-1.9,1.9-1.9S226.4,326.4,226.4,327.5z"/>
					</g>
					<path class="st6" d="M232.7,315.5c-2.8-1.6-5.4-1.7-7.2-0.4c1.7-0.8,4-0.6,6.4,0.8c5.3,3.1,9.6,10.5,9.6,16.7
						c0,2.9-0.9,4.9-2.5,6c1.9-0.9,3.2-3.1,3.2-6.4C242.3,326.1,238,318.6,232.7,315.5z"/>
				</g>
				<g>
					<path class="st6" d="M367.3,243.8c-15.3-8.8-40.2-8.8-55.5,0c-8,4.6-11.8,10.7-11.5,16.7c0.3-5.6,4.1-11.1,11.5-15.3
						c15.3-8.8,40.2-8.8,55.5,0c7.3,4.2,11.2,9.7,11.5,15.3C379.1,254.5,375.3,248.4,367.3,243.8z"/>
					<path class="st6" d="M371.5,278.2c-17.6,10.2-46.1,10.2-63.7,0c-8.5-4.9-12.9-11.3-13.2-17.7c-0.3,6.9,4.1,13.8,13.2,19.1
						c17.6,10.2,46.1,10.2,63.7,0c9.1-5.3,13.5-12.2,13.2-19.1C384.3,267,379.9,273.3,371.5,278.2z"/>
				</g>
			</g>
		</g>
	</g>
	<g class="st12">
		<defs>
			<polygon id="SVGID_1_" class="st12" points="121.1,190.9 198.4,233.7 300.5,174.9 312.9,200.3 151.7,293.1 92.7,263 			"/>
		</defs>
		<clipPath id="SVGID_2_">
			<use xlink:href="#SVGID_1_"  style="overflow:visible;"/>
		</clipPath>
		<g class="st13">
			<g>
				<g>
					<path class="st1" d="M191.3,208.9c-4.2,2.4-4.2,6.4,0,8.9l71.9,41.5c1.2,0.7,3,0.7,4.2,0c1.2-0.7,1.2-1.8,0-2.4l-71.9-41.5
						c-1.9-1.1-1.9-2.9,0-4l7-4c-0.8-1.2-1.5-2.4-2.2-3.6L191.3,208.9z"/>
					<path class="st2" d="M293.1,242l-71.9-41.5c-4.2-2.4-11.1-2.4-15.3,0l-5.6,3.2c0.7,1.2,1.4,2.4,2.2,3.6l7.6-4.4
						c1.9-1.1,5-1.1,6.9,0l71.9,41.5c1.2,0.7,3,0.7,4.2,0C294.2,243.7,294.2,242.7,293.1,242z"/>
				</g>
				<polygon class="st2" points="293.9,243.3 294,142.2 218.6,100.2 208.1,99.5 197.9,106.1 191.6,111.5 265,227.9 289,242.1 				
					"/>
				<polygon class="st14" points="266.1,256 288.6,243 288.6,145.3 265.4,156.1 				"/>
				<polygon class="st1" points="188.1,112.3 188.1,213.2 267.2,258.5 268.2,258.1 268.2,157 				"/>
				<g>
					<path class="st6" d="M232.6,113.1l-15.7-9c-1.9-0.9-4.7-0.8-6.5,0.2l-14.6,8.4c-1.1,0.7-1.6,1.5-1.4,2.4l39.7,23.7l31.9,19.6
						l22.6-13.1L232.6,113.1z"/>
				</g>
				<path class="st2" d="M265.4,155.4v100.3v2.1v1.9c0.7,0,1.4-0.2,2-0.5c0.6-0.3,0.9-0.8,0.9-1.2l0,0v0v0V157L265.4,155.4z"/>
				<polygon class="st6" points="294,143.4 294,142.2 293.6,142.2 293.4,143 				"/>
				<polygon class="st6" points="268.2,158.3 268.2,157 267.8,157.6 				"/>
				<g>
					<path class="st1" d="M263.2,158.2l-71.9-41.5c-4.2-2.4-4.2-6.4,0-8.9l14.6-8.4c4.2-2.4,11.1-2.4,15.3,0l71.9,41.5
						c1.2,0.7,1.2,1.8,0,2.4c-1.2,0.7-3,0.7-4.2,0L217,101.8c-1.9-1.1-5-1.1-6.9,0l-14.6,8.4c-1.9,1.1-1.9,2.9,0,4l71.9,41.5
						c1.2,0.7,1.2,1.8,0,2.4C266.2,158.9,264.3,158.9,263.2,158.2z"/>
				</g>
				<polygon class="st6" points="244.4,206 207.1,184.5 207.1,147 244.4,168.6 				"/>
				<g>
					<path class="st6" d="M293.1,143.3c-1.2,0.7-3,0.7-4.2,0L217,101.8c-1.9-1.1-5-1.1-6.9,0l-14.6,8.4c-1.2,0.7-1.7,1.7-1.3,2.7
						c0.2-0.5,0.6-1,1.3-1.3l14.6-8.4c1.9-1.1,5-1.1,6.9,0l71.9,41.5c1.2,0.7,3,0.7,4.2,0c0.9-0.5,1.1-1.3,0.6-1.9
						C293.6,143,293.4,143.2,293.1,143.3z"/>
					<path class="st6" d="M267.4,158.2c-1.2,0.7-3,0.7-4.2,0l-71.9-41.5c-1.8-1.1-2.9-2.4-3.1-3.8c-0.3,1.8,0.7,3.7,3.1,5.1
						l71.9,41.5c1.2,0.7,3,0.7,4.2,0c0.9-0.5,1.1-1.3,0.6-1.9C267.9,157.8,267.6,158,267.4,158.2z"/>
				</g>
			</g>
			<g>
				<g>
					<path class="st8" d="M158.2,228.5c-4.2,2.4-4.2,6.4,0,8.9l71.9,41.5c1.2,0.7,3,0.7,4.2,0c1.2-0.7,1.2-1.8,0-2.4l-71.9-41.5
						c-1.9-1.1-1.9-2.9,0-4l7-4c-0.8-1.2-1.5-2.4-2.2-3.6L158.2,228.5z"/>
					<path class="st9" d="M260,261.5L188.1,220c-4.2-2.4-11.1-2.4-15.3,0l-5.6,3.2c0.7,1.2,1.4,2.4,2.2,3.6l7.6-4.4
						c1.9-1.1,5-1.1,6.9,0l71.9,41.5c1.2,0.7,3,0.7,4.2,0C261.2,263.3,261.2,262.2,260,261.5z"/>
				</g>
				<polygon class="st9" points="260.9,262.9 260.9,161.8 185.6,119.8 175,119.1 164.8,125.7 158.6,131.1 232,247.5 256,261.6 				
					"/>
				<polygon class="st15" points="233,275.6 255.6,262.6 255.6,164.9 232.3,175.7 				"/>
				<polygon class="st8" points="155,131.9 155,232.8 234.1,278.1 235.2,277.6 235.2,176.6 				"/>
				<g>
					<path class="st6" d="M199.5,132.7l-15.7-9c-1.9-0.9-4.7-0.8-6.5,0.2l-14.6,8.4c-1.1,0.7-1.6,1.5-1.4,2.4l39.7,23.7L233,178
						l22.6-13.1L199.5,132.7z"/>
				</g>
				<path class="st9" d="M232.3,175v100.3v2.1v1.9c0.7,0,1.4-0.2,2-0.5c0.6-0.3,0.9-0.8,0.9-1.2l0,0v0v0V176.6L232.3,175z"/>
				<polygon class="st6" points="260.9,163 260.9,161.8 260.5,161.8 260.4,162.6 				"/>
				<polygon class="st6" points="235.2,177.9 235.2,176.6 234.8,177.1 				"/>
				<g>
					<path class="st8" d="M230.1,177.7l-71.9-41.5c-4.2-2.4-4.2-6.4,0-8.9l14.6-8.4c4.2-2.4,11.1-2.4,15.3,0l71.9,41.5
						c1.2,0.7,1.2,1.8,0,2.4c-1.2,0.7-3,0.7-4.2,0l-71.9-41.5c-1.9-1.1-5-1.1-6.9,0l-14.6,8.4c-1.9,1.1-1.9,2.9,0,4l71.9,41.5
						c1.2,0.7,1.2,1.8,0,2.4C233.1,178.4,231.3,178.4,230.1,177.7z"/>
				</g>
				<polygon class="st6" points="211.4,225.6 174,204 174,166.6 211.4,188.1 				"/>
				<g>
					<path class="st6" d="M260,162.9c-1.2,0.7-3,0.7-4.2,0l-71.9-41.5c-1.9-1.1-5-1.1-6.9,0l-14.6,8.4c-1.2,0.7-1.7,1.7-1.3,2.7
						c0.2-0.5,0.6-1,1.3-1.3l14.6-8.4c1.9-1.1,5-1.1,6.9,0l71.9,41.5c1.2,0.7,3,0.7,4.2,0c0.9-0.5,1.1-1.3,0.6-1.9
						C260.5,162.6,260.3,162.7,260,162.9z"/>
					<path class="st6" d="M234.3,177.7c-1.2,0.7-3,0.7-4.2,0l-71.9-41.5c-1.8-1.1-2.9-2.4-3.1-3.8c-0.3,1.8,0.7,3.7,3.1,5.1
						l71.9,41.5c1.2,0.7,3,0.7,4.2,0c0.9-0.5,1.1-1.3,0.6-1.9C234.8,177.4,234.6,177.6,234.3,177.7z"/>
				</g>
			</g>
			<g>
				<g>
					<path class="st1" d="M124.2,261.2c-4.2,2.4-4.2,6.4,0,8.9l71.9,41.5c1.2,0.7,3,0.7,4.2,0s1.2-1.8,0-2.4l-71.9-41.5
						c-1.9-1.1-1.9-2.9,0-4l7-4c-0.8-1.2-1.5-2.4-2.2-3.6L124.2,261.2z"/>
					<path class="st2" d="M226.1,294.3l-71.9-41.5c-4.2-2.4-11.1-2.4-15.3,0l-5.6,3.2c0.7,1.2,1.4,2.4,2.2,3.6l7.6-4.4
						c1.9-1.1,5-1.1,6.9,0l71.9,41.5c1.2,0.7,3,0.7,4.2,0C227.2,296.1,227.2,295,226.1,294.3z"/>
				</g>
				<polygon class="st2" points="226.9,295.6 226.9,194.5 151.6,152.5 141.1,151.8 130.9,158.4 124.6,163.9 198,280.3 222,294.4 
									"/>
				<polygon class="st14" points="199.1,308.4 221.6,295.4 221.6,197.7 198.4,208.5 				"/>
				<polygon class="st1" points="121.1,164.7 121.1,265.6 200.2,310.8 201.2,310.4 201.2,209.3 				"/>
				<g>
					<path class="st6" d="M165.6,165.5l-15.7-9c-1.9-0.9-4.7-0.8-6.5,0.2l-14.6,8.4c-1.1,0.7-1.6,1.5-1.4,2.4l39.7,23.7l31.9,19.6
						l22.6-13.1L165.6,165.5z"/>
				</g>
				<path class="st2" d="M198.4,207.7V308v2.1v1.9c0.7,0,1.4-0.2,2-0.5c0.6-0.3,0.9-0.8,0.9-1.2l0,0v0v0V209.3L198.4,207.7z"/>
				<polygon class="st6" points="226.9,195.8 226.9,194.5 226.5,194.5 226.4,195.4 				"/>
				<polygon class="st6" points="201.2,210.6 201.2,209.3 200.8,209.9 				"/>
				<g>
					<path class="st1" d="M196.1,210.5L124.2,169c-4.2-2.4-4.2-6.4,0-8.9l14.6-8.4c4.2-2.4,11.1-2.4,15.3,0l71.9,41.5
						c1.2,0.7,1.2,1.8,0,2.4c-1.2,0.7-3,0.7-4.2,0L150,154.2c-1.9-1.1-5-1.1-6.9,0l-14.6,8.4c-1.9,1.1-1.9,2.9,0,4l71.9,41.5
						c1.2,0.7,1.2,1.8,0,2.4C199.2,211.2,197.3,211.2,196.1,210.5z"/>
				</g>
				<polygon class="st6" points="177.4,258.4 140,236.8 140,199.4 177.4,220.9 				"/>
				<g>
					<path class="st6" d="M226.1,195.7c-1.2,0.7-3,0.7-4.2,0L150,154.2c-1.9-1.1-5-1.1-6.9,0l-14.6,8.4c-1.2,0.7-1.7,1.7-1.3,2.7
						c0.2-0.5,0.6-1,1.3-1.3l14.6-8.4c1.9-1.1,5-1.1,6.9,0l71.9,41.5c1.2,0.7,3,0.7,4.2,0c0.9-0.5,1.1-1.3,0.6-1.9
						C226.6,195.3,226.3,195.5,226.1,195.7z"/>
					<path class="st6" d="M200.3,210.5c-1.2,0.7-3,0.7-4.2,0L124.2,169c-1.8-1.1-2.9-2.4-3.1-3.8c-0.3,1.8,0.7,3.7,3.1,5.1
						l71.9,41.5c1.2,0.7,3,0.7,4.2,0c0.9-0.5,1.1-1.3,0.6-1.9C200.8,210.2,200.6,210.4,200.3,210.5z"/>
				</g>
			</g>
		</g>
	</g>
	<g>
		<defs>
			<polygon id="SVGID_3_" points="113.5,186.7 198.4,233.7 316.1,165.9 317.9,64.1 239.5,51.4 116.9,136.9 			"/>
		</defs>
		<clipPath id="SVGID_4_">
			<use xlink:href="#SVGID_3_"  style="overflow:visible;"/>
		</clipPath>
		<g class="st16">
			<g>
				<g>
					<polygon class="st17" points="257.1,167.6 251.1,187.3 235.7,197.8 247.4,202.6 243.9,222.1 257.1,205.1 270.3,206.9 
						266.8,191.4 278.5,173.2 263.1,180.3 					"/>
					<path class="st9" d="M285.6,177.3l-7.2-4.1l-11.1,5.2c0,0,0,7.4,0,7.6c0,0.2,4.6,0.4,4.9,0.4
						C272.6,186.4,285.6,177.3,285.6,177.3z"/>
					<path class="st9" d="M243.9,222.1l7.2,4.1l3.5-19.5c0,0-3.5-3.7-3.5-3.7c0,0-3.9,0.7-3.9,0.7L243.9,222.1z"/>
					<polygon class="st8" points="264.3,171.7 258.3,191.4 242.9,202 254.5,206.7 251,226.2 264.3,209.2 277.5,211 274,195.5 
						285.6,177.3 270.3,184.5 					"/>
					<path class="st6" d="M252.4,224.4l3.3-18.4l-10.6-4.3l14.1-9.7l5.3-17.4l5.3,11.2l14.8-6.9l1.1-1.7l-15.4,7.2l-6-12.8l-6,19.7
						L242.9,202l11.7,4.8l-3.5,19.5L252.4,224.4z"/>
					<polygon class="st9" points="264.3,171.7 257.1,167.6 251.1,187.3 258.3,191.4 					"/>
					<polygon class="st9" points="235.7,197.8 242.9,202 258.3,191.4 251.1,187.3 					"/>
				</g>
				<polygon class="st6" points="257.9,191.9 259,191.2 251.2,186.7 251.1,187.3 250.6,187.6 				"/>
			</g>
			<g>
				<g>
					<polygon class="st17" points="208.1,195.6 202.1,215.3 186.7,225.9 198.4,230.6 194.9,250.2 208.1,233.2 221.3,234.9 
						217.8,219.4 229.5,201.2 214.1,208.4 					"/>
					<path class="st9" d="M236.6,205.3l-7.2-4.1l-11.1,5.2c0,0,0,7.4,0,7.6c0,0.2,4.6,0.4,4.9,0.4
						C223.6,214.4,236.6,205.3,236.6,205.3z"/>
					<path class="st9" d="M194.9,250.2l7.2,4.1l3.5-19.5c0,0-3.5-3.7-3.5-3.7c0,0-3.9,0.7-3.9,0.7L194.9,250.2z"/>
					<polygon class="st8" points="215.3,199.7 209.3,219.4 193.9,230 205.6,234.7 202.1,254.3 215.3,237.3 228.5,239 225,223.5 
						236.6,205.3 221.3,212.5 					"/>
					<path class="st6" d="M203.5,252.5l3.3-18.4l-10.6-4.3l14.1-9.7l5.3-17.4l5.3,11.2l14.8-6.9l1.1-1.7l-15.4,7.2l-6-12.8l-6,19.7
						L193.9,230l11.7,4.8l-3.5,19.5L203.5,252.5z"/>
					<polygon class="st9" points="215.3,199.7 208.1,195.6 202.1,215.3 209.3,219.4 					"/>
					<polygon class="st9" points="186.7,225.9 193.9,230 209.3,219.4 202.1,215.3 					"/>
				</g>
				<polygon class="st6" points="208.9,219.9 210,219.3 202.3,214.8 202.1,215.3 201.6,215.7 				"/>
			</g>
			<g>
				<g>
					<polygon class="st17" points="159.1,223.6 153.1,243.3 137.8,253.9 149.4,258.7 145.9,278.2 159.1,261.2 172.3,263 
						168.8,247.4 180.5,229.2 165.1,236.4 					"/>
					<path class="st9" d="M187.7,233.4l-7.2-4.1l-11.1,5.2c0,0,0,7.4,0,7.6c0,0.2,4.6,0.4,4.9,0.4S187.7,233.4,187.7,233.4z"/>
					<path class="st9" d="M145.9,278.2l7.2,4.1l3.5-19.5c0,0-3.5-3.7-3.5-3.7c0,0-3.9,0.7-3.9,0.7L145.9,278.2z"/>
					<polygon class="st8" points="166.3,227.8 160.3,247.4 144.9,258 156.6,262.8 153.1,282.3 166.3,265.3 179.5,267.1 176,251.6 
						187.7,233.4 172.3,240.5 					"/>
					<path class="st6" d="M154.5,280.5l3.3-18.4l-10.6-4.3l14.1-9.7l5.3-17.4l5.3,11.2l14.8-6.9l1.1-1.7l-15.4,7.2l-6-12.8l-6,19.7
						L144.9,258l11.7,4.8l-3.5,19.5L154.5,280.5z"/>
					<polygon class="st9" points="166.3,227.8 159.1,223.6 153.1,243.3 160.3,247.4 					"/>
					<polygon class="st9" points="137.8,253.9 144.9,258 160.3,247.4 153.1,243.3 					"/>
				</g>
				<polygon class="st6" points="159.9,247.9 161,247.3 153.3,242.8 153.1,243.3 152.6,243.7 				"/>
			</g>
			<g>
				<g>
					<polygon class="st17" points="223,121.1 217,140.8 201.6,151.4 213.3,156.1 209.8,175.6 223,158.6 236.2,160.4 232.7,144.9 
						244.4,126.7 229,133.8 					"/>
					<path class="st9" d="M251.5,130.8l-7.2-4.1l-11.1,5.2c0,0,0,7.4,0,7.6c0,0.2,4.6,0.4,4.9,0.4
						C238.5,139.9,251.5,130.8,251.5,130.8z"/>
					<path class="st9" d="M209.8,175.6l7.2,4.1l3.5-19.5c0,0-3.5-3.7-3.5-3.7c0,0-3.9,0.7-3.9,0.7L209.8,175.6z"/>
					<polygon class="st8" points="230.2,125.2 224.2,144.9 208.8,155.5 220.5,160.2 217,179.8 230.2,162.8 243.4,164.5 239.9,149 
						251.5,130.8 236.2,138 					"/>
					<path class="st6" d="M218.4,178l3.3-18.4l-10.6-4.3l14.1-9.7l5.3-17.4l5.3,11.2l14.8-6.9l1.1-1.7l-15.4,7.2l-6-12.8l-6,19.7
						l-15.4,10.6l11.7,4.8l-3.5,19.5L218.4,178z"/>
					<polygon class="st9" points="230.2,125.2 223,121.1 217,140.8 224.2,144.9 					"/>
					<polygon class="st9" points="201.6,151.4 208.8,155.5 224.2,144.9 217,140.8 					"/>
				</g>
				<polygon class="st6" points="223.8,145.4 224.9,144.8 217.2,140.3 217,140.8 216.5,141.1 				"/>
			</g>
			<g>
				<g>
					<polygon class="st17" points="174,149.1 168,168.8 152.7,179.4 164.3,184.1 160.8,203.7 174,186.7 187.2,188.4 183.7,172.9 
						195.4,154.7 180,161.9 					"/>
					<path class="st9" d="M202.6,158.8l-7.2-4.1l-11.1,5.2c0,0,0,7.4,0,7.6c0,0.2,4.6,0.4,4.9,0.4S202.6,158.8,202.6,158.8z"/>
					<path class="st9" d="M160.8,203.7l7.2,4.1l3.5-19.5c0,0-3.5-3.7-3.5-3.7c0,0-3.9,0.7-3.9,0.7L160.8,203.7z"/>
					<polygon class="st8" points="181.2,153.2 175.2,172.9 159.8,183.5 171.5,188.3 168,207.8 181.2,190.8 194.4,192.5 190.9,177 
						202.6,158.8 187.2,166 					"/>
					<path class="st6" d="M169.4,206l3.3-18.4l-10.6-4.3l14.1-9.7l5.3-17.4l5.3,11.2l14.8-6.9l1.1-1.7l-15.4,7.2l-6-12.8l-6,19.7
						l-15.4,10.6l11.7,4.8l-3.5,19.5L169.4,206z"/>
					<polygon class="st9" points="181.2,153.2 174,149.1 168,168.8 175.2,172.9 					"/>
					<polygon class="st9" points="152.7,179.4 159.8,183.5 175.2,172.9 168,168.8 					"/>
				</g>
				<polygon class="st6" points="174.8,173.4 175.9,172.8 168.2,168.3 168,168.8 167.5,169.2 				"/>
			</g>
		</g>
		<g class="st16">
			<g>
				<g>
					<path class="st1" d="M191.3,187.2c-4.2,2.4-4.2,6.4,0,8.9l71.9,41.5c1.2,0.7,3,0.7,4.2,0c1.2-0.7,1.2-1.8,0-2.4l-71.9-41.5
						c-1.9-1.1-1.9-2.9,0-4l7-4c-0.8-1.2-1.5-2.4-2.2-3.6L191.3,187.2z"/>
					<path class="st2" d="M293.1,220.3l-71.9-41.5c-4.2-2.4-11.1-2.4-15.3,0l-5.6,3.2c0.7,1.2,1.4,2.4,2.2,3.6l7.6-4.4
						c1.9-1.1,5-1.1,6.9,0l71.9,41.5c1.2,0.7,3,0.7,4.2,0C294.2,222.1,294.2,221,293.1,220.3z"/>
				</g>
				<polygon class="st2" points="293.9,221.6 294,120.5 218.6,78.5 208.1,77.8 197.9,84.4 191.6,89.9 265,206.3 289,220.4 				"/>
				<polygon class="st14" points="266.1,234.4 288.6,221.4 288.6,123.7 265.4,134.5 				"/>
				<polygon class="st1" points="188.1,90.7 188.1,191.6 267.2,236.8 268.2,236.4 268.2,135.3 				"/>
				<g>
					<path class="st6" d="M232.6,91.5l-15.7-9c-1.9-0.9-4.7-0.8-6.5,0.2l-14.6,8.4c-1.1,0.7-1.6,1.5-1.4,2.4l39.7,23.7l31.9,19.6
						l22.6-13.1L232.6,91.5z"/>
				</g>
				<path class="st2" d="M265.4,133.7V234v2.1v1.9c0.7,0,1.4-0.2,2-0.5c0.6-0.3,0.9-0.8,0.9-1.2l0,0v0v0V135.3L265.4,133.7z"/>
				<polygon class="st6" points="294,121.8 294,120.5 293.6,120.5 293.4,121.4 				"/>
				<polygon class="st6" points="268.2,136.6 268.2,135.3 267.8,135.9 				"/>
				<g>
					<path class="st1" d="M263.2,136.5L191.3,95c-4.2-2.4-4.2-6.4,0-8.9l14.6-8.4c4.2-2.4,11.1-2.4,15.3,0l71.9,41.5
						c1.2,0.7,1.2,1.8,0,2.4c-1.2,0.7-3,0.7-4.2,0L217,80.2c-1.9-1.1-5-1.1-6.9,0l-14.6,8.4c-1.9,1.1-1.9,2.9,0,4l71.9,41.5
						c1.2,0.7,1.2,1.8,0,2.4C266.2,137.2,264.3,137.2,263.2,136.5z"/>
				</g>
				<polygon class="st6" points="244.4,184.4 207.1,162.8 207.1,125.4 244.4,146.9 				"/>
				<g>
					<path class="st6" d="M293.1,121.7c-1.2,0.7-3,0.7-4.2,0L217,80.2c-1.9-1.1-5-1.1-6.9,0l-14.6,8.4c-1.2,0.7-1.7,1.7-1.3,2.7
						c0.2-0.5,0.6-1,1.3-1.3l14.6-8.4c1.9-1.1,5-1.1,6.9,0l71.9,41.5c1.2,0.7,3,0.7,4.2,0c0.9-0.5,1.1-1.3,0.6-1.9
						C293.6,121.3,293.4,121.5,293.1,121.7z"/>
					<path class="st6" d="M267.4,136.5c-1.2,0.7-3,0.7-4.2,0L191.3,95c-1.8-1.1-2.9-2.4-3.1-3.8c-0.3,1.8,0.7,3.7,3.1,5.1l71.9,41.5
						c1.2,0.7,3,0.7,4.2,0c0.9-0.5,1.1-1.3,0.6-1.9C267.9,136.2,267.6,136.4,267.4,136.5z"/>
				</g>
			</g>
			<g>
				<g>
					<path class="st8" d="M158.2,228.5c-4.2,2.4-4.2,6.4,0,8.9l71.9,41.5c1.2,0.7,3,0.7,4.2,0c1.2-0.7,1.2-1.8,0-2.4l-71.9-41.5
						c-1.9-1.1-1.9-2.9,0-4l7-4c-0.8-1.2-1.5-2.4-2.2-3.6L158.2,228.5z"/>
					<path class="st9" d="M260,261.5L188.1,220c-4.2-2.4-11.1-2.4-15.3,0l-5.6,3.2c0.7,1.2,1.4,2.4,2.2,3.6l7.6-4.4
						c1.9-1.1,5-1.1,6.9,0l71.9,41.5c1.2,0.7,3,0.7,4.2,0C261.2,263.3,261.2,262.2,260,261.5z"/>
				</g>
				<polygon class="st9" points="260.9,262.9 260.9,161.8 185.6,119.8 175,119.1 164.8,125.7 158.6,131.1 232,247.5 256,261.6 				
					"/>
				<polygon class="st15" points="233,275.6 255.6,262.6 255.6,164.9 232.3,175.7 				"/>
				<polygon class="st8" points="155,131.9 155,232.8 234.1,278.1 235.2,277.6 235.2,176.6 				"/>
				<g>
					<path class="st6" d="M199.5,132.7l-15.7-9c-1.9-0.9-4.7-0.8-6.5,0.2l-14.6,8.4c-1.1,0.7-1.6,1.5-1.4,2.4l39.7,23.7L233,178
						l22.6-13.1L199.5,132.7z"/>
				</g>
				<path class="st9" d="M232.3,175v100.3v2.1v1.9c0.7,0,1.4-0.2,2-0.5c0.6-0.3,0.9-0.8,0.9-1.2l0,0v0v0V176.6L232.3,175z"/>
				<polygon class="st6" points="260.9,163 260.9,161.8 260.5,161.8 260.4,162.6 				"/>
				<polygon class="st6" points="235.2,177.9 235.2,176.6 234.8,177.1 				"/>
				<g>
					<path class="st8" d="M230.1,177.7l-71.9-41.5c-4.2-2.4-4.2-6.4,0-8.9l14.6-8.4c4.2-2.4,11.1-2.4,15.3,0l71.9,41.5
						c1.2,0.7,1.2,1.8,0,2.4c-1.2,0.7-3,0.7-4.2,0l-71.9-41.5c-1.9-1.1-5-1.1-6.9,0l-14.6,8.4c-1.9,1.1-1.9,2.9,0,4l71.9,41.5
						c1.2,0.7,1.2,1.8,0,2.4C233.1,178.4,231.3,178.4,230.1,177.7z"/>
				</g>
				<polygon class="st6" points="211.4,225.6 174,204 174,166.6 211.4,188.1 				"/>
				<g>
					<path class="st6" d="M260,162.9c-1.2,0.7-3,0.7-4.2,0l-71.9-41.5c-1.9-1.1-5-1.1-6.9,0l-14.6,8.4c-1.2,0.7-1.7,1.7-1.3,2.7
						c0.2-0.5,0.6-1,1.3-1.3l14.6-8.4c1.9-1.1,5-1.1,6.9,0l71.9,41.5c1.2,0.7,3,0.7,4.2,0c0.9-0.5,1.1-1.3,0.6-1.9
						C260.5,162.6,260.3,162.7,260,162.9z"/>
					<path class="st6" d="M234.3,177.7c-1.2,0.7-3,0.7-4.2,0l-71.9-41.5c-1.8-1.1-2.9-2.4-3.1-3.8c-0.3,1.8,0.7,3.7,3.1,5.1
						l71.9,41.5c1.2,0.7,3,0.7,4.2,0c0.9-0.5,1.1-1.3,0.6-1.9C234.8,177.4,234.6,177.6,234.3,177.7z"/>
				</g>
			</g>
			<g>
				<g>
					<path class="st1" d="M124.2,259.6c-4.2,2.4-4.2,6.4,0,8.9l71.9,41.5c1.2,0.7,3,0.7,4.2,0s1.2-1.8,0-2.4L128.5,266
						c-1.9-1.1-1.9-2.9,0-4l7-4c-0.8-1.2-1.5-2.4-2.2-3.6L124.2,259.6z"/>
					<path class="st2" d="M226.1,292.7l-71.9-41.5c-4.2-2.4-11.1-2.4-15.3,0l-5.6,3.2c0.7,1.2,1.4,2.4,2.2,3.6l7.6-4.4
						c1.9-1.1,5-1.1,6.9,0l71.9,41.5c1.2,0.7,3,0.7,4.2,0C227.2,294.4,227.2,293.3,226.1,292.7z"/>
				</g>
				<polygon class="st2" points="226.9,294 226.9,192.9 151.6,150.9 141.1,150.2 130.9,156.8 124.6,162.2 198,278.6 222,292.8 				
					"/>
				<polygon class="st14" points="199.1,306.7 221.6,293.7 221.6,196 198.4,206.8 				"/>
				<polygon class="st1" points="121.1,163 121.1,263.9 200.2,309.2 201.2,308.8 201.2,207.7 				"/>
				<g>
					<path class="st6" d="M165.6,163.8l-15.7-9c-1.9-0.9-4.7-0.8-6.5,0.2l-14.6,8.4c-1.1,0.7-1.6,1.5-1.4,2.4l39.7,23.7l31.9,19.6
						l22.6-13.1L165.6,163.8z"/>
				</g>
				<path class="st2" d="M198.4,206.1v37.8v62.5v2.1v1.9c0.7,0,1.4-0.2,2-0.5c0.6-0.3,0.9-0.8,0.9-1.2l0,0v0v0V207.7L198.4,206.1z"
					/>
				<polygon class="st6" points="226.9,194.1 226.9,192.9 226.5,192.9 226.4,193.7 				"/>
				<polygon class="st6" points="201.2,209 201.2,207.7 200.8,208.2 				"/>
				<g>
					<path class="st1" d="M196.1,208.9l-71.9-41.5c-4.2-2.4-4.2-6.4,0-8.9l14.6-8.4c4.2-2.4,11.1-2.4,15.3,0l71.9,41.5
						c1.2,0.7,1.2,1.8,0,2.4c-1.2,0.7-3,0.7-4.2,0L150,152.5c-1.9-1.1-5-1.1-6.9,0l-14.6,8.4c-1.9,1.1-1.9,2.9,0,4l71.9,41.5
						c1.2,0.7,1.2,1.8,0,2.4C199.2,209.5,197.3,209.5,196.1,208.9z"/>
				</g>
				<polygon class="st6" points="177.4,256.7 140,235.2 140,197.7 177.4,219.3 				"/>
				<g>
					<path class="st6" d="M226.1,194c-1.2,0.7-3,0.7-4.2,0L150,152.5c-1.9-1.1-5-1.1-6.9,0l-14.6,8.4c-1.2,0.7-1.7,1.7-1.3,2.7
						c0.2-0.5,0.6-1,1.3-1.3l14.6-8.4c1.9-1.1,5-1.1,6.9,0l71.9,41.5c1.2,0.7,3,0.7,4.2,0c0.9-0.5,1.1-1.3,0.6-1.9
						C226.6,193.7,226.3,193.9,226.1,194z"/>
					<path class="st6" d="M200.3,208.9c-1.2,0.7-3,0.7-4.2,0l-71.9-41.5c-1.8-1.1-2.9-2.4-3.1-3.8c-0.3,1.8,0.7,3.7,3.1,5.1
						l71.9,41.5c1.2,0.7,3,0.7,4.2,0c0.9-0.5,1.1-1.3,0.6-1.9C200.8,208.5,200.6,208.7,200.3,208.9z"/>
				</g>
			</g>
		</g>
	</g>
	<g>
		<g>
			<polygon class="st5" points="367.1,112.6 349.9,102.6 367.1,92.7 384.3,102.6 			"/>
			<polygon class="st9" points="384.3,90 367.1,100 367.1,80.1 384.3,70.1 			"/>
			<polygon class="st8" points="367.1,80.1 349.9,70.1 367.1,60.2 384.3,70.1 			"/>
			<polygon class="st8" points="367.1,100 349.9,90 349.9,70.1 367.1,80.1 			"/>
		</g>
		<polygon class="st6" points="360.9,89.2 356.1,86.4 356.1,80.9 360.9,83.6 		"/>
	</g>
	<g>
		<g>
			<polygon class="st5" points="17.9,344.5 0,334.1 17.9,323.8 35.9,334.1 			"/>
			<polygon class="st1" points="35.9,321 17.9,331.4 17.9,310.6 35.9,300.3 			"/>
			<polygon class="st1" points="17.9,310.6 0,300.3 17.9,289.9 35.9,300.3 			"/>
			<polygon class="st2" points="17.9,331.4 0,321 0,300.3 17.9,310.6 			"/>
		</g>
		<polygon class="st6" points="11.5,320.2 6.5,317.3 6.5,311.5 11.5,314.4 		"/>
	</g>
	<g>
		<g>
			<path class="st14" d="M184.7,26.3L139.9,0.4c-0.9-0.5-1.7-0.5-2.3-0.2c0,0,0,0,0,0l-4.3,2.5c0,0,1.9,0.7,3.1,1.1v32.6
				c0,2.7,1.6,5.7,3.6,6.9l42.8,24.7v3.8l4.4-2.5l0,0c0.7-0.5,1.2-1.4,1.2-2.9V33.2C188.3,30.5,186.7,27.4,184.7,26.3z"/>
			<path class="st7" d="M180.3,71.8l-44.8-25.9c-2-1.1-3.6-4.2-3.6-6.9V5.7c0-2.7,1.6-3.9,3.6-2.7l44.8,25.9c2,1.1,3.6,4.2,3.6,6.9
				v33.3C183.9,71.7,182.3,72.9,180.3,71.8z"/>
			<path class="st6" d="M181.4,28.1L136.5,2.2c-1.3-0.7-2.4-0.5-3,0.4c0.6-0.1,1.2,0,1.9,0.4l44.8,25.9c2,1.1,3.6,4.2,3.6,6.9v33.3
				c0,1-0.2,1.8-0.6,2.3c1-0.3,1.7-1.4,1.7-3.1V34.9C185,32.3,183.4,29.2,181.4,28.1z"/>
		</g>
		<g>
			<path class="st6" d="M150.5,34.4c0,1.9-1.4,2.7-3,1.7c-1.7-1-3-3.3-3-5.2c0-1.9,1.4-2.7,3-1.7S150.5,32.5,150.5,34.4z"/>
			<path class="st6" d="M159.7,39.7c0,1.9-1.4,2.7-3,1.7c-1.7-1-3-3.3-3-5.2c0-1.9,1.4-2.7,3-1.7C158.3,35.4,159.7,37.8,159.7,39.7z
				"/>
			<path class="st6" d="M168.8,45c0,1.9-1.4,2.7-3,1.7c-1.7-1-3-3.3-3-5.2c0-1.9,1.4-2.7,3-1.7C167.5,40.7,168.8,43.1,168.8,45z"/>
		</g>
	</g>
	<g>
		<g>
			<g>
				<g>
					<g>
						<g>
							<g>
								<g>
									<g>
										<g>
											<g>
												<g>
													<g>
														<g>
															<g>
																<g>
																	<path class="st18" d="M103.2,293.3c-0.4,0-0.9,0-1.2-0.1c-3.2-0.5-5-3-6-4.3L83.3,272c-1.4-1.8-1-4.4,0.8-5.8
																		c1.8-1.4,4.4-1,5.8,0.8l12.7,16.9c0.1,0.1,0.4,0.5,0.6,0.8c0.3-0.3,0.7-0.8,1.1-1.6l8-13.7c1.1-2,3.7-2.7,5.7-1.5
																		c2,1.1,2.7,3.7,1.5,5.7l-8,13.7C108.7,292,105.6,293.3,103.2,293.3z"/>
																</g>
															</g>
														</g>
													</g>
												</g>
											</g>
										</g>
									</g>
								</g>
							</g>
						</g>
					</g>
				</g>
			</g>
		</g>
		<g>
			<g>
				<g>
					<g>
						<g>
							<g>
								<g>
									<g>
										<g>
											<g>
												<g>
													<g>
														<g>
															<g>
																<path class="st19" d="M106.4,391.8c1.3,1.3,2.9,2.1,4.6,2.8c0.9,0.4,0.7,0.3,2.7,0.9c2,0.6,5.2,0.7,5.9,0.3
																	c1.3-0.6,1.7-1.6,1.5-3c-0.2-1-0.4-2.2-1.3-2.7c0,0-0.1-0.1-0.1-0.1c-0.4-0.2-0.9-0.3-1.4-0.4
																	c-2.7-0.4-5.5-0.8-8.2-0.7c-0.7,0-1.5,0.1-2.2,0.2c-0.5,0.1-0.9,0.2-1.2,0.3C105.6,389.8,105.2,390.6,106.4,391.8z"
																	/>
															</g>
														</g>
													</g>
												</g>
											</g>
										</g>
									</g>
								</g>
							</g>
						</g>
					</g>
				</g>
			</g>
		</g>
		<g>
			<g>
				<g>
					<g>
						<g>
							<g>
								<g>
									<g>
										<g>
											<g>
												<g>
													<g>
														<g>
															<g>
																<path class="st20" d="M110.3,390.3c0.5,0.9,1.5,1.5,2.5,1.8c1.3,0.4,2.6,0.7,4,0.8c1,0,2.1-0.1,2.8-0.8
																	c0.7-0.8,0.6-1.5,0.1-2.1c-0.4-0.2-0.9-0.3-1.4-0.4c-2.7-0.4-5.5-0.8-8.2-0.7C110,389.2,110,389.6,110.3,390.3z"/>
															</g>
														</g>
													</g>
												</g>
											</g>
										</g>
									</g>
								</g>
							</g>
						</g>
					</g>
				</g>
			</g>
		</g>
		<g>
			<g>
				<g>
					<g>
						<g>
							<g>
								<g>
									<g>
										<g>
											<g>
												<g>
													<g>
														<g>
															<g>
																<path class="st20" d="M114.9,347c2.4-0.1,4.4-0.2,6.7,0.1l-0.2,9.6c0,0,0,0.3,0,1c-0.2,6.1-1.2,27.8-1.4,33.6
																	c0,0-0.2-0.2-0.5-0.4c-0.4,0.4-1,0.6-1.6,0.6l-0.9,0h-0.3c-0.8,0-1.5-0.4-1.9-0.9c-0.3-0.4-0.5-0.8-0.5-1.3l-0.4-2
																	l-0.1-0.6l-2.8-25.1l-0.6-5l-0.5-4.1C109.8,349.6,112,347.1,114.9,347C114.9,347,114.9,347,114.9,347z"/>
															</g>
														</g>
													</g>
												</g>
											</g>
										</g>
									</g>
								</g>
							</g>
						</g>
					</g>
				</g>
			</g>
		</g>
		<g>
			<g>
				<g>
					<g>
						<g>
							<g>
								<g>
									<g>
										<g>
											<g>
												<g>
													<g>
														<g>
															<g>
																<path class="st20" d="M91.5,359.1c3.5,0.6,7,1.1,10.5,1.4l0,0.6l1.9,29c0,0.1,0.1,0.8,0.1,1c0,0.2,0.2,0.3,0.4,0.6
																	c-2,1.4-4.5,1.1-7.1,0.9c0-0.2,0-0.4,0-0.6c0-0.5-0.1-1-0.1-1.4c-0.1-0.7-0.3-1.1-0.3-1.2c0-0.3-4.2-21.8-5.8-30.3
																	C91.3,359.1,91.4,359.1,91.5,359.1z"/>
															</g>
														</g>
													</g>
												</g>
											</g>
										</g>
									</g>
								</g>
							</g>
						</g>
					</g>
				</g>
			</g>
		</g>
		<g>
			<g>
				<g>
					<g>
						<g>
							<g>
								<g>
									<g>
										<g>
											<g>
												<g>
													<g>
														<g>
															<g>
																<g>
																	<path class="st19" d="M89.5,395c0.3-0.1,0.5-0.2,0.8-0.3c0.1,0,0.2-0.1,0.3-0.1c0.6,0.2,1.4,0.3,2.1,0.2
																		c2.6-0.1,13.8,1.2,12.1-2.6c0,0.1,0.1,0.1,0.1,0.2c0.3,0.6,0.5,1.6,0.6,2.5c0,1.2-0.2,2.4-1.2,3
																		c-0.4,0.2-0.9,0.3-1.4,0.4c-4.7,0.7-9.4,0.7-14.1,0C85.6,397.8,87.8,395.7,89.5,395z"/>
																</g>
															</g>
														</g>
													</g>
												</g>
											</g>
										</g>
									</g>
								</g>
							</g>
						</g>
					</g>
				</g>
			</g>
			<g>
				<g>
					<g>
						<g>
							<g>
								<g>
									<g>
										<g>
											<g>
												<g>
													<g>
														<g>
															<g>
																<g>
																	<path class="st20" d="M92.7,394.8c-0.7,0-1.5,0-2.1-0.2c1.7-0.7,3.4-1.4,5.1-2.1c2-0.9,4.2-1.7,6.4-1.8
																		c0.2,0,0.5,0,0.8,0.1c0.2,0.1,0.4,0.1,0.5,0.3c0.6,0.2,1,0.6,1.3,1.1l0,0C106.4,396,95.3,394.6,92.7,394.8z"/>
																</g>
															</g>
														</g>
													</g>
												</g>
											</g>
										</g>
									</g>
								</g>
							</g>
						</g>
					</g>
				</g>
			</g>
		</g>
		<g>
			<g>
				<g>
					<g>
						<g>
							<g>
								<g>
									<g>
										<g>
											<g>
												<g>
													<g>
														<g>
															<g>
																<g>
																	<path class="st9" d="M121.5,358.2l1.1,19.3c0.1,1.5-0.7,3-2,3.7c-1.9,1.1-3.8,0.5-6,1.1c-1.3,0.4-2.6-0.6-2.8-1.9
																		l0,0l-0.7-18.8l-0.6-5c0,0-0.5-3.5-0.6-5.9c-0.1-2.3,0.1-3,0.1-4.8c0-1.9-0.5-18.8-0.5-18.8l-3.2,0.7l-4.3,23.8
																		l-0.2,6.8l0.2,2.7c0.5,7.1,2.7,14.3,3.1,21.5c0.1,1.3-0.8,2.4-2,2.8c-0.5,0.1-1,0.3-1.6,0.4
																		c-2.2,0.5-4.6,0.7-6.2-0.4c-0.5-0.4-0.8-0.9-0.9-1.6c-2-17-6-30-3.1-55.5c0.1-1,1.1-8.9,2.3-16
																		c1.1-6.5,2.5-12.6,3.6-12.5c0.1,0,21.6,1,21.6,1c4.1,4.4,5.7,8.6,6.1,12.3c0.7,6.9-3.1,11.8-3.1,11.8
																		s-0.1,27.8-0.4,32.7C121.5,357.8,121.5,358,121.5,358.2C121.5,358.2,121.5,358.2,121.5,358.2L121.5,358.2z"/>
																</g>
															</g>
														</g>
													</g>
												</g>
											</g>
										</g>
									</g>
								</g>
							</g>
						</g>
					</g>
				</g>
			</g>
		</g>
		<g>
			<g>
				<g>
					<g>
						<g>
							<g>
								<g>
									<g>
										<g>
											<g>
												<g>
													<g>
														<g>
															<g>
																<g>
																	<path class="st21" d="M97.1,288c-0.2,0-0.5,8.5-0.6,12.4c0,0.1,0,0.2,0,0.3c0.4,2.6,4.9,3.9,7,4.3
																		c3.9,0.8,7.8,0.2,11.3-1.3c1.2-0.5,2.3-1.1,3.4-1.8c0.5-0.3,0.9-1,0.8-1.6c-0.5-5.7,0.8-11.3,2.1-16.8
																		c1-4.4,2.4-10-0.3-14c-0.1-0.2-0.3-0.4-0.5-0.6c-1.4-1.5-3.5-2.3-5.8-2.6c-2.3-0.3-4.7-0.1-6.4,0.2
																		c-1,0.2-2.1,0.5-3.2,0.8c-2,0.6-4.7,2-6.2,3c-2.2,1.5-2.4,3.2-3.5,5.3c-0.8,1.7-1.6,2.3-2.3,4.2
																		c-0.2,0.6-0.4,1.2-0.5,1.9C92.2,284.6,94.6,287,97.1,288z"/>
																</g>
															</g>
														</g>
													</g>
												</g>
											</g>
										</g>
									</g>
								</g>
							</g>
						</g>
					</g>
				</g>
			</g>
		</g>
		<g>
			<g>
				<g>
					<g>
						<g>
							<g>
								<g>
									<g>
										<g>
											<g>
												<g>
													<g>
														<g>
															<g>
																<path class="st20" d="M89.9,267.7c0,2.7-1.8,4.9-4,4.9c-2.2,0-4-2.2-4-4.9c0-2.7,1.8-4.9,4-4.9
																	C88.1,262.8,89.9,265,89.9,267.7z"/>
															</g>
														</g>
													</g>
												</g>
											</g>
										</g>
									</g>
								</g>
							</g>
						</g>
					</g>
				</g>
			</g>
		</g>
		<g>
			<g>
				<g>
					<g>
						<g>
							<g>
								<g>
									<g>
										<g>
											<g>
												<g>
													<g>
														<g>
															<g>
																<g>
																	<path class="st0" d="M79.6,270.7l4.8-2c0.2-0.1,0.4-0.3,0.4-0.6l0-13.2c-0.3-1.3-1.8-1.7-2.3-1.5l-5.8,1.7
																		c-0.2,0.1-0.4,0.3-0.4,0.6l1,13.5C77.5,270.3,79.1,270.8,79.6,270.7z"/>
																</g>
															</g>
														</g>
													</g>
												</g>
											</g>
										</g>
									</g>
								</g>
							</g>
						</g>
					</g>
				</g>
			</g>
			<g>
				<g>
					<g>
						<g>
							<g>
								<g>
									<g>
										<g>
											<g>
												<g>
													<g>
														<g>
															<g>
																<g>
																	<path class="st2" d="M79.6,270.7l5.8-1.7c0.2-0.1,0.4-0.3,0.4-0.6l-1-13.5c0-0.7-0.8-1.4-1.3-1.2l-5.8,1.7
																		c-0.2,0.1-0.4,0.3-0.4,0.6l1,13.5C78.3,270.2,79.1,270.8,79.6,270.7z"/>
																</g>
															</g>
														</g>
													</g>
												</g>
											</g>
										</g>
									</g>
								</g>
							</g>
						</g>
					</g>
				</g>
			</g>
			<g>
				<g>
					<g>
						<g>
							<g>
								<g>
									<g>
										<g>
											<g>
												<g>
													<g>
														<g>
															<g>
																<g>
																	<path class="st4" d="M84.5,265.5l-0.7-9.8c0-0.2-0.1-0.4-0.3-0.5c-0.2-0.1-0.4-0.2-0.6-0.1l-3.9,1.1
																		c-0.3,0.1-0.6,0.4-0.5,0.8l0.7,9.8c0,0.2,0.1,0.4,0.3,0.5c0.1,0,0.1,0.1,0.2,0.1c0.1,0,0.3,0.1,0.4,0l3.9-1
																		C84.3,266.2,84.5,265.9,84.5,265.5z"/>
																</g>
															</g>
														</g>
													</g>
												</g>
											</g>
										</g>
									</g>
								</g>
							</g>
						</g>
					</g>
				</g>
			</g>
			<g>
				<g>
					<g>
						<g>
							<g>
								<g>
									<g>
										<g>
											<g>
												<g>
													<g>
														<g>
															<g>
																<g>
																	<path class="st4" d="M83,268.2c-0.1,0.3-0.5,0.6-0.8,0.5c-0.3,0-0.5-0.3-0.4-0.7c0.1-0.3,0.5-0.6,0.8-0.5
																		C83,267.6,83.2,267.9,83,268.2z"/>
																</g>
															</g>
														</g>
													</g>
												</g>
											</g>
										</g>
									</g>
								</g>
							</g>
						</g>
					</g>
				</g>
			</g>
		</g>
		<g>
			<g>
				<g>
					<g>
						<g>
							<g>
								<g>
									<g>
										<g>
											<g>
												<g>
													<g>
														<g>
															<g>
																<g>
																	<path class="st20" d="M69.9,274.2c-0.2,3,1.7,5.6,4.1,5.8s4.5-2.2,4.7-5.3c0.2-3-1.7-5.6-4.1-5.8
																		C72.2,268.8,70.1,271.2,69.9,274.2z"/>
																</g>
															</g>
														</g>
													</g>
												</g>
											</g>
										</g>
									</g>
								</g>
							</g>
						</g>
					</g>
				</g>
			</g>
			<g>
				<g>
					<g>
						<g>
							<g>
								<g>
									<g>
										<g>
											<g>
												<g>
													<g>
														<g>
															<g>
																<g>
																	<path class="st20" d="M77.2,274.8L77.2,274.8c0.8,0,1.5-0.6,1.5-1.4l0.5-8.8c0-0.8-0.6-1.5-1.4-1.5l0,0
																		c-0.8,0-1.5,0.6-1.5,1.4l-0.5,8.8C75.7,274,76.4,274.7,77.2,274.8z"/>
																</g>
															</g>
														</g>
													</g>
												</g>
											</g>
										</g>
									</g>
								</g>
							</g>
						</g>
					</g>
				</g>
			</g>
		</g>
		<g>
			<g>
				<g>
					<g>
						<g>
							<g>
								<g>
									<g>
										<g>
											<g>
												<g>
													<g>
														<g>
															<g>
																<path class="st20" d="M98.5,254.8c0.1,2.4,0.5,4.7,1.9,6.5c1.5,2,4,2.7,6.4,2.8c1.3,0,2.6-0.2,3.8-0.8
																	c2.2-1.3,3.2-4.1,3.7-6.7c0.2-1,0.4-2,0.4-3c0-1.2,0-2.3-0.3-3.5c-0.7-2.4-2.3-4.4-4.3-5.7c-2-1.3-4.3-1.8-6.6-2.1
																	c-1.1-0.1-2.3-0.2-3.3,0.4c-0.7,0.4-1.2,1.1-1.3,1.9c-0.1,0.3-0.1,0.6,0,0.9c-0.1,2.2-0.1,4.3-0.2,6.5
																	C98.5,252.8,98.5,253.8,98.5,254.8z"/>
															</g>
														</g>
													</g>
												</g>
											</g>
										</g>
									</g>
								</g>
							</g>
						</g>
					</g>
				</g>
			</g>
		</g>
		<g>
			<g>
				<g>
					<g>
						<g>
							<g>
								<g>
									<g>
										<g>
											<g>
												<g>
													<g>
														<g>
															<g>
																<path class="st20" d="M114.4,268.9c-1.3,1.9-5.5,1.2-9.5-1.5c1.1-0.3,2.2-0.6,3.2-0.8c1.8-0.4,4.2-0.5,6.4-0.2
																	C114.9,267.4,114.9,268.2,114.4,268.9z"/>
															</g>
														</g>
													</g>
												</g>
											</g>
										</g>
									</g>
								</g>
							</g>
						</g>
					</g>
				</g>
			</g>
		</g>
		<g>
			<g>
				<g>
					<g>
						<path class="st22" d="M122.1,247c-3.6-6.8-11.8-9.8-19.2-6.9c-2.2,0.9-4,2.6-5.2,4.7c-1.1,2.1,0.1,4.4,2.1,5
							c0.2,0.5,0.5,1,0.8,1.4c0.2,0.2,0.3,0.4,0.5,0.6c0,0.7,0,1.4,0,2c0,1.9,0,3.8,0,5.8c0,5.7,2.4,8.1,8.1,7.7
							c5.5-0.4,15.2-2,15.3-8.4c0.1-3.8-0.5-7.7-2.2-11.2C122.4,247.4,122.3,247.2,122.1,247z M114.1,241
							C114.1,240.9,114.1,240.9,114.1,241l0.9,0.4C114.8,241.2,114.4,241.1,114.1,241z"/>
					</g>
				</g>
			</g>
		</g>
		<g>
			<g>
				<g>
					<g>
						<g>
							<g>
								<g>
									<g>
										<g>
											<g>
												<g>
													<g>
														<g>
															<g>
																<path class="st21" d="M124.5,310.2C124.5,310.1,124.5,310.1,124.5,310.2c-0.8-2.9-2.4-6.1-5.5-9.4
																	c0,0-21.5-1-21.6-1c-1.1-0.1-2.5,6-3.6,12.5c2.8,1.6,5.2,3.3,8.3,3.5C109.9,315.7,117.4,313.5,124.5,310.2z"/>
															</g>
														</g>
													</g>
												</g>
											</g>
										</g>
									</g>
								</g>
							</g>
						</g>
					</g>
				</g>
			</g>
		</g>
		<g>
			<g>
				<g>
					<g>
						<g>
							<g>
								<g>
									<g>
										<g>
											<g>
												<g>
													<g>
														<g>
															<g>
																<path class="st21" d="M89.2,302.1c-1.6,0-3.4-0.7-5.1-2.8c-0.8-1.1-1.7-2.1-2.5-3c-3.6-4.4-7-8.5-9.8-14.3
																	c-1-2.1-0.1-4.5,1.9-5.5c2.1-1,4.5-0.1,5.5,1.9c2.4,5,5.3,8.5,8.8,12.7c0.2,0.2,0.4,0.5,0.6,0.7l6.6-17.7
																	c0.8-2.1,3.2-3.2,5.3-2.4c2.1,0.8,3.2,3.2,2.4,5.3l-7.7,20.8c-0.7,1.9-2.1,3.3-3.9,4
																	C90.8,301.9,90,302.1,89.2,302.1z"/>
															</g>
														</g>
													</g>
												</g>
											</g>
										</g>
									</g>
								</g>
							</g>
						</g>
					</g>
				</g>
			</g>
		</g>
	</g>
	<g>
		<g>
			<path class="st19" d="M432.7,202c-0.3-0.2-2.5-1.8-5.6-1.8c-1.5,0-12.6,6.8-13.2,7.7c-1.4,2.1,0.7,4.4,0.7,4.4l0,0
				c0.5,0.9,1.6,1.7,4.1,1.5l14.1-4.7C432.8,209.2,433.1,202.2,432.7,202z"/>
			<path class="st23" d="M431.4,201.8l3.1-0.3l0.7,7.5l-3.1,0.3c-2.2,0.2-4.2-1.6-4.1-3.9l0,0C428.1,203.5,429.5,201.9,431.4,201.8z
				"/>
			<path class="st19" d="M441.4,201.2c0.4,0,5.2,0.5,7.9,1.9c1.3,0.7,7.8,12,7.9,13.1c0.2,2.5-2.7,3.6-2.7,3.6l0,0
				c-0.9,0.6-2.3,0.7-4.3-0.7L436.3,206l3-5.4C439.3,200.6,441,201.2,441.4,201.2z"/>
			<path class="st9" d="M446.2,172.5c0,0-18.7-10.8-25.3-10c-6.6,0.7-8.1,3.6-8.7,5.4c-0.6,1.8,27.3,25.7,41.7,25.5l5.4,1.6
				c0,0,23.8,7.2,23.6,1.7c-0.2-5.9-8.9-14.7-13.5-17.2C464.8,177.1,446.2,172.5,446.2,172.5z"/>
			<path class="st9" d="M413,167c0,0,7.6-5.8,20.9,15.3c13.2,21.1,14.6,23.6,14.6,23.6l-13.6-2.7C434.8,203.2,406.3,172,413,167z"/>
			<path class="st9" d="M482.9,196.8c-0.2-2.5-3.1-7.2-14.3-3.9c-12.9,3.7-35,7.2-35,7.2s-1.1,7.8,0.8,9.5c6.8,1,43.1,0.7,48-7.4
				C483,201,483.2,199.2,482.9,196.8z"/>
			<path class="st23" d="M434.7,139.4l-5,13.6c-0.8,3-4.3,4.2-6.8,2.5l-5.5-3.7l-0.5,7.3l8,5.5c3,2,7.1,1.1,8.8-2.1
				c3-5.6,7.1-13.1,7.1-13.3C440.7,148.8,434.7,139.4,434.7,139.4z"/>
			<path class="st24" d="M437.6,131.4l-8.9,16.6c1.4,5.8,4.6,8.7,8.6,10.3l3.4-22.5L437.6,131.4z"/>
			<path class="st25" d="M442.4,154.1"/>
			<path class="st25" d="M431.6,144.9"/>
			<path class="st22" d="M437,171.2c2.1-13.5-1-13.7-2.3-24.5c0-17.1,6.5-23.5,17.3-19.5l4.5,1.2c13,7,19.6,6.7,17.3,20.5l-2,26.6
				C471.8,191,436.2,189.5,437,171.2z"/>
			<polygon class="st26" points="465.2,154 470.8,177.3 471.5,179.6 472.3,168.4 			"/>
			<path class="st23" d="M472.1,137.5c0,0,7.8,11.4,12.9,35.6c1.8,8.6-1.1,9-12.7,9.3c-8,0.2-17.6-2.7-17.6-2.7l0-4.3
				c0,0,19.9,1.4,20.4-0.7S458.5,144.1,472.1,137.5z"/>
			<path class="st1" d="M426.7,163.9l-7.7-2.5c-0.5-0.1-0.9-0.7-1-1.2l-2.6-14.8c-0.1-0.6,0.2-0.9,0.7-0.8l8,1.9
				c0.5,0.1,0.9,0.7,1,1.2l2.6,14.8c0.1,0.4-0.1,0.6-0.3,0.8L426.7,163.9z"/>
			<path class="st2" d="M419.9,150.6c0,0-1.9,10.1-2,9.5l-3.2-14.7l0.9-0.9c0.1-0.1,0.3-0.1,0.5-0.1l8,1.9c0.2,0.1,0.5,0.2,0.7,0.4
				L419.9,150.6z"/>
			<g>
				<g>
					<path class="st4" d="M426.1,164.1l-8-1.9c-0.5-0.1-0.9-0.7-1-1.2l-2.6-14.8c-0.1-0.6,0.2-0.9,0.7-0.8l8,1.9
						c0.5,0.1,0.9,0.7,1,1.2l2.6,14.8C426.9,163.8,426.6,164.2,426.1,164.1z"/>
				</g>
			</g>
			<path class="st0" d="M425.7,164l-7.7-1.8c-0.5-0.1-0.9-0.6-1-1.2l-2.5-14.4c-0.1-0.5,0.2-0.9,0.7-0.8l7.7,1.8
				c0.5,0.1,0.9,0.6,1,1.2l2.5,14.4C426.4,163.7,426.2,164.1,425.7,164z"/>
			<path class="st23" d="M417.5,158.8L417.5,158.8c-1.2,0.2-2.4-0.6-2.6-1.8l-0.6-3.6c-0.2-1.2,0.6-2.4,1.8-2.6l0,0
				c1.2-0.2,2.4,0.6,2.6,1.8l0.6,3.6C419.6,157.4,418.8,158.6,417.5,158.8z"/>
			<path class="st24" d="M464.2,150.2l6.5,18.5c0.9,1.4,14.2-5.3,13.1-7.5c-0.2-0.4-7.3-22.7-14.9-26.3
				C462.7,132,460.7,141.8,464.2,150.2z"/>
			<path class="st19" d="M425.2,150.8L425.2,150.8c-0.1,0-0.2-0.1-0.3-0.2l-0.2-1.1c0-0.1,0.1-0.2,0.2-0.3l0,0
				c0.1,0,0.2,0.1,0.3,0.2l0.2,1.1C425.4,150.7,425.3,150.8,425.2,150.8z"/>
			<path class="st19" d="M425.5,152.7L425.5,152.7c-0.1,0-0.2-0.1-0.3-0.2l-0.2-1.1c0-0.1,0.1-0.2,0.2-0.3l0,0
				c0.1,0,0.2,0.1,0.3,0.2l0.2,1.1C425.7,152.5,425.6,152.6,425.5,152.7z"/>
			<g>
				<g>
					<path class="st4" d="M422.7,150.9L422.7,150.9c-0.3-0.1-0.5-0.4-0.6-0.7l-0.3-1.6c-0.1-0.3,0.1-0.5,0.4-0.4l0,0
						c0.3,0.1,0.5,0.4,0.6,0.7l0.3,1.6C423.1,150.8,423,150.9,422.7,150.9z"/>
				</g>
			</g>
			<path class="st19" d="M422.6,148.9c0,0.2-0.1,0.3-0.3,0.2c-0.2-0.1-0.3-0.3-0.3-0.5c0-0.2,0.1-0.3,0.3-0.2
				C422.4,148.5,422.6,148.7,422.6,148.9z"/>
			<path class="st21" d="M450.6,129c0,0,1.5,1.8,2.4,2.1c0.8,0.3,11.2-6,9-15c-1.4-5.7-12.2-2.8-12.2-2.8L450.6,129z"/>
			<path class="st23" d="M456.5,136.7l-0.5,0.1c-1.7,0.5-3.6-0.5-4.1-2.3l-2.8-9.8c-0.5-1.7,0.5-3.6,2.3-4.1l0.5-0.1
				c1.7-0.5,3.6,0.5,4.1,2.3l4,9.1C460.6,133.6,458.2,136.2,456.5,136.7z"/>
			
				<ellipse transform="matrix(0.9976 -6.859805e-02 6.859805e-02 0.9976 -7.1688 30.976)" class="st23" cx="447.4" cy="119.9" rx="5.8" ry="10.3"/>
			<path class="st23" d="M457.5,124.6c-1.6,4.6-9.5,7.7-12.3,4.5c-2.8-3.3-1-11.3,0.6-16s5.2-5.8,8-2.5
				C456.7,113.8,459.2,119.9,457.5,124.6z"/>
			<path class="st21" d="M451.9,113.6c0,0-0.7,9.1,6.5,10.9c0,0,7.9-4.9,1.7-13.5c-5.5-7.5-13.7-1.4-13.7-1.4L451.9,113.6z"/>
			<path class="st21" d="M441.6,120.1c0,0,0.8-3.9,5.5-5.7l-3.8-2.1C443.3,112.3,439.6,113.3,441.6,120.1z"/>
			<path class="st21" d="M455.8,118.8c-1.6-2.1-5-1.9-9.7,0c-0.7,0.3-1.5,0.4-2.3,0.3c-3.6-0.6-4.3-5-4.3-5c-0.9-2.9,1-4.3,4-5.2
				l7.6-2.3c4.3-1.3,8.6,2.1,9.5,5l0.2,0.5C461.7,115.1,458.7,117.9,455.8,118.8z"/>
			<path class="st23" d="M459.2,124.2c-0.4,1.1-1.6,1.7-2.8,1.3c-1.1-0.4-1.7-1.6-1.3-2.8s1.6-1.7,2.8-1.3
				C459,121.8,459.6,123.1,459.2,124.2z"/>
			<path class="st27" d="M450.5,130.1c0,0,4.2-0.9,5.9-5.4c0,0-1.2,6.6-4.9,8L450.5,130.1z"/>
		</g>
		<path class="st23" d="M449.2,171.2l4,1.2c0.5,0.2,1,0.6,1.4,1l0.8,0.8c0.9,0.9,2,1.4,3.2,1.7l-3.1,4.1c-0.8-0.3-2.4,0-3.8,0.1
			c-1.8,0.1-3.5-0.3-5-1.3c-1.7-1.1-3.7-2.7-3.4-4.2c0.3-2,7-0.9,7-0.9s-1.6-0.6-2.1-0.9c-0.6-0.3-1-1.1-0.8-1.5
			C447.8,170.7,448.4,170.8,449.2,171.2z"/>
	</g>
</g>
</svg>
