<?xml version="1.0" encoding="UTF-8"?>
<svg width="90px" height="90px" viewBox="0 0 90 90" version="1.1" xmlns="http://www.w3.org/2000/svg" xmlns:xlink="http://www.w3.org/1999/xlink">
    <!-- Generator: Sketch 63.1 (92452) - https://sketch.com -->
    <title>eBooks</title>
    <desc>Created with Sketch.</desc>
    <defs>
        <path d="M28.760625,1.2975 L16.17,1.2975 L1.651875,1.2975 C0.90375,1.2975 0.29625,1.9875 0.29625,2.840625 L0.285,32.653125 C0.285,33.50625 0.890625,34.19625 1.640625,34.19625 L16.15875,34.19625 L28.749375,34.19625 L33.399375,34.19625 L33.40875,1.295625 L28.760625,1.295625 L28.760625,1.2975 Z" id="path-1"></path>
    </defs>
    <g id="Page-1" stroke="none" stroke-width="1" fill="none" fill-rule="evenodd">
        <g id="eBooks">
            <path d="M90,45 C90,69.853125 69.853125,90 45,90 C20.146875,90 0,69.853125 0,45 C0,20.146875 20.146875,0 45,0 C69.853125,0 90,20.146875 90,45" id="Path" fill="#FC404D" fill-rule="nonzero"></path>
            <path d="M72.72,9.56625 L56.5125,30.30375 L42.6675,48.015 L17.30625,80.458125 C24.946875,86.431875 34.55625,90 45,90 C69.853125,90 90,69.853125 90,45 C90,30.6075 83.236875,17.805 72.72,9.56625" id="Path" fill="#D11C36" fill-rule="nonzero"></path>
            <rect id="Rectangle" x="0" y="0" width="90" height="90"></rect>
            <g id="Group" transform="translate(24.375000, 22.500000)">
                <g fill-rule="nonzero">
                    <path d="M5.401875,46.595625 C4.01625,46.595625 2.889375,45.384375 2.889375,43.89375 L2.889375,4.7175 C2.889375,3.226875 4.018125,2.015625 5.401875,2.015625 L38.319375,2.015625 L38.319375,46.595625 L5.401875,46.595625 Z" id="Path" fill="#F0EBE3"></path>
                    <path d="M37.160625,3.1725 L37.160625,45.435 L32.510625,45.435 L19.92,45.435 L5.401875,45.435 C4.65375,45.435 4.04625,44.745 4.04625,43.891875 L4.04625,4.7175 C4.04625,3.864375 4.651875,3.174375 5.401875,3.174375 L19.92,3.174375 L32.510625,3.174375 L37.160625,3.174375 M39.478125,0.856875 L37.1625,0.856875 L32.5125,0.856875 L19.921875,0.856875 L5.40375,0.856875 C3.37875,0.856875 1.7325,2.5875 1.7325,4.7175 L1.7325,43.89375 C1.7325,46.02375 3.37875,47.754375 5.40375,47.754375 L19.921875,47.754375 L32.5125,47.754375 L37.1625,47.754375 L39.478125,47.754375 L39.478125,45.43875 L39.478125,3.17625 L39.478125,0.856875 L39.478125,0.856875 Z" id="Shape" fill="#FEB3B8"></path>
                </g>
                <g transform="translate(1.875000, 35.625000)" fill-rule="nonzero">
                    <path d="M36.365625,5.889375 C36.365625,8.5125 34.726875,10.636875 32.701875,10.636875 L4.711875,10.636875 C2.686875,10.636875 1.048125,8.5125 1.048125,5.889375 L1.048125,5.889375 C1.048125,3.26625 2.68875,1.13624876 4.711875,1.13624876 L32.7,1.13624876 C34.726875,1.134375 36.365625,3.264375 36.365625,5.889375 L36.365625,5.889375 Z" id="Path" fill="#F0EBE3"></path>
                    <path d="M32.7,11.409375 L4.711875,11.409375 C2.266875,11.409375 0.275625,8.934375 0.275625,5.889375 C0.275625,2.844375 2.266875,0.365625 4.711875,0.365625 L32.7,0.365625 C35.14875,0.365625 37.13625,2.844375 37.13625,5.889375 C37.13625,8.934375 35.14875,11.409375 32.7,11.409375 Z M4.711875,1.90875 C3.11625,1.90875 1.820625,3.69375 1.820625,5.889375 C1.820625,8.083125 3.118125,9.86625 4.711875,9.86625 L32.7,9.86625 C34.2975,9.86625 35.593125,8.083125 35.593125,5.889375 C35.593125,3.69375 34.2975,1.90875 32.7,1.90875 L4.711875,1.90875 Z" id="Shape" fill="#FEB3B8"></path>
                </g>
                <rect id="Rectangle" fill="#FEB3B8" fill-rule="nonzero" x="9.67875" y="3.105" width="1.545" height="33.83625"></rect>
                <path d="M37.160625,42.285 L8.13375,42.285 C7.708125,42.285 7.36125,41.94 7.36125,41.514375 C7.36125,41.08875 7.708125,40.741875 8.13375,40.741875 L37.160625,40.741875 C37.588125,40.741875 37.933125,41.08875 37.933125,41.514375 C37.933125,41.94 37.588125,42.285 37.160625,42.285 Z" id="Path" fill="#FEB3B8" fill-rule="nonzero"></path>
                <g id="Clipped" transform="translate(3.750000, 1.875000)">
                    <mask id="mask-2" fill="white">
                        <use xlink:href="#path-1"></use>
                    </mask>
                    <g id="SVGID_27_"></g>
                    <path d="M14.225625,41.75625 C13.633125,41.75625 13.040625,41.529375 12.58875,41.075625 C11.685,40.17375 11.685,38.705625 12.58875,37.80375 L38.15625,12.23625 C39.058125,11.3325 40.52625,11.3325 41.43,12.23625 C42.33375,13.14 42.33375,14.60625 41.43,15.511875 L15.864375,41.07375 C15.410625,41.5275 14.82,41.75625 14.225625,41.75625 Z" id="Path" fill="#2F2C2B" fill-rule="nonzero" mask="url(#mask-2)"></path>
                </g>
            </g>
            <g id="Group" transform="translate(50.625000, 52.500000)" fill-rule="nonzero">
                <path d="M24.34125,12.226875 C24.34125,5.73 19.074375,0.465 12.579375,0.465 C6.084375,0.465 0.819375,5.731875 0.819375,12.226875 C0.819375,18.721875 6.08625,23.986875 12.579375,23.986875 C19.07625,23.986875 24.34125,18.72 24.34125,12.226875" id="Path" fill="#FC404D"></path>
                <path d="M18.03375,11.39625 C17.415,10.77375 16.400625,10.77375 15.781875,11.39625 L14.173125,13.005 L14.173125,7.599375 C14.173125,6.718125 13.460625,6.005625 12.579375,6.005625 C11.698125,6.005625 10.985625,6.718125 10.985625,7.599375 L10.985625,13.005 L9.376875,11.39625 C8.758125,10.77375 7.74375,10.77375 7.125,11.39625 C6.5025,12.016875 6.5025,13.0275 7.125,13.648125 L11.450625,17.97375 C11.59875,18.121875 11.775,18.241875 11.97,18.3225 C12.165,18.403125 12.373125,18.444375 12.579375,18.444375 C12.785625,18.444375 12.99375,18.403125 13.18875,18.3225 C13.38375,18.241875 13.56,18.12375 13.708125,17.97375 L18.03375,13.648125 C18.65625,13.0275 18.65625,12.016875 18.03375,11.39625 Z" id="Path" fill="#F0EBE3"></path>
            </g>
        </g>
    </g>
</svg>