<?xml version="1.0" encoding="UTF-8"?>
<svg width="90px" height="90px" viewBox="0 0 90 90" version="1.1" xmlns="http://www.w3.org/2000/svg" xmlns:xlink="http://www.w3.org/1999/xlink">
    <!-- Generator: Sketch 63.1 (92452) - https://sketch.com -->
    <title>BACKGROUND</title>
    <desc>Created with Sketch.</desc>
    <g id="Page-1" stroke="none" stroke-width="1" fill="none" fill-rule="evenodd">
        <g id="BACKGROUND" transform="translate(-155.000000, -185.000000)" fill-rule="nonzero">
            <circle id="Oval" fill="#FC404D" cx="199.526902" cy="229.526902" r="44.5269017"></circle>
            <path d="M226.948052,194.461967 L210.918367,214.981447 L197.226345,232.513915 L172.124304,264.61039 C184.618988,274.843541 201.675186,277.508778 216.696105,271.575272 C231.717025,265.641766 242.347441,252.039869 244.47585,236.03036 C246.604259,220.020851 239.896933,204.113961 226.948052,194.461967 Z" id="Path" fill="#D11C36"></path>
            <g id="shuttle" transform="translate(200.000000, 230.000000) rotate(-6.000000) translate(-200.000000, -230.000000) translate(176.000000, 206.000000)">
                <path d="M47.943757,3.58328783 C47.8397883,1.67660732 46.3233826,0.16039413 44.4166958,0.0563320112 C40.5693846,-0.153854718 33.0408871,0.0506132822 25.8420146,3.77406838 C22.1721721,5.67231142 18.2909234,8.89064337 15.1935182,12.6038798 C15.155362,12.6496296 15.118237,12.6956607 15.080362,12.7415043 L8.05098941,13.2845023 C6.8939273,13.3739394 5.8633339,13.980406 5.22339662,14.9482774 L0.427710757,22.2018758 C-0.0576328272,22.9359356 -0.134789051,23.8545885 0.221179578,24.6592418 C0.577241956,25.4639889 1.30886671,26.0247993 2.17839766,26.1595176 L8.10067689,27.0767642 C8.07977065,27.1918888 8.05877065,27.3069196 8.03955191,27.4220442 C7.84239573,28.6014149 8.23314559,29.8139729 9.0849578,30.6656885 L17.334205,38.9150021 C18.0404235,39.6212182 18.9947044,40.0105605 19.9725166,40.0105605 C20.1738915,40.0105605 20.3763915,39.9939669 20.5779539,39.9603107 C20.6930788,39.941092 20.8081101,39.9200921 20.923235,39.8991859 L21.8404847,45.8215392 C21.9752034,46.6910673 22.5360157,47.4227834 23.3405779,47.7787508 C23.6753591,47.9268753 24.0296402,48 24.3823276,48 C24.8776087,48 25.369421,47.8557193 25.7980459,47.5723141 L33.0516684,42.7765504 C34.0196368,42.1365215 34.6260116,41.1059315 34.7152616,39.948967 L35.2582614,32.9197115 C35.3041051,32.8818367 35.3502301,32.8447118 35.3959801,32.8065557 C39.1093226,29.7091608 42.327759,25.827925 44.2259146,22.158001 C47.9495695,14.9588711 48.1536632,7.43030498 47.943757,3.58328783 Z M31.5005752,40.4303715 L24.5620463,45.0178234 L23.6680466,39.2461258 C26.6005456,38.3839103 29.5014508,37.0029778 32.2651061,35.1530158 L31.9113875,39.7322178 C31.8893563,40.017873 31.7395438,40.2724033 31.5005752,40.4303715 L31.5005752,40.4303715 Z" id="Shape" fill="#F0EBE3"></path>
                <path d="M19.3229231,36.9262906 L11.0735821,28.6769771 C10.8631134,28.4664154 10.765801,28.1706352 10.8135197,27.88573 C11.0587696,26.4192041 11.4398633,25.023178 11.9116131,23.7080578 L24.2892339,36.0856374 C22.7097344,36.6514166 21.2949536,36.9889154 20.1141728,37.1863521 C19.8287979,37.2337895 19.5333917,37.1367586 19.3229231,36.9262906 Z" id="Path" fill="#2F2C2B"></path>
                <path d="M8.26764558,16.0886482 L12.846769,15.7349308 C10.9967072,18.4985769 9.61577012,21.3994725 8.75355167,24.3319618 L2.98192864,23.4380588 L7.56948957,16.4994592 C7.72755202,16.2603976 7.98208318,16.1106794 8.26764558,16.0886482 L8.26764558,16.0886482 Z" id="Path" fill="#D11C36"></path>
                <path d="M33.5946682,30.6466574 C31.3228252,32.5416192 29.1175447,33.9122391 27.0848579,34.9040168 L13.0953939,20.9145993 C14.394581,18.261109 15.9801742,16.0515234 17.3532362,14.4054669 C20.2196415,10.9690733 23.7846715,8.00461537 27.1342641,6.27212172 C33.7411994,2.8546655 40.7022283,2.67063493 44.2636021,2.86450922 C44.7349769,2.89019662 45.109883,3.2651015 45.1355705,3.73656852 C45.3297267,7.29793046 45.1453205,14.2588424 41.7278529,20.8658495 C39.9954473,24.2153372 37.0309795,27.7802616 33.5946682,30.6466574 Z" id="Path" fill="#FEB3B8"></path>
                <path d="M33.0000467,22 C34.7922931,21.9998131 36.5852862,21.3172028 37.9497717,19.9520757 C39.2719757,18.6293433 40,16.8706181 40,15.0000233 C40,13.1294284 39.2718824,11.3707032 37.9497717,10.0479708 C35.2204273,7.31724969 30.7794793,7.31743645 28.0503217,10.0479708 C26.7281176,11.3707032 26,13.1294284 26,15.0000233 C26,16.8706181 26.7282109,18.6293433 28.0503217,19.9520757 C29.4150872,21.317483 31.2071469,22.0001866 33.0000467,22 Z M30.030081,12.0287544 C30.8488283,11.2095288 31.9243441,10.7999626 32.99986,10.7999626 C34.0754692,10.7999626 35.150985,11.2095288 35.9697323,12.0287544 C36.7629988,12.8223939 37.1998133,13.8775917 37.1998133,14.9999299 C37.1998133,16.1222681 36.7629988,17.1775593 35.9697323,17.9711987 C34.3322377,19.6095567 31.6675756,19.6094633 30.0299877,17.9711987 C29.2367212,17.1775593 28.7998133,16.1223615 28.7998133,15.0000233 C28.7998133,13.877685 29.2368146,12.8223939 30.030081,12.0287544 Z" id="Shape" fill="#D11C36"></path>
                <path d="M1.32954085,40 C1.66982601,40 2.01011118,39.870235 2.2696462,39.6105276 L6.6105645,35.2696917 C7.12981183,34.7504543 7.12981183,33.9086656 6.6105645,33.3894281 C6.09140581,32.8701906 5.24951249,32.8701906 4.73026516,33.3894281 L0.389435496,37.7302639 C-0.129811832,38.2495014 -0.129811832,39.0912901 0.389435496,39.6105276 C0.648970521,39.8701463 0.989255686,40 1.32954085,40 Z" id="Path" fill="#2F2C2B"></path>
                <path d="M11.5753616,36.4246483 C11.0092577,35.8584506 10.0912356,35.8584506 9.52503496,36.4246483 L0.424650459,45.5250837 C-0.141550153,46.0912814 -0.141550153,47.0092022 0.424650459,47.5754 C0.707750765,47.8584989 1.07870979,48 1.44976546,48 C1.82082114,48 2.19187681,47.8584989 2.47488047,47.5753034 L11.575265,38.4749647 C12.1415622,37.9087669 12.1415622,36.9908461 11.5753616,36.4246483 Z" id="Path" fill="#2F2C2B"></path>
                <path d="M13.7303538,41.3894281 L9.3894355,45.7302639 C8.87018817,46.2495014 8.87018817,47.0912901 9.3894355,47.6105276 C9.64905916,47.8701463 9.98934432,48 10.3295408,48 C10.6697374,48 11.0101112,47.870235 11.2696462,47.6105276 L15.6105645,43.2696917 C16.1298118,42.7504543 16.1298118,41.9086656 15.6105645,41.3894281 C15.0914058,40.8701906 14.2495125,40.8701906 13.7303538,41.3894281 Z" id="Path" fill="#2F2C2B"></path>
            </g>
        </g>
    </g>
</svg>