<?xml version="1.0" encoding="UTF-8"?>
<svg width="28px" height="28px" viewBox="0 0 28 28" version="1.1" xmlns="http://www.w3.org/2000/svg" xmlns:xlink="http://www.w3.org/1999/xlink">
    <!-- Generator: Sketch 63.1 (92452) - https://sketch.com -->
    <title>Icons-29</title>
    <desc>Created with Sketch.</desc>
    <g id="Page-1" stroke="none" stroke-width="1" fill="none" fill-rule="evenodd">
        <g id="Icons-29" transform="translate(-8.000000, -8.000000)" fill-rule="nonzero">
            <g id="Group" transform="translate(8.000000, 8.000000)">
                <path d="M23.794,14.662 L26.346,14.662 C26.785,14.662 27.141,14.307 27.141,13.868 L27.141,6.211 C27.141,5.772 26.786,5.416 26.346,5.416 L19.484,5.416 L19.484,3.658 C19.484,1.812 17.983,0.311 16.137,0.311 C14.291,0.311 12.79,1.812 12.79,3.658 L12.79,5.416 L5.928,5.416 C5.489,5.416 5.133,5.771 5.133,6.211 L5.133,13.074 L3.375,13.074 C1.529,13.074 0.027,14.575 0.027,16.421 C0.027,18.266 1.529,19.768 3.375,19.768 L5.133,19.768 L5.133,26.631 C5.133,27.069 5.488,27.425 5.928,27.425 L13.584,27.425 C14.023,27.425 14.379,27.069 14.379,26.631 L14.379,24.078 C14.379,23.108 15.168,22.32 16.137,22.32 C17.106,22.32 17.895,23.108 17.895,24.078 L17.895,26.631 C17.895,27.069 18.25,27.425 18.69,27.425 L26.346,27.425 C26.785,27.425 27.141,27.069 27.141,26.631 L27.141,18.973 C27.141,18.535 26.786,18.179 26.346,18.179 L23.794,18.179 C22.824,18.179 22.036,17.39 22.036,16.421 C22.036,15.451 22.824,14.662 23.794,14.662 Z M23.794,19.768 L25.553,19.768 L25.553,25.836 L19.484,25.836 L19.484,24.078 C19.484,22.232 17.983,20.73 16.137,20.73 C14.291,20.73 12.79,22.232 12.79,24.078 L12.79,25.836 L6.721,25.836 L6.721,18.973 C6.721,18.535 6.366,18.179 5.928,18.179 L3.375,18.179 C2.405,18.179 1.616,17.39 1.616,16.421 C1.616,15.451 2.405,14.662 3.375,14.662 L5.928,14.662 C6.366,14.662 6.721,14.307 6.721,13.868 L6.721,7.005 L13.584,7.005 C14.023,7.005 14.379,6.65 14.379,6.211 L14.379,3.658 C14.379,2.689 15.168,1.9 16.137,1.9 C17.106,1.9 17.895,2.689 17.895,3.658 L17.895,6.211 C17.895,6.649 18.25,7.005 18.69,7.005 L25.553,7.005 L25.553,13.074 L23.794,13.074 C21.949,13.074 20.447,14.575 20.447,16.421 C20.447,18.266 21.949,19.768 23.794,19.768 Z" id="Shape" fill="#FEB3B8"></path>
                <path d="M17.895,6.211 L17.895,3.658 C17.895,2.689 17.106,1.9 16.137,1.9 C15.168,1.9 14.379,2.689 14.379,3.658 L14.379,6.211 C14.379,6.649 14.024,7.005 13.584,7.005 L6.721,7.005 L6.721,13.868 C6.721,14.306 6.366,14.662 5.928,14.662 L3.375,14.662 C2.405,14.662 1.616,15.451 1.616,16.421 C1.616,17.39 2.405,18.179 3.375,18.179 L5.928,18.179 C6.366,18.179 6.721,18.534 6.721,18.973 L6.721,25.836 L12.79,25.836 L12.79,24.078 C12.79,22.232 14.291,20.73 16.137,20.73 C17.983,20.73 19.484,22.232 19.484,24.078 L19.484,25.836 L25.553,25.836 L25.553,19.768 L23.794,19.768 C21.949,19.768 20.447,18.266 20.447,16.421 C20.447,14.575 21.949,13.074 23.794,13.074 L25.553,13.074 L25.553,7.005 L18.69,7.005 C18.25,7.005 17.895,6.649 17.895,6.211 Z" id="Path" fill="#F0EBE3"></path>
            </g>
        </g>
    </g>
</svg>