<?xml version="1.0" encoding="UTF-8"?>
<svg width="90px" height="90px" viewBox="0 0 90 90" version="1.1" xmlns="http://www.w3.org/2000/svg" xmlns:xlink="http://www.w3.org/1999/xlink">
    <!-- Generator: Sketch 63.1 (92452) - https://sketch.com -->
    <title>Tools</title>
    <desc>Created with Sketch.</desc>
    <g id="Page-1" stroke="none" stroke-width="1" fill="none" fill-rule="evenodd">
        <g id="Tools">
            <path d="M90,45 C90,69.853125 69.853125,90 45,90 C20.146875,90 0,69.853125 0,45 C0,20.146875 20.146875,0 45,0 C69.853125,0 90,20.146875 90,45" id="Path" fill="#FC404D" fill-rule="nonzero"></path>
            <path d="M72.72,9.56625 L56.5125,30.30375 L42.6675,48.015 L17.30625,80.458125 C24.946875,86.431875 34.55625,90 45,90 C69.853125,90 90,69.853125 90,45 C90,30.6075 83.236875,17.805 72.72,9.56625" id="Path" fill="#D11C36" fill-rule="nonzero"></path>
            <rect id="Rectangle" x="0" y="0" width="90" height="90"></rect>
            <g id="Group" transform="translate(16.875000, 16.875000)" fill-rule="nonzero">
                <path d="M52.29375,20.7375 L49.5975,20.7375 C48.49875,20.74125 47.525625,20.04375 47.173125,19.005 C46.93125,18.283125 46.63875,17.58375 46.2975,16.903125 C45.81,15.924375 46.005,14.7375 46.783125,13.96125 L48.69375,12.046875 C49.0275,11.71125 49.0275,11.17125 48.69375,10.835625 L45.05625,7.2 C44.720625,6.864375 44.180625,6.864375 43.845,7.2 L41.930625,9.110625 C41.15625,9.886875 39.973125,10.08375 38.98875,9.594375 C38.311875,9.255 37.60875,8.960625 36.88875,8.720625 C35.85,8.368125 35.154375,7.393125 35.158125,6.29625 L35.158125,3.601875 C35.158125,3.129375 34.77375,2.743125 34.299375,2.743125 L29.16,2.743125 C28.6875,2.743125 28.303125,3.129375 28.303125,3.601875 L28.303125,6.29625 C28.30875,7.393125 27.61125,8.368125 26.5725,8.7225 C25.8525,8.9625 25.149375,9.255 24.474375,9.594375 C23.491875,10.085625 22.305,9.890625 21.52875,9.1125 L19.61625,7.2 C19.27875,6.864375 18.736875,6.864375 18.405,7.2 L14.769375,10.835625 C14.435625,11.169375 14.435625,11.71125 14.769375,12.046875 L17.58,14.859375 C17.900625,15.193125 17.900625,15.72 17.578125,16.051875 L21.706875,20.180625 C23.180625,16.261875 26.953125,13.468125 31.389375,13.468125 C37.108125,13.468125 41.743125,18.103125 41.743125,23.82 C41.743125,28.25625 38.9475,32.02875 35.026875,33.5025 L39.82125,38.296875 C40.1625,37.96875 40.704375,37.974375 41.0325,38.315625 L43.845,41.12625 C44.1825,41.46 44.7225,41.46 45.05625,41.12625 L48.69375,37.490625 C49.0275,37.155 49.0275,36.613125 48.69375,36.279375 L46.783125,34.365 C46.003125,33.5925 45.808125,32.405625 46.295625,31.423125 C46.636875,30.744375 46.929375,30.043125 47.17125,29.32125 C47.52375,28.284375 48.496875,27.586875 49.595625,27.590625 L52.291875,27.590625 C52.7625,27.590625 53.1468818,27.208125 53.1468818,26.73375 L53.1468818,21.594375 C53.14875,21.12 52.764375,20.7375 52.29375,20.7375 Z" id="Path" fill="#FEB3B8"></path>
                <path d="M52.29375,19.021875 L49.5975,19.021875 C49.239375,19.025625 48.916875,18.800625 48.79875,18.459375 C48.530625,17.664375 48.211875,16.89 47.835,16.138125 C47.675625,15.81375 47.743125,15.42375 48,15.170625 L49.9125,13.25625 C50.915625,12.253125 50.915625,10.6275 49.9125,9.6225 L46.269375,5.986875 C45.26625,4.9875 43.640625,4.9875 42.635625,5.986875 L40.723125,7.8975 C40.471875,8.15625 40.081875,8.22 39.7575,8.0625 C39.009375,7.6875 38.229375,7.363125 37.434375,7.095 C37.093125,6.97875 36.86625,6.658125 36.87,6.29625 L36.87,3.601875 C36.87,2.1825 35.71875,1.03125 34.2975,1.03125 L29.158125,1.03125 C27.740625,1.03125 26.5875,2.1825 26.5875,3.601875 L26.5875,6.29625 C26.593125,6.654375 26.36625,6.976875 26.026875,7.095 C25.231875,7.363125 24.455625,7.685625 23.70375,8.0625 C23.379375,8.221875 22.99125,8.15625 22.73625,7.8975 L20.821875,5.986875 C19.81875,4.9875 18.195,4.9875 17.188125,5.986875 L13.5525,9.6225 C12.55125,10.62375 12.55125,12.25125 13.5525,13.25625 L16.36125,16.06875 C16.7025,16.39875 17.244375,16.389375 17.5725,16.05 C17.895,15.718125 17.895,15.19125 17.574375,14.8575 L14.76375,12.045 C14.43,11.709375 14.43,11.1675 14.76375,10.83375 L18.399375,7.198125 C18.733125,6.8625 19.275,6.8625 19.610625,7.198125 L21.523125,9.110625 C22.299375,9.88875 23.48625,10.08375 24.46875,9.5925 C25.14375,9.253125 25.846875,8.960625 26.566875,8.720625 C27.605625,8.368125 28.303125,7.39125 28.2975,6.294375 L28.2975,3.6 C28.2975,3.1275 28.681875,2.74125 29.154375,2.74125 L34.29375,2.74125 C34.768125,2.74125 35.1525,3.1275 35.1525,3.6 L35.1525,6.294375 C35.14875,7.39125 35.844375,8.36625 36.883125,8.71875 C37.603125,8.95875 38.30625,9.253125 38.983125,9.5925 C39.9675,10.081875 41.150625,9.885 41.925,9.10875 L43.839375,7.198125 C44.176875,6.8625 44.716875,6.8625 45.050625,7.198125 L48.68625,10.83375 C49.02,11.169375 49.02,11.709375 48.68625,12.045 L46.775625,13.959375 C45.9975,14.735625 45.8025,15.9225 46.29,16.90125 C46.63125,17.581875 46.92375,18.28125 47.165625,19.003125 C47.518125,20.041875 48.49125,20.739375 49.59,20.735625 L52.28625,20.735625 C52.756875,20.735625 53.14125,21.118125 53.14125,21.590625 L53.14125,26.73 C53.14125,27.204375 52.756875,27.586875 52.28625,27.586875 L49.59,27.586875 C48.49125,27.583125 47.518125,28.280625 47.165625,29.3175 C46.92375,30.039375 46.63125,30.740625 46.29,31.419375 C45.8025,32.401875 45.9975,33.58875 46.7775,34.36125 L48.688125,36.275625 C49.021875,36.609375 49.021875,37.15125 48.688125,37.486875 L45.050625,41.1225 C44.715,41.45625 44.175,41.45625 43.839375,41.1225 L41.026875,38.311875 C40.696875,37.970625 40.155,37.965 39.815625,38.293125 C39.474375,38.623125 39.466875,39.165 39.796875,39.504375 C39.8025,39.51 39.81,39.5175 39.815625,39.526875 L42.631875,42.33375 C43.635,43.336875 45.260625,43.336875 46.265625,42.33375 L49.90125,38.7 C50.904375,37.696875 50.904375,36.07125 49.90125,35.06625 L47.9925,33.151875 C47.735625,32.89875 47.668125,32.510625 47.8275,32.184375 C48.2025,31.43625 48.526875,30.66 48.795,29.863125 C48.913125,29.521875 49.231875,29.293125 49.59375,29.296875 L52.29,29.296875 C53.7075,29.296875 54.8568842,28.1475 54.8568842,26.72625 L54.8568842,21.586875 C54.860625,20.173125 53.71125,19.021875 52.29375,19.021875 Z" id="Path" fill="#2F2C2B"></path>
                <path d="M39.871875,15.6825 C35.521875,11.34 28.475625,11.34 24.125625,15.6825 C23.795625,16.025625 23.805,16.565625 24.148125,16.89375 C24.48,17.214375 25.005,17.214375 25.33875,16.89375 C28.993125,13.18875 34.959375,13.149375 38.6625,16.80375 C42.365625,20.458125 42.406875,26.42625 38.7525,30.13125 C38.7225,30.159375 38.694375,30.189375 38.6625,30.219375 C38.32125,30.5475 38.311875,31.09125 38.641875,31.430625 C38.971875,31.77 39.51375,31.78125 39.853125,31.45125 C39.85875,31.44375 39.86625,31.438125 39.871875,31.430625 C44.21625,27.080625 44.21625,20.03625 39.871875,15.6825 Z" id="Path" fill="#2F2C2B"></path>
                <path d="M38.68875,31.820625 L37.569375,31.820625 C36.30375,31.816875 35.176875,31.033125 34.72125,29.85375 C34.614375,29.5725 34.498125,29.289375 34.3725,29.015625 C33.849375,27.860625 34.09125,26.50125 34.981875,25.60125 L35.77875,24.804375 C36.178125,24.405 36.178125,23.761875 35.77875,23.364375 L32.9025,20.488125 C32.505,20.09625 31.86375,20.09625 31.464375,20.488125 L30.665625,21.285 C29.765625,22.1775 28.40625,22.419375 27.253125,21.89625 C26.975625,21.770625 26.69625,21.654375 26.41125,21.54375 C25.23,21.09375 24.45,19.96125 24.444375,18.695625 L24.444375,17.57625 C24.444375,17.01375 23.98875,16.56 23.42625,16.56 L19.3575,16.56 C18.795,16.56 18.339375,17.01375 18.339375,17.57625 L18.339375,18.695625 C18.335625,19.96125 17.551875,21.091875 16.36875,21.54375 C16.0875,21.650625 15.804375,21.766875 15.530625,21.8925 C14.375625,22.4175 13.01625,22.171875 12.118125,21.283125 L11.319375,20.48625 C10.92,20.08875 10.276875,20.08875 9.879375,20.48625 L7.005,23.3625 L7.005,23.3625 C6.605625,23.758125 6.6075,24.403125 7.005,24.800625 L7.80375,25.599375 C8.69625,26.499375 8.938125,27.856875 8.415,29.011875 C8.29125,29.2875 8.173125,29.56875 8.0625,29.85375 C7.6125,31.033125 6.48,31.816875 5.21625,31.820625 L4.095,31.820625 C3.5325,31.820625 3.076875,32.27625 3.076875,32.83875 L3.076875,36.9075 C3.076875,37.47 3.5325,37.92375 4.095,37.92375 L5.21625,37.92375 C6.48,37.93125 7.610625,38.715 8.0625,39.894375 C8.169375,40.175625 8.285625,40.45875 8.413125,40.734375 C8.934375,41.889375 8.6925,43.246875 7.80375,44.146875 L7.005,44.945625 C6.609375,45.343125 6.609375,45.988125 7.005,46.38375 L9.879375,49.25625 C9.879375,49.25625 9.879375,49.25625 9.88125,49.25625 C10.27875,49.65375 10.92375,49.65375 11.319375,49.25625 L12.118125,48.459375 C13.018125,47.56875 14.3775,47.326875 15.530625,47.85 C15.80625,47.975625 16.0875,48.091875 16.3725,48.200625 C17.551875,48.6525 18.335625,49.785 18.339375,51.050625 L18.339375,52.17 C18.339375,52.7325 18.795,53.18625 19.3575,53.18625 L23.42625,53.18625 C23.98875,53.18625 24.444375,52.7325 24.444375,52.17 L24.444375,51.050625 C24.45,49.785 25.23,48.65625 26.41125,48.204375 C26.6925,48.09375 26.975625,47.979375 27.249375,47.851875 C28.404375,47.32875 29.76375,47.5725 30.661875,48.463125 L31.460625,49.26 C31.86,49.655625 32.503125,49.655625 32.900625,49.26 L35.776875,46.38375 C36.174375,45.98625 36.174375,45.34125 35.776875,44.94375 L34.98,44.146875 C34.0875,43.246875 33.845625,41.889375 34.36875,40.734375 C34.494375,40.456875 34.610625,40.175625 34.72125,39.894375 C35.17125,38.71125 36.30375,37.929375 37.569375,37.92375 L38.68875,37.92375 C39.253125,37.92375 39.706875,37.47 39.706875,36.9075 L39.706875,32.83875 C39.706875,32.27625 39.253125,31.820625 38.68875,31.820625 Z M27.585,35.32125 C27.56625,35.535 27.541875,35.750625 27.504375,35.964375 C27.1725,37.805625 26.02875,39.40125 24.391875,40.305 C24.28125,40.36125 24.174375,40.4175 24.065625,40.46625 L23.9925,40.50375 C23.47875,40.73625 22.935,40.90125 22.378125,40.993125 C22.33875,40.99875 22.2975,41.004375 22.258125,41.011875 C22.1475,41.026875 22.040625,41.041875 21.931875,41.05125 C21.789375,41.064375 21.645,41.071875 21.500625,41.07375 C21.43875,41.07375 21.376875,41.07375 21.313125,41.07375 C21.105,41.071875 20.895,41.056875 20.686875,41.034375 L20.58,41.02125 C20.33625,40.989375 20.094375,40.944375 19.854375,40.88625 C16.535625,40.036875 14.536875,36.658125 15.38625,33.34125 C15.946875,31.149375 17.656875,29.435625 19.850625,28.873125 L19.850625,28.87125 C20.35875,28.74375 20.88,28.678125 21.406875,28.67625 C21.658125,28.678125 21.913125,28.695 22.1625,28.726875 C22.23,28.734375 22.295625,28.7475 22.36125,28.75875 C22.5525,28.786875 22.741875,28.82625 22.929375,28.875 C22.99125,28.89 23.05125,28.905 23.113125,28.92 C23.58375,29.056875 24.035625,29.248125 24.465,29.49 C24.5325,29.529375 24.59625,29.5725 24.665625,29.611875 C24.804375,29.701875 24.94125,29.79 25.07625,29.889375 C25.1475,29.94 25.21875,29.9925 25.288125,30.04875 C25.460625,30.1875 25.629375,30.335625 25.786875,30.49125 C25.8525,30.555 25.906875,30.62625 25.96875,30.69 C26.071875,30.8025 26.169375,30.915 26.266875,31.036875 C26.32875,31.1175 26.394375,31.20375 26.458125,31.29 C26.54625,31.4175 26.634375,31.550625 26.715,31.68375 C26.758125,31.756875 26.803125,31.83 26.84625,31.905 C26.9625,32.113125 27.061875,32.3325 27.15,32.55375 C27.1875,32.64375 27.2175,32.731875 27.25125,32.82 C27.3075,32.985 27.35625,33.15 27.40125,33.316875 C27.421875,33.405 27.44625,33.48375 27.465,33.57 C27.515625,33.808125 27.555,34.051875 27.579375,34.295625 C27.583125,34.36125 27.583125,34.425 27.590625,34.490625 C27.601875,34.693125 27.60375,34.899375 27.598125,35.10375 C27.59625,35.175 27.58875,35.248125 27.585,35.32125 Z" id="Shape" fill="#FEB3B8"></path>
                <path d="M38.690625,29.78625 L37.57125,29.78625 C37.149375,29.78625 36.7725,29.521875 36.63,29.128125 C36.504375,28.80375 36.369375,28.483125 36.226875,28.168125 C36.04875,27.78375 36.13125,27.33 36.43125,27.035625 L37.228125,26.235 C38.413125,25.03875 38.409375,23.115 37.2225,21.9225 L34.348125,19.04625 C33.15375,17.86125 31.22625,17.86125 30.03375,19.04625 L29.236875,19.843125 C28.93875,20.143125 28.485,20.22375 28.1025,20.045625 C27.785625,19.903125 27.46875,19.77 27.140625,19.63875 C26.743125,19.49625 26.476875,19.119375 26.480625,18.695625 L26.480625,17.57625 C26.480625,15.890625 25.11375,14.52375 23.42625,14.52375 L19.3575,14.52375 C17.67375,14.52375 16.306875,15.890625 16.306875,17.57625 L16.306875,18.695625 C16.306875,19.1175 16.0425,19.4925 15.646875,19.636875 C15.3225,19.7625 15.00375,19.895625 14.68875,20.04 C14.30625,20.21625 13.8525,20.135625 13.5525,19.835625 L12.75375,19.03875 C11.56125,17.851875 9.635625,17.851875 8.443125,19.03875 L5.56875,21.9225 C4.381875,23.116875 4.381875,25.0425 5.56875,26.236875 L6.36375,27.035625 C6.66375,27.33 6.744375,27.78375 6.568125,28.168125 C6.42375,28.483125 6.290625,28.80375 6.165,29.13 C6.01875,29.5275 5.64,29.79 5.21625,29.78625 L4.095,29.78625 C2.41125,29.78625 1.044375,31.153125 1.044375,32.83875 L1.044375,36.9075 C1.044375,38.59125 2.41125,39.96 4.095,39.96 L5.21625,39.96 C5.638125,39.96 6.013125,40.2225 6.1575,40.618125 C6.28125,40.944375 6.41625,41.263125 6.55875,41.578125 C6.736875,41.960625 6.65625,42.414375 6.35625,42.710625 L5.5575,43.51125 C4.370625,44.705625 4.370625,46.629375 5.5575,47.82375 L8.431875,50.7 C9.62625,51.885 11.551875,51.885 12.74625,50.7 L13.545,49.903125 C13.843125,49.603125 14.295,49.5225 14.679375,49.700625 C14.994375,49.84125 15.313125,49.974375 15.639375,50.1075 C16.03875,50.248125 16.305,50.625 16.305,51.050625 L16.305,52.17 C16.305,53.85375 17.671875,55.2225 19.355625,55.2225 L23.424375,55.2225 C25.111875,55.2225 26.47875,53.855625 26.47875,52.17 L26.47875,51.050625 C26.47875,50.62875 26.739375,50.251875 27.136875,50.109375 C27.46125,49.985625 27.78,49.850625 28.095,49.70625 C28.479375,49.53 28.933125,49.610625 29.23125,49.90875 L30.03,50.7075 C31.224375,51.8925 33.15,51.88875 34.3425,50.701875 L37.216875,47.829375 C38.40375,46.633125 38.40375,44.709375 37.216875,43.513125 L36.421875,42.71625 C36.12,42.42 36.0375,41.96625 36.2175,41.581875 C36.36,41.266875 36.495,40.948125 36.624375,40.62 C36.766875,40.224375 37.145625,39.958125 37.569375,39.96 L38.68875,39.96 C40.3725,39.96 41.7412519,38.593125 41.7412519,36.9075 L41.7412519,32.83875 C41.743125,31.15125 40.374375,29.78625 38.690625,29.78625 Z M39.70875,36.9075 C39.70875,37.47 39.253125,37.92375 38.690625,37.92375 L37.57125,37.92375 C36.305625,37.929375 35.175,38.71125 34.72125,39.894375 C34.6125,40.175625 34.498125,40.456875 34.36875,40.734375 C33.8475,41.889375 34.09125,43.246875 34.98,44.146875 L35.77875,44.94375 C36.174375,45.34125 36.174375,45.98625 35.77875,46.38375 L35.77875,46.38375 L32.9025,49.26 C32.505,49.655625 31.86,49.655625 31.4625,49.26 L30.66375,48.463125 C29.765625,47.570625 28.40625,47.32875 27.249375,47.851875 C26.975625,47.9775 26.694375,48.09375 26.413125,48.204375 C25.231875,48.654375 24.451875,49.785 24.444375,51.050625 L24.444375,52.17 C24.444375,52.7325 23.990625,53.18625 23.42625,53.18625 L19.3575,53.18625 C18.796875,53.18625 18.34125,52.7325 18.34125,52.17 L18.34125,51.050625 C18.335625,49.785 17.55375,48.654375 16.3725,48.200625 C16.089375,48.091875 15.808125,47.9775 15.5325,47.85 C14.3775,47.326875 13.02,47.570625 12.118125,48.459375 L11.32125,49.25625 C10.92375,49.65375 10.27875,49.65375 9.883125,49.25625 C9.88125,49.25625 9.88125,49.25625 9.88125,49.25625 L7.006875,46.38375 C6.609375,45.988125 6.609375,45.343125 7.006875,44.945625 L7.80375,44.146875 C8.694375,43.246875 8.93625,41.889375 8.415,40.734375 C8.289375,40.45875 8.17125,40.175625 8.0625,39.894375 C7.6125,38.715 6.48,37.93125 5.21625,37.92375 L4.095,37.92375 C3.534375,37.92375 3.076875,37.47 3.076875,36.9075 L3.076875,32.83875 C3.076875,32.27625 3.534375,31.820625 4.095,31.820625 L5.21625,31.820625 C6.48,31.816875 7.610625,31.033125 8.064375,29.85375 C8.173125,29.56875 8.289375,29.2875 8.415,29.011875 C8.938125,27.856875 8.69625,26.499375 7.80375,25.599375 L7.005,24.800625 C6.609375,24.403125 6.6075,23.758125 7.005,23.3625 L7.005,23.3625 L9.879375,20.48625 C10.27875,20.08875 10.921875,20.08875 11.319375,20.48625 L12.118125,21.283125 C13.018125,22.17375 14.3775,22.4175 15.530625,21.8925 C15.80625,21.76875 16.0875,21.650625 16.370625,21.54375 C17.551875,21.09375 18.335625,19.96125 18.34125,18.695625 L18.34125,17.57625 C18.34125,17.01375 18.796875,16.56 19.3575,16.56 L23.42625,16.56 C23.990625,16.56 24.444375,17.01375 24.444375,17.57625 L24.444375,18.695625 C24.451875,19.96125 25.231875,21.091875 26.413125,21.54375 C26.69625,21.654375 26.9775,21.76875 27.253125,21.89625 C28.408125,22.419375 29.765625,22.175625 30.6675,21.285 L31.464375,20.488125 C31.86375,20.09625 32.506875,20.09625 32.904375,20.488125 L35.77875,23.364375 C36.178125,23.761875 36.178125,24.405 35.77875,24.804375 L34.98375,25.60125 C34.09125,26.50125 33.849375,27.860625 34.3725,29.015625 C34.49625,29.289375 34.61625,29.5725 34.72125,29.85375 C35.175,31.033125 36.305625,31.816875 37.57125,31.820625 L38.690625,31.820625 C39.253125,31.820625 39.70875,32.27625 39.70875,32.83875 L39.70875,36.9075 Z" id="Shape" fill="#F0EBE3"></path>
                <path d="M29.353125,34.513125 C29.341875,34.303125 29.326875,34.089375 29.3025,33.879375 C29.27625,33.6525 29.2425,33.429375 29.191875,33.208125 C29.161875,33.06375 29.1225,32.923125 29.083125,32.776875 C29.0325,32.595 28.97625,32.416875 28.91625,32.23875 C28.87125,32.116875 28.82625,31.993125 28.779375,31.873125 C28.665,31.59 28.535625,31.3125 28.389375,31.044375 C28.378125,31.02375 28.370625,31.003125 28.3575,30.9825 C28.12875,30.571875 27.860625,30.181875 27.560625,29.82 C27.534375,29.788125 27.50625,29.758125 27.48,29.728125 C27.35625,29.581875 27.2325,29.445 27.099375,29.31 C27.031875,29.236875 26.95875,29.169375 26.88375,29.101875 C26.795625,29.0175 26.7075,28.936875 26.619375,28.858125 C26.510625,28.764375 26.40375,28.674375 26.289375,28.588125 L26.146875,28.4775 C24.77625,27.451875 23.1075,26.896875 21.3975,26.896875 C21.3075,26.896875 21.2175,26.91 21.129375,26.91375 C20.94,26.919375 20.750625,26.930625 20.56125,26.95125 C20.46,26.9625 20.360625,26.97375 20.259375,26.98875 C19.970625,27.028125 19.68375,27.080625 19.400625,27.148125 C15.136875,28.250625 12.57,32.6025 13.6725,36.87 C14.4,39.680625 16.595625,41.8725 19.40625,42.598125 C19.423125,42.598125 19.438125,42.60375 19.45125,42.6075 C19.756875,42.6825 20.06625,42.740625 20.3775,42.78375 C20.585625,42.81 20.791875,42.8175 21,42.823125 C21.135,42.830625 21.264375,42.85125 21.410625,42.85125 C21.66375,42.85125 21.924375,42.834375 22.190625,42.81 C22.220625,42.81 22.246875,42.800625 22.280625,42.796875 C22.494375,42.7725 22.71375,42.740625 22.936875,42.6975 C23.026875,42.680625 23.1075,42.658125 23.19375,42.6375 C23.349375,42.601875 23.503125,42.564375 23.664375,42.519375 C23.788125,42.481875 23.908125,42.436875 24.03,42.395625 C24.15,42.354375 24.275625,42.3075 24.403125,42.260625 C24.526875,42.21375 24.63,42.155625 24.748125,42.103125 C24.898125,42.035625 25.044375,41.97 25.190625,41.889375 L25.194375,41.889375 C26.02125,41.446875 26.784375,40.8975 27.465,40.250625 C27.650625,40.078125 27.81,39.883125 27.94125,39.669375 C28.633125,38.559375 29.086875,37.32 29.274375,36.028125 C29.300625,35.855625 29.32125,35.685 29.334375,35.5125 C29.3475,35.35125 29.356875,35.191875 29.360625,35.034375 C29.360625,34.98375 29.36625,34.933125 29.36625,34.8825 C29.371875,34.749375 29.356875,34.636875 29.353125,34.513125 Z M27.58875,35.09625 C27.58875,35.169375 27.58125,35.2425 27.5775,35.315625 C27.55875,35.529375 27.534375,35.745 27.496875,35.95875 C27.165,37.8 26.02125,39.395625 24.384375,40.299375 C24.27375,40.355625 24.166875,40.411875 24.058125,40.460625 L23.985,40.498125 C23.47125,40.730625 22.9275,40.895625 22.370625,40.9875 C22.33125,40.993125 22.29,40.99875 22.250625,41.00625 C22.14,41.02125 22.033125,41.03625 21.924375,41.045625 C21.781875,41.05875 21.6375,41.06625 21.493125,41.068125 C21.43125,41.068125 21.369375,41.068125 21.305625,41.068125 C21.0975,41.06625 20.8875,41.05125 20.679375,41.02875 L20.5725,41.015625 C20.32875,40.98375 20.086875,40.93875 19.846875,40.880625 C16.528125,40.03125 14.529375,36.6525 15.37875,33.335625 C15.939375,31.14375 17.649375,29.43 19.843125,28.8675 L19.843125,28.865625 C20.35125,28.738125 20.8725,28.6725 21.399375,28.670625 C21.650625,28.6725 21.905625,28.689375 22.155,28.72125 C22.2225,28.72875 22.288125,28.741875 22.35375,28.753125 C22.545,28.78125 22.734375,28.820625 22.921875,28.869375 C22.98375,28.884375 23.04375,28.899375 23.105625,28.914375 C23.57625,29.05125 24.028125,29.2425 24.4575,29.484375 C24.525,29.52375 24.58875,29.566875 24.658125,29.60625 C24.796875,29.69625 24.93375,29.784375 25.06875,29.88375 C25.14,29.934375 25.21125,29.986875 25.280625,30.043125 C25.453125,30.181875 25.621875,30.33 25.779375,30.485625 C25.845,30.549375 25.899375,30.620625 25.96125,30.684375 C26.064375,30.796875 26.161875,30.909375 26.259375,31.03125 C26.32125,31.111875 26.386875,31.198125 26.450625,31.284375 C26.53875,31.411875 26.626875,31.545 26.7075,31.678125 C26.750625,31.75125 26.795625,31.824375 26.83875,31.899375 C26.955,32.1075 27.054375,32.326875 27.1425,32.548125 C27.18,32.638125 27.21,32.72625 27.24375,32.814375 C27.3,32.979375 27.34875,33.144375 27.39375,33.31125 C27.414375,33.399375 27.43875,33.478125 27.4575,33.564375 C27.508125,33.8025 27.5475,34.04625 27.571875,34.29 C27.575625,34.355625 27.575625,34.419375 27.583125,34.485 C27.5925,34.685625 27.594375,34.89 27.58875,35.09625 Z" id="Shape" fill="#F0EBE3"></path>
            </g>
        </g>
    </g>
</svg>