<?xml version="1.0" encoding="UTF-8"?>
<svg width="90px" height="90px" viewBox="0 0 90 90" version="1.1" xmlns="http://www.w3.org/2000/svg" xmlns:xlink="http://www.w3.org/1999/xlink">
    <title>563877F8-0E0C-432F-9234-9F518E22DA8D</title>
    <g id="Welcome" stroke="none" stroke-width="1" fill="none" fill-rule="evenodd">
        <g id="INTRODUCING-BROKERS-DESKTOP-Copy" transform="translate(-197.000000, -1143.000000)" fill-rule="nonzero">
            <g id="3-STEPS" transform="translate(50.000000, 1054.000000)">
                <g id="STEP-1" transform="translate(0.000000, 89.000000)">
                    <g id="ICON-STEP-1" transform="translate(147.000000, 0.000000)">
                        <g id="BACKGROUND">
                            <circle id="Oval" fill="#FC404D" cx="44.0816327" cy="44.0816327" r="44.0816327"></circle>
                            <path d="M71.2285714,9.36734694 L55.3591837,29.6816327 L41.8040816,47.0387755 L16.9530612,78.8142857 C29.3227982,88.9451056 46.2084339,91.5836902 61.0791441,85.7095194 C75.9498543,79.8353486 86.473967,66.3694704 88.5810917,50.5200562 C90.6882164,34.670642 84.0479638,18.922821 71.2285714,9.36734694 Z" id="Path" fill="#D11C36"></path>
                        </g>
                        <g id="CONTENT" transform="translate(18.367347, 22.040816)">
                            <rect id="Rectangle" fill="#F0EBE3" x="1.04693878" y="1.45102041" width="49.3346939" height="41.1244898" rx="0.5"></rect>
                            <path d="M50.3816327,2.36938776 C50.3816327,1.86218747 49.9704656,1.45102041 49.4632653,1.45102041 L1.96530612,1.45102041 C1.45810584,1.45102041 1.04693878,1.86218747 1.04693878,2.36938776 L1.04693878,9.71632653 L50.3816327,9.71632653 L50.3816327,2.36938776 Z" id="Path" fill="#282424"></path>
                            <circle id="Oval" fill="#FC404D" cx="7.12653061" cy="17.4306122" r="3.21428571"></circle>
                            <path d="M5.80501437,16.9826613 L9.29521845,16.9826613 C9.35596977,16.9826613 9.40521845,17.03191 9.40521845,17.0926613 L9.40521845,17.7726613 C9.40521845,17.8334127 9.35596977,17.8826613 9.29521845,17.8826613 L5.80501437,17.8826613 C5.74426305,17.8826613 5.69501437,17.8334127 5.69501437,17.7726613 L5.69501437,17.0926613 C5.69501437,17.03191 5.74426305,16.9826613 5.80501437,16.9826613 Z" id="Rectangle" fill="#F0EBE3" transform="translate(7.550116, 17.432661) rotate(128.050000) translate(-7.550116, -17.432661) "></path>
                            <path d="M5.40480852,17.7570253 L7.1317473,17.7570253 C7.19249862,17.7570253 7.2417473,17.806274 7.2417473,17.8670253 L7.2417473,18.5470253 C7.2417473,18.6077766 7.19249862,18.6570253 7.1317473,18.6570253 L5.40480852,18.6570253 C5.3440572,18.6570253 5.29480852,18.6077766 5.29480852,18.5470253 L5.29480852,17.8670253 C5.29480852,17.806274 5.3440572,17.7570253 5.40480852,17.7570253 Z" id="Rectangle" fill="#F0EBE3" transform="translate(6.268278, 18.207025) rotate(38.050000) translate(-6.268278, -18.207025) "></path>
                            <rect id="Rectangle" fill="#FEB3B8" x="13.1142857" y="15.777551" width="34.4020408" height="3.36122449" rx="0.5"></rect>
                            <circle id="Oval" fill="#FC404D" cx="7.12653061" cy="25.9530612" r="3.21428571"></circle>
                            <path d="M5.77952859,25.4870021 L9.26973267,25.4870021 C9.33048399,25.4870021 9.37973267,25.5362507 9.37973267,25.5970021 L9.37973267,26.2770021 C9.37973267,26.3377534 9.33048399,26.3870021 9.26973267,26.3870021 L5.77952859,26.3870021 C5.71877727,26.3870021 5.66952859,26.3377534 5.66952859,26.2770021 L5.66952859,25.5970021 C5.66952859,25.5362507 5.71877727,25.4870021 5.77952859,25.4870021 Z" id="Rectangle" fill="#F0EBE3" transform="translate(7.524631, 25.937002) rotate(128.050000) translate(-7.524631, -25.937002) "></path>
                            <path d="M5.39802096,26.2721289 L7.12495973,26.2721289 C7.18571106,26.2721289 7.23495973,26.3213776 7.23495973,26.3821289 L7.23495973,27.0621289 C7.23495973,27.1228803 7.18571106,27.1721289 7.12495973,27.1721289 L5.39802096,27.1721289 C5.33726963,27.1721289 5.28802096,27.1228803 5.28802096,27.0621289 L5.28802096,26.3821289 C5.28802096,26.3213776 5.33726963,26.2721289 5.39802096,26.2721289 Z" id="Rectangle" fill="#F0EBE3" transform="translate(6.261490, 26.722129) rotate(38.050000) translate(-6.261490, -26.722129) "></path>
                            <rect id="Rectangle" fill="#FEB3B8" x="13.1142857" y="24.3" width="34.4020408" height="3.36122449" rx="0.5"></rect>
                            <circle id="Oval" fill="#FC404D" cx="7.12653061" cy="34.4571429" r="3.21428571"></circle>
                            <path d="M5.78687395,34.0026635 L9.27707803,34.0026635 C9.33782936,34.0026635 9.38707803,34.0519121 9.38707803,34.1126635 L9.38707803,34.7926635 C9.38707803,34.8534148 9.33782936,34.9026635 9.27707803,34.9026635 L5.78687395,34.9026635 C5.72612263,34.9026635 5.67687395,34.8534148 5.67687395,34.7926635 L5.67687395,34.1126635 C5.67687395,34.0519121 5.72612263,34.0026635 5.78687395,34.0026635 Z" id="Rectangle" fill="#F0EBE3" transform="translate(7.531976, 34.452663) rotate(128.050000) translate(-7.531976, -34.452663) "></path>
                            <path d="M5.39828004,34.783329 L7.12521882,34.783329 C7.18597014,34.783329 7.23521882,34.8325777 7.23521882,34.893329 L7.23521882,35.573329 C7.23521882,35.6340803 7.18597014,35.683329 7.12521882,35.683329 L5.39828004,35.683329 C5.33752872,35.683329 5.28828004,35.6340803 5.28828004,35.573329 L5.28828004,34.893329 C5.28828004,34.8325777 5.33752872,34.783329 5.39828004,34.783329 Z" id="Rectangle" fill="#F0EBE3" transform="translate(6.261749, 35.233329) rotate(38.050000) translate(-6.261749, -35.233329) "></path>
                            <rect id="Rectangle" fill="#FEB3B8" x="13.1142857" y="32.8040816" width="34.4020408" height="3.36122449" rx="0.5"></rect>
                        </g>
                    </g>
                </g>
            </g>
        </g>
    </g>
</svg>