<svg width="75" height="40" viewBox="0 0 75 40" fill="none" xmlns="http://www.w3.org/2000/svg">
<path d="M44.3242 25.2863L33.9768 38.512C33.724 38.8349 33.9487 39.3263 34.3699 39.3263H41.797C42.3025 39.3263 42.7658 39.1017 43.0747 38.6945L48.9434 31.1972L54.8121 38.6945C55.121 39.0876 55.5983 39.3263 56.0897 39.3263H63.5169C63.9381 39.3263 64.1627 38.849 63.91 38.512L53.5625 25.2723L64.0223 11.8922C64.275 11.5693 64.0504 11.0779 63.6292 11.0779H56.202C55.6966 11.0779 55.2333 11.3025 54.9244 11.7097L48.9434 19.3615L44.3242 25.2863Z" fill="#F0EBE3"/>
<path d="M46.5426 16.469C46.6128 16.3848 46.6128 16.2444 46.5426 16.1601L42.9624 11.6814C42.6535 11.2882 42.1761 11.0496 41.6847 11.0496H34.2576C33.8364 11.0496 33.6117 11.5269 33.8645 11.8639L41.8532 21.9867C41.9515 22.1131 42.148 22.1131 42.2463 21.9867L46.5426 16.469Z" fill="#F0EBE3"/>
<path d="M74.0608 7.39907C74.482 7.39907 74.819 7.06211 74.819 6.64091V0.505439C74.819 0.22464 74.5944 0 74.3136 0H72.699C72.5024 0 72.3199 0.0982798 72.2076 0.26676L67.4621 6.31799C67.2374 6.65495 67.2514 7.39907 67.9394 7.39907H74.0608Z" fill="#F0EBE3"/>
<path d="M74.819 11.8077V38.5679C74.819 38.9891 74.482 39.3261 74.0608 39.3261H68.136C67.7148 39.3261 67.3778 38.9891 67.3778 38.5679V11.8077C67.3778 11.3865 67.7148 11.0496 68.136 11.0496H74.0608C74.482 11.0496 74.819 11.3865 74.819 11.8077Z" fill="#F0EBE3"/>
<path d="M23.0536 13.4082V11.8358C23.0536 11.4146 23.3906 11.0776 23.8118 11.0776H29.7226C30.1438 11.0776 30.4808 11.4146 30.4808 11.8358V38.5819C30.4808 39.0031 30.1438 39.3401 29.7226 39.3401H23.8118C23.3906 39.3401 23.0536 39.0031 23.0536 38.5819V37.2622C20.709 39.5507 17.5359 40 14.0961 40C5.98103 40 0 33.3169 0 25.2159C0 17.1148 5.98103 10.4177 14.1102 10.4177C17.55 10.4177 20.709 11.1197 23.0536 13.4082ZM23.0536 28.8663V21.5514C21.762 18.8136 18.8978 17.0025 15.5703 17.0446C11.0775 17.1008 7.41311 20.9477 7.52543 25.4265C7.63775 29.9193 11.1477 33.3591 15.6827 33.3591C18.968 33.3731 21.776 31.576 23.0536 28.8663Z" fill="#F0EBE3"/>
</svg>
