<svg xmlns="http://www.w3.org/2000/svg" viewBox="0 0 900.87 550.59"><defs><style>.cls-1{fill:#f2ebe7;}</style></defs><g id="Layer_2" data-name="Layer 2"><g id="New_logo" data-name="New logo"><path class="cls-1" d="M200.8,116.82V103a6.55,6.55,0,0,1,6.55-6.55h51.54a6.55,6.55,0,0,1,6.55,6.55V335.94a6.55,6.55,0,0,1-6.55,6.55H207.35a6.55,6.55,0,0,1-6.55-6.55V324.5c-20.44,20-48,23.86-77.94,23.86C52,348.36,0,290.14,0,219.56S52,90.77,122.86,90.77C152.8,90.77,180.36,96.85,200.8,116.82Zm0,134.59V187.72c-11.3-23.8-36.21-39.57-65.15-39.2-39.08.49-71,34-70,73s31.54,69.05,71,69.05C165.16,290.62,189.63,274.93,200.8,251.41Z"/><path class="cls-1" d="M385.93,220.14,295.86,335.38a4.37,4.37,0,0,0,3.44,7.06H364A14.21,14.21,0,0,0,375.16,337l51.06-65.34L477.32,337a14.19,14.19,0,0,0,11.18,5.45h64.67a4.37,4.37,0,0,0,3.44-7.06L466.49,220.14l91.1-116.56a4.37,4.37,0,0,0-3.44-7.06H489.47A14.18,14.18,0,0,0,478.29,102L426.2,168.62Z"/><path class="cls-1" d="M405.31,143.42a2.18,2.18,0,0,0,0-2.7l-31.22-38.95a14.19,14.19,0,0,0-11.18-5.45H298.22a4.37,4.37,0,0,0-3.44,7.06l69.59,88.14a2.18,2.18,0,0,0,3.44,0Z"/><path class="cls-1" d="M644.89,64.37a6.55,6.55,0,0,0,6.55-6.55V4.37A4.37,4.37,0,0,0,647.08,0H633a5.2,5.2,0,0,0-4.32,2.3L587.5,55c-2,2.9-1.8,9.42,4.19,9.42Z"/><rect class="cls-1" x="586.9" y="96.27" width="64.67" height="246.17" rx="6.55"/><path class="cls-1" d="M12.13,459a3.29,3.29,0,0,1-3.63-3.62v-6.62a3.29,3.29,0,0,1,3.63-3.62H61.7a3.28,3.28,0,0,1,3.62,3.62v6.62A3.28,3.28,0,0,1,61.7,459H45v61.74a3.28,3.28,0,0,1-3.62,3.62H32.5a3.28,3.28,0,0,1-3.62-3.62V459Z"/><path class="cls-1" d="M82.35,493.27v27.44a3.28,3.28,0,0,1-3.62,3.62H70.41a3.28,3.28,0,0,1-3.62-3.62V469.33a3.28,3.28,0,0,1,3.62-3.62h8.32a3.28,3.28,0,0,1,3.62,3.62v3.56c3.74-5,8.94-8.54,15.68-8.54a11.07,11.07,0,0,1,2.32.22c2.09.4,2.94,2.1,2.77,4.19l-.51,6.57c-.22,2.43-1.7,3.34-4.18,2.94a18.75,18.75,0,0,0-2.38-.17C88.58,478.1,82.35,484.16,82.35,493.27Z"/><path class="cls-1" d="M133.93,464.35a25.54,25.54,0,0,1,19.53,8.37v-3.39a3.27,3.27,0,0,1,3.62-3.62h8.14a3.29,3.29,0,0,1,3.63,3.62v51.38a3.29,3.29,0,0,1-3.63,3.62h-8.14a3.27,3.27,0,0,1-3.62-3.62v-3.39a25.54,25.54,0,0,1-19.53,8.37c-16.35,0-28.29-13.52-28.29-30.67S117.58,464.35,133.93,464.35Zm3.34,47.59c9,0,16.19-7.35,16.19-16.92s-7.14-16.92-16.19-16.92-16,7.41-16,16.92S128.27,511.94,137.27,511.94Z"/><path class="cls-1" d="M206.5,464.35A25.54,25.54,0,0,1,226,472.72V445.34a3.29,3.29,0,0,1,3.62-3.63h8.14a3.29,3.29,0,0,1,3.63,3.63v75.37a3.29,3.29,0,0,1-3.63,3.62h-8.14a3.28,3.28,0,0,1-3.62-3.62v-3.39a25.54,25.54,0,0,1-19.53,8.37c-16.35,0-28.29-13.52-28.29-30.67S190.15,464.35,206.5,464.35Zm3.34,47.59c9.06,0,16.19-7.35,16.19-16.92s-7.13-16.92-16.19-16.92-16,7.41-16,16.92S200.84,511.94,209.84,511.94Z"/><path class="cls-1" d="M283.85,513.3a25.58,25.58,0,0,0,16.64-5.6c1.81-1.42,3.56-1.36,5.15.22l2.77,2.78c1.64,1.64,1.75,3.51.11,5.15a34.19,34.19,0,0,1-24.61,9.84c-20,0-33.34-13.52-33.34-30.67s13.7-30.67,31.87-30.67c17.94,0,30.72,13.3,30.72,29.65,0,.74-.05,1.59-.11,2.38-.23,2.21-1.7,3.28-3.9,3.28H266.31C267.67,507.81,274.46,513.3,283.85,513.3ZM266.7,488.57h30.45c-1.7-7-7.24-11.83-14.83-11.83A16.11,16.11,0,0,0,266.7,488.57Z"/><path class="cls-1" d="M362.63,546.4l8.65-22.07-20-54.43c-.91-2.5.23-4.19,2.88-4.19h8.66a3.92,3.92,0,0,1,4.08,2.94l12.05,36,12.22-36a3.92,3.92,0,0,1,4.13-2.94H404c2.66,0,3.79,1.64,2.89,4.19L378.3,547.7a4,4,0,0,1-4.13,2.89h-8.66C362.8,550.59,361.66,549,362.63,546.4Z"/><path class="cls-1" d="M441.32,464.35c18.67,0,32.54,13.52,32.54,30.67S460,525.69,441.32,525.69,408.78,512.17,408.78,495,422.7,464.35,441.32,464.35Zm0,47.59A16.92,16.92,0,1,0,424.4,495,16.66,16.66,0,0,0,441.32,511.94Z"/><path class="cls-1" d="M482.17,502V469.33a3.28,3.28,0,0,1,3.62-3.62h8.32a3.28,3.28,0,0,1,3.62,3.62v31a11.38,11.38,0,0,0,11.1,11.6c7.35,0,13.29-5.77,13.29-15V469.33a3.28,3.28,0,0,1,3.62-3.62h8.32a3.27,3.27,0,0,1,3.62,3.62v51.38a3.27,3.27,0,0,1-3.62,3.62h-8.32a3.28,3.28,0,0,1-3.62-3.62v-2.88a21.52,21.52,0,0,1-16.69,7.86C491.68,525.69,482.17,516.18,482.17,502Z"/><path class="cls-1" d="M566.13,493.27v27.44a3.28,3.28,0,0,1-3.62,3.62h-8.32a3.28,3.28,0,0,1-3.62-3.62V469.33a3.28,3.28,0,0,1,3.62-3.62h8.32a3.28,3.28,0,0,1,3.62,3.62v3.56c3.73-5,8.94-8.54,15.67-8.54a10.94,10.94,0,0,1,2.32.22c2.1.4,3,2.1,2.78,4.19l-.51,6.57c-.23,2.43-1.7,3.34-4.19,2.94a18.62,18.62,0,0,0-2.38-.17C572.35,478.1,566.13,484.16,566.13,493.27Z"/><path class="cls-1" d="M658.54,513.3a25.58,25.58,0,0,0,16.64-5.6c1.81-1.42,3.56-1.36,5.15.22l2.77,2.78c1.64,1.64,1.76,3.51.11,5.15a34.19,34.19,0,0,1-24.61,9.84c-20,0-33.34-13.52-33.34-30.67s13.7-30.67,31.87-30.67c17.93,0,30.72,13.3,30.72,29.65,0,.74-.05,1.59-.11,2.38-.23,2.21-1.7,3.28-3.91,3.28H641C642.36,507.81,649.15,513.3,658.54,513.3ZM641.4,488.57h30.44c-1.7-7-7.24-11.83-14.83-11.83A16.09,16.09,0,0,0,641.4,488.57Z"/><path class="cls-1" d="M721.65,464.35a25.54,25.54,0,0,1,19.53,8.37V445.34a3.29,3.29,0,0,1,3.62-3.63H753a3.29,3.29,0,0,1,3.62,3.63v75.37a3.28,3.28,0,0,1-3.62,3.62H744.8a3.28,3.28,0,0,1-3.62-3.62v-3.39a25.54,25.54,0,0,1-19.53,8.37c-16.35,0-28.29-13.52-28.29-30.67S705.3,464.35,721.65,464.35ZM725,511.94c9.06,0,16.19-7.35,16.19-16.92S734.05,478.1,725,478.1s-16,7.41-16,16.92S716,511.94,725,511.94Z"/><path class="cls-1" d="M794.21,464.35a25.5,25.5,0,0,1,19.52,8.37v-3.39a3.29,3.29,0,0,1,3.63-3.62h8.14a3.29,3.29,0,0,1,3.63,3.62v51.55c0,17.6-11.15,29.71-31.19,29.71-9.5,0-17.42-3.34-24.44-9.9-1.64-1.59-1.64-3.4-.17-5.15l2.72-3.17c1.52-1.81,3.22-1.81,5.09-.4a26.51,26.51,0,0,0,16.13,5.32c10,0,16.46-5.71,16.46-15.39v-4.58a25.5,25.5,0,0,1-19.52,8.37c-16.35,0-28.29-13.52-28.29-30.67S777.86,464.35,794.21,464.35Zm3.34,47.59c9.05,0,16.18-7.35,16.18-16.92s-7.13-16.92-16.18-16.92-16,7.41-16,16.92S788.55,511.94,797.55,511.94Z"/><path class="cls-1" d="M871.56,513.3a25.58,25.58,0,0,0,16.64-5.6c1.81-1.42,3.56-1.36,5.15.22l2.77,2.78c1.64,1.64,1.75,3.51.11,5.15a34.19,34.19,0,0,1-24.61,9.84c-20,0-33.33-13.52-33.33-30.67s13.69-30.67,31.86-30.67c17.94,0,30.72,13.3,30.72,29.65,0,.74,0,1.59-.11,2.38-.22,2.21-1.7,3.28-3.9,3.28H854C855.38,507.81,862.17,513.3,871.56,513.3Zm-17.15-24.73h30.45c-1.7-7-7.24-11.83-14.83-11.83A16.11,16.11,0,0,0,854.41,488.57Z"/></g></g></svg>