<svg xmlns="http://www.w3.org/2000/svg" width="80" height="43" viewBox="0 0 80 43">
    <g fill="#FC404D">
        <path d="M24.677 14.407v-1.7c0-.445.36-.806.803-.806h6.315c.213 0 .417.085.567.236.15.152.235.357.234.57v28.684c0 .214-.084.419-.234.57-.15.151-.355.236-.567.235H25.48c-.213 0-.417-.084-.568-.235-.15-.151-.235-.356-.235-.57v-1.409c-2.505 2.45-5.883 2.93-9.546 2.93-8.677 0-15.055-7.167-15.055-15.856S6.442 11.2 15.131 11.2c3.663 0 7.041.75 9.546 3.207zm0 16.569v-7.84c-1.384-2.93-4.437-4.871-7.983-4.826-4.794.06-8.706 4.183-8.583 8.993.123 4.81 3.865 8.501 8.704 8.501 3.494 0 6.493-1.931 7.862-4.828zM47.362 27.127L36.324 41.314c-.127.162-.15.382-.06.567.09.185.277.302.482.302h7.925c.536 0 1.041-.248 1.37-.672l6.259-8.043 6.26 8.043c.33.424.835.672 1.37.672h7.925c.204 0 .392-.117.481-.302.09-.185.067-.405-.059-.567L57.228 27.127l11.165-14.35c.126-.162.149-.382.059-.567-.09-.185-.277-.302-.482-.301h-7.925c-.535 0-1.041.247-1.37.67l-6.383 8.205-4.93 6.343zM49.738 17.682c.076-.098.076-.235 0-.332l-3.826-4.796c-.332-.421-.838-.666-1.373-.664h-7.925c-.204 0-.39.118-.48.303-.09.184-.067.404.06.566l8.525 10.852c.051.065.129.102.211.102.083 0 .16-.037.212-.102l4.596-5.929zM79.101 7.95c.213 0 .417-.085.568-.236.15-.152.235-.357.235-.57V.562c0-.297-.24-.537-.535-.537h-1.727c-.213 0-.411.106-.53.283L72.06 6.802c-.24.356-.22 1.159.514 1.159l6.527-.01z"/>
        <rect width="7.925" height="30.306" x="71.988" y="11.877" rx="2.007"/>
    </g>
</svg>
