<?xml version="1.0" encoding="UTF-8"?>
<svg width="90px" height="90px" viewBox="0 0 90 90" version="1.1" xmlns="http://www.w3.org/2000/svg" xmlns:xlink="http://www.w3.org/1999/xlink">
    <!-- Generator: Sketch 63.1 (92452) - https://sketch.com -->
    <title>Metals</title>
    <desc>Created with Sketch.</desc>
    <defs>
        <rect id="path-1" x="0.009375" y="0" width="90" height="90"></rect>
        <rect id="path-3" x="0.009375" y="0" width="90" height="90"></rect>
        <rect id="path-5" x="0.009375" y="0" width="90" height="90"></rect>
        <rect id="path-7" x="0.009375" y="0" width="90" height="90"></rect>
        <rect id="path-9" x="0.009375" y="0" width="90" height="90"></rect>
        <rect id="path-11" x="0.009375" y="0" width="90" height="90"></rect>
        <rect id="path-13" x="0.009375" y="0" width="90" height="90"></rect>
        <rect id="path-15" x="0.009375" y="0" width="90" height="90"></rect>
        <rect id="path-17" x="0.009375" y="0" width="90" height="90"></rect>
        <rect id="path-19" x="0.009375" y="0" width="90" height="90"></rect>
        <rect id="path-21" x="0.009375" y="0" width="90" height="90"></rect>
        <rect id="path-23" x="0.009375" y="0" width="90" height="90"></rect>
        <rect id="path-25" x="0.009375" y="0" width="90" height="90"></rect>
        <rect id="path-27" x="0.009375" y="0" width="90" height="90"></rect>
        <rect id="path-29" x="0.009375" y="0" width="90" height="90"></rect>
        <rect id="path-31" x="0.009375" y="0" width="90" height="90"></rect>
        <rect id="path-33" x="0.009375" y="0" width="90" height="90"></rect>
    </defs>
    <g id="Page-1" stroke="none" stroke-width="1" fill="none" fill-rule="evenodd">
        <g id="Metals">
            <g id="Group">
                <g id="Clipped">
                    <mask id="mask-2" fill="white">
                        <use xlink:href="#path-1"></use>
                    </mask>
                    <g id="SVGID_67_"></g>
                    <path d="M90.009375,45 C90.009375,69.853125 69.8625,90 45.009375,90 C20.15625,90 0.009375,69.853125 0.009375,45 C0.009375,20.146875 20.15625,0 45.009375,0 C69.8625,0 90.009375,20.146875 90.009375,45" id="Path" fill="#FC404D" fill-rule="nonzero" mask="url(#mask-2)"></path>
                </g>
                <g id="Clipped">
                    <mask id="mask-4" fill="white">
                        <use xlink:href="#path-3"></use>
                    </mask>
                    <g id="SVGID_67_"></g>
                    <path d="M72.729375,9.56625 L56.52,30.305625 L42.675,48.016875 L17.3175,80.458125 C24.95625,86.431875 34.565625,90 45.009375,90 C69.8625,90 90.009375,69.853125 90.009375,45 C90.009375,30.6075 83.244375,17.805 72.729375,9.56625" id="Path" fill="#D11C36" fill-rule="nonzero" mask="url(#mask-4)"></path>
                </g>
            </g>
            <g id="Group">
                <g id="Clipped">
                    <mask id="mask-6" fill="white">
                        <use xlink:href="#path-5"></use>
                    </mask>
                    <g id="SVGID_69_"></g>
                    <path d="M17.22,63.605625 L17.22,62.270625 C17.22,61.75125 17.64,61.333125 18.1575,61.333125 L71.863125,61.333125 C72.380625,61.333125 72.800625,61.75125 72.800625,62.270625 L72.800625,63.605625 C72.800625,64.123125 72.380625,64.543125 71.863125,64.543125 L18.1575,64.543125 C17.64,64.543125 17.22,64.123125 17.22,63.605625" id="Path" fill="#282424" fill-rule="nonzero" mask="url(#mask-6)"></path>
                </g>
                <g id="Clipped">
                    <mask id="mask-8" fill="white">
                        <use xlink:href="#path-7"></use>
                    </mask>
                    <g id="SVGID_69_"></g>
                    <path d="M58.490625,18.088125 L60.5175,19.198125 C60.590625,19.2375 60.590625,19.3425 60.5175,19.38375 L58.490625,20.49375 C58.365,20.563125 58.26,20.668125 58.190625,20.79375 L57.0825,22.81875 C57.043125,22.895625 56.93625,22.895625 56.895,22.81875 L55.785,20.79375 C55.715625,20.668125 55.6125,20.563125 55.486875,20.49375 L53.458125,19.38375 C53.385,19.344375 53.385,19.239375 53.458125,19.198125 L55.486875,18.088125 C55.6125,18.01875 55.715625,17.915625 55.785,17.788125 L56.895,15.76125 C56.934375,15.688125 57.04125,15.688125 57.0825,15.76125 L58.190625,17.788125 C58.26,17.9175 58.365,18.01875 58.490625,18.088125" id="Path" fill="#F0EBE3" fill-rule="nonzero" mask="url(#mask-8)"></path>
                </g>
                <g id="Clipped">
                    <mask id="mask-10" fill="white">
                        <use xlink:href="#path-9"></use>
                    </mask>
                    <g id="SVGID_69_"></g>
                    <path d="M65.86125,22.27125 L67.888125,23.379375 C67.96125,23.41875 67.96125,23.525625 67.888125,23.566875 L65.86125,24.676875 C65.735625,24.74625 65.630625,24.849375 65.56125,24.973125 L64.453125,27 C64.41375,27.076875 64.306875,27.076875 64.265625,27 L63.155625,24.97125 C63.088125,24.8475 62.983125,24.744375 62.8575,24.675 L60.830625,23.565 C60.755625,23.525625 60.755625,23.41875 60.830625,23.3775 L62.8575,22.269375 C62.983125,22.2 63.088125,22.096875 63.155625,21.969375 L64.265625,19.9425 C64.305,19.8675 64.411875,19.8675 64.453125,19.9425 L65.56125,21.969375 C65.630625,22.09875 65.735625,22.201875 65.86125,22.27125" id="Path" fill="#282424" fill-rule="nonzero" mask="url(#mask-10)"></path>
                </g>
                <g id="Clipped">
                    <mask id="mask-12" fill="white">
                        <use xlink:href="#path-11"></use>
                    </mask>
                    <g id="SVGID_69_"></g>
                    <path d="M53.2425,34.23 L36.778125,34.23 C36.500625,34.23 36.3,33.89625 36.369375,33.556875 L38.443125,23.29125 C38.491875,23.056875 38.6625,22.888125 38.85375,22.888125 L51.165,22.888125 C51.358125,22.888125 51.525,23.056875 51.57375,23.29125 L53.649375,33.556875 C53.71875,33.89625 53.518125,34.23 53.2425,34.23" id="Path" fill="#F0EBE3" fill-rule="nonzero" mask="url(#mask-12)"></path>
                </g>
                <g id="Clipped">
                    <mask id="mask-14" fill="white">
                        <use xlink:href="#path-13"></use>
                    </mask>
                    <g id="SVGID_69_"></g>
                    <path d="M27.684375,56.81625 C27.868125,56.7675 28.029375,56.660625 28.141875,56.5125 L34.231875,48.718125 C34.168125,48.523125 34.0275,48.37875 33.855,48.37875 L21.54375,48.37875 C21.350625,48.37875 21.181875,48.54375 21.135,48.781875 L19.0575,59.045625 C19.051875,59.071875 19.059375,59.094375 19.055625,59.120625 L27.684375,56.81625 Z" id="Path" fill="#F0EBE3" fill-rule="nonzero" mask="url(#mask-14)"></path>
                </g>
                <g id="Clipped">
                    <mask id="mask-16" fill="white">
                        <use xlink:href="#path-15"></use>
                    </mask>
                    <g id="SVGID_69_"></g>
                    <path d="M27.684375,56.81625 L19.055625,59.120625 C19.03125,59.43375 19.21125,59.716875 19.468125,59.716875 L35.930625,59.716875 C36.20625,59.716875 36.410625,59.385 36.34125,59.045625 L34.265625,48.781875 C34.26,48.755625 34.239375,48.7425 34.231875,48.718125 L28.141875,56.5125 C28.0275,56.660625 27.86625,56.765625 27.684375,56.81625" id="Path" fill="#FEB3B8" fill-rule="nonzero" mask="url(#mask-16)"></path>
                </g>
                <g id="Clipped">
                    <mask id="mask-18" fill="white">
                        <use xlink:href="#path-17"></use>
                    </mask>
                    <g id="SVGID_69_"></g>
                    <path d="M44.9925,56.81625 C45.17625,56.7675 45.335625,56.660625 45.451875,56.5125 L51.541875,48.718125 C51.47625,48.523125 51.3375,48.37875 51.165,48.37875 L38.85375,48.37875 C38.660625,48.37875 38.49375,48.54375 38.443125,48.781875 L36.3675,59.045625 C36.36375,59.071875 36.3675,59.094375 36.3675,59.1225 L44.9925,56.81625 Z" id="Path" fill="#F0EBE3" fill-rule="nonzero" mask="url(#mask-18)"></path>
                </g>
                <g id="Clipped">
                    <mask id="mask-20" fill="white">
                        <use xlink:href="#path-19"></use>
                    </mask>
                    <g id="SVGID_69_"></g>
                    <path d="M53.649375,59.04375 L51.575625,48.78 C51.57,48.75375 51.549375,48.740625 51.541875,48.718125 L45.451875,56.5125 C45.33375,56.65875 45.17625,56.7675 44.9925,56.814375 L36.365625,59.11875 C36.339375,59.431875 36.52125,59.7168829 36.77625,59.7168829 L53.240625,59.7168829 C53.518125,59.71875 53.71875,59.385 53.649375,59.04375" id="Path" fill="#FEB3B8" fill-rule="nonzero" mask="url(#mask-20)"></path>
                </g>
                <g id="Clipped">
                    <mask id="mask-22" fill="white">
                        <use xlink:href="#path-21"></use>
                    </mask>
                    <g id="SVGID_69_"></g>
                    <path d="M56.16375,48.37875 C55.96875,48.37875 55.801875,48.54375 55.753125,48.781875 L53.6775,59.045625 C53.671875,59.071875 53.679375,59.094375 53.6775,59.120625 L62.304375,56.81625 C62.48625,56.769375 62.6475,56.6625 62.761875,56.514375 L68.851875,48.72 C68.788125,48.523125 68.6475,48.37875 68.476875,48.37875 L56.16375,48.37875 Z" id="Path" fill="#F0EBE3" fill-rule="nonzero" mask="url(#mask-22)"></path>
                </g>
                <g id="Clipped">
                    <mask id="mask-24" fill="white">
                        <use xlink:href="#path-23"></use>
                    </mask>
                    <g id="SVGID_69_"></g>
                    <path d="M62.304375,56.81625 L53.6775,59.120625 C53.649375,59.431875 53.83125,59.715 54.088125,59.715 L70.550625,59.715 C70.82625,59.715 71.02875,59.383125 70.96125,59.04375 L68.885625,48.78 C68.88,48.75375 68.86125,48.740625 68.851875,48.71625 L62.761875,56.510625 C62.645625,56.660625 62.484375,56.765625 62.304375,56.81625" id="Path" fill="#FEB3B8" fill-rule="nonzero" mask="url(#mask-24)"></path>
                </g>
                <g id="Clipped">
                    <mask id="mask-26" fill="white">
                        <use xlink:href="#path-25"></use>
                    </mask>
                    <g id="SVGID_69_"></g>
                    <path d="M53.6475,44.071875 C53.829375,44.023125 53.990625,43.91625 54.106875,43.768125 L60.195,35.97375 C60.13125,35.77875 59.9925,35.6325 59.82,35.6325 L47.50875,35.6325 C47.315625,35.6325 47.14875,35.799375 47.098125,36.0375 L45.0225,46.30125 C45.01875,46.3275 45.024375,46.35 45.0225,46.374375 L53.6475,44.071875 Z" id="Path" fill="#F0EBE3" fill-rule="nonzero" mask="url(#mask-26)"></path>
                </g>
                <g id="Clipped">
                    <mask id="mask-28" fill="white">
                        <use xlink:href="#path-27"></use>
                    </mask>
                    <g id="SVGID_69_"></g>
                    <path d="M53.6475,44.071875 L45.020625,46.374375 C44.9925,46.6875 45.174375,46.9725 45.43125,46.9725 L61.895625,46.9725 C62.169375,46.9725 62.37375,46.640625 62.304375,46.30125 L60.22875,36.0375 C60.223125,36.01125 60.204375,35.998125 60.195,35.97375 L54.106875,43.768125 C53.990625,43.91625 53.829375,44.023125 53.6475,44.071875" id="Path" fill="#FEB3B8" fill-rule="nonzero" mask="url(#mask-28)"></path>
                </g>
                <g id="Clipped">
                    <mask id="mask-30" fill="white">
                        <use xlink:href="#path-29"></use>
                    </mask>
                    <g id="SVGID_69_"></g>
                    <path d="M36.3375,44.071875 C36.52125,44.023125 36.6825,43.91625 36.796875,43.768125 L42.886875,35.97375 C42.82125,35.77875 42.6825,35.6325 42.51,35.6325 L30.200625,35.6325 C30.005625,35.6325 29.83875,35.799375 29.79,36.0375 L27.714375,46.30125 C27.706875,46.3275 27.714375,46.348125 27.710625,46.374375 L36.3375,44.071875 Z" id="Path" fill="#F0EBE3" fill-rule="nonzero" mask="url(#mask-30)"></path>
                </g>
                <g id="Clipped">
                    <mask id="mask-32" fill="white">
                        <use xlink:href="#path-31"></use>
                    </mask>
                    <g id="SVGID_69_"></g>
                    <path d="M36.3375,44.071875 L27.70875,46.374375 C27.6825,46.6875 27.86625,46.9725 28.12125,46.9725 L44.58375,46.9725 C44.86125,46.9725 45.06375,46.640625 44.99625,46.30125 L42.9225,36.0375 C42.915,36.01125 42.894375,35.998125 42.886875,35.97375 L36.796875,43.768125 C36.680625,43.91625 36.52125,44.023125 36.3375,44.071875" id="Path" fill="#FEB3B8" fill-rule="nonzero" mask="url(#mask-32)"></path>
                </g>
                <g id="Clipped">
                    <mask id="mask-34" fill="white">
                        <use xlink:href="#path-33"></use>
                    </mask>
                    <g id="SVGID_69_"></g>
                    <path d="M44.9925,31.3275 L36.365625,33.63 C36.3375,33.945 36.519375,34.228125 36.77625,34.228125 L53.240625,34.228125 C53.51625,34.228125 53.71875,33.89625 53.649375,33.556875 L51.575625,23.293125 C51.57,23.266875 51.549375,23.25375 51.541875,23.229375 L45.451875,31.02375 C45.335625,31.171875 45.17625,31.27875 44.9925,31.3275" id="Path" fill="#FEB3B8" fill-rule="nonzero" mask="url(#mask-34)"></path>
                </g>
            </g>
        </g>
    </g>
</svg>