<?xml version="1.0" encoding="UTF-8"?>
<svg width="90px" height="90px" viewBox="0 0 90 90" version="1.1" xmlns="http://www.w3.org/2000/svg" xmlns:xlink="http://www.w3.org/1999/xlink">
    <!-- Generator: Sketch 63.1 (92452) - https://sketch.com -->
    <title>Analysis</title>
    <desc>Created with Sketch.</desc>
    <defs>
        <rect id="path-1" x="0" y="0" width="89.998125" height="90"></rect>
        <rect id="path-3" x="0" y="0" width="89.998125" height="90"></rect>
        <circle id="path-5" cx="24.375" cy="24.375" r="23.4375"></circle>
        <circle id="path-7" cx="24.375" cy="24.375" r="23.4375"></circle>
    </defs>
    <g id="Page-1" stroke="none" stroke-width="1" fill="none" fill-rule="evenodd">
        <g id="Analysis">
            <g id="Group">
                <g id="Clipped">
                    <mask id="mask-2" fill="white">
                        <use xlink:href="#path-1"></use>
                    </mask>
                    <g id="SVGID_111_"></g>
                    <path d="M89.998125,45 C89.998125,69.853125 69.853125,90 45,90 C20.146875,90 0,69.853125 0,45 C0,20.146875 20.146875,0 45,0 C69.853125,0 89.998125,20.146875 89.998125,45" id="Path" fill="#FC404D" fill-rule="nonzero" mask="url(#mask-2)"></path>
                </g>
                <g id="Clipped">
                    <mask id="mask-4" fill="white">
                        <use xlink:href="#path-3"></use>
                    </mask>
                    <g id="SVGID_111_"></g>
                    <path d="M72.72,9.56625 L56.5125,30.30375 L42.6675,48.015 L17.31,80.458125 C24.946875,86.431875 34.55625,90 45,90 C69.853125,90 89.998125,69.853125 89.998125,45 C89.998125,30.6075 83.235,17.805 72.72,9.56625" id="Path" fill="#D11C36" fill-rule="nonzero" mask="url(#mask-4)"></path>
                </g>
            </g>
            <g id="Group" transform="translate(18.750000, 18.750000)">
                <g fill="#F0EBE3" fill-rule="nonzero">
                    <path d="M26.25,51.09375 C12.55125,51.09375 1.40625,39.94875 1.40625,26.25 C1.40625,12.55125 12.55125,1.40625 26.25,1.40625 C39.94875,1.40625 51.09375,12.55125 51.09375,26.25 C51.09375,39.94875 39.94875,51.09375 26.25,51.09375 Z" id="Path"></path>
                    <path d="M26.25,2.8125 C39.193125,2.8125 49.6875,13.306875 49.6875,26.25 C49.6875,39.193125 39.193125,49.6875 26.25,49.6875 C13.306875,49.6875 2.8125,39.193125 2.8125,26.25 C2.8125,13.306875 13.306875,2.8125 26.25,2.8125 M26.25,0 C11.775,0 0,11.775 0,26.25 C0,40.725 11.775,52.5 26.25,52.5 C40.725,52.5 52.5,40.725 52.5,26.25 C52.5,11.775 40.725,0 26.25,0 L26.25,0 Z" id="Shape"></path>
                </g>
                <g id="Clipped" transform="translate(1.875000, 1.875000)">
                    <mask id="mask-6" fill="white">
                        <use xlink:href="#path-5"></use>
                    </mask>
                    <g id="SVGID_113_"></g>
                    <polygon id="Path" fill="#FEB3B8" fill-rule="nonzero" mask="url(#mask-6)" points="24.375 -14.22 24.375 24.375 -7.96875 35.4675 34.21875 61.7175 61.40625 24.375 47.8125 -8.12625"></polygon>
                </g>
                <g id="Clipped" transform="translate(1.875000, 1.875000)">
                    <mask id="mask-8" fill="white">
                        <use xlink:href="#path-7"></use>
                    </mask>
                    <g id="SVGID_115_"></g>
                    <rect id="Rectangle" fill="#FC404D" fill-rule="nonzero" mask="url(#mask-8)" x="24.375" y="-12.81375" width="30" height="37.18875"></rect>
                </g>
            </g>
        </g>
    </g>
</svg>