<?xml version="1.0" encoding="UTF-8"?>
<svg width="90px" height="90px" viewBox="0 0 90 90" version="1.1" xmlns="http://www.w3.org/2000/svg" xmlns:xlink="http://www.w3.org/1999/xlink">
    <!-- Generator: Sketch 63.1 (92452) - https://sketch.com -->
    <title>BACKGROUND</title>
    <desc>Created with Sketch.</desc>
    <g id="Page-1" stroke="none" stroke-width="1" fill="none" fill-rule="evenodd">
        <g id="BACKGROUND" fill-rule="nonzero">
            <circle id="Oval" fill="#FC404D" cx="44.5269017" cy="44.5269017" r="44.5269017"></circle>
            <path d="M71.9480519,9.4619666 L55.9183673,29.9814471 L42.2263451,47.5139147 L17.1243043,79.6103896 C29.6189881,89.843541 46.6751858,92.508778 61.6961052,86.5752721 C76.7170246,80.6417662 87.3474414,67.0398691 89.4758502,51.0303598 C91.604259,35.0208505 84.8969331,19.1139606 71.9480519,9.4619666 Z" id="Path" fill="#D11C36"></path>
            <g id="trophy" transform="translate(19.000000, 19.000000)">
                <path d="M50.4765625,3.75308039 L43.8035889,3.75308039 C43.8277893,3.0139695 43.8412781,2.27049464 43.8412781,1.52344912 C43.8412781,0.681981547 43.1589051,0 42.3178406,0 L9.6821594,0 C8.84109495,0 8.1587219,0.681981547 8.1587219,1.52344912 C8.1587219,2.27049464 8.17221072,3.0139695 8.19641113,3.75308039 L1.5234375,3.75308039 C0.681976344,3.75308039 0,4.43506194 0,5.27652951 C0,12.1026924 1.78408811,18.5428356 5.02337652,23.4111283 C8.22537229,28.2238786 12.4906006,30.9843367 17.0982055,31.252924 C18.1427918,32.3895598 19.2468872,33.3163247 20.3970031,34.0233004 L20.3970031,40.7943175 L17.8412781,40.7943175 C14.7515564,40.7943175 12.2382812,43.3080086 12.2382812,46.3973571 L12.2382812,48.9531018 L12.1299744,48.9531018 C11.2885132,48.9531018 10.6065369,49.63548 10.6065369,50.4765509 C10.6065369,51.3180185 11.2885132,52 12.1299744,52 L39.8700256,52 C40.7114868,52 41.3934631,51.3180185 41.3934631,50.4765509 C41.3934631,49.63548 40.7114868,48.9531018 39.8700256,48.9531018 L39.7617188,48.9531018 L39.7617188,46.3973571 C39.7617188,43.3080086 37.2484436,40.7943175 34.1587219,40.7943175 L31.6029969,40.7943175 L31.6029969,34.0233004 C32.7531128,33.3167214 33.857605,32.3895598 34.9021912,31.252924 C39.5093994,30.9843367 43.7746277,28.2238786 46.9770203,23.4111283 C50.2163086,18.5428356 52,12.1026924 52,5.27652951 C52,4.43506194 51.3180237,3.75308039 50.4765625,3.75308039 Z M7.56005859,21.7234323 C4.88809202,17.7081124 3.3182373,12.4561802 3.07900998,6.79997863 L8.36660764,6.79997863 C8.91607661,13.7530956 10.5482178,20.1801466 13.0991821,25.2817175 C13.5054321,26.0942237 13.9303283,26.8618993 14.3710938,27.5847441 C11.8371887,26.6278277 9.49212652,24.6275072 7.56005859,21.7234323 Z M44.4399414,21.7234323 C42.5078735,24.6275072 40.1628113,26.6278277 37.6289062,27.5847441 C38.0696717,26.8618993 38.4945679,26.0942237 38.9008179,25.2817175 C41.4517822,20.1801466 43.0835266,13.7530956 43.6333924,6.79997863 L48.92099,6.79997863 C48.6817627,12.4561802 47.111908,17.7081124 44.4399414,21.7234323 Z" id="Shape" fill="#F0EBE3"></path>
                <path d="M28.5561219,40.7943175 L23.4438781,40.7943175 L23.4438781,35.3471935 C24.2813721,35.5677762 25.1347351,35.6824316 26,35.6824316 C26.8652649,35.6824316 27.7186279,35.5677762 28.5561219,35.3471935 L28.5561219,40.7943175 Z" id="Path" fill="#D11C36"></path>
                <path d="M36.7148438,46.3973571 L36.7148438,48.9534985 L15.2851562,48.9534985 L15.2851562,46.3973571 C15.2851562,44.9881667 16.4317016,43.8412158 17.8412781,43.8412158 L34.1587219,43.8412158 C35.5682984,43.8412158 36.7148438,44.9881667 36.7148438,46.3973571 Z" id="Path" fill="#FEB3B8"></path>
                <path d="M29.4995422,31.7226541 C29.4309082,31.7508221 29.3650512,31.7849409 29.3019715,31.8226305 C28.2252502,32.358218 27.1187744,32.6355334 26,32.6355334 C24.8816223,32.6355334 23.7755432,32.358218 22.6992188,31.823424 C22.6353455,31.7849409 22.5690918,31.7508221 22.4996643,31.7218607 C21.3051148,31.0902641 20.1494446,30.1365214 19.0564575,28.8832465 C18.9989319,28.801123 18.9342652,28.7253473 18.8624572,28.6563161 C17.7774047,27.3681287 16.7566223,25.783583 15.8243103,23.9189446 C13.0245972,18.3198724 11.4075317,10.9577252 11.2234497,3.04689824 L40.7765503,3.04689824 C40.5920715,10.9577252 38.9750061,18.3202691 36.1756897,23.9189446 C35.2433777,25.783583 34.2225953,27.3681287 33.1379395,28.6563161 C33.0657348,28.7253473 33.0002746,28.8015197 32.9431457,28.8836432 C31.8501586,30.1373149 30.6940918,31.0906608 29.4995422,31.7226541 Z" id="Path" fill="#FEB3B8"></path>
            </g>
        </g>
    </g>
</svg>