<?xml version="1.0" encoding="UTF-8"?>
<svg width="90px" height="90px" viewBox="0 0 90 90" version="1.1" xmlns="http://www.w3.org/2000/svg" xmlns:xlink="http://www.w3.org/1999/xlink">
    <!-- Generator: Sketch 63.1 (92452) - https://sketch.com -->
    <title>N3</title>
    <desc>Created with Sketch.</desc>
    <defs>
        <path d="M22.843125,32.18625 C22.843125,28.018125 19.528125,24.571875 15.03375,24.571875 C14.28,24.571875 13.5225,24.703125 12.834375,24.931875 L9.290625,20.469375 L19.134375,8.949375 L3.08625,8.949375 L3.08625,1.00875 L29.865,1.00875 L29.865,8.885625 L20.840625,18.99375 C27.89625,20.40375 32.09625,26.146875 32.09625,33.170625 C32.09625,40.58625 25.5675,47.74125 15.425625,47.74125 C9.71625,47.74125 4.760625,44.7225 1.31625,39.178125 L6.0075,34.978125 C8.600625,38.259375 11.71875,39.834375 15.031875,39.834375 C19.528125,39.8325 22.843125,36.38625 22.843125,32.18625 Z" id="path-1"></path>
    </defs>
    <g id="Page-1" stroke="none" stroke-width="1" fill="none" fill-rule="evenodd">
        <g id="N3">
            <path d="M90,45 C90,69.853125 69.853125,90 45,90 C20.146875,90 0,69.853125 0,45 C0,20.146875 20.146875,0 45,0 C69.853125,0 90,20.146875 90,45" id="Path" fill="#FC404D" fill-rule="nonzero"></path>
            <path d="M72.72,9.56625 L56.5125,30.30375 L42.6675,48.015 L17.30625,80.458125 C24.946875,86.431875 34.55625,90 45,90 C69.853125,90 90,69.853125 90,45 C90,30.6075 83.236875,17.805 72.72,9.56625" id="Path" fill="#D11C36" fill-rule="nonzero"></path>
            <rect id="Rectangle" x="0" y="0" width="90" height="90"></rect>
            <path d="M50.968125,52.81125 C50.968125,48.643125 47.653125,45.196875 43.15875,45.196875 C42.405,45.196875 41.6475,45.328125 40.959375,45.556875 L37.415625,41.094375 L47.259375,29.574375 L31.21125,29.574375 L31.21125,21.63375 L57.99,21.63375 L57.99,29.510625 L48.965625,39.61875 C56.02125,41.02875 60.22125,46.771875 60.22125,53.795625 C60.22125,61.21125 53.6925,68.36625 43.550625,68.36625 C37.84125,68.36625 32.885625,65.3475 29.44125,59.803125 L34.1325,55.603125 C36.725625,58.884375 39.84375,60.459375 43.156875,60.459375 C47.653125,60.4575 50.968125,57.01125 50.968125,52.81125 Z" id="Path" fill="#F0EBE3" fill-rule="nonzero"></path>
            <g id="Clipped" transform="translate(28.125000, 20.625000)">
                <mask id="mask-2" fill="white">
                    <use xlink:href="#path-1"></use>
                </mask>
                <g id="SVGID_25_"></g>
                <path d="M44.595,-11.05875 L28.3875,9.67875 L14.5425,27.39 L-10.81875,59.833125 C-3.178125,65.806875 6.43125,69.375 16.875,69.375 C41.728125,69.375 61.875,49.228125 61.875,24.375 C61.875,9.9825 55.111875,-2.82 44.595,-11.05875" id="Path" fill="#FEB3B8" fill-rule="nonzero" mask="url(#mask-2)"></path>
            </g>
        </g>
    </g>
</svg>