<?xml version="1.0" encoding="UTF-8"?>
<svg width="90px" height="90px" viewBox="0 0 90 90" version="1.1" xmlns="http://www.w3.org/2000/svg" xmlns:xlink="http://www.w3.org/1999/xlink">
    <!-- Generator: Sketch 63.1 (92452) - https://sketch.com -->
    <title>N2</title>
    <desc>Created with Sketch.</desc>
    <defs>
        <rect id="path-1" x="0" y="0" width="90" height="90"></rect>
        <rect id="path-3" x="0" y="0" width="90" height="90"></rect>
        <rect id="path-5" x="0" y="0" width="90" height="90"></rect>
    </defs>
    <g id="Page-1" stroke="none" stroke-width="1" fill="none" fill-rule="evenodd">
        <g id="N2">
            <g id="Clipped">
                <g id="Path-Clipped">
                    <mask id="mask-2" fill="white">
                        <use xlink:href="#path-1"></use>
                    </mask>
                    <g id="path-1"></g>
                    <path d="M90,45 C90,69.853125 69.853125,90 45,90 C20.146875,90 0,69.853125 0,45 C0,20.146875 20.146875,0 45,0 C69.853125,0 90,20.146875 90,45" id="Path" fill="#FC404D" fill-rule="nonzero" mask="url(#mask-2)"></path>
                </g>
            </g>
            <g id="Clipped">
                <g id="Path-Clipped">
                    <mask id="mask-4" fill="white">
                        <use xlink:href="#path-3"></use>
                    </mask>
                    <g id="path-3"></g>
                    <path d="M72.72,9.56625 L56.5125,30.30375 L42.6675,48.015 L17.30625,80.458125 C24.946875,86.431875 34.55625,90 45,90 C69.853125,90 90,69.853125 90,45 C90,30.6075 83.236875,17.805 72.72,9.56625" id="Path" fill="#D11C36" fill-rule="nonzero" mask="url(#mask-4)"></path>
                </g>
            </g>
            <g id="Clipped">
                <g id="Path-Clipped">
                    <mask id="mask-6" fill="white">
                        <use xlink:href="#path-5"></use>
                    </mask>
                    <g id="path-5"></g>
                    <path d="M42.40875,60.42375 L58.98,60.42375 L58.98,68.364375 L30.560625,68.364375 L30.560625,60.915 L45.883125,44.2125 C49.036875,40.8 50.281875,38.435625 50.281875,35.61375 C50.281875,32.135625 47.754375,29.64 44.244375,29.64 C40.635,29.64 38.075625,32.29875 37.7475,35.874375 L29.0175,35.874375 C29.41125,27.376875 35.71125,21.631875 44.34375,21.631875 C52.974375,21.631875 59.4375,26.915625 59.4375,35.053125 C59.4375,40.27125 57.37125,44.145 53.04,48.83625 L42.40875,60.42375 Z" id="Path" fill="#F0EBE3" fill-rule="nonzero" mask="url(#mask-6)"></path>
                </g>
                <path d="M59.4375,35.053125 C59.4375,40.27125 57.37125,44.145 53.04,48.83625 L42.40875,60.42375 L58.98,60.42375 L58.98,68.364375 L30.560625,68.364375 L30.56025,63.5023028 L42.6675,48.015 L44.23925,46.0033028 L45.883125,44.2125 C47.5813575,42.3749357 48.7261268,40.8412868 49.4210695,39.3764677 L56.5125,30.30375 L57.8346308,28.6123028 C58.865512,30.4640348 59.4375,32.6323011 59.4375,35.053125 Z" id="Combined-Shape" fill="#FEB3B8" fill-rule="nonzero"></path>
            </g>
        </g>
    </g>
</svg>