<?xml version="1.0" encoding="utf-8"?>
<!-- Generator: Adobe Illustrator 24.0.1, SVG Export Plug-In . SVG Version: 6.00 Build 0)  -->
<svg version="1.1" id="Layer_1" xmlns="http://www.w3.org/2000/svg" xmlns:xlink="http://www.w3.org/1999/xlink" x="0px" y="0px"
	 viewBox="0 0 274.1 193.8" style="enable-background:new 0 0 274.1 193.8;" xml:space="preserve">
<style type="text/css">
	.st0{fill:#CFDDE6;}
	.st1{fill:#14A4B9;}
	.st2{fill:#677C8C;}
	.st3{fill:none;stroke:#677C8C;stroke-width:1.7;stroke-miterlimit:10;}
	.st4{fill:none;stroke:#677C8C;stroke-width:1.7;stroke-miterlimit:10;stroke-dasharray:5.4468,5.4468;}
	.st5{fill:#16A5BA;}
</style>
<g>
	<g id="XMLID_20244_">
		<rect id="XMLID_20263_" x="62.7" y="107.6" class="st0" width="3.6" height="46.6"/>
		<rect id="XMLID_20262_" x="57.3" y="121.3" class="st0" width="3.6" height="33"/>
		<rect id="XMLID_20254_" x="51.9" y="114.2" class="st0" width="3.6" height="40"/>
		<rect id="XMLID_20253_" x="46.6" y="122.6" class="st0" width="3.6" height="31.6"/>
		<rect id="XMLID_20252_" x="41.2" y="111.9" class="st0" width="3.6" height="42.3"/>
		<rect id="XMLID_20251_" x="35.8" y="118.7" class="st0" width="3.6" height="35.5"/>
		<rect id="XMLID_20250_" x="30.4" y="107.6" class="st0" width="3.6" height="46.6"/>
		<rect id="XMLID_20249_" x="25" y="128.1" class="st0" width="3.6" height="26.1"/>
		<rect id="XMLID_20248_" x="19.6" y="137.3" class="st0" width="3.6" height="16.9"/>
		<rect id="XMLID_20247_" x="14.2" y="118.7" class="st0" width="3.6" height="35.5"/>
		<rect id="XMLID_20246_" x="8.8" y="125.3" class="st0" width="3.6" height="28.9"/>
	</g>
	<g id="XMLID_20264_">
		<rect id="XMLID_20275_" x="207.8" y="107.6" class="st0" width="3.6" height="46.6"/>
		<rect id="XMLID_20274_" x="213.2" y="121.3" class="st0" width="3.6" height="33"/>
		<rect id="XMLID_20273_" x="218.6" y="114.2" class="st0" width="3.6" height="40"/>
		<rect id="XMLID_20272_" x="224" y="122.6" class="st0" width="3.6" height="31.6"/>
		<rect id="XMLID_20271_" x="229.4" y="111.9" class="st0" width="3.6" height="42.3"/>
		<rect id="XMLID_20270_" x="234.8" y="118.7" class="st0" width="3.6" height="35.5"/>
		<rect id="XMLID_20269_" x="240.2" y="107.6" class="st0" width="3.6" height="46.6"/>
		<rect id="XMLID_20268_" x="245.6" y="128.1" class="st0" width="3.6" height="26.1"/>
		<rect id="XMLID_20267_" x="250.9" y="137.3" class="st0" width="3.6" height="16.9"/>
		<rect id="XMLID_20266_" x="256.3" y="118.7" class="st0" width="3.6" height="35.5"/>
		<rect id="XMLID_20265_" x="261.7" y="125.3" class="st0" width="3.6" height="28.9"/>
	</g>
	<g>
		<g>
			<polygon class="st1" points="185.9,70.5 191.2,63.7 181.1,63.7 			"/>
		</g>
		<g>
			<polygon class="st1" points="185.9,81.1 191.2,74.3 181.1,74.3 			"/>
		</g>
		<g>
			<polygon class="st1" points="185.9,91.7 191.2,84.9 181.1,84.9 			"/>
		</g>
	</g>
	<g>
		<path class="st2" d="M100.7,135.4c1.1,0.4,2.8,1,4.4,1.8l0.8-1.6c-1.3-0.6-2.7-1.2-4.2-1.7l-0.9-0.3l0.7-0.7
			c3-2.7,4.8-6.6,4.8-10.6c0-7.8-6.4-14.2-14.2-14.2c-7.8,0-14.2,6.4-14.2,14.2c0,4,1.7,7.9,4.8,10.6l0.7,0.7l-0.9,0.3
			c-1.6,0.6-3.1,1.2-4.4,1.8c-2.1,1-3.8,2-5,3c-1.7,1.4-2.5,2.7-2.5,4.2v18.2h1.8l0-18.2c-0.1-0.7,0.7-1.8,1.9-2.8
			c2-1.7,5.4-3.2,7.1-3.9c1.6-0.6,2.9-1.1,3.8-1.4l0.2-0.1l0.2,0.1c4.1,2.1,8.9,2.1,13,0l0.2-0.1l0.2,0.1
			C99.4,134.9,100,135.1,100.7,135.4z M81.9,115c2.3-3.3,6.1-5.2,10.1-5.2c4,0,7.8,2,10.1,5.2l0.3,0.4l-0.4,0.4
			c-2.8,2.5-6.3,3.9-10,3.9c-3.7,0-7.3-1.4-10-3.9l-0.4-0.4L81.9,115z M92,134.6L92,134.6L92,134.6c-6.8,0-12.4-5.6-12.4-12.4
			c0-1.5,0.3-2.9,0.8-4.4l0.3-0.8l0.6,0.5c3,2.5,6.8,3.9,10.7,3.9c0,0,0,0,0,0c3.9,0,7.7-1.4,10.7-3.9l0.6-0.5l0.3,0.8
			c0.5,1.4,0.8,2.9,0.8,4.4C104.5,129,98.9,134.6,92,134.6z"/>
		<path class="st2" d="M165.8,103.3l1.6-0.7c-0.3-0.7-0.7-1.4-1.1-2l-0.2-0.4l6.2-6.2l-12.1-12.1l-6.2,6.2l-0.4-0.2
			c-2.4-1.4-5-2.4-7.7-3.2l-0.4-0.1v-8.8h-7.7V34.1h6.4V19.5h-14.6v14.6h6.4v41.7h-7.7v8.8l-0.4,0.1c-2.7,0.7-5.2,1.8-7.7,3.2
			l-0.4,0.2l-6.2-6.2L101.7,94l6.2,6.2l-0.2,0.4c-0.6,1-1.1,2-1.5,3l1.7,0.7c0.6-1.3,1.2-2.6,2-3.8l0.4-0.6l-5.9-5.9l9.5-9.6
			l5.9,5.9l0.6-0.4c2.9-1.8,6-3,9.3-3.8l0.7-0.2v-8.4h13.5V86l0.7,0.2c3.3,0.8,6.4,2.1,9.3,3.8l0.6,0.4l5.9-5.9l9.6,9.6l-5.9,5.9
			l0.4,0.6C164.8,101.4,165.3,102.4,165.8,103.3z M131.5,32.3v-11h11v11H131.5z"/>
		<rect x="102.3" y="63.7" class="st2" width="13.2" height="1.8"/>
		<path class="st2" d="M147.4,133.7c2,0.7,5.7,2.1,8.7,3.9c2.5,1.4,5.1,3.7,4.9,5.4l0,21.9h1.8v-22c0-1.7-0.9-3.2-3-4.9
			c-3.2-2.6-8.1-4.7-11.7-5.9l-1-0.4l0.8-0.7c3.8-3.2,6-7.9,6-12.9c0-9.3-7.6-16.9-16.9-16.9c-9.3,0-16.9,7.6-16.9,16.9
			c0,5,2.2,9.7,6,12.9l0.8,0.7l-1,0.4c-2.1,0.7-4,1.5-5.7,2.3c-2.5,1.2-4.5,2.4-6,3.6c-2,1.7-2.9,3.2-3,4.9v22h1.8v-22
			c-0.1-1,0.8-2.3,2.3-3.5c2.5-2.1,6.5-3.8,8.6-4.7c1.9-0.8,3.6-1.3,4.7-1.7l0.2-0.1l0.2,0.1c2.4,1.3,5.1,1.9,7.8,1.9
			c2.8,0,5.4-0.7,7.8-1.9l0.2-0.1l0.2,0.1C145.8,133.2,146.5,133.4,147.4,133.7z M124.6,109.6c2.8-4.1,7.5-6.6,12.4-6.6
			c5,0,9.6,2.5,12.4,6.6l0.3,0.4l-0.4,0.4c-3.4,3.2-7.8,4.9-12.4,4.9c-4.6,0-9-1.7-12.4-4.9l-0.4-0.4L124.6,109.6z M137.1,133.2
			L137.1,133.2c-8.3,0-15.1-6.8-15.1-15.1c0-2,0.4-3.9,1.1-5.7l0.3-0.8l0.6,0.5c3.6,3.2,8.2,4.9,13,4.9c0,0,0,0,0,0
			c4.8,0,9.4-1.7,13-4.9l0.6-0.5l0.3,0.8c0.7,1.8,1.1,3.7,1.1,5.7C152.2,126.4,145.4,133.2,137.1,133.2z"/>
		<path class="st2" d="M137,92c-13.9,0-25.2,11.3-25.2,25.2c0,3.3,0.6,6.5,1.9,9.6l1.6-0.7c-1.2-2.8-1.7-5.8-1.8-8.9
			c0-12.9,10.5-23.4,23.4-23.4c12.9,0,23.4,10.5,23.4,23.4c0,2.9-0.5,5.7-1.6,8.4l1.7,0.7c1.1-2.9,1.7-5.9,1.7-9.1
			C162.2,103.4,150.9,92,137,92z"/>
		<path class="st2" d="M191.3,135.3c1.6,0.6,4.7,1.8,7.2,3.2c2.1,1.2,4.2,3.1,4,4.3l0,18.2h1.8v-18.2c0-1.5-0.8-2.8-2.5-4.2
			c-2.6-2.1-6.5-3.8-9.4-4.8l-0.9-0.3l0.8-0.7c3-2.7,4.8-6.6,4.8-10.6c0-7.8-6.4-14.2-14.2-14.2c-7.8,0-14.2,6.4-14.2,14.2
			c0,4,1.7,7.9,4.8,10.6l0.7,0.7l-0.9,0.3c-1.9,0.7-3.6,1.4-5.1,2.2l0.8,1.6c1.8-0.9,3.6-1.6,4.9-2.1c0.9-0.3,1.6-0.6,2-0.7l0.2-0.1
			l0.2,0.1c4.1,2.1,8.9,2.1,13,0l0.2-0.1l0.2,0.1C190.1,134.9,190.6,135.1,191.3,135.3z M172.6,115c2.3-3.3,6.1-5.2,10.1-5.2
			c4,0,7.8,2,10.1,5.2l0.3,0.4l-0.4,0.4c-2.8,2.5-6.3,3.9-10,3.9c-3.7,0-7.3-1.4-10-3.9l-0.4-0.4L172.6,115z M182.8,134.6
			L182.8,134.6c-6.8,0-12.4-5.6-12.4-12.4c0-1.5,0.3-2.9,0.8-4.4l0.3-0.8l0.6,0.5c3,2.5,6.8,3.9,10.7,3.9c0,0,0,0,0,0
			c3.9,0,7.7-1.4,10.7-3.9l0.6-0.5l0.3,0.8c0.5,1.4,0.8,2.9,0.8,4.4C195.2,129,189.6,134.6,182.8,134.6z"/>
		<rect x="102.3" y="56" class="st2" width="13.2" height="1.8"/>
		<rect x="136.2" y="146.8" class="st2" width="1.8" height="18.1"/>
		<rect x="159.7" y="56" class="st2" width="13.2" height="1.8"/>
		<rect x="159.7" y="63.7" class="st2" width="13.2" height="1.8"/>
		<path class="st2" d="M151.4,79.2h1.8V51h26.6v5.4h12.7V43.8h-12.7v5.4h-28.4V79.2z M181.6,45.6h9.1v9.1h-9.1V45.6z"/>
		<path class="st2" d="M122.6,79.2v-30H94.2v-5.4H81.5v12.7h12.7V51h26.6v28.2H122.6z M92.4,54.6l-9.1,0v-9.1h9.1V54.6z"/>
	</g>
	<g>
		<g>
			<line class="st3" x1="51.7" y1="161.7" x2="54.7" y2="161.7"/>
			<line class="st4" x1="60.1" y1="161.7" x2="101" y2="161.7"/>
			<line class="st3" x1="103.7" y1="161.7" x2="106.7" y2="161.7"/>
		</g>
	</g>
	<g>
		<g>
			<line class="st3" x1="165.6" y1="161.7" x2="168.6" y2="161.7"/>
			<line class="st4" x1="174" y1="161.7" x2="214.9" y2="161.7"/>
			<line class="st3" x1="217.6" y1="161.7" x2="220.6" y2="161.7"/>
		</g>
	</g>
	<line class="st3" x1="97.7" y1="169.6" x2="176.4" y2="169.6"/>
	<line class="st3" x1="79" y1="174.3" x2="195.2" y2="174.3"/>
	<g>
		<polygon class="st2" points="185.9,103 191.2,96.2 181.1,96.2 		"/>
	</g>
	<g>
		<g>
			<polygon class="st1" points="87.2,70.5 92.6,63.7 82.5,63.7 			"/>
		</g>
		<g>
			<polygon class="st1" points="87.2,81.1 92.6,74.3 82.5,74.3 			"/>
		</g>
		<g>
			<polygon class="st1" points="87.2,91.7 92.6,84.9 82.5,84.9 			"/>
		</g>
	</g>
	<g>
		<polygon class="st2" points="87.2,103 92.6,96.2 82.5,96.2 		"/>
	</g>
	<rect x="132.9" y="22.6" class="st5" width="8.2" height="8.2"/>
	<rect x="84.4" y="46.7" class="st5" width="6.8" height="6.8"/>
	<rect x="182.8" y="46.7" class="st5" width="6.8" height="6.8"/>
</g>
</svg>
