<?xml version="1.0" encoding="UTF-8"?>
<svg width="30px" height="24px" viewBox="0 0 30 24" version="1.1" xmlns="http://www.w3.org/2000/svg" xmlns:xlink="http://www.w3.org/1999/xlink">
    <!-- Generator: Sketch 63.1 (92452) - https://sketch.com -->
    <title>Icons-28</title>
    <desc>Created with Sketch.</desc>
    <g id="Page-1" stroke="none" stroke-width="1" fill="none" fill-rule="evenodd">
        <g id="Icons-28" transform="translate(-9.000000, -12.000000)" fill-rule="nonzero">
            <g id="Group" transform="translate(9.000000, 12.000000)">
                <g transform="translate(5.000000, 8.000000)">
                    <path d="M5.138,0.868 L1.304,0.868 C1.029,0.868 0.804,1.092 0.804,1.368 L0.804,1.462 L0.804,2.181 L0.804,14.295 L5.638,14.295 L5.638,2.181 L5.638,1.462 L5.638,1.368 C5.638,1.092 5.413,0.868 5.138,0.868 Z" id="Path" fill="#FEB3B8"></path>
                    <path d="M6.388,15.045 L0.054,15.045 L0.054,1.462 C0.054,0.679 0.615,0.118 1.304,0.118 L5.138,0.118 C5.827,0.118 6.388,0.679 6.388,1.368 L6.388,15.045 Z M1.554,13.545 L4.888,13.545 L4.888,1.618 L1.554,1.618 L1.554,13.545 L1.554,13.545 Z" id="Shape" fill="#F0EBE3"></path>
                </g>
                <g transform="translate(13.000000, 10.000000)">
                    <path d="M6.475,1.774 C6.458,1.513 6.246,1.305 5.982,1.305 L2.148,1.305 C1.883,1.305 1.671,1.513 1.655,1.774 L1.648,1.774 L1.648,1.805 L1.648,2.618 L1.648,12.295 L6.482,12.295 L6.482,2.618 L6.482,1.805 L6.482,1.774 L6.475,1.774 L6.475,1.774 Z" id="Path" fill="#FEB3B8"></path>
                    <path d="M7.231,13.045 L0.897,13.045 L0.897,1.056 L0.936,0.821 C0.936,0.332 1.523,0.332 1.922,0.332 L6.261,0.332 C6.651,0.332 7.231,0.332 7.231,0.801 L7.224,1.026 L7.231,2.62 L7.231,13.045 Z M2.397,11.545 L5.731,11.545 L5.731,2.056 L2.397,2.056 L2.397,11.545 Z" id="Shape" fill="#F0EBE3"></path>
                </g>
                <g transform="translate(22.000000, 3.000000)">
                    <path d="M5.825,1.681 L1.991,1.681 C1.716,1.681 1.491,1.905 1.491,2.181 L1.491,2.587 L1.491,2.993 L1.491,19.295 L6.325,19.295 L6.325,2.993 L6.325,2.587 L6.325,2.181 C6.325,1.904 6.101,1.681 5.825,1.681 Z" id="Path" fill="#FEB3B8"></path>
                    <path d="M7.075,20.045 L0.741,20.045 L0.741,2.181 C0.741,1.492 1.302,0.931 1.991,0.931 L5.825,0.931 C6.514,0.931 7.075,1.492 7.075,2.181 L7.075,20.045 Z M2.241,18.545 L5.575,18.545 L5.575,2.431 L2.241,2.431 L2.241,18.545 Z" id="Shape" fill="#F0EBE3"></path>
                </g>
                <g fill="#2F2C2B">
                    <path d="M1.685,23.604 C1.271,23.604 0.935,23.268 0.935,22.854 L0.935,21.854 C0.935,21.44 1.271,21.104 1.685,21.104 C2.099,21.104 2.435,21.44 2.435,21.854 L2.435,22.854 C2.435,23.269 2.099,23.604 1.685,23.604 Z" id="Path"></path>
                    <path d="M1.685,19.334 C1.271,19.334 0.935,18.998 0.935,18.584 L0.935,16.403 C0.935,15.989 1.271,15.653 1.685,15.653 C2.099,15.653 2.435,15.989 2.435,16.403 L2.435,18.584 C2.435,18.998 2.099,19.334 1.685,19.334 Z M1.685,13.883 C1.271,13.883 0.935,13.547 0.935,13.133 L0.935,10.952 C0.935,10.538 1.271,10.202 1.685,10.202 C2.099,10.202 2.435,10.538 2.435,10.952 L2.435,13.133 C2.435,13.547 2.099,13.883 1.685,13.883 Z M1.685,8.432 C1.271,8.432 0.935,8.096 0.935,7.682 L0.935,5.501 C0.935,5.087 1.271,4.751 1.685,4.751 C2.099,4.751 2.435,5.087 2.435,5.501 L2.435,7.682 C2.435,8.096 2.099,8.432 1.685,8.432 Z" id="Shape"></path>
                    <path d="M1.685,2.979 C1.271,2.979 0.935,2.643 0.935,2.229 L0.935,1.229 C0.935,0.815 1.271,0.479 1.685,0.479 C2.099,0.479 2.435,0.815 2.435,1.229 L2.435,2.229 C2.435,2.644 2.099,2.979 1.685,2.979 Z" id="Path"></path>
                </g>
            </g>
        </g>
    </g>
</svg>