<?xml version="1.0" encoding="UTF-8"?>
<svg width="90px" height="90px" viewBox="0 0 90 90" version="1.1" xmlns="http://www.w3.org/2000/svg" xmlns:xlink="http://www.w3.org/1999/xlink">
    <!-- Generator: Sketch 63.1 (92452) - https://sketch.com -->
    <title>Gas</title>
    <desc>Created with Sketch.</desc>
    <g id="Page-1" stroke="none" stroke-width="1" fill="none" fill-rule="evenodd">
        <g id="Gas" fill-rule="nonzero">
            <path d="M90,45 C90,69.85125 69.853125,90 45,90 C20.146875,90 0,69.85125 0,45 C0,20.146875 20.146875,0 45,0 C69.853125,0 90,20.146875 90,45" id="Path" fill="#FC404D"></path>
            <path d="M72.72,9.564375 L56.5125,30.30375 L42.6675,48.015 L17.30625,80.45625 C24.946875,86.43 34.55625,90 45,90 C69.853125,90 90,69.85125 90,45 C90,30.6075 83.236875,17.805 72.72,9.564375" id="Path" fill="#D11C36"></path>
            <g id="Group" transform="translate(24.375000, 13.125000)">
                <g>
                    <path d="M16.775625,56.85375 C15.49875,52.6725 11.233125,42.64125 23.01375,37.15125 C26.806875,35.383125 38.535,23.68125 23.720625,2.7 C23.791875,6.81 24.020625,16.096875 15.045,21.624375 C12.735,22.90125 -2.150625,31.335 4.441875,48.20625 C6.21375,51.6825 9.33375,56.360625 16.775625,56.85375 Z" id="Path" fill="#F0EBE3"></path>
                    <path d="M16.775625,58.168125 C16.745625,58.168125 16.7175,58.164375 16.6875,58.164375 C8.67,57.63 5.191875,52.569375 3.271875,48.804375 C-3.346875,31.8825 10.125,22.845 14.409375,20.476875 C22.63125,15.4125 22.48125,6.90375 22.41,2.814375 C22.400625,2.23875 22.76625,1.678125 23.31375,1.498125 C23.865,1.318125 24.459375,1.47375 24.793125,1.9425 C32.9625,13.513125 33.020625,22.1775 31.629375,27.406875 C30.03,33.414375 25.933125,37.2375 23.566875,38.34 C13.663125,42.954375 16.2,50.80125 17.716875,55.486875 L18.03,56.47125 C18.15375,56.881875 18.069375,57.331875 17.803125,57.669375 C17.55375,57.98625 17.175,58.168125 16.775625,58.168125 Z M24.94125,6.988125 C24.545625,11.840625 22.805625,18.388125 15.735,22.74375 C10.7925,25.475625 0.03375,33.316875 5.66625,47.731875 C7.198125,50.724375 9.661875,54.268125 14.9025,55.29375 C13.404375,50.47125 11.29125,41.169375 22.460625,35.960625 C23.698125,35.385 27.575625,32.4525 29.094375,26.73375 C30.631875,20.9475 29.195625,14.180625 24.94125,6.988125 Z" id="Shape" fill="#FEB3B8"></path>
                </g>
                <g transform="translate(18.750000, 28.125000)">
                    <path d="M16.944375,1.65375 C16.59,4.20375 16.093125,9.8775 9.785625,13.209375 C7.516875,14.55375 -0.0675,19.021875 4.3275,28.94625 C5.319375,30.645 7.588125,33.058125 10.7775,32.915625 C9.92625,31.28625 7.588125,25.68375 13.044375,22.636875 C15.9525,21.076875 21.55125,17.180625 19.141875,7.610625 C18.219375,3.70875 17.581875,2.574375 16.944375,1.65375 Z" id="Path" fill="#F0EBE3"></path>
                    <path d="M10.5075,34.23375 C7.108125,34.23375 4.5,31.843125 3.195,29.608125 C0.91125,24.470625 0.15,17.390625 9.103125,12.088125 C14.61,9.17625 15.25125,4.396875 15.598125,1.828125 L15.645,1.471875 C15.72,0.935625 16.115625,0.500625 16.640625,0.376875 C17.165625,0.253125 17.716875,0.463125 18.0225,0.9075 C18.729375,1.9275 19.44375,3.18375 20.41875,7.306875 C22.2825,14.71125 19.948125,20.420625 13.663125,23.79375 C9.350625,26.199375 11.02125,30.55125 11.938125,32.308125 C12.14625,32.70375 12.135,33.18 11.911875,33.571875 C11.68875,33.96 11.281875,34.205625 10.83375,34.228125 L10.5075,34.23375 Z M17.398125,6.0825 C16.524375,8.8575 14.679375,12.106875 10.39875,14.37 C6.650625,16.59 2.019375,20.49 5.525625,28.41375 C5.724375,28.74 6.823125,30.46875 8.6775,31.2375 C7.6275,27.751875 8.180625,23.848125 12.405,21.489375 C17.675625,18.661875 19.455,14.23125 17.86875,7.929375 C17.701875,7.2225 17.544375,6.613125 17.398125,6.0825 Z" id="Shape" fill="#FEB3B8"></path>
                </g>
            </g>
        </g>
    </g>
</svg>