<?xml version="1.0" encoding="UTF-8"?>
<svg width="90px" height="90px" viewBox="0 0 90 90" version="1.1" xmlns="http://www.w3.org/2000/svg" xmlns:xlink="http://www.w3.org/1999/xlink">
    <title>A4D5CD30-FB45-497A-8551-5C9E67D63A48</title>
    <g id="Welcome" stroke="none" stroke-width="1" fill="none" fill-rule="evenodd">
        <g id="AFFILIATES-DESKTOP" transform="translate(-597.000000, -3969.000000)" fill-rule="nonzero">
            <g id="HOW-TO-GET-STARTED" transform="translate(49.000000, 3880.000000)">
                <g id="STEP-2" transform="translate(400.000000, 89.000000)">
                    <g id="AXI_ICONS_REFER" transform="translate(148.000000, 0.000000)">
                        <g id="BACKGROUND">
                            <circle id="Oval" fill="#FC404D" cx="45" cy="45" r="45"></circle>
                            <path d="M72.7205659,9.565773 L56.5109254,30.3042984 L42.6672364,48.0157472 L17.3096466,80.4580307 C24.946518,86.4304732 34.5534896,90 45,90 C69.8527909,90 90,69.8527909 90,45 C90,30.6074524 83.2351684,17.8030014 72.7205659,9.565773 Z" id="Path" fill="#D11C36"></path>
                        </g>
                        <g id="CONTENT" transform="translate(18.750000, 15.000000)">
                            <path d="M26.2469959,1.39980731 C17.1706759,1.39980731 9.81496988,8.75551162 9.81496988,17.8318333 C9.81423844,26.9081533 17.1714056,34.2638576 26.2469959,34.2638576 C35.324049,34.2638576 42.6790238,26.9088864 42.6790238,17.8318333 C42.6782942,8.75478206 35.3225863,1.39980731 26.2469959,1.39980731 Z" id="Path" fill="#FEB3B8"></path>
                            <circle id="Oval" fill="#F0EBE3" cx="26.2562871" cy="12.9537982" r="6.61208606"></circle>
                            <path d="M15.0629175,29.8713433 C17.997297,32.6036203 21.920904,34.2638289 26.2469996,34.2638289 C30.5809916,34.2638289 34.5106639,32.59812 37.4463023,29.8577177 C36.3112772,24.7190916 31.7362727,20.8486067 26.2562692,20.8486067 C20.7715738,20.8486067 16.1929071,24.7259653 15.0629175,29.8713433 Z" id="Path" fill="#F0EBE3"></path>
                            <g id="Group" transform="translate(0.000000, 31.875000)">
                                <path d="M19.4364096,4.70613956 C17.3206009,2.59033088 14.5468892,1.53218513 11.7736496,1.53218513 C8.9999325,1.53218513 6.22718119,2.58984806 4.11137231,4.70613956 C-0.1202415,8.93823619 -0.120724313,15.7990766 4.11137231,20.0311732 C6.22669819,22.1474647 9.00041531,23.2056069 11.7731704,23.2056069 C14.5468892,23.2056069 17.3206009,22.1474647 19.4364131,20.0311732 C23.6685062,15.7990766 23.668989,8.93919825 19.4364096,4.70613956 Z" id="Path" fill="#F0EBE3"></path>
                                <circle id="Oval" fill="#282424" cx="11.7740715" cy="9.154551" r="4.35976313"></circle>
                                <g transform="translate(15.000000, 7.500000)">
                                    <circle id="Oval" fill="#FC404D" cx="6.5048325" cy="4.86486187" r="4.67465531"></circle>
                                    <g transform="translate(3.750000, 1.875000)" fill="#F0EBE3" id="Path">
                                        <path d="M1.34563931,4.47610613 L4.31479819,0.682625812 C4.41125756,0.55938375 4.58935988,0.53767575 4.71260194,0.634135125 L5.30491237,1.09773525 C5.42815088,1.19419819 5.44986244,1.3723005 5.35340306,1.495539 L2.38424419,5.28902306 C2.28778125,5.41226156 2.10967894,5.43397688 1.98644044,5.33751019 L1.39413,4.87391006 C1.27088794,4.7774505 1.24917975,4.59934481 1.34563931,4.47610613 Z"></path>
                                        <path d="M1.99112175,5.33722406 L0.210807375,3.94377 C0.0875653125,3.84731062 0.0658573125,3.66920475 0.162316687,3.54596625 L0.625920375,2.95365581 C0.72237975,2.83041375 0.900482062,2.80870575 1.02372412,2.90516512 L2.80403494,4.29861562 C2.927277,4.395075 2.948985,4.57318088 2.85252562,4.69641937 L2.3889255,5.28872981 C2.29246612,5.41197544 2.11436025,5.43368344 1.99112175,5.33722406 Z"></path>
                                    </g>
                                </g>
                                <path d="M4.405818,20.3150297 C6.48292069,22.2519422 9.12044044,23.2056285 11.7731811,23.2056285 C14.4268371,23.2056285 17.0645857,22.2518421 19.1422607,20.3147006 C18.3878661,16.9345736 15.3816176,14.3601465 11.7740966,14.3601465 C8.16646106,14.3601465 5.16009806,16.9346738 4.405818,20.3150297 Z" id="Path" fill="#282424"></path>
                            </g>
                            <g id="Group" transform="translate(28.125000, 31.875000)">
                                <path d="M20.2787233,4.70613956 C18.1629182,2.59033088 15.3891994,1.53218513 12.6159634,1.53218513 C9.84224813,1.53218513 7.06949494,2.58984806 4.95368606,4.70613956 C0.72207225,8.93823619 0.721589438,15.7990766 4.95368606,20.0311732 C7.06901194,22.1474647 9.84272719,23.2056069 12.6154841,23.2056069 C15.3891994,23.2056069 18.1629182,22.1474647 20.2787233,20.0311732 C24.5108199,15.7990766 24.5112992,8.93919825 20.2787233,4.70613956 Z" id="Path" fill="#F0EBE3"></path>
                                <circle id="Oval" fill="#282424" cx="12.6163852" cy="9.154551" r="4.35976312"></circle>
                                <g transform="translate(16.875000, 7.500000)">
                                    <circle id="Oval" fill="#FC404D" cx="5.47214981" cy="4.86486187" r="4.67465531"></circle>
                                    <g transform="translate(1.875000, 1.875000)" fill="#F0EBE3" id="Path">
                                        <path d="M2.18795306,4.47610613 L5.15710837,0.682625812 C5.25356775,0.55938375 5.43167363,0.53767575 5.55491212,0.634135125 L6.14722256,1.09773525 C6.27046819,1.19419819 6.29217638,1.3723005 6.19571681,1.495539 L3.22655438,5.28902306 C3.130095,5.41226156 2.95198913,5.43397688 2.82875063,5.33751019 L2.23644019,4.87391006 C2.11320169,4.7774505 2.09149369,4.59934481 2.18795306,4.47610613 Z"></path>
                                        <path d="M2.8334355,5.33722406 L1.05312113,3.94377 C0.929882625,3.84731062 0.908167312,3.66920475 1.004634,3.54596625 L1.46823412,2.95365581 C1.5646935,2.83041375 1.74279225,2.80870575 1.86603787,2.90516512 L3.64635225,4.29861562 C3.76959075,4.395075 3.79129875,4.57318088 3.69483937,4.69641937 L3.23123925,5.28872981 C3.13477988,5.41197544 2.95667419,5.43368344 2.8334355,5.33722406 Z"></path>
                                    </g>
                                </g>
                                <path d="M5.24812106,20.3136778 C7.32522375,22.2505903 9.96285806,23.2056285 12.6154841,23.2056285 C15.2691437,23.2056285 17.9068924,22.2518492 19.9845673,20.3147079 C19.2301727,16.9345809 16.2239243,14.3601467 12.6163997,14.3601467 C9.00876394,14.3601467 6.00240113,16.9333219 5.24812106,20.3136778 Z" id="Path" fill="#282424"></path>
                            </g>
                        </g>
                    </g>
                </g>
            </g>
        </g>
    </g>
</svg>