<?xml version="1.0" encoding="UTF-8"?>
<svg width="90px" height="90px" viewBox="0 0 90 90" version="1.1" xmlns="http://www.w3.org/2000/svg" xmlns:xlink="http://www.w3.org/1999/xlink">
    <title>8B3BBB1D-B7E2-4B01-AC06-FDF1B397E6A5</title>
    <g id="Welcome" stroke="none" stroke-width="1" fill="none" fill-rule="evenodd">
        <g id="INTRODUCING-BROKERS-DESKTOP-Copy" transform="translate(-997.000000, -1151.000000)" fill-rule="nonzero">
            <g id="3-STEPS" transform="translate(50.000000, 1054.000000)">
                <g id="STEP-3" transform="translate(799.000000, 97.000000)">
                    <g id="ICON-STEP-3" transform="translate(148.000000, 0.000000)">
                        <g id="BACKGROUND">
                            <circle id="Oval" fill="#FC404D" cx="44.0816327" cy="44.0816327" r="44.0816327"></circle>
                            <path d="M71.2285714,9.36734694 L55.3591837,29.6816327 L41.8040816,47.0387755 L16.9530612,78.8142857 C29.3227982,88.9451056 46.2084339,91.5836902 61.0791441,85.7095194 C75.9498543,79.8353486 86.473967,66.3694704 88.5810917,50.5200562 C90.6882164,34.670642 84.0479638,18.922821 71.2285714,9.36734694 Z" id="Path" fill="#D11C36"></path>
                        </g>
                        <g id="CONTENT" transform="translate(20.204082, 22.040816)">
                            <path d="M1.83673469,1.19387755 L1.83673469,14.6938776 C1.84134683,15.1478582 2.1769945,15.5303404 2.62653061,15.5938776 L2.62653061,0.293877551 C2.17293749,0.349827574 1.83329705,0.736859709 1.83673469,1.19387755 L1.83673469,1.19387755 Z" id="Path" fill="#282424"></path>
                            <polygon id="Path" fill="#282424" points="45.1102041 0.275510204 38.277551 0.275510204 38.277551 15.5755102 45.2387755 15.5755102 45.2387755 0.293877551"></polygon>
                            <polygon id="Path" fill="#282424" points="9.51428571 15.5755102 9.51428571 0.275510204 2.55306122 0.275510204 2.55306122 15.5387755 9.51428571 15.5387755"></polygon>
                            <path d="M45.2387755,0.293877551 L45.2387755,15.5571429 C45.6883116,15.4936057 46.0239593,15.1111235 46.0285714,14.6571429 L46.0285714,1.19387755 C46.0320091,0.736859709 45.6923686,0.349827574 45.2387755,0.293877551 Z" id="Path" fill="#282424"></path>
                            <path d="M37.2673469,0.275510204 L33.6857143,0.275510204 L33.6857143,42.3734694 L14.1061224,42.3734694 L14.1061224,0.275510204 L9.51428571,0.275510204 L9.51428571,43.2918367 C9.51428571,43.799037 9.92545278,44.2102041 10.4326531,44.2102041 L37.3591837,44.2102041 C37.866384,44.2102041 38.277551,43.799037 38.277551,43.2918367 L38.277551,0.275510204 L37.2673469,0.275510204 Z" id="Path" fill="#FEB3B8"></path>
                            <path d="M14.1061224,0.275510204 L14.1061224,42.3734694 L33.6857143,42.3734694 L33.6857143,0.275510204 L14.1061224,0.275510204 Z M23.8959184,0.459183673 C24.5868059,0.459183673 25.2096642,0.875364292 25.4740554,1.51366116 C25.7384467,2.15195802 25.5923035,2.8866695 25.1037722,3.37520077 C24.6152409,3.86373204 23.8805295,4.00987524 23.2422326,3.74548402 C22.6039357,3.4810928 22.1877551,2.85823449 22.1877551,2.16734694 C22.187701,1.23108101 22.9413392,0.469251047 23.877551,0.459183673 L23.8959184,0.459183673 Z M23.8959184,35.5591837 C23.203368,35.5591436 22.5793792,35.1409476 22.3161003,34.5003929 C22.0528215,33.8598383 22.2023628,33.1237083 22.6947098,32.6366554 C23.1870567,32.1496025 23.9247603,32.0080278 24.5624314,32.278216 C25.2001025,32.5484041 25.6115284,33.1768774 25.6040816,33.8693878 C25.5992364,34.3224291 25.4146062,34.7549873 25.0908131,35.0718911 C24.7670201,35.388795 24.3305918,35.5640813 23.877551,35.5591837 L23.8959184,35.5591837 Z M31.2428571,18.0183673 C31.2428571,22.0759696 27.9535206,25.3653061 23.8959184,25.3653061 C19.8383161,25.3653061 16.5489796,22.0759696 16.5489796,18.0183673 C16.5533829,17.1847018 16.7025379,16.3581343 16.9897959,15.5755102 C18.058646,12.695943 20.8060127,10.7851979 23.877551,10.7851979 C26.9490894,10.7851979 29.696456,12.695943 30.7653061,15.5755102 C31.0588298,16.357018 31.2142059,17.183619 31.2244898,18.0183673 L31.2428571,18.0183673 Z" id="Shape" fill="#F0EBE3"></path>
                            <circle id="Oval" fill="#282424" cx="23.8959184" cy="2.16734694" r="1.70816327"></circle>
                            <circle id="Oval" fill="#282424" cx="23.8959184" cy="33.8693878" r="1.70816327"></circle>
                            <path d="M30.7836735,15.5755102 C29.7148234,12.695943 26.9674567,10.7851979 23.8959184,10.7851979 C20.82438,10.7851979 18.0770134,12.695943 17.0081633,15.5755102 C16.7083668,16.3558967 16.5467689,17.1825324 16.5306122,18.0183673 C16.5306122,22.0759696 19.8199488,25.3653061 23.877551,25.3653061 C27.9351533,25.3653061 31.2244898,22.0759696 31.2244898,18.0183673 C31.2200865,17.1847018 31.0709315,16.3581343 30.7836735,15.5755102 Z M25.7142857,20.5163265 C25.6178686,20.5426001 25.5147075,20.5180767 25.440428,20.4512251 C25.3661485,20.3843736 25.3309315,20.2843568 25.3469388,20.1857143 L25.3469388,19.377551 C25.3417275,19.1957796 25.4641815,19.0350587 25.6408163,18.9918367 C26.0302195,18.8892411 26.2969621,18.5310439 26.2836735,18.1285714 C26.2889904,17.8996756 26.1991222,17.6788292 26.0354934,17.5186818 C25.8718645,17.3585344 25.6491367,17.2734358 25.4204082,17.2836735 C24.9162748,17.3520772 24.426378,17.5009066 23.9693878,17.7244898 L23.9693878,19.1020408 C23.980524,19.1943055 23.9499828,19.2867358 23.8860678,19.3542017 C23.8221527,19.4216676 23.731507,19.4571568 23.6387755,19.4510204 L23.3265306,19.4510204 C23.23077,19.4631401 23.1347874,19.4302903 23.0665343,19.3620371 C22.9982812,19.293784 22.9654313,19.1978014 22.977551,19.1020408 L22.977551,17.9265306 C22.386738,17.9677577 21.812297,17.7215687 21.4346939,17.2653061 L21.4346939,20.2040816 C21.4468136,20.2998422 21.4139637,20.3958248 21.3457106,20.464078 C21.2774575,20.5323311 21.1814749,20.565181 21.0857143,20.5530612 L20.4428571,20.5530612 C20.2846252,20.5165262 20.1808132,20.3648011 20.2040816,20.2040816 L20.2040816,15.9795918 C20.1921121,15.8297634 20.2951268,15.6950519 20.4428571,15.6673469 L20.5346939,15.6673469 L21.1959184,15.6673469 L21.3428571,15.6673469 C21.4463865,15.7088998 21.5401919,15.7714367 21.6183673,15.8510204 C21.9797269,16.2739929 22.5133179,16.510394 23.0693878,16.4938776 L23.0693878,15.9428571 C23.0649657,15.8263617 23.1298228,15.7182665 23.2346939,15.6673469 C23.2945337,15.6489325 23.3585275,15.6489325 23.4183673,15.6673469 L23.8040816,15.6673469 C23.8639215,15.6489325 23.9279152,15.6489325 23.9877551,15.6673469 C24.089071,15.7198852 24.1475059,15.8294507 24.1346939,15.9428571 L24.1346939,16.255102 C24.5995941,16.0079321 25.1146279,15.8697523 25.6408163,15.8510204 C26.2405142,15.8744765 26.8052334,16.1394746 27.2065257,16.5857393 C27.607818,17.0320039 27.8115669,17.6215955 27.7714286,18.2204082 C27.7611527,19.3943342 26.8800449,20.3777135 25.7142857,20.5163265 L25.7142857,20.5163265 Z" id="Shape" fill="#FC404D"></path>
                            <path d="M25.5489796,15.7591837 C25.0227911,15.7779156 24.5077574,15.9160954 24.0428571,16.1632653 L24.0428571,15.8510204 C24.0556692,15.7376139 23.9972343,15.6280485 23.8959184,15.5755102 C23.8360785,15.5570958 23.7720848,15.5570958 23.7122449,15.5755102 L23.3265306,15.5755102 C23.2666907,15.5570958 23.202697,15.5570958 23.1428571,15.5755102 C23.0379861,15.6264298 22.973129,15.734525 22.977551,15.8510204 L22.977551,16.4020408 C22.4214812,16.4185572 21.8878902,16.1821561 21.5265306,15.7591837 C21.4483551,15.6796 21.3545498,15.6170631 21.2510204,15.5755102 L21.1040816,15.5755102 L20.4428571,15.5755102 L20.3510204,15.5755102 C20.2032901,15.6032152 20.1002754,15.7379267 20.1122449,15.8877551 L20.1122449,20.2040816 C20.1011086,20.2963463 20.1316498,20.3887766 20.1955649,20.4562425 C20.25948,20.5237084 20.3501256,20.5591976 20.4428571,20.5530612 L21.0857143,20.5530612 C21.1814749,20.565181 21.2774575,20.5323311 21.3457106,20.464078 C21.4139637,20.3958248 21.4468136,20.2998422 21.4346939,20.2040816 L21.4346939,17.2653061 C21.812297,17.7215687 22.386738,17.9677577 22.977551,17.9265306 L22.977551,19.1020408 C22.9654313,19.1978014 22.9982812,19.293784 23.0665343,19.3620371 C23.1347874,19.4302903 23.23077,19.4631401 23.3265306,19.4510204 L23.7122449,19.4510204 C23.8049764,19.4571568 23.8956221,19.4216676 23.9595371,19.3542017 C24.0234522,19.2867358 24.0539934,19.1943055 24.0428571,19.1020408 L24.0428571,17.7244898 C24.4998474,17.5009066 24.9897442,17.3520772 25.4938776,17.2836735 C25.7226061,17.2734358 25.9453339,17.3585344 26.1089628,17.5186818 C26.2725916,17.6788292 26.3624598,17.8996756 26.3571429,18.1285714 C26.3704315,18.5310439 26.1036889,18.8892411 25.7142857,18.9918367 C25.5376509,19.0350587 25.4151969,19.1957796 25.4204082,19.377551 L25.4204082,20.2040816 C25.4044009,20.3027241 25.4396179,20.4027409 25.5138974,20.4695925 C25.5881769,20.536444 25.6913379,20.5609674 25.7877551,20.5346939 C26.9007594,20.2938112 27.6771582,19.2844927 27.6244898,18.1469388 C27.6698987,17.5541544 27.4759095,16.9678894 27.0858829,16.5191862 C26.6958563,16.0704831 26.1423123,15.7967542 25.5489796,15.7591837 L25.5489796,15.7591837 Z" id="Path" fill="#F0EBE3"></path>
                        </g>
                    </g>
                </g>
            </g>
        </g>
    </g>
</svg>