<svg version="1.2" baseProfile="tiny-ps" xmlns="http://www.w3.org/2000/svg" viewBox="0 0 99 99" width="99" height="99">
	<title>axi_icons_support-trusted_partner-svg</title>
	<style>
		tspan { white-space:pre }
		.shp0 { fill: #fc404d } 
		.shp1 { fill: #d11c36 } 
		.shp2 { fill: #f0ebe3 } 
		.shp3 { fill: #282424 } 
		.shp4 { fill: #feb3b8 } 
	</style>
	<g id="Welcome">
		<g id="INTRODUCING-BROKERS-DESKTOP">
			<g id="BENEFITS-FOR-YOU">
				<g id="STEP-5">
					<g id="AXI_ICONS_SUPPORT-TRUSTED_PARTNER">
						<g id="BACKGROUND">
							<path id="Oval" class="shp0" d="M49.5 99C22.13 99 0 76.87 0 49.5C0 22.13 22.13 0 49.5 0C76.87 0 99 22.13 99 49.5C99 76.87 76.87 99 49.5 99Z" />
							<path id="Path" class="shp1" d="M79.99 10.52L62.16 33.33L46.93 52.82L19.04 88.5C27.44 95.07 38.01 99 49.5 99C76.84 99 99 76.84 99 49.5C99 33.67 91.56 19.58 79.99 10.52Z" />
						</g>
						<g id="CONTENT">
							<path id="Path" class="shp2" d="M36.4 26.97L38.82 28.29C38.9 28.34 38.9 28.46 38.82 28.51L36.4 29.83C36.25 29.92 36.12 30.04 36.04 30.19L34.72 32.61C34.67 32.69 34.55 32.69 34.5 32.61L33.18 30.19C33.09 30.04 32.97 29.92 32.82 29.83L30.4 28.51C30.32 28.46 30.32 28.34 30.4 28.29L32.82 26.97C32.97 26.88 33.09 26.76 33.18 26.61L34.5 24.19C34.55 24.11 34.67 24.11 34.72 24.19L36.04 26.61C36.12 26.76 36.25 26.88 36.4 26.97Z" />
							<path id="Path" class="shp3" d="M30.05 35.87L32.46 37.19C32.55 37.24 32.55 37.36 32.46 37.41L30.05 38.73C29.9 38.81 29.77 38.94 29.69 39.09L28.37 41.51C28.32 41.59 28.2 41.59 28.15 41.51L26.83 39.09C26.74 38.94 26.62 38.81 26.47 38.73L24.05 37.41C23.96 37.36 23.96 37.24 24.05 37.19L26.47 35.87C26.62 35.78 26.74 35.66 26.83 35.51L28.15 33.09C28.2 33.01 28.32 33.01 28.37 33.09L29.69 35.51C29.77 35.66 29.9 35.78 30.05 35.87Z" />
							<g id="Group">
								<path id="Path" class="shp2" d="M69.19 35.32C65.59 31.72 60.86 29.92 56.13 29.92C51.41 29.92 46.68 31.72 43.08 35.32C35.87 42.54 35.87 54.23 43.08 61.44C46.68 65.04 51.41 66.85 56.13 66.85C60.86 66.85 65.59 65.04 69.19 61.44C76.4 54.23 76.4 42.54 69.19 35.32Z" />
								<path id="Oval" class="shp0" d="M56.13 50.32C52.03 50.32 48.71 47 48.71 42.9C48.71 38.79 52.03 35.47 56.13 35.47C60.24 35.47 63.56 38.79 63.56 42.9C63.56 47 60.24 50.32 56.13 50.32Z" />
							</g>
							<path id="Path" class="shp0" d="M43.56 61.91C47.1 65.21 51.61 66.88 56.13 66.88C60.66 66.88 65.17 65.21 68.71 61.9C67.44 56.12 62.3 51.79 56.13 51.79C49.97 51.79 44.83 56.12 43.56 61.91Z" />
							<path id="Path" class="shp4" d="M79 61.44C79 61.44 78.52 60.23 77.61 60.51C76.47 60.86 61.27 65.58 61.27 65.58C61.14 65.62 61 65.63 60.87 65.62L47.12 64.38C47.11 64.38 47.1 64.38 47.1 64.38C46.43 64.32 45.94 63.73 46 63.07C46.06 62.41 46.64 61.92 47.3 61.97L47.3 61.97L59.29 63.05C59.35 63.06 59.39 63.09 59.44 63.09C60.93 63.23 62.24 62.13 62.38 60.65C62.51 59.16 61.42 57.85 59.93 57.71L40.35 55.95L33.32 55.3C33.15 55.28 32.98 55.31 32.83 55.38L20.36 60.68C19.83 60.9 19.59 61.5 19.81 62.03L25.01 74.28C25.24 74.8 25.84 75.04 26.37 74.82L35.85 70.79C36.01 70.72 36.18 70.7 36.35 70.71L38.97 70.95L60.93 73.25C61.48 73.31 62.03 73.21 62.53 72.97L77.29 65.85C78.98 65.1 79.75 63.13 79 61.44Z" />
						</g>
					</g>
				</g>
			</g>
		</g>
	</g>
</svg>