<?xml version="1.0" encoding="UTF-8"?>
<svg width="89px" height="89px" viewBox="0 0 89 89" version="1.1" xmlns="http://www.w3.org/2000/svg" xmlns:xlink="http://www.w3.org/1999/xlink">
    <!-- Generator: Sketch 63.1 (92452) - https://sketch.com -->
    <title>Coffee</title>
    <desc>Created with Sketch.</desc>
    <defs>
        <rect id="path-1" x="1.52816327" y="0" width="88.1632653" height="88.1632653"></rect>
        <rect id="path-3" x="1.52816327" y="0" width="88.1632653" height="88.1632653"></rect>
        <rect id="path-5" x="1.52816327" y="0" width="88.1632653" height="88.1632653"></rect>
        <rect id="path-7" x="1.52816327" y="0" width="88.1632653" height="88.1632653"></rect>
        <rect id="path-9" x="1.52816327" y="0" width="88.1632653" height="88.1632653"></rect>
        <rect id="path-11" x="1.52816327" y="0" width="88.1632653" height="88.1632653"></rect>
        <rect id="path-13" x="1.52816327" y="0" width="88.1632653" height="88.1632653"></rect>
        <rect id="path-15" x="1.52816327" y="0" width="88.1632653" height="88.1632653"></rect>
    </defs>
    <g id="Page-1" stroke="none" stroke-width="1" fill="none" fill-rule="evenodd">
        <g id="Coffee" transform="translate(-1.000000, 0.000000)">
            <g id="Group">
                <g id="Clipped">
                    <mask id="mask-2" fill="white">
                        <use xlink:href="#path-1"></use>
                    </mask>
                    <g id="SVGID_31_"></g>
                    <path d="M89.6914286,44.0816327 C89.6914286,68.427551 69.9557143,88.1632653 45.6097959,88.1632653 C21.2638776,88.1632653 1.52816327,68.427551 1.52816327,44.0816327 C1.52816327,19.7357143 21.2638776,0 45.6097959,0 C69.9557143,0 89.6914286,19.7357143 89.6914286,44.0816327" id="Path" fill="#FC404D" fill-rule="nonzero" mask="url(#mask-2)"></path>
                </g>
                <g id="Clipped">
                    <mask id="mask-4" fill="white">
                        <use xlink:href="#path-3"></use>
                    </mask>
                    <g id="SVGID_31_"></g>
                    <path d="M72.7640816,9.37102041 L56.8855102,29.6871429 L43.3230612,47.0369388 L18.4830612,78.8161224 C25.9659184,84.6679592 35.3791837,88.1632653 45.6097959,88.1632653 C69.9557143,88.1632653 89.6914286,68.427551 89.6914286,44.0816327 C89.6914286,29.9828571 83.0663265,17.4416327 72.7640816,9.37102041" id="Path" fill="#D11C36" fill-rule="nonzero" mask="url(#mask-4)"></path>
                </g>
            </g>
            <g id="Group">
                <g id="Clipped">
                    <mask id="mask-6" fill="white">
                        <use xlink:href="#path-5"></use>
                    </mask>
                    <g id="SVGID_33_"></g>
                    <path d="M37.6659184,29.1159184 C41.5836735,34.5802041 41.6681633,41.2255102 37.855102,43.9604082 C34.0383673,46.6916327 27.7714286,44.4802041 23.8536735,39.0177551 C19.9395918,33.5534694 19.8569388,26.9063265 23.6681633,24.175102 C27.4812245,21.4383673 33.7481633,23.6497959 37.6659184,29.1159184" id="Path" fill="#282424" fill-rule="nonzero" mask="url(#mask-6)"></path>
                </g>
                <g id="Clipped">
                    <mask id="mask-8" fill="white">
                        <use xlink:href="#path-7"></use>
                    </mask>
                    <g id="SVGID_33_"></g>
                    <path d="M24.7610204,21.7910204 C24.2981633,21.9691837 24.1989796,22.5826531 24.6122449,22.8581633 C26.9026531,24.3955102 30.2510204,27.0036735 31.1693878,29.6118367 C31.5661224,30.7359184 31.9004082,31.9095918 32.22,33.0446939 C33.0116327,35.8346939 33.7591837,38.4704082 35.3369388,40.3604082 C36.5344898,41.794898 38.2334694,43.2238776 39.5706122,44.252449 C39.6808163,44.3332653 39.8314286,44.3204082 39.9269388,44.224898 C43.4222449,40.8416327 43.0861224,33.9244898 38.9571429,28.17 C35.0485714,22.7130612 29.0589796,20.1508163 24.7610204,21.7910204" id="Path" fill="#FEB3B8" fill-rule="nonzero" mask="url(#mask-8)"></path>
                </g>
                <g id="Clipped">
                    <mask id="mask-10" fill="white">
                        <use xlink:href="#path-9"></use>
                    </mask>
                    <g id="SVGID_33_"></g>
                    <path d="M33.5295918,41.5983673 C31.7736735,39.4934694 30.9563265,36.602449 30.1610204,33.8069388 C29.845102,32.6902041 29.5163265,31.534898 29.1361224,30.4512245 C28.26,27.9661224 24.6012245,25.3193878 22.4779592,23.9510204 C22.0757143,23.6902041 21.5302041,23.7361224 21.2161224,24.0979592 C18.1653061,27.6153061 18.6391837,34.2018367 22.5973469,39.7230612 C26.7153061,45.4665306 33.1346939,48.004898 37.4657143,45.8063265 C37.6457143,45.7126531 37.6714286,45.4610204 37.5116327,45.332449 C36.2093878,44.3038776 34.6738776,42.9704082 33.5295918,41.5983673" id="Path" fill="#F0EBE3" fill-rule="nonzero" mask="url(#mask-10)"></path>
                </g>
                <g id="Clipped">
                    <mask id="mask-12" fill="white">
                        <use xlink:href="#path-11"></use>
                    </mask>
                    <g id="SVGID_33_"></g>
                    <path d="M63.6777551,55.0653061 C56.5034694,63.8522449 45.7126531,66.9159184 39.5779592,61.9071429 C33.4432653,56.8983673 34.2881633,45.7144898 41.462449,36.9238776 C48.6367347,28.1332653 59.427551,25.0714286 65.5640816,30.0802041 C71.6987755,35.0908163 70.8538776,46.2765306 63.6777551,55.0653061" id="Path" fill="#282424" fill-rule="nonzero" mask="url(#mask-12)"></path>
                </g>
                <g id="Clipped">
                    <mask id="mask-14" fill="white">
                        <use xlink:href="#path-13"></use>
                    </mask>
                    <g id="SVGID_33_"></g>
                    <path d="M68.85,29.824898 C68.5542857,29.4795918 67.9738776,29.61 67.8306122,30.0434694 C66.4016327,34.4204082 63.5363265,41.6240816 59.4789796,44.4122449 C57.8240816,45.5510204 56.0571429,46.6108163 54.3471429,47.6357143 C50.1520408,50.1520408 46.1883673,52.5306122 43.8006122,55.9359184 C42.092449,58.375102 40.59,61.5397959 39.5173469,64.1002041 C39.3226531,64.564898 39.4989796,65.1159184 39.9471429,65.3565306 C47.014898,69.1806122 57.8461224,65.5457143 65.2591837,56.4667347 C72.6997959,47.3565306 74.0736735,35.9742857 68.85,29.824898" id="Path" fill="#FEB3B8" fill-rule="nonzero" mask="url(#mask-14)"></path>
                </g>
                <g id="Clipped">
                    <mask id="mask-16" fill="white">
                        <use xlink:href="#path-15"></use>
                    </mask>
                    <g id="SVGID_33_"></g>
                    <path d="M41.6553061,54.2791837 C44.307551,50.4936735 48.6587755,47.8855102 52.8667347,45.3636735 C54.5436735,44.3534694 56.2812245,43.3120408 57.8791837,42.2136735 C61.712449,39.5779592 64.495102,31.8857143 65.7091837,27.9569388 C65.8487755,27.5087755 65.6706122,27.0055102 65.2555102,26.7795918 C58.1877551,22.915102 47.3234694,26.5463265 39.8938776,35.6436735 C32.4073469,44.8126531 31.0610204,56.2812245 36.4077551,62.3993878 C36.692449,62.7281633 37.2287755,62.6326531 37.4014286,62.2340816 C38.4961224,59.6938776 39.9618367,56.6926531 41.6553061,54.2791837" id="Path" fill="#F0EBE3" fill-rule="nonzero" mask="url(#mask-16)"></path>
                </g>
            </g>
        </g>
    </g>
</svg>