<?xml version="1.0" encoding="UTF-8"?>
<svg width="100px" height="100px" viewBox="0 0 100 100" version="1.1" xmlns="http://www.w3.org/2000/svg" xmlns:xlink="http://www.w3.org/1999/xlink">
    <!-- Generator: Sketch 63.1 (92452) - https://sketch.com -->
    <title>Group 2</title>
    <desc>Created with Sketch.</desc>
    <g id="Symbols" stroke="none" stroke-width="1" fill="none" fill-rule="evenodd">
        <g id="DESKTOP_MODULES" transform="translate(-214.000000, -4477.000000)" fill-rule="nonzero">
            <g id="FOREX-ICON" transform="translate(170.000000, 4477.000000)">
                <g id="Group-2" transform="translate(44.500000, 0.000000)">
                    <g id="BACKGROUND">
                        <ellipse id="Oval" fill="#FC404D" cx="48.9795918" cy="49.4743352" rx="48.9795918" ry="49.4743352"></ellipse>
                        <path d="M79.1428571,10.5132962 L61.5102041,33.312719 L46.4489796,52.7932385 L18.8367347,88.4559885 C32.5808869,99.8261567 51.3427044,102.787531 67.8657157,96.1947468 C84.388727,89.6019625 96.0821855,74.4887434 98.4234352,56.7003998 C100.764685,38.9120561 93.3866264,21.237734 79.1428571,10.5132962 Z" id="Path" fill="#D11C36"></path>
                    </g>
                    <g id="CONTENT" transform="translate(26.000000, 17.171717)">
                        <path d="M24.6653846,4.10162228 C20.9995663,0.40911361 15.4834074,-0.697393678 10.6902714,1.2983012 C5.89713532,3.29399608 2.77148891,7.9986501 2.77148891,13.2174778 C2.77148891,18.4363055 5.89713532,23.1409595 10.6902714,25.1366544 C15.4834074,27.1323493 20.9995663,26.025842 24.6653846,22.3333333 C27.0766146,19.9199987 28.4322792,16.639301 28.4322792,13.2174778 C28.4322792,9.79565461 27.0766146,6.51495693 24.6653846,4.10162228 L24.6653846,4.10162228 Z" id="Path" fill="#F0EBE3"></path>
                        <path d="M15.5942308,2.3379247 C19.5549398,2.16455377 23.2908121,4.19161194 25.3225924,7.61646572 C27.3543727,11.0413195 27.3543727,15.3116037 25.3225924,18.7364574 C23.2908121,22.1613112 19.5549398,24.1883694 15.5942308,24.0149985 C9.64665165,24.0036873 4.83115385,19.1498295 4.83115385,13.1662075 C4.84237131,7.19059287 9.65460015,2.34921012 15.5942308,2.3379247 M15.5942308,0.287097208 C10.4063934,0.287097208 5.72977049,3.4322309 3.74638075,8.25500009 C1.76299101,13.0777693 2.86372168,18.6277235 6.53499387,22.3153653 C10.2062661,26.0030071 15.7245439,27.1015745 20.5151095,25.0984979 C25.305675,23.0954212 28.4244016,18.3854678 28.4161702,13.1662075 C28.4161702,9.74690321 27.0646306,6.46794349 24.6594659,4.05205446 C22.2543011,1.63616543 18.9929404,0.281668808 15.5942308,0.287097208 L15.5942308,0.287097208 Z" id="Shape" fill="#FEB3B8"></path>
                        <path d="M14.4526923,16.8986838 L11.4765385,16.8986838 L11.4765385,15.1144781 L14.4526923,15.1144781 L14.4526923,14.1300888 L11.4765385,14.1300888 L11.4765385,12.3048669 L13.515,12.3048669 L11.0076923,7.21885522 L13.4946154,7.21885522 L15.0846154,10.6642179 C15.2604285,11.029057 15.4102919,11.4059853 15.5330769,11.7921641 C15.6467157,11.4056631 15.7898329,11.0285614 15.9611538,10.6642179 L17.5919231,7.21885522 L20.0584615,7.21885522 L17.5919231,12.3048669 L19.7323077,12.3048669 L19.7323077,14.0890725 L16.7153846,14.0890725 L16.7153846,15.0734619 L19.7323077,15.0734619 L19.7323077,16.8576676 L16.7153846,16.8576676 L16.7153846,19.0520355 L14.4526923,19.0520355 L14.4526923,16.8986838 Z" id="Path" fill="#FC404D"></path>
                        <path d="M47.1903846,14.6222834 C42.8676125,10.2621549 36.3588744,8.95309479 30.7021433,11.3061109 C25.0454122,13.6591271 21.356032,19.2102727 21.356032,25.3685338 C21.356032,31.526795 25.0454122,37.0779406 30.7021433,39.4309567 C36.3588744,41.7839729 42.8676125,40.4749128 47.1903846,36.1147842 C50.0285503,33.2675052 51.6236922,29.4009127 51.6236922,25.3685338 C51.6236922,21.336155 50.0285503,17.4695624 47.1903846,14.6222834 L47.1903846,14.6222834 Z" id="Path" fill="#FEB3B8"></path>
                        <path d="M33.2880769,28.5883073 L31.9426923,30.1469238 C33.056104,31.1857787 34.5022346,31.7895588 36.0196154,31.849097 L36.0196154,34.4536272 L37.4669231,34.4536272 L37.4669231,31.7875727 C39.5402255,31.731815 41.1887548,30.018622 41.1769864,27.9320478 C41.1769864,25.7786961 39.8315385,24.8148148 37.4669231,24.0355066 L37.4669231,20.9182736 C38.2148664,21.00118 38.9229058,21.3003582 39.5053846,21.7796143 L40.8711538,20.3440465 C39.8857066,19.5158942 38.6661565,19.0208137 37.3853846,18.9289868 L37.3853846,16.4064891 L35.9380769,16.4064891 L35.9380769,19.0520355 C35.0081686,19.0410939 34.112033,19.4022757 33.4468421,20.0561121 C32.7816512,20.7099486 32.4019039,21.602871 32.3911538,22.5384144 C32.3911538,24.2200796 33.39,25.3275176 35.9380769,26.1683502 L35.9380769,29.8803183 C34.930667,29.7784858 33.9917422,29.3207117 33.2880769,28.5883073 Z M37.365,26.5374962 C38.0522748,26.7671085 38.5026736,27.4300172 38.4657692,28.157637 C38.5309586,28.8614081 38.0548048,29.500126 37.365,29.634221 L37.365,26.5374962 Z M34.8576923,22.0052036 C34.8553647,21.3976163 35.316087,20.8895342 35.9176923,20.8362412 L35.9176923,23.379247 C35.0207692,23.0511172 34.8780769,22.7024793 34.8780769,22.1077441 L34.8576923,22.0052036 Z" id="Shape" fill="#282424"></path>
                        <path d="M36.5088462,12.3048669 C43.7252961,12.3048669 49.5753846,18.190397 49.5753846,25.4505663 C49.5753846,32.7107356 43.7252961,38.5962657 36.5088462,38.5962657 C29.2923962,38.5962657 23.4423077,32.7107356 23.4423077,25.4505663 C23.4535323,18.1950797 29.2970507,12.3161595 36.5088462,12.3048669 M36.5088462,10.2540557 C28.166585,10.2540557 21.4038462,17.0577652 21.4038462,25.4505663 C21.4038462,33.8433673 28.166585,40.6470768 36.5088462,40.6470768 C44.8511073,40.6470768 51.6138462,33.8433673 51.6138462,25.4505663 C51.6138462,17.0577652 44.8511073,10.2540557 36.5088462,10.2540557 L36.5088462,10.2540557 Z" id="Shape" fill="#EFEAE2"></path>
                        <path d="M18.0811538,29.8392903 C10.8486085,29.8310052 4.32363986,34.207795 1.55014835,40.9278973 C-1.22334316,47.6479996 0.301127689,55.387294 5.41239463,60.5353966 C10.5236616,65.6834993 18.2146071,67.2260346 24.8974021,64.4434092 C31.5801971,61.6607839 35.9380769,55.1012828 35.9380769,47.8249158 C35.9380769,37.8997391 27.9465566,29.8506193 18.0811538,29.8392903 L18.0811538,29.8392903 Z" id="Path" fill="#F9F7F4"></path>
                        <path d="M18.1015385,31.8901133 C26.8325162,31.90144 33.9033536,39.0273559 33.8996023,47.8112349 C33.8958479,56.595114 26.8189241,63.7149119 18.08794,63.718689 C9.35695576,63.7224631 2.27395084,56.6087884 2.26269231,47.8249158 C2.27392276,39.0290516 9.35864131,31.9014117 18.1015385,31.8901133 M18.1015385,29.8392903 C10.8689931,29.8310052 4.34402448,34.207795 1.57053297,40.9278973 C-1.20295854,47.6479996 0.321512305,55.387294 5.43277924,60.5353966 C10.5440462,65.6834993 18.2349918,67.2260346 24.9177868,64.4434092 C31.6005817,61.6607839 35.9584615,55.1012828 35.9584615,47.8249158 C35.9584615,37.8997391 27.9669412,29.8506193 18.1015385,29.8392903 L18.1015385,29.8392903 Z" id="Shape" fill="#FEB3B8"></path>
                        <path d="M22.4230769,40.1548822 L21.7707692,43.1900826 C21.028483,42.5259222 20.0502463,42.1929347 19.0596154,42.2672176 C17.9554594,42.2325076 16.8963441,42.7085962 16.1853846,43.5592287 C15.741704,44.0762774 15.4334013,44.6966184 15.2884615,45.3639425 L21.3019231,45.3639425 L20.9553846,47.0661157 L15.1457692,47.0661157 C15.133846,47.2847044 15.133846,47.5037865 15.1457692,47.7223753 C15.1457692,47.9684726 15.1457692,48.2350781 15.1457692,48.5221916 L20.7107692,48.5221916 L20.3642308,50.2243649 L15.37,50.2243649 C15.5038253,50.8998805 15.7975013,51.5329988 16.2261538,52.0700949 C16.9184625,52.9243813 17.9643284,53.4088485 19.0596154,53.382614 C20.3147991,53.4432268 21.5368117,52.9663624 22.4230769,52.0700949 L22.4230769,55.3719008 C21.3966334,55.8775656 20.2631588,56.1239357 19.1207692,56.0896847 C17.1342428,56.1606722 15.2150519,55.3599067 13.8615385,53.8953168 C12.9038121,52.8560228 12.2664947,51.5594175 12.0269231,50.1628405 L10.3961538,50.1628405 L10.7426923,48.4606673 L11.8230769,48.4606673 C11.8230769,48.2760943 11.8230769,48.0915213 11.8230769,47.9069483 C11.8230769,47.7223753 11.8230769,47.2711968 11.8230769,47.0045914 L10.3961538,47.0045914 L10.7426923,45.3024181 L12.0473077,45.3024181 C12.3085887,43.9312641 12.9437995,42.6602466 13.8819231,41.6314662 C15.2868078,40.1403047 17.2637346,39.33278 19.3042308,39.4165901 C20.3861219,39.4208994 21.4527858,39.6733996 22.4230769,40.1548822 L22.4230769,40.1548822 Z" id="Path" fill="#FC404D"></path>
                    </g>
                </g>
            </g>
        </g>
    </g>
</svg>