<?xml version="1.0" encoding="UTF-8"?>
<svg width="21px" height="26px" viewBox="0 0 21 26" version="1.1" xmlns="http://www.w3.org/2000/svg" xmlns:xlink="http://www.w3.org/1999/xlink">
    <!-- Generator: Sketch 63.1 (92452) - https://sketch.com -->
    <title>Icons-26</title>
    <desc>Created with Sketch.</desc>
    <g id="Page-1" stroke="none" stroke-width="1" fill="none" fill-rule="evenodd">
        <g id="Icons-26" transform="translate(-14.000000, -11.000000)" fill-rule="nonzero">
            <g id="Group" transform="translate(13.000000, 11.000000)">
                <path d="M3.342,24.538 C2.914,24.538 2.512,24.375 2.208,24.078 C1.665,23.552 1.567,22.702 1.978,22.06 L6.613,14.825 L4.406,12.659 C4.061,12.318 3.888,11.848 3.928,11.367 C3.974,10.875 4.234,10.443 4.639,10.173 L18.024,1.232 C18.289,1.055 18.597,0.962 18.915,0.962 C19.339,0.962 19.739,1.126 20.044,1.423 C20.585,1.952 20.683,2.8 20.274,3.439 L15.638,10.676 L17.846,12.841 C18.193,13.184 18.366,13.656 18.322,14.139 C18.272,14.628 18.014,15.058 17.615,15.327 L4.226,24.268 C3.966,24.441 3.664,24.535 3.351,24.539 L3.347,24.539 L3.342,24.539 L3.342,24.538 Z" id="Path" fill="#FEB3B8"></path>
                <path d="M18.914,1.712 C19.133,1.712 19.352,1.796 19.518,1.959 C19.808,2.242 19.861,2.692 19.642,3.034 L14.678,10.784 L17.321,13.376 C17.504,13.557 17.598,13.813 17.575,14.07 C17.549,14.328 17.411,14.559 17.196,14.704 L3.809,23.643 C3.667,23.738 3.504,23.786 3.342,23.788 C3.12,23.788 2.9,23.705 2.733,23.542 C2.441,23.259 2.39,22.809 2.61,22.465 L7.573,14.717 L4.931,12.124 C4.746,11.941 4.654,11.688 4.675,11.43 C4.699,11.173 4.838,10.942 5.055,10.797 L18.441,1.856 C18.585,1.759 18.75,1.712 18.914,1.712 M18.914,0.212 C18.447,0.212 17.996,0.349 17.607,0.608 L4.222,9.55 C3.629,9.946 3.249,10.579 3.182,11.288 C3.122,12.008 3.375,12.695 3.876,13.19 L5.652,14.933 L1.346,21.656 C0.743,22.597 0.888,23.843 1.688,24.619 C2.128,25.049 2.717,25.288 3.341,25.288 C3.818,25.282 4.261,25.144 4.642,24.891 L18.028,15.952 C18.617,15.556 18.994,14.927 19.066,14.223 C19.131,13.5 18.879,12.809 18.375,12.31 L16.599,10.567 L20.905,3.843 C21.505,2.906 21.362,1.663 20.566,0.886 C20.123,0.452 19.535,0.212 18.914,0.212 L18.914,0.212 Z" id="Shape" fill="#F0EBE3"></path>
            </g>
        </g>
    </g>
</svg>