<?xml version="1.0" encoding="UTF-8"?>
<svg width="90px" height="90px" viewBox="0 0 90 90" version="1.1" xmlns="http://www.w3.org/2000/svg" xmlns:xlink="http://www.w3.org/1999/xlink">
    <!-- Generator: Sketch 63.1 (92452) - https://sketch.com -->
    <title>Commentary</title>
    <desc>Created with Sketch.</desc>
    <defs>
        <rect id="path-1" x="0" y="0" width="89.998125" height="90"></rect>
        <rect id="path-3" x="0" y="0" width="89.998125" height="90"></rect>
    </defs>
    <g id="Page-1" stroke="none" stroke-width="1" fill="none" fill-rule="evenodd">
        <g id="Commentary">
            <g id="Group">
                <g id="Clipped">
                    <mask id="mask-2" fill="white">
                        <use xlink:href="#path-1"></use>
                    </mask>
                    <g id="SVGID_117_"></g>
                    <path d="M89.998125,45 C89.998125,69.853125 69.853125,90 45,90 C20.146875,90 0,69.853125 0,45 C0,20.146875 20.146875,0 45,0 C69.853125,0 89.998125,20.146875 89.998125,45" id="Path" fill="#FC404D" fill-rule="nonzero" mask="url(#mask-2)"></path>
                </g>
                <g id="Clipped">
                    <mask id="mask-4" fill="white">
                        <use xlink:href="#path-3"></use>
                    </mask>
                    <g id="SVGID_117_"></g>
                    <path d="M72.72,9.56625 L56.5125,30.30375 L42.6675,48.015 L17.31,80.458125 C24.946875,86.431875 34.55625,90 45,90 C69.853125,90 89.998125,69.853125 89.998125,45 C89.998125,30.6075 83.235,17.805 72.72,9.56625" id="Path" fill="#D11C36" fill-rule="nonzero" mask="url(#mask-4)"></path>
                </g>
            </g>
            <g id="Group" transform="translate(18.750000, 20.625000)" fill-rule="nonzero">
                <path d="M48.076875,41.784375 C50.25,39.061875 51.436875,35.685 51.436875,32.206875 C51.436875,23.679375 44.506875,16.749375 35.979375,16.749375 C35.955,16.749375 35.94,16.749375 35.92875,16.74 C27.429375,16.749375 20.55,23.655 20.5649755,32.15625 C20.5649755,40.681875 27.496875,47.615625 36.0225,47.615625 C37.775625,47.623125 39.51,47.32125 41.161875,46.719375 L49.40625,48.16875 C49.5675,48.193125 49.734375,48.17625 49.88625,48.10875 C50.31,47.930625 50.5125,47.435625 50.325,47.00625 L48.076875,41.784375 Z" id="Path" fill="#FEB3B8"></path>
                <g>
                    <path d="M21.170625,2.78621048 C11.18625,2.78621048 3.054375,10.906875 3.054375,20.900625 C3.054375,23.14875 3.47625,25.378125 4.295625,27.4725 C5.02875,29.34375 6.0675,31.070625 7.37625,32.589375 C7.651875,32.911875 7.719375,33.365625 7.554375,33.75375 L5.139375,39.37125 L14.266875,37.77375 C14.465625,37.74 14.668125,37.75125 14.85375,37.83 C16.86,38.581875 18.975,38.97 21.114375,38.97 C31.095,38.97 39.226875,30.8475 39.226875,20.8425 C39.226875,20.821875 39.226875,20.799375 39.226875,20.77875 C39.2175,10.820625 31.12875,2.765625 21.170625,2.78621048 Z" id="Path" fill="#F0EBE3"></path>
                    <path d="M21.225,0.571875 C21.21,0.583125 21.189375,0.583125 21.1575,0.583125 C9.945,0.583125 0.826875,9.699375 0.826875,20.91375 C0.826875,25.48875 2.38875,29.9325 5.24625,33.511875 L2.289375,40.38 C2.04375,40.944375 2.311875,41.596875 2.866875,41.829375 C3.065625,41.9175 3.286875,41.941875 3.49875,41.908125 L14.34375,40.00125 C16.515,40.790625 18.79875,41.188125 21.10125,41.17875 C32.31375,41.17875 41.4319102,32.05875 41.4319102,20.844375 C41.4525,9.6675 32.40375,0.583125 21.225,0.571875 Z M39.226875,20.844375 C39.226875,30.849375 31.095,38.971875 21.114375,38.971875 C18.975,38.971875 16.86,38.58375 14.85375,37.831875 C14.66625,37.753125 14.465625,37.741875 14.266875,37.775625 L5.139375,39.373125 L7.554375,33.755625 C7.719375,33.3675 7.65375,32.91375 7.37625,32.59125 C6.069375,31.0725 5.02875,29.3475 4.295625,27.474375 C3.474375,25.38 3.054375,23.150625 3.054375,20.9025 C3.054375,10.90875 11.18625,2.78807798 21.170625,2.78807798 C31.12875,2.765625 39.2175,10.820625 39.226875,20.7825 C39.226875,20.80125 39.226875,20.82375 39.226875,20.844375 Z" id="Shape" fill="#2F2C2B"></path>
                </g>
                <path d="M23.38125,14.83875 L14.263125,14.83875 C13.65375,14.83875 13.155,15.3375 13.155,15.94875 C13.155,16.55625 13.65375,17.055 14.263125,17.055 L23.38125,17.055 C23.9925,17.055 24.489375,16.55625 24.489375,15.94875 C24.489375,15.3375 23.9925,14.83875 23.38125,14.83875 Z" id="Path" fill="#2F2C2B"></path>
                <path d="M27.999375,20.139375 L14.263125,20.139375 C13.65375,20.139375 13.155,20.63625 13.155,21.245625 C13.155,21.856875 13.65375,22.35375 14.263125,22.35375 L27.999375,22.35375 C28.60875,22.35375 29.1075,21.856875 29.1075,21.245625 C29.105625,20.63625 28.60875,20.139375 27.999375,20.139375 Z" id="Path" fill="#2F2C2B"></path>
                <path d="M27.999375,25.438125 L14.263125,25.438125 C13.65375,25.438125 13.155,25.93875 13.155,26.548125 C13.155,27.155625 13.65375,27.654375 14.263125,27.654375 L27.999375,27.654375 C28.60875,27.654375 29.1075,27.155625 29.1075,26.548125 C29.105625,25.93875 28.60875,25.438125 27.999375,25.438125 Z" id="Path" fill="#2F2C2B"></path>
            </g>
        </g>
    </g>
</svg>